%
M48
M72
T01C0.01500
T02C0.02362
T03C0.03937
T04C0.04000
T05C0.04331
T06C0.05512
%
T01
X136143Y115473
X187324Y84961
X172560Y205040
X180343Y219607
X182402Y229646
X196182Y239489
X204056Y240473
X184371Y254253
X180434Y259174
X166532Y252922
X164686Y244410
X142371Y216934
X198150Y264095
X199135Y285749
X193229Y292639
X208977Y298544
X218820Y285749
X254253Y281812
X285749Y281812
X322166Y240473
X304804Y228816
X354646Y236536
X375316Y241457
X389095Y241457
X411733Y232599
X358583Y286733
X339883Y357599
X372363Y392048
X375316Y396969
X336930Y432402
X328072Y434371
X326103Y399922
X212914Y378269
X184371Y421576
X159765Y284765
X359568Y134174
X377284Y119410
X334961Y82993
T02
X415076Y192005
X275052Y259725
X263213Y237946
X251182Y237938
X238950Y250761
X226997Y253556
X227068Y236017
X214611Y235733
X214328Y225206
X213894Y209812
X192465Y228666
X176080Y249202
X166772Y260450
X161757Y266032
X149528Y277607
X144017Y263619
X131190Y262721
X130446Y269233
X123387Y269087
X116725Y269182
X109867Y269087
X103351Y269135
X96784Y269438
X95993Y246517
X95910Y239891
X95993Y232930
X102001Y229741
X108875Y229536
X115587Y229410
X122131Y229410
X128883Y229245
X132898Y235127
X132564Y241603
X132772Y248024
X127284Y252028
X144363Y249749
X168024Y221217
X182143Y268737
X178662Y288072
X182174Y299654
X164422Y299044
X145686Y318717
T03
X257206Y199706
X267206Y199706
T04
X262954Y82442
X272954Y82442
X282954Y82442
X252954Y82442
X242954Y82442
X232954Y82442
X243308Y354922
X253308Y354922
X263308Y354922
X263308Y364922
X253308Y364922
X243308Y364922
X244017Y441221
X254017Y441221
X264017Y441221
X274017Y441221
X284017Y441221
X234017Y441221
T05
X443583Y302599
X443583Y292599
X443583Y282599
X443583Y272599
X443583Y262599
X443583Y252599
X443583Y242599
X443583Y232599
X443583Y222599
X443583Y212599
X262245Y169765
X262245Y159765
T06
X286143Y209765
X228269Y209765
X228269Y304646
X286143Y304646
M30
