G75*
%MOIN*%
%OFA0B0*%
%FSLAX25Y25*%
%IPPOS*%
%LPD*%
%AMOC8*
5,1,8,0,0,1.08239X$1,22.5*
%
%ADD10R,0.04000X0.10000*%
%ADD11R,0.01378X0.03150*%
%ADD12C,0.05937*%
%ADD13C,0.01959*%
%ADD14C,0.01956*%
%ADD15C,0.01575*%
%ADD16R,0.05512X0.01102*%
%ADD17R,0.01102X0.05512*%
%ADD18R,0.07400X0.07400*%
%ADD19OC8,0.07400*%
%ADD20R,0.06496X0.06496*%
%ADD21C,0.06496*%
%ADD22C,0.07400*%
%ADD23R,0.03150X0.03150*%
%ADD24C,0.01887*%
%ADD25R,0.07874X0.07874*%
%ADD26R,0.02850X0.02201*%
%ADD27R,0.02850X0.09843*%
%ADD28C,0.01811*%
%ADD29R,0.04724X0.02165*%
%ADD30R,0.10000X0.10000*%
%ADD31R,0.06150X0.01102*%
%ADD32R,0.01102X0.06150*%
%ADD33R,0.07480X0.04331*%
%ADD34C,0.01200*%
%ADD35C,0.00600*%
%ADD36C,0.01800*%
%ADD37C,0.04500*%
%ADD38C,0.05362*%
%ADD39C,0.01600*%
D10*
X0068300Y0257206D03*
X0094300Y0257206D03*
D11*
X0110513Y0260355D03*
X0113072Y0260355D03*
X0115631Y0260355D03*
X0115631Y0254056D03*
X0113072Y0254056D03*
X0110513Y0254056D03*
D12*
X0257206Y0202674D02*
X0257206Y0196737D01*
X0267206Y0196737D02*
X0267206Y0202674D01*
D13*
X0367155Y0108981D02*
X0372368Y0114194D01*
X0367155Y0108981D02*
X0361776Y0114360D01*
X0366989Y0119573D01*
X0372368Y0114194D01*
X0369113Y0110939D02*
X0365197Y0110939D01*
X0363239Y0112897D02*
X0371071Y0112897D01*
X0371707Y0114855D02*
X0362271Y0114855D01*
X0364229Y0116813D02*
X0369749Y0116813D01*
X0367791Y0118771D02*
X0366187Y0118771D01*
X0349618Y0102202D02*
X0344405Y0096989D01*
X0349618Y0102202D02*
X0354997Y0096823D01*
X0349784Y0091610D01*
X0344405Y0096989D01*
X0347826Y0093568D02*
X0351742Y0093568D01*
X0353700Y0095526D02*
X0345868Y0095526D01*
X0344900Y0097484D02*
X0354336Y0097484D01*
X0352378Y0099442D02*
X0346858Y0099442D01*
X0348816Y0101400D02*
X0350420Y0101400D01*
X0169037Y0088224D02*
X0163824Y0093437D01*
X0169203Y0098816D01*
X0174416Y0093603D01*
X0169037Y0088224D01*
X0170995Y0090182D02*
X0167079Y0090182D01*
X0165121Y0092140D02*
X0172953Y0092140D01*
X0173921Y0094098D02*
X0164485Y0094098D01*
X0166443Y0096056D02*
X0171963Y0096056D01*
X0170005Y0098014D02*
X0168401Y0098014D01*
X0157044Y0110974D02*
X0151831Y0116187D01*
X0157044Y0110974D02*
X0151665Y0105595D01*
X0146452Y0110808D01*
X0151831Y0116187D01*
X0153623Y0107553D02*
X0149707Y0107553D01*
X0147749Y0109511D02*
X0155581Y0109511D01*
X0156549Y0111469D02*
X0147113Y0111469D01*
X0149071Y0113427D02*
X0154591Y0113427D01*
X0152633Y0115385D02*
X0151029Y0115385D01*
X0365848Y0396806D02*
X0360635Y0402019D01*
X0366014Y0407398D01*
X0371227Y0402185D01*
X0365848Y0396806D01*
X0367806Y0398764D02*
X0363890Y0398764D01*
X0361932Y0400722D02*
X0369764Y0400722D01*
X0370732Y0402680D02*
X0361296Y0402680D01*
X0363254Y0404638D02*
X0368774Y0404638D01*
X0366816Y0406596D02*
X0365212Y0406596D01*
X0353855Y0419557D02*
X0348642Y0424770D01*
X0353855Y0419557D02*
X0348476Y0414178D01*
X0343263Y0419391D01*
X0348642Y0424770D01*
X0350434Y0416136D02*
X0346518Y0416136D01*
X0344560Y0418094D02*
X0352392Y0418094D01*
X0353360Y0420052D02*
X0343924Y0420052D01*
X0345882Y0422010D02*
X0351402Y0422010D01*
X0349444Y0423968D02*
X0347840Y0423968D01*
X0176699Y0428643D02*
X0171486Y0423430D01*
X0166107Y0428809D01*
X0171320Y0434022D01*
X0176699Y0428643D01*
X0173444Y0425388D02*
X0169528Y0425388D01*
X0167570Y0427346D02*
X0175402Y0427346D01*
X0176038Y0429304D02*
X0166602Y0429304D01*
X0168560Y0431262D02*
X0174080Y0431262D01*
X0172122Y0433220D02*
X0170518Y0433220D01*
X0153949Y0416650D02*
X0148736Y0411437D01*
X0153949Y0416650D02*
X0159328Y0411271D01*
X0154115Y0406058D01*
X0148736Y0411437D01*
X0152157Y0408016D02*
X0156073Y0408016D01*
X0158031Y0409974D02*
X0150199Y0409974D01*
X0149231Y0411932D02*
X0158667Y0411932D01*
X0156709Y0413890D02*
X0151189Y0413890D01*
X0153147Y0415848D02*
X0154751Y0415848D01*
D14*
X0183287Y0406447D02*
X0184910Y0408070D01*
X0187479Y0405501D01*
X0185856Y0403878D01*
X0183287Y0406447D01*
X0183901Y0405833D02*
X0187147Y0405833D01*
X0185192Y0407788D02*
X0184628Y0407788D01*
X0190839Y0408861D02*
X0192462Y0410484D01*
X0190839Y0408861D02*
X0188270Y0411430D01*
X0189893Y0413053D01*
X0192462Y0410484D01*
X0192130Y0410816D02*
X0188884Y0410816D01*
X0189611Y0412771D02*
X0190175Y0412771D01*
X0188196Y0321680D02*
X0188196Y0319384D01*
X0184562Y0319384D01*
X0184562Y0321680D01*
X0188196Y0321680D01*
X0188196Y0321339D02*
X0184562Y0321339D01*
X0184562Y0314633D02*
X0184562Y0312337D01*
X0184562Y0314633D02*
X0188196Y0314633D01*
X0188196Y0312337D01*
X0184562Y0312337D01*
X0184562Y0314292D02*
X0188196Y0314292D01*
X0167948Y0314042D02*
X0167948Y0311746D01*
X0167948Y0314042D02*
X0171582Y0314042D01*
X0171582Y0311746D01*
X0167948Y0311746D01*
X0167948Y0313701D02*
X0171582Y0313701D01*
X0171582Y0318794D02*
X0171582Y0321090D01*
X0171582Y0318794D02*
X0167948Y0318794D01*
X0167948Y0321090D01*
X0171582Y0321090D01*
X0171582Y0320749D02*
X0167948Y0320749D01*
X0157133Y0320184D02*
X0157133Y0317888D01*
X0153499Y0317888D01*
X0153499Y0320184D01*
X0157133Y0320184D01*
X0157133Y0319843D02*
X0153499Y0319843D01*
X0153499Y0313137D02*
X0153499Y0310841D01*
X0153499Y0313137D02*
X0157133Y0313137D01*
X0157133Y0310841D01*
X0153499Y0310841D01*
X0153499Y0312796D02*
X0157133Y0312796D01*
X0124141Y0245184D02*
X0124141Y0242888D01*
X0120507Y0242888D01*
X0120507Y0245184D01*
X0124141Y0245184D01*
X0124141Y0244843D02*
X0120507Y0244843D01*
X0120507Y0238137D02*
X0120507Y0235841D01*
X0120507Y0238137D02*
X0124141Y0238137D01*
X0124141Y0235841D01*
X0120507Y0235841D01*
X0120507Y0237796D02*
X0124141Y0237796D01*
X0101766Y0238176D02*
X0101766Y0235880D01*
X0101766Y0238176D02*
X0105400Y0238176D01*
X0105400Y0235880D01*
X0101766Y0235880D01*
X0101766Y0237835D02*
X0105400Y0237835D01*
X0105400Y0242928D02*
X0105400Y0245224D01*
X0105400Y0242928D02*
X0101766Y0242928D01*
X0101766Y0245224D01*
X0105400Y0245224D01*
X0105400Y0244883D02*
X0101766Y0244883D01*
X0147534Y0218432D02*
X0149830Y0218432D01*
X0149830Y0214798D01*
X0147534Y0214798D01*
X0147534Y0218432D01*
X0147534Y0216753D02*
X0149830Y0216753D01*
X0154581Y0214798D02*
X0156877Y0214798D01*
X0154581Y0214798D02*
X0154581Y0218432D01*
X0156877Y0218432D01*
X0156877Y0214798D01*
X0156877Y0216753D02*
X0154581Y0216753D01*
X0225014Y0277015D02*
X0227310Y0277015D01*
X0227310Y0273381D01*
X0225014Y0273381D01*
X0225014Y0277015D01*
X0225014Y0275336D02*
X0227310Y0275336D01*
X0232061Y0273381D02*
X0234357Y0273381D01*
X0232061Y0273381D02*
X0232061Y0277015D01*
X0234357Y0277015D01*
X0234357Y0273381D01*
X0234357Y0275336D02*
X0232061Y0275336D01*
X0246294Y0281392D02*
X0246294Y0283688D01*
X0249928Y0283688D01*
X0249928Y0281392D01*
X0246294Y0281392D01*
X0246294Y0283347D02*
X0249928Y0283347D01*
X0249928Y0288439D02*
X0249928Y0290735D01*
X0249928Y0288439D02*
X0246294Y0288439D01*
X0246294Y0290735D01*
X0249928Y0290735D01*
X0249928Y0290394D02*
X0246294Y0290394D01*
X0262290Y0290539D02*
X0262290Y0288243D01*
X0258656Y0288243D01*
X0258656Y0290539D01*
X0262290Y0290539D01*
X0262290Y0290198D02*
X0258656Y0290198D01*
X0258656Y0283491D02*
X0258656Y0281195D01*
X0258656Y0283491D02*
X0262290Y0283491D01*
X0262290Y0281195D01*
X0258656Y0281195D01*
X0258656Y0283150D02*
X0262290Y0283150D01*
X0284621Y0290479D02*
X0286917Y0290479D01*
X0286917Y0286845D01*
X0284621Y0286845D01*
X0284621Y0290479D01*
X0284621Y0288800D02*
X0286917Y0288800D01*
X0291668Y0286845D02*
X0293964Y0286845D01*
X0291668Y0286845D02*
X0291668Y0290479D01*
X0293964Y0290479D01*
X0293964Y0286845D01*
X0293964Y0288800D02*
X0291668Y0288800D01*
X0291550Y0272633D02*
X0293846Y0272633D01*
X0291550Y0272633D02*
X0291550Y0276267D01*
X0293846Y0276267D01*
X0293846Y0272633D01*
X0293846Y0274588D02*
X0291550Y0274588D01*
X0286798Y0276267D02*
X0284502Y0276267D01*
X0286798Y0276267D02*
X0286798Y0272633D01*
X0284502Y0272633D01*
X0284502Y0276267D01*
X0284502Y0274588D02*
X0286798Y0274588D01*
X0296589Y0339023D02*
X0298885Y0339023D01*
X0298885Y0335389D01*
X0296589Y0335389D01*
X0296589Y0339023D01*
X0296589Y0337344D02*
X0298885Y0337344D01*
X0303636Y0335389D02*
X0305932Y0335389D01*
X0303636Y0335389D02*
X0303636Y0339023D01*
X0305932Y0339023D01*
X0305932Y0335389D01*
X0305932Y0337344D02*
X0303636Y0337344D01*
X0303794Y0350231D02*
X0306090Y0350231D01*
X0303794Y0350231D02*
X0303794Y0353865D01*
X0306090Y0353865D01*
X0306090Y0350231D01*
X0306090Y0352186D02*
X0303794Y0352186D01*
X0299042Y0353865D02*
X0296746Y0353865D01*
X0299042Y0353865D02*
X0299042Y0350231D01*
X0296746Y0350231D01*
X0296746Y0353865D01*
X0296746Y0352186D02*
X0299042Y0352186D01*
X0334557Y0370573D02*
X0336180Y0368950D01*
X0333611Y0366381D01*
X0331988Y0368004D01*
X0334557Y0370573D01*
X0335566Y0368336D02*
X0332320Y0368336D01*
X0334275Y0370291D02*
X0334839Y0370291D01*
X0336971Y0363020D02*
X0338594Y0361397D01*
X0336971Y0363020D02*
X0339540Y0365589D01*
X0341163Y0363966D01*
X0338594Y0361397D01*
X0337303Y0363352D02*
X0340549Y0363352D01*
X0339822Y0365307D02*
X0339258Y0365307D01*
X0281924Y0400605D02*
X0281924Y0402901D01*
X0285558Y0402901D01*
X0285558Y0400605D01*
X0281924Y0400605D01*
X0281924Y0402560D02*
X0285558Y0402560D01*
X0285558Y0407652D02*
X0285558Y0409948D01*
X0285558Y0407652D02*
X0281924Y0407652D01*
X0281924Y0409948D01*
X0285558Y0409948D01*
X0285558Y0409607D02*
X0281924Y0409607D01*
X0305558Y0198255D02*
X0305558Y0195959D01*
X0301924Y0195959D01*
X0301924Y0198255D01*
X0305558Y0198255D01*
X0305558Y0197914D02*
X0301924Y0197914D01*
X0301924Y0191208D02*
X0301924Y0188912D01*
X0301924Y0191208D02*
X0305558Y0191208D01*
X0305558Y0188912D01*
X0301924Y0188912D01*
X0301924Y0190867D02*
X0305558Y0190867D01*
X0344207Y0188609D02*
X0344207Y0186313D01*
X0344207Y0188609D02*
X0347841Y0188609D01*
X0347841Y0186313D01*
X0344207Y0186313D01*
X0344207Y0188268D02*
X0347841Y0188268D01*
X0347841Y0193361D02*
X0347841Y0195657D01*
X0347841Y0193361D02*
X0344207Y0193361D01*
X0344207Y0195657D01*
X0347841Y0195657D01*
X0347841Y0195316D02*
X0344207Y0195316D01*
X0329392Y0120130D02*
X0327769Y0118507D01*
X0325200Y0121076D01*
X0326823Y0122699D01*
X0329392Y0120130D01*
X0329060Y0120462D02*
X0325814Y0120462D01*
X0326541Y0122417D02*
X0327105Y0122417D01*
X0321839Y0117715D02*
X0320216Y0116092D01*
X0321839Y0117715D02*
X0324408Y0115146D01*
X0322785Y0113523D01*
X0320216Y0116092D01*
X0320830Y0115478D02*
X0324076Y0115478D01*
X0322121Y0117433D02*
X0321557Y0117433D01*
X0198555Y0113012D02*
X0196932Y0114635D01*
X0199501Y0117204D01*
X0201124Y0115581D01*
X0198555Y0113012D01*
X0197264Y0114967D02*
X0200510Y0114967D01*
X0199783Y0116922D02*
X0199219Y0116922D01*
X0196141Y0120564D02*
X0194518Y0122187D01*
X0196141Y0120564D02*
X0193572Y0117995D01*
X0191949Y0119618D01*
X0194518Y0122187D01*
X0195527Y0119950D02*
X0192281Y0119950D01*
X0194236Y0121905D02*
X0194800Y0121905D01*
D15*
X0183835Y0082990D02*
X0186200Y0080625D01*
X0185085Y0079510D01*
X0182720Y0081875D01*
X0183835Y0082990D01*
X0183511Y0081084D02*
X0185741Y0081084D01*
X0184167Y0082658D02*
X0183503Y0082658D01*
X0191990Y0072605D02*
X0194355Y0070240D01*
X0191990Y0072605D02*
X0193105Y0073720D01*
X0195470Y0071355D01*
X0194355Y0070240D01*
X0195011Y0071814D02*
X0192781Y0071814D01*
X0192773Y0073388D02*
X0193437Y0073388D01*
X0320358Y0076630D02*
X0322723Y0078995D01*
X0323838Y0077880D01*
X0321473Y0075515D01*
X0320358Y0076630D01*
X0320817Y0077089D02*
X0323047Y0077089D01*
X0323055Y0078663D02*
X0322391Y0078663D01*
X0330743Y0084786D02*
X0333108Y0087151D01*
X0330743Y0084786D02*
X0329628Y0085901D01*
X0331993Y0088266D01*
X0333108Y0087151D01*
X0332317Y0086360D02*
X0330087Y0086360D01*
X0331661Y0087934D02*
X0332325Y0087934D01*
X0333804Y0427326D02*
X0331439Y0429691D01*
X0332554Y0430806D01*
X0334919Y0428441D01*
X0333804Y0427326D01*
X0334460Y0428900D02*
X0332230Y0428900D01*
X0332222Y0430474D02*
X0332886Y0430474D01*
X0325649Y0437712D02*
X0323284Y0440077D01*
X0325649Y0437712D02*
X0324534Y0436597D01*
X0322169Y0438962D01*
X0323284Y0440077D01*
X0322960Y0438171D02*
X0325190Y0438171D01*
X0323616Y0439745D02*
X0322952Y0439745D01*
X0204801Y0440458D02*
X0202436Y0438093D01*
X0201321Y0439208D01*
X0203686Y0441573D01*
X0204801Y0440458D01*
X0204010Y0439667D02*
X0201780Y0439667D01*
X0203354Y0441241D02*
X0204018Y0441241D01*
X0194416Y0432302D02*
X0192051Y0429937D01*
X0194416Y0432302D02*
X0195531Y0431187D01*
X0193166Y0428822D01*
X0192051Y0429937D01*
X0192510Y0430396D02*
X0194740Y0430396D01*
X0194748Y0431970D02*
X0194084Y0431970D01*
D16*
X0249430Y0259745D03*
X0249430Y0258052D03*
X0249430Y0256359D03*
X0249430Y0254666D03*
X0264981Y0254666D03*
X0264981Y0256359D03*
X0264981Y0258052D03*
X0264981Y0259745D03*
D17*
X0263170Y0263997D03*
X0261438Y0263997D03*
X0259745Y0263997D03*
X0258052Y0263997D03*
X0256359Y0263997D03*
X0254666Y0263997D03*
X0252973Y0263997D03*
X0251280Y0263997D03*
X0251280Y0250414D03*
X0252973Y0250414D03*
X0254666Y0250414D03*
X0256359Y0250414D03*
X0258052Y0250414D03*
X0259745Y0250414D03*
X0261438Y0250414D03*
X0263131Y0250414D03*
D18*
X0243308Y0354922D03*
D19*
X0253308Y0354922D03*
X0263308Y0354922D03*
X0263308Y0364922D03*
X0253308Y0364922D03*
X0243308Y0364922D03*
D20*
X0262245Y0169765D03*
X0443583Y0212599D03*
D21*
X0443583Y0222599D03*
X0443583Y0232599D03*
X0443583Y0242599D03*
X0443583Y0252599D03*
X0443583Y0262599D03*
X0443583Y0272599D03*
X0443583Y0282599D03*
X0443583Y0292599D03*
X0443583Y0302599D03*
X0262245Y0159765D03*
D22*
X0262954Y0082442D03*
X0272954Y0082442D03*
X0282954Y0082442D03*
X0252954Y0082442D03*
X0242954Y0082442D03*
X0232954Y0082442D03*
X0234017Y0441221D03*
X0244017Y0441221D03*
X0254017Y0441221D03*
X0264017Y0441221D03*
X0274017Y0441221D03*
X0284017Y0441221D03*
D23*
X0379253Y0269017D03*
X0385158Y0269017D03*
X0385158Y0245394D03*
X0379253Y0245394D03*
D24*
X0393917Y0228684D02*
X0395731Y0228684D01*
X0395731Y0226672D01*
X0393917Y0226672D01*
X0393917Y0228684D01*
X0393917Y0228558D02*
X0395731Y0228558D01*
X0402145Y0226672D02*
X0403959Y0226672D01*
X0402145Y0226672D02*
X0402145Y0228684D01*
X0403959Y0228684D01*
X0403959Y0226672D01*
X0403959Y0228558D02*
X0402145Y0228558D01*
X0402145Y0285727D02*
X0403959Y0285727D01*
X0402145Y0285727D02*
X0402145Y0287739D01*
X0403959Y0287739D01*
X0403959Y0285727D01*
X0403959Y0287613D02*
X0402145Y0287613D01*
X0395731Y0287739D02*
X0393917Y0287739D01*
X0395731Y0287739D02*
X0395731Y0285727D01*
X0393917Y0285727D01*
X0393917Y0287739D01*
X0393917Y0287613D02*
X0395731Y0287613D01*
D25*
G36*
X0392710Y0377346D02*
X0387143Y0371779D01*
X0381576Y0377346D01*
X0387143Y0382913D01*
X0392710Y0377346D01*
G37*
G36*
X0384359Y0385698D02*
X0378792Y0380131D01*
X0373225Y0385698D01*
X0378792Y0391265D01*
X0384359Y0385698D01*
G37*
G36*
X0386367Y0131155D02*
X0380800Y0136722D01*
X0386367Y0142289D01*
X0391934Y0136722D01*
X0386367Y0131155D01*
G37*
G36*
X0378016Y0122803D02*
X0372449Y0128370D01*
X0378016Y0133937D01*
X0383583Y0128370D01*
X0378016Y0122803D01*
G37*
G36*
X0140624Y0123882D02*
X0135057Y0118315D01*
X0129490Y0123882D01*
X0135057Y0129449D01*
X0140624Y0123882D01*
G37*
G36*
X0132272Y0132233D02*
X0126705Y0126666D01*
X0121138Y0132233D01*
X0126705Y0137800D01*
X0132272Y0132233D01*
G37*
G36*
X0124975Y0374445D02*
X0119408Y0380012D01*
X0124975Y0385579D01*
X0130542Y0380012D01*
X0124975Y0374445D01*
G37*
G36*
X0133327Y0382797D02*
X0127760Y0388364D01*
X0133327Y0393931D01*
X0138894Y0388364D01*
X0133327Y0382797D01*
G37*
D26*
G36*
X0157428Y0379339D02*
X0159442Y0381353D01*
X0160998Y0379797D01*
X0158984Y0377783D01*
X0157428Y0379339D01*
G37*
G36*
X0162718Y0374049D02*
X0164732Y0376063D01*
X0166288Y0374507D01*
X0164274Y0372493D01*
X0162718Y0374049D01*
G37*
G36*
X0379718Y0339909D02*
X0377704Y0341923D01*
X0379260Y0343479D01*
X0381274Y0341465D01*
X0379718Y0339909D01*
G37*
G36*
X0385007Y0345198D02*
X0382993Y0347212D01*
X0384549Y0348768D01*
X0386563Y0346754D01*
X0385007Y0345198D01*
G37*
G36*
X0373898Y0157881D02*
X0371884Y0155867D01*
X0370328Y0157423D01*
X0372342Y0159437D01*
X0373898Y0157881D01*
G37*
G36*
X0379187Y0152592D02*
X0377173Y0150578D01*
X0375617Y0152134D01*
X0377631Y0154148D01*
X0379187Y0152592D01*
G37*
G36*
X0164536Y0153991D02*
X0166550Y0151977D01*
X0164994Y0150421D01*
X0162980Y0152435D01*
X0164536Y0153991D01*
G37*
G36*
X0159246Y0148701D02*
X0161260Y0146687D01*
X0159704Y0145131D01*
X0157690Y0147145D01*
X0159246Y0148701D01*
G37*
D27*
G36*
X0159110Y0159529D02*
X0161125Y0157514D01*
X0154166Y0150555D01*
X0152151Y0152570D01*
X0159110Y0159529D01*
G37*
G36*
X0151890Y0373914D02*
X0153905Y0375929D01*
X0160864Y0368970D01*
X0158849Y0366955D01*
X0151890Y0373914D01*
G37*
G36*
X0384726Y0158017D02*
X0382711Y0156002D01*
X0375752Y0162961D01*
X0377767Y0164976D01*
X0384726Y0158017D01*
G37*
G36*
X0385143Y0334370D02*
X0383128Y0336385D01*
X0390087Y0343344D01*
X0392102Y0341329D01*
X0385143Y0334370D01*
G37*
D28*
X0358320Y0320815D02*
X0357038Y0322097D01*
X0359598Y0324657D01*
X0360880Y0323375D01*
X0358320Y0320815D01*
X0357566Y0322625D02*
X0360130Y0322625D01*
X0359820Y0324435D02*
X0359376Y0324435D01*
X0355562Y0328692D02*
X0354280Y0329974D01*
X0355562Y0328692D02*
X0353002Y0326132D01*
X0351720Y0327414D01*
X0354280Y0329974D01*
X0354812Y0327942D02*
X0352248Y0327942D01*
X0354058Y0329752D02*
X0354502Y0329752D01*
X0362776Y0288544D02*
X0364588Y0288544D01*
X0364588Y0284922D01*
X0362776Y0284922D01*
X0362776Y0288544D01*
X0362776Y0286732D02*
X0364588Y0286732D01*
X0364588Y0288542D02*
X0362776Y0288542D01*
X0370296Y0284922D02*
X0372108Y0284922D01*
X0370296Y0284922D02*
X0370296Y0288544D01*
X0372108Y0288544D01*
X0372108Y0284922D01*
X0372108Y0286732D02*
X0370296Y0286732D01*
X0370296Y0288542D02*
X0372108Y0288542D01*
X0372108Y0225867D02*
X0370296Y0225867D01*
X0370296Y0229489D01*
X0372108Y0229489D01*
X0372108Y0225867D01*
X0372108Y0227677D02*
X0370296Y0227677D01*
X0370296Y0229487D02*
X0372108Y0229487D01*
X0364588Y0229489D02*
X0362776Y0229489D01*
X0364588Y0229489D02*
X0364588Y0225867D01*
X0362776Y0225867D01*
X0362776Y0229489D01*
X0362776Y0227677D02*
X0364588Y0227677D01*
X0364588Y0229487D02*
X0362776Y0229487D01*
X0371903Y0172099D02*
X0370621Y0170817D01*
X0368061Y0173377D01*
X0369343Y0174659D01*
X0371903Y0172099D01*
X0371375Y0172627D02*
X0368811Y0172627D01*
X0369121Y0174437D02*
X0369565Y0174437D01*
X0364026Y0169342D02*
X0362744Y0168060D01*
X0364026Y0169342D02*
X0366586Y0166782D01*
X0365304Y0165500D01*
X0362744Y0168060D01*
X0363494Y0167310D02*
X0366058Y0167310D01*
X0364248Y0169120D02*
X0363804Y0169120D01*
X0306548Y0129594D02*
X0305266Y0130876D01*
X0307826Y0133436D01*
X0309108Y0132154D01*
X0306548Y0129594D01*
X0305794Y0131404D02*
X0308358Y0131404D01*
X0308048Y0133214D02*
X0307604Y0133214D01*
X0303791Y0137472D02*
X0302509Y0138754D01*
X0303791Y0137472D02*
X0301231Y0134912D01*
X0299949Y0136194D01*
X0302509Y0138754D01*
X0303041Y0136722D02*
X0300477Y0136722D01*
X0302287Y0138532D02*
X0302731Y0138532D01*
X0225013Y0139186D02*
X0223731Y0137904D01*
X0221171Y0140464D01*
X0222453Y0141746D01*
X0225013Y0139186D01*
X0224485Y0139714D02*
X0221921Y0139714D01*
X0222231Y0141524D02*
X0222675Y0141524D01*
X0217136Y0136429D02*
X0215854Y0135147D01*
X0217136Y0136429D02*
X0219696Y0133869D01*
X0218414Y0132587D01*
X0215854Y0135147D01*
X0216604Y0134397D02*
X0219168Y0134397D01*
X0217358Y0136207D02*
X0216914Y0136207D01*
X0189028Y0160657D02*
X0187746Y0161939D01*
X0190306Y0164499D01*
X0191588Y0163217D01*
X0189028Y0160657D01*
X0188274Y0162467D02*
X0190838Y0162467D01*
X0190528Y0164277D02*
X0190084Y0164277D01*
X0186271Y0168535D02*
X0184989Y0169817D01*
X0186271Y0168535D02*
X0183711Y0165975D01*
X0182429Y0167257D01*
X0184989Y0169817D01*
X0185521Y0167785D02*
X0182957Y0167785D01*
X0184767Y0169595D02*
X0185211Y0169595D01*
X0180198Y0192579D02*
X0180198Y0194391D01*
X0183820Y0194391D01*
X0183820Y0192579D01*
X0180198Y0192579D01*
X0180198Y0194389D02*
X0183820Y0194389D01*
X0183820Y0200099D02*
X0183820Y0201911D01*
X0183820Y0200099D02*
X0180198Y0200099D01*
X0180198Y0201911D01*
X0183820Y0201911D01*
X0183820Y0201909D02*
X0180198Y0201909D01*
X0167599Y0201635D02*
X0167599Y0199823D01*
X0163977Y0199823D01*
X0163977Y0201635D01*
X0167599Y0201635D01*
X0167599Y0201633D02*
X0163977Y0201633D01*
X0163977Y0194115D02*
X0163977Y0192303D01*
X0163977Y0194115D02*
X0167599Y0194115D01*
X0167599Y0192303D01*
X0163977Y0192303D01*
X0163977Y0194113D02*
X0167599Y0194113D01*
X0191366Y0369162D02*
X0192648Y0370444D01*
X0195208Y0367884D01*
X0193926Y0366602D01*
X0191366Y0369162D01*
X0192116Y0368412D02*
X0194680Y0368412D01*
X0192870Y0370222D02*
X0192426Y0370222D01*
X0199243Y0371919D02*
X0200525Y0373201D01*
X0199243Y0371919D02*
X0196683Y0374479D01*
X0197965Y0375761D01*
X0200525Y0373201D01*
X0199997Y0373729D02*
X0197433Y0373729D01*
X0197743Y0375539D02*
X0198187Y0375539D01*
X0215264Y0402706D02*
X0216546Y0403988D01*
X0219106Y0401428D01*
X0217824Y0400146D01*
X0215264Y0402706D01*
X0216014Y0401956D02*
X0218578Y0401956D01*
X0216768Y0403766D02*
X0216324Y0403766D01*
X0223141Y0405463D02*
X0224423Y0406745D01*
X0223141Y0405463D02*
X0220581Y0408023D01*
X0221863Y0409305D01*
X0224423Y0406745D01*
X0223895Y0407273D02*
X0221331Y0407273D01*
X0221641Y0409083D02*
X0222085Y0409083D01*
X0295256Y0373505D02*
X0297068Y0373505D01*
X0297068Y0369883D01*
X0295256Y0369883D01*
X0295256Y0373505D01*
X0295256Y0371693D02*
X0297068Y0371693D01*
X0297068Y0373503D02*
X0295256Y0373503D01*
X0302776Y0369883D02*
X0304588Y0369883D01*
X0302776Y0369883D02*
X0302776Y0373505D01*
X0304588Y0373505D01*
X0304588Y0369883D01*
X0304588Y0371693D02*
X0302776Y0371693D01*
X0302776Y0373503D02*
X0304588Y0373503D01*
X0330030Y0399813D02*
X0331312Y0398531D01*
X0330030Y0399813D02*
X0332590Y0402373D01*
X0333872Y0401091D01*
X0331312Y0398531D01*
X0330558Y0400341D02*
X0333122Y0400341D01*
X0332812Y0402151D02*
X0332368Y0402151D01*
X0328555Y0406409D02*
X0327273Y0407691D01*
X0328555Y0406409D02*
X0325995Y0403849D01*
X0324713Y0405131D01*
X0327273Y0407691D01*
X0327805Y0405659D02*
X0325241Y0405659D01*
X0327051Y0407469D02*
X0327495Y0407469D01*
D29*
X0329331Y0174292D03*
X0329331Y0166812D03*
X0319095Y0166812D03*
X0319095Y0170552D03*
X0319095Y0174292D03*
D30*
X0237875Y0172206D03*
X0227875Y0172206D03*
D31*
X0190989Y0242442D03*
X0190989Y0244410D03*
X0190989Y0246379D03*
X0190989Y0248347D03*
X0190989Y0250316D03*
X0190989Y0252284D03*
X0190989Y0254253D03*
X0190989Y0256221D03*
X0190989Y0258190D03*
X0190989Y0260158D03*
X0190989Y0262127D03*
X0190989Y0264095D03*
X0190989Y0266064D03*
X0190989Y0268032D03*
X0190989Y0270001D03*
X0190989Y0271969D03*
X0152556Y0271969D03*
X0152556Y0270001D03*
X0152556Y0268032D03*
X0152556Y0266064D03*
X0152556Y0264095D03*
X0152556Y0262127D03*
X0152556Y0260158D03*
X0152556Y0258190D03*
X0152556Y0256221D03*
X0152556Y0254253D03*
X0152556Y0252284D03*
X0152556Y0250316D03*
X0152556Y0248347D03*
X0152556Y0246379D03*
X0152556Y0244410D03*
X0152556Y0242442D03*
D32*
X0157009Y0237989D03*
X0158977Y0237989D03*
X0160946Y0237989D03*
X0162914Y0237989D03*
X0164883Y0237989D03*
X0166851Y0237989D03*
X0168820Y0237989D03*
X0170788Y0237989D03*
X0172757Y0237989D03*
X0174725Y0237989D03*
X0176694Y0237989D03*
X0178662Y0237989D03*
X0180631Y0237989D03*
X0182599Y0237989D03*
X0184568Y0237989D03*
X0186536Y0237989D03*
X0186536Y0276422D03*
X0184568Y0276422D03*
X0182599Y0276422D03*
X0180631Y0276422D03*
X0178662Y0276422D03*
X0176694Y0276422D03*
X0174725Y0276422D03*
X0172757Y0276422D03*
X0170788Y0276422D03*
X0168820Y0276422D03*
X0166851Y0276422D03*
X0164883Y0276422D03*
X0162914Y0276422D03*
X0160946Y0276422D03*
X0158977Y0276422D03*
X0157009Y0276422D03*
D33*
X0170473Y0343426D03*
X0170473Y0352481D03*
X0185040Y0352481D03*
X0185040Y0343426D03*
D34*
X0137603Y0273902D02*
X0137520Y0259690D01*
X0118417Y0259690D01*
X0117520Y0260587D01*
X0117520Y0262427D01*
X0116817Y0263130D01*
X0114823Y0263130D01*
X0114743Y0263210D01*
X0114378Y0263421D01*
X0113971Y0263530D01*
X0113072Y0263530D01*
X0113072Y0260355D01*
X0113072Y0257180D01*
X0113971Y0257180D01*
X0114378Y0257289D01*
X0114743Y0257500D01*
X0114823Y0257580D01*
X0116284Y0257580D01*
X0116296Y0257568D01*
X0116659Y0257205D01*
X0116284Y0256831D01*
X0114445Y0256831D01*
X0114351Y0256737D01*
X0114258Y0256831D01*
X0111886Y0256831D01*
X0111792Y0256737D01*
X0111699Y0256831D01*
X0109327Y0256831D01*
X0108652Y0256156D01*
X0098319Y0256156D01*
X0097500Y0256975D01*
X0097500Y0262703D01*
X0096797Y0263405D01*
X0092165Y0263405D01*
X0092209Y0273863D01*
X0137603Y0273902D01*
X0137597Y0272786D02*
X0092205Y0272786D01*
X0092200Y0271588D02*
X0137590Y0271588D01*
X0137583Y0270389D02*
X0092195Y0270389D01*
X0092190Y0269191D02*
X0137576Y0269191D01*
X0137569Y0267992D02*
X0092185Y0267992D01*
X0092180Y0266794D02*
X0137562Y0266794D01*
X0137555Y0265595D02*
X0092175Y0265595D01*
X0092169Y0264397D02*
X0137548Y0264397D01*
X0137541Y0263198D02*
X0114755Y0263198D01*
X0113072Y0263198D02*
X0113072Y0263198D01*
X0113072Y0263530D02*
X0112172Y0263530D01*
X0111765Y0263421D01*
X0111400Y0263210D01*
X0111320Y0263130D01*
X0109327Y0263130D01*
X0108624Y0262427D01*
X0108624Y0258283D01*
X0109327Y0257580D01*
X0111320Y0257580D01*
X0111400Y0257500D01*
X0111765Y0257289D01*
X0112172Y0257180D01*
X0113072Y0257180D01*
X0113072Y0260355D01*
X0113072Y0260355D01*
X0113072Y0260355D01*
X0113072Y0263530D01*
X0113072Y0262000D02*
X0113072Y0262000D01*
X0113072Y0260801D02*
X0113072Y0260801D01*
X0113072Y0259603D02*
X0113072Y0259603D01*
X0113072Y0258404D02*
X0113072Y0258404D01*
X0113072Y0257206D02*
X0113072Y0257206D01*
X0114065Y0257206D02*
X0116659Y0257206D01*
X0116296Y0257568D02*
X0116296Y0257568D01*
X0117520Y0260801D02*
X0137527Y0260801D01*
X0137534Y0262000D02*
X0117520Y0262000D01*
X0111388Y0263198D02*
X0097004Y0263198D01*
X0097500Y0262000D02*
X0108624Y0262000D01*
X0108624Y0260801D02*
X0097500Y0260801D01*
X0097500Y0259603D02*
X0108624Y0259603D01*
X0108624Y0258404D02*
X0097500Y0258404D01*
X0097500Y0257206D02*
X0112078Y0257206D01*
X0117520Y0253824D02*
X0118417Y0254721D01*
X0137491Y0254721D01*
X0137320Y0225402D01*
X0092005Y0225363D01*
X0092113Y0251006D01*
X0096797Y0251006D01*
X0097500Y0251708D01*
X0097500Y0251956D01*
X0100562Y0251956D01*
X0100562Y0247100D01*
X0099588Y0246126D01*
X0099588Y0242025D01*
X0100864Y0240750D01*
X0101489Y0240750D01*
X0101014Y0240655D01*
X0100545Y0240461D01*
X0100123Y0240179D01*
X0099764Y0239820D01*
X0099482Y0239397D01*
X0099287Y0238928D01*
X0099188Y0238430D01*
X0099188Y0237491D01*
X0103120Y0237491D01*
X0103120Y0236565D01*
X0099188Y0236565D01*
X0099188Y0235626D01*
X0099287Y0235128D01*
X0099482Y0234659D01*
X0099764Y0234237D01*
X0100123Y0233878D01*
X0100545Y0233596D01*
X0101014Y0233401D01*
X0101512Y0233302D01*
X0103120Y0233302D01*
X0103120Y0236565D01*
X0104046Y0236565D01*
X0104046Y0233302D01*
X0105655Y0233302D01*
X0106153Y0233401D01*
X0106622Y0233596D01*
X0107044Y0233878D01*
X0107403Y0234237D01*
X0107685Y0234659D01*
X0107880Y0235128D01*
X0107979Y0235626D01*
X0107979Y0236565D01*
X0104047Y0236565D01*
X0104047Y0237491D01*
X0107979Y0237491D01*
X0107979Y0238430D01*
X0107880Y0238928D01*
X0107685Y0239397D01*
X0107403Y0239820D01*
X0107044Y0240179D01*
X0106622Y0240461D01*
X0106153Y0240655D01*
X0105678Y0240750D01*
X0106303Y0240750D01*
X0107579Y0242025D01*
X0107579Y0246126D01*
X0106303Y0247402D01*
X0104762Y0247402D01*
X0104762Y0251956D01*
X0108652Y0251956D01*
X0109327Y0251281D01*
X0111572Y0251281D01*
X0111572Y0246627D01*
X0114788Y0243411D01*
X0115667Y0242532D01*
X0118328Y0242532D01*
X0118328Y0241986D01*
X0119604Y0240710D01*
X0120229Y0240710D01*
X0119754Y0240616D01*
X0119285Y0240422D01*
X0118863Y0240139D01*
X0118504Y0239780D01*
X0118222Y0239358D01*
X0118027Y0238889D01*
X0117928Y0238391D01*
X0117928Y0237452D01*
X0121861Y0237452D01*
X0121861Y0236526D01*
X0122787Y0236526D01*
X0122787Y0237452D01*
X0126719Y0237452D01*
X0126719Y0238391D01*
X0126620Y0238889D01*
X0126425Y0239358D01*
X0126143Y0239780D01*
X0125784Y0240139D01*
X0125362Y0240422D01*
X0124893Y0240616D01*
X0124419Y0240710D01*
X0125043Y0240710D01*
X0126319Y0241986D01*
X0126319Y0246086D01*
X0125043Y0247362D01*
X0119604Y0247362D01*
X0118328Y0246086D01*
X0118328Y0245532D01*
X0116910Y0245532D01*
X0114572Y0247870D01*
X0114572Y0251281D01*
X0116817Y0251281D01*
X0117520Y0251984D01*
X0117520Y0253824D01*
X0117520Y0253610D02*
X0137485Y0253610D01*
X0137478Y0252411D02*
X0117520Y0252411D01*
X0114572Y0251213D02*
X0137471Y0251213D01*
X0137464Y0250014D02*
X0114572Y0250014D01*
X0114572Y0248816D02*
X0137457Y0248816D01*
X0137450Y0247617D02*
X0114824Y0247617D01*
X0116023Y0246419D02*
X0118661Y0246419D01*
X0118690Y0241625D02*
X0107178Y0241625D01*
X0107579Y0242823D02*
X0115376Y0242823D01*
X0114177Y0244022D02*
X0107579Y0244022D01*
X0107579Y0245220D02*
X0112979Y0245220D01*
X0111780Y0246419D02*
X0107286Y0246419D01*
X0104762Y0247617D02*
X0111572Y0247617D01*
X0111572Y0248816D02*
X0104762Y0248816D01*
X0104762Y0250014D02*
X0111572Y0250014D01*
X0111572Y0251213D02*
X0104762Y0251213D01*
X0100562Y0251213D02*
X0097004Y0251213D01*
X0100562Y0250014D02*
X0092109Y0250014D01*
X0092104Y0248816D02*
X0100562Y0248816D01*
X0100562Y0247617D02*
X0092099Y0247617D01*
X0092094Y0246419D02*
X0099881Y0246419D01*
X0099588Y0245220D02*
X0092089Y0245220D01*
X0092083Y0244022D02*
X0099588Y0244022D01*
X0099588Y0242823D02*
X0092078Y0242823D01*
X0092073Y0241625D02*
X0099989Y0241625D01*
X0100493Y0240426D02*
X0092068Y0240426D01*
X0092063Y0239228D02*
X0099411Y0239228D01*
X0099188Y0238029D02*
X0092058Y0238029D01*
X0092053Y0236831D02*
X0103120Y0236831D01*
X0104047Y0236831D02*
X0121861Y0236831D01*
X0121861Y0236526D02*
X0117928Y0236526D01*
X0117928Y0235587D01*
X0118027Y0235089D01*
X0118222Y0234620D01*
X0118504Y0234198D01*
X0118863Y0233839D01*
X0119285Y0233556D01*
X0119754Y0233362D01*
X0120252Y0233263D01*
X0121861Y0233263D01*
X0121861Y0236526D01*
X0121861Y0235632D02*
X0122787Y0235632D01*
X0122787Y0236526D02*
X0122787Y0233263D01*
X0124395Y0233263D01*
X0124893Y0233362D01*
X0125362Y0233556D01*
X0125784Y0233839D01*
X0126143Y0234198D01*
X0126425Y0234620D01*
X0126620Y0235089D01*
X0126719Y0235587D01*
X0126719Y0236526D01*
X0122787Y0236526D01*
X0122787Y0236831D02*
X0137386Y0236831D01*
X0137393Y0238029D02*
X0126719Y0238029D01*
X0126479Y0239228D02*
X0137400Y0239228D01*
X0137407Y0240426D02*
X0125350Y0240426D01*
X0125958Y0241625D02*
X0137414Y0241625D01*
X0137422Y0242823D02*
X0126319Y0242823D01*
X0126319Y0244022D02*
X0137429Y0244022D01*
X0137436Y0245220D02*
X0126319Y0245220D01*
X0125986Y0246419D02*
X0137443Y0246419D01*
X0137379Y0235632D02*
X0126719Y0235632D01*
X0126301Y0234434D02*
X0137372Y0234434D01*
X0137365Y0233235D02*
X0092038Y0233235D01*
X0092033Y0232037D02*
X0137358Y0232037D01*
X0137351Y0230838D02*
X0092028Y0230838D01*
X0092023Y0229640D02*
X0137344Y0229640D01*
X0137337Y0228441D02*
X0092018Y0228441D01*
X0092013Y0227243D02*
X0137330Y0227243D01*
X0137323Y0226044D02*
X0092008Y0226044D01*
X0092043Y0234434D02*
X0099632Y0234434D01*
X0099188Y0235632D02*
X0092048Y0235632D01*
X0103120Y0235632D02*
X0104046Y0235632D01*
X0104046Y0234434D02*
X0103120Y0234434D01*
X0107535Y0234434D02*
X0118346Y0234434D01*
X0117928Y0235632D02*
X0107979Y0235632D01*
X0107979Y0238029D02*
X0117928Y0238029D01*
X0118168Y0239228D02*
X0107756Y0239228D01*
X0106674Y0240426D02*
X0119297Y0240426D01*
X0121861Y0234434D02*
X0122787Y0234434D01*
D35*
X0122324Y0236989D02*
X0122324Y0229603D01*
X0122131Y0229410D01*
X0122320Y0244032D02*
X0116288Y0244032D01*
X0113072Y0247249D01*
X0113072Y0254056D01*
X0115631Y0254056D02*
X0117796Y0256221D01*
X0152556Y0256221D01*
X0152556Y0254253D02*
X0148867Y0254253D01*
X0146898Y0252284D01*
X0144363Y0249749D01*
X0134497Y0249749D01*
X0132772Y0248024D01*
X0122324Y0244036D02*
X0122320Y0244032D01*
X0117796Y0258190D02*
X0115631Y0260355D01*
X0113072Y0260355D02*
X0113072Y0265528D01*
X0116725Y0269182D01*
X0117796Y0258190D02*
X0152556Y0258190D01*
X0152556Y0260158D02*
X0147477Y0260158D01*
X0144017Y0263619D01*
X0146898Y0252284D02*
X0152556Y0252284D01*
X0152556Y0250316D02*
X0159284Y0250316D01*
X0161044Y0252076D01*
X0161044Y0265320D01*
X0161757Y0266032D01*
X0168036Y0267820D02*
X0168036Y0261713D01*
X0166772Y0260450D01*
X0171556Y0259292D02*
X0171556Y0244761D01*
X0171206Y0244410D01*
X0190989Y0244410D01*
X0190989Y0242442D02*
X0190989Y0230143D01*
X0192465Y0228666D01*
X0200131Y0230536D02*
X0288127Y0230461D01*
X0288127Y0228816D01*
X0304804Y0228816D01*
X0322166Y0240473D02*
X0345788Y0264095D01*
X0345788Y0269017D01*
X0379253Y0269017D01*
X0371379Y0281812D02*
X0371379Y0286733D01*
X0371202Y0286733D01*
X0371379Y0281812D02*
X0397954Y0281812D01*
X0402875Y0286733D01*
X0403052Y0286733D01*
X0363682Y0286733D02*
X0358583Y0286733D01*
X0379253Y0245394D02*
X0375316Y0241457D01*
X0371379Y0227678D02*
X0371202Y0227678D01*
X0371379Y0227678D02*
X0371379Y0222757D01*
X0397954Y0222757D01*
X0402875Y0227678D01*
X0403052Y0227678D01*
X0411733Y0232599D02*
X0411733Y0214883D01*
X0370394Y0173544D01*
X0369410Y0168623D02*
X0365473Y0172560D01*
X0365473Y0174528D01*
X0345788Y0174528D01*
X0345788Y0187324D01*
X0346024Y0187461D01*
X0345788Y0174528D02*
X0330040Y0174528D01*
X0329331Y0174292D01*
X0369410Y0168623D02*
X0414686Y0168623D01*
X0414686Y0191261D01*
X0415076Y0192005D01*
X0415670Y0192245D01*
X0415670Y0244410D01*
X0443229Y0271969D01*
X0443583Y0272599D01*
X0363682Y0227678D02*
X0363505Y0227678D01*
X0354646Y0236536D01*
X0285650Y0274450D02*
X0285749Y0274922D01*
X0285749Y0281812D01*
X0285749Y0287717D01*
X0285769Y0288662D01*
X0286733Y0288702D01*
X0297560Y0299528D01*
X0297560Y0336930D01*
X0297737Y0337206D01*
X0298544Y0337914D01*
X0298544Y0351694D01*
X0297894Y0352048D01*
X0298544Y0352678D01*
X0298544Y0366457D01*
X0303465Y0371379D01*
X0303682Y0371694D01*
X0296162Y0371694D02*
X0295591Y0372363D01*
X0283780Y0384174D01*
X0258190Y0384174D01*
X0258190Y0360552D01*
X0263111Y0355631D01*
X0263308Y0354922D01*
X0253269Y0364489D02*
X0253308Y0364922D01*
X0253269Y0364489D02*
X0248347Y0359568D01*
X0248347Y0350709D01*
X0222757Y0325119D01*
X0222757Y0259174D01*
X0204056Y0240473D01*
X0196182Y0239489D02*
X0196182Y0252284D01*
X0190989Y0252284D01*
X0190989Y0250316D02*
X0180434Y0250316D01*
X0180434Y0259174D01*
X0184371Y0254253D02*
X0190989Y0254253D01*
X0190989Y0258190D02*
X0200119Y0258190D01*
X0200131Y0230536D01*
X0200119Y0162717D01*
X0222757Y0140080D01*
X0227678Y0129253D02*
X0227678Y0081024D01*
X0231615Y0077087D01*
X0262127Y0077087D01*
X0262127Y0082009D01*
X0262954Y0082442D01*
X0227678Y0129253D02*
X0198150Y0158780D01*
X0198150Y0208977D01*
X0176694Y0230434D01*
X0176694Y0237989D01*
X0178662Y0237989D02*
X0178662Y0230434D01*
X0179450Y0229646D01*
X0182402Y0229646D01*
X0180343Y0219607D02*
X0174725Y0221772D01*
X0174528Y0221772D01*
X0174725Y0221772D02*
X0174725Y0208288D01*
X0182009Y0201005D01*
X0182009Y0193485D02*
X0181418Y0193229D01*
X0166654Y0193229D01*
X0165788Y0193209D01*
X0161221Y0197776D01*
X0161221Y0219686D01*
X0168820Y0227284D01*
X0168820Y0237989D01*
X0168623Y0238505D01*
X0168623Y0244410D01*
X0171206Y0244410D01*
X0170788Y0237989D02*
X0170788Y0223981D01*
X0168024Y0221217D01*
X0164883Y0225769D02*
X0155729Y0216615D01*
X0148682Y0216615D02*
X0162914Y0230847D01*
X0162914Y0237989D01*
X0164883Y0237989D02*
X0166851Y0237989D01*
X0164883Y0237989D02*
X0164883Y0225769D01*
X0174725Y0221772D02*
X0174725Y0237989D01*
X0172757Y0237989D02*
X0172757Y0207993D01*
X0172560Y0207993D01*
X0172560Y0205040D01*
X0172757Y0207698D02*
X0165788Y0200729D01*
X0172757Y0207698D02*
X0172757Y0207993D01*
X0164686Y0244410D02*
X0152556Y0244410D01*
X0152556Y0246379D02*
X0156812Y0246379D01*
X0166532Y0252922D01*
X0171556Y0259292D02*
X0176359Y0264095D01*
X0176497Y0264095D01*
X0190989Y0264095D01*
X0190989Y0262127D02*
X0198150Y0262127D01*
X0198150Y0264095D01*
X0198150Y0260158D02*
X0190989Y0260158D01*
X0190989Y0266064D02*
X0184816Y0266064D01*
X0182143Y0268737D01*
X0176497Y0271969D02*
X0176497Y0264095D01*
X0176497Y0271969D02*
X0176497Y0275906D01*
X0176694Y0276422D01*
X0176694Y0286103D01*
X0178662Y0288072D01*
X0174725Y0292206D02*
X0182174Y0299654D01*
X0179450Y0306418D02*
X0179381Y0306487D01*
X0186379Y0313485D01*
X0179381Y0306487D02*
X0172757Y0299863D01*
X0172757Y0276422D01*
X0174725Y0276422D02*
X0174725Y0292206D01*
X0168820Y0294646D02*
X0164422Y0299044D01*
X0168820Y0294646D02*
X0168820Y0276422D01*
X0170788Y0276422D02*
X0170788Y0311871D01*
X0169765Y0312894D01*
X0169607Y0313308D01*
X0165670Y0317245D01*
X0165670Y0338898D01*
X0169607Y0342835D01*
X0170473Y0343426D01*
X0179450Y0346772D02*
X0179450Y0306418D01*
X0182599Y0292835D02*
X0198643Y0308879D01*
X0208977Y0298544D01*
X0198643Y0308879D02*
X0203072Y0313308D01*
X0203072Y0374331D01*
X0221772Y0393032D01*
X0221772Y0406812D01*
X0212914Y0378269D02*
X0212914Y0285749D01*
X0197166Y0270001D01*
X0190989Y0270001D01*
X0190989Y0268032D02*
X0198150Y0268032D01*
X0214883Y0284765D01*
X0214883Y0375316D01*
X0263111Y0423544D01*
X0263111Y0440276D01*
X0264017Y0441221D01*
X0283780Y0440276D02*
X0284017Y0441221D01*
X0283780Y0440276D02*
X0283780Y0409765D01*
X0283741Y0408800D01*
X0283741Y0401753D02*
X0283780Y0400906D01*
X0283780Y0384174D01*
X0193229Y0292639D02*
X0184568Y0283977D01*
X0184568Y0276422D01*
X0186536Y0276422D02*
X0186536Y0283131D01*
X0189607Y0286202D01*
X0198430Y0286202D01*
X0198883Y0285749D01*
X0199135Y0285749D01*
X0202087Y0269017D02*
X0202087Y0263111D01*
X0199135Y0260158D01*
X0198284Y0260158D01*
X0198150Y0260158D01*
X0198284Y0260158D02*
X0198288Y0260154D01*
X0202087Y0269017D02*
X0218820Y0285749D01*
X0233209Y0275198D02*
X0233583Y0274922D01*
X0244410Y0274922D01*
X0244410Y0285749D01*
X0251300Y0285749D01*
X0254253Y0282796D01*
X0254253Y0281812D01*
X0254253Y0271969D01*
X0256221Y0270001D01*
X0256359Y0269851D01*
X0256371Y0269863D01*
X0256359Y0269851D02*
X0256359Y0263997D01*
X0254666Y0263997D01*
X0252973Y0263997D02*
X0252973Y0277678D01*
X0248111Y0282540D01*
X0251300Y0274922D02*
X0244410Y0274922D01*
X0251300Y0274922D02*
X0251300Y0270001D01*
X0251280Y0270001D01*
X0251280Y0270127D01*
X0251288Y0270135D01*
X0251280Y0270001D02*
X0251280Y0263997D01*
X0249430Y0259745D02*
X0226745Y0259745D01*
X0214540Y0247540D01*
X0214540Y0235804D01*
X0214611Y0235733D01*
X0214328Y0225206D02*
X0214328Y0210245D01*
X0213894Y0209812D01*
X0227068Y0236017D02*
X0230576Y0239524D01*
X0230576Y0249473D01*
X0237461Y0256359D01*
X0249430Y0256359D01*
X0249430Y0254666D02*
X0242855Y0254666D01*
X0238950Y0250761D01*
X0231493Y0258052D02*
X0226997Y0253556D01*
X0231493Y0258052D02*
X0249430Y0258052D01*
X0251272Y0250414D02*
X0251272Y0238028D01*
X0251182Y0237938D01*
X0253032Y0244843D02*
X0263198Y0244843D01*
X0263198Y0237961D01*
X0263213Y0237946D01*
X0263198Y0244843D02*
X0263198Y0250414D01*
X0263131Y0250414D01*
X0264981Y0254666D02*
X0264981Y0256359D01*
X0264981Y0258052D01*
X0264981Y0259745D01*
X0275052Y0259745D01*
X0275052Y0259725D01*
X0275052Y0269599D01*
X0263150Y0269599D01*
X0263150Y0263997D01*
X0263170Y0263997D01*
X0261438Y0263997D01*
X0259745Y0263997D01*
X0258052Y0263997D02*
X0258052Y0268898D01*
X0260513Y0271359D01*
X0260513Y0282304D01*
X0260473Y0282343D01*
X0254666Y0250414D02*
X0253032Y0250414D01*
X0253032Y0244843D01*
X0252973Y0250414D02*
X0253032Y0250414D01*
X0251280Y0250414D02*
X0251272Y0250414D01*
X0267206Y0199706D02*
X0267048Y0199135D01*
X0263111Y0195198D01*
X0263111Y0170591D01*
X0262245Y0169765D01*
X0190989Y0246379D02*
X0178902Y0246379D01*
X0176080Y0249202D01*
X0168036Y0267820D02*
X0162914Y0272942D01*
X0162914Y0276422D01*
X0164883Y0276422D02*
X0164883Y0288312D01*
X0155186Y0298009D01*
X0155186Y0311859D01*
X0155316Y0311989D01*
X0155139Y0284883D02*
X0159646Y0284883D01*
X0159765Y0284765D01*
X0155139Y0284883D02*
X0149528Y0279272D01*
X0149528Y0277607D01*
X0166654Y0275906D02*
X0166851Y0276422D01*
X0166654Y0275906D02*
X0166654Y0272954D01*
X0167639Y0271969D01*
X0176497Y0271969D01*
X0182599Y0276422D02*
X0182599Y0292835D01*
X0179450Y0346772D02*
X0184371Y0351694D01*
X0185040Y0352481D01*
X0103583Y0237028D02*
X0103583Y0231324D01*
X0102001Y0229741D01*
D36*
X0127284Y0123347D02*
X0135650Y0114981D01*
X0136143Y0115473D01*
X0135650Y0114981D02*
X0139095Y0111536D01*
X0150906Y0111536D01*
X0151748Y0110891D01*
X0159765Y0112520D02*
X0149430Y0122855D01*
X0149922Y0123347D01*
X0149922Y0148938D01*
X0155828Y0154843D01*
X0156638Y0155042D01*
X0159475Y0146916D02*
X0159765Y0146969D01*
X0189292Y0146969D01*
X0189292Y0115473D01*
X0198150Y0115473D01*
X0199028Y0115108D01*
X0199135Y0115473D01*
X0199135Y0116457D01*
X0216851Y0134174D01*
X0217775Y0134508D01*
X0222757Y0140080D02*
X0223092Y0139825D01*
X0230631Y0169607D02*
X0230631Y0084961D01*
X0232599Y0082993D01*
X0232954Y0082442D01*
X0225709Y0080040D02*
X0225709Y0092835D01*
X0169607Y0092835D01*
X0169120Y0093520D01*
X0159765Y0093820D02*
X0159765Y0112520D01*
X0149430Y0122855D02*
X0148938Y0123347D01*
X0135158Y0123347D01*
X0135057Y0123882D01*
X0127284Y0123347D02*
X0127284Y0132206D01*
X0126705Y0132234D01*
X0159765Y0093820D02*
X0170591Y0082993D01*
X0170591Y0072166D01*
X0193229Y0072166D01*
X0193730Y0071980D01*
X0185355Y0082009D02*
X0184460Y0081250D01*
X0185355Y0082009D02*
X0187324Y0083977D01*
X0187324Y0084961D01*
X0194045Y0120091D02*
X0194213Y0120394D01*
X0194213Y0164686D01*
X0191261Y0167639D01*
X0184371Y0167639D01*
X0184350Y0167896D01*
X0183387Y0168623D01*
X0148938Y0203072D01*
X0148938Y0215867D01*
X0148682Y0216615D01*
X0147954Y0216851D01*
X0145985Y0216851D01*
X0110513Y0254056D02*
X0102662Y0254056D01*
X0102662Y0244997D01*
X0103583Y0244076D01*
X0102662Y0254056D02*
X0097450Y0254056D01*
X0094300Y0257206D01*
X0145686Y0318717D02*
X0146005Y0319036D01*
X0155316Y0319036D01*
X0154843Y0318229D01*
X0155316Y0319036D02*
X0155828Y0319213D01*
X0162717Y0326103D01*
X0162717Y0369410D01*
X0162717Y0371379D01*
X0159765Y0374331D01*
X0159765Y0379253D01*
X0159213Y0379568D01*
X0159765Y0380237D01*
X0185355Y0405828D01*
X0185383Y0405974D01*
X0191261Y0402875D02*
X0191261Y0410749D01*
X0190366Y0410957D01*
X0191261Y0402875D02*
X0198150Y0402875D01*
X0198150Y0374331D01*
X0198604Y0373840D01*
X0198150Y0374331D02*
X0164686Y0374331D01*
X0164503Y0374278D01*
X0162717Y0369410D02*
X0176497Y0369410D01*
X0176497Y0326103D01*
X0170591Y0320198D01*
X0169765Y0319942D01*
X0186379Y0320532D02*
X0187324Y0321182D01*
X0193229Y0327087D01*
X0193229Y0368426D01*
X0193287Y0368523D01*
X0193229Y0369410D01*
X0176497Y0369410D01*
X0156377Y0371442D02*
X0155828Y0372363D01*
X0155828Y0380237D01*
X0125316Y0380237D01*
X0124975Y0380012D01*
X0133327Y0388364D02*
X0134174Y0389095D01*
X0153859Y0408780D01*
X0153859Y0410749D01*
X0154032Y0411354D01*
X0154843Y0411733D01*
X0174528Y0411733D01*
X0184371Y0421576D01*
X0193229Y0430434D01*
X0193791Y0430562D01*
X0188308Y0429450D02*
X0206024Y0447166D01*
X0319213Y0447166D01*
X0319213Y0369410D01*
X0343820Y0344804D01*
X0343820Y0414686D01*
X0347757Y0418623D01*
X0348559Y0419474D01*
X0347757Y0427481D02*
X0339883Y0419607D01*
X0339883Y0408780D01*
X0332009Y0400906D01*
X0331951Y0400452D01*
X0332009Y0399922D01*
X0333977Y0397954D01*
X0333977Y0369410D01*
X0334084Y0368477D01*
X0339067Y0363493D02*
X0339883Y0362520D01*
X0339883Y0357599D01*
X0343820Y0344804D02*
X0343820Y0279843D01*
X0401891Y0279843D01*
X0406812Y0284765D01*
X0406812Y0291654D01*
X0443229Y0291654D01*
X0443583Y0292599D01*
X0443229Y0302481D02*
X0443583Y0302599D01*
X0443229Y0302481D02*
X0410749Y0302481D01*
X0395001Y0286733D01*
X0394824Y0286733D01*
X0394017Y0286733D01*
X0359568Y0321182D01*
X0359568Y0322166D01*
X0358959Y0322736D01*
X0359568Y0323150D01*
X0359568Y0340867D01*
X0379253Y0340867D01*
X0379489Y0341694D01*
X0384174Y0346772D02*
X0384778Y0346983D01*
X0384174Y0346772D02*
X0356615Y0346772D01*
X0356615Y0427481D01*
X0347757Y0427481D01*
X0336930Y0432402D02*
X0333977Y0429450D01*
X0333179Y0429066D01*
X0328072Y0434371D02*
X0324135Y0438308D01*
X0323909Y0438337D01*
X0326634Y0405770D02*
X0326103Y0404843D01*
X0326103Y0399922D01*
X0365931Y0402102D02*
X0366457Y0401891D01*
X0366457Y0397954D01*
X0372363Y0392048D01*
X0378269Y0386143D01*
X0378792Y0385698D01*
X0387127Y0385158D02*
X0387127Y0378269D01*
X0387143Y0377346D01*
X0388111Y0377284D01*
X0388111Y0338898D01*
X0387615Y0338857D01*
X0356615Y0346772D02*
X0353662Y0346772D01*
X0353662Y0328072D01*
X0353641Y0328053D01*
X0343820Y0279843D02*
X0343820Y0268032D01*
X0311339Y0235552D01*
X0311339Y0215867D01*
X0272954Y0215867D01*
X0257206Y0200119D01*
X0257206Y0199706D01*
X0257206Y0191261D01*
X0238505Y0172560D01*
X0237875Y0172206D01*
X0288702Y0121379D01*
X0288702Y0075119D01*
X0230631Y0075119D01*
X0225709Y0080040D01*
X0288702Y0075119D02*
X0317245Y0075119D01*
X0317245Y0077087D01*
X0336930Y0096772D01*
X0348741Y0096772D01*
X0349701Y0096906D01*
X0358583Y0096772D02*
X0349725Y0087914D01*
X0349725Y0078072D01*
X0322166Y0078072D01*
X0322098Y0077255D01*
X0331368Y0086526D02*
X0332009Y0085946D01*
X0334961Y0082993D01*
X0358583Y0096772D02*
X0358583Y0115473D01*
X0371379Y0128269D01*
X0377284Y0128269D01*
X0378016Y0128370D01*
X0378269Y0129253D01*
X0378269Y0137127D01*
X0381221Y0140080D01*
X0381221Y0159765D01*
X0380239Y0160489D01*
X0372113Y0157652D02*
X0371379Y0157796D01*
X0367934Y0161241D01*
X0328072Y0121379D01*
X0327296Y0120603D01*
X0327087Y0121379D01*
X0311339Y0121379D01*
X0302481Y0130237D01*
X0302481Y0136143D01*
X0301870Y0136833D01*
X0306418Y0139095D02*
X0306418Y0132206D01*
X0307187Y0131515D01*
X0306418Y0139095D02*
X0303465Y0142048D01*
X0296576Y0142048D01*
X0296576Y0132206D01*
X0312324Y0116457D01*
X0322166Y0116457D01*
X0322312Y0115619D01*
X0323150Y0115473D01*
X0340867Y0115473D01*
X0359568Y0134174D01*
X0377284Y0151891D01*
X0377402Y0152363D01*
X0367934Y0161241D02*
X0365473Y0163702D01*
X0365473Y0166654D01*
X0364665Y0167421D01*
X0369982Y0172738D02*
X0370394Y0173544D01*
X0346772Y0195198D02*
X0346024Y0194509D01*
X0346772Y0195198D02*
X0367442Y0215867D01*
X0367442Y0239489D01*
X0385158Y0257206D01*
X0385158Y0269017D01*
X0385158Y0257206D02*
X0385158Y0245394D01*
X0389095Y0241457D01*
X0394017Y0236536D01*
X0394017Y0227678D01*
X0394824Y0227678D01*
X0323150Y0177481D02*
X0323150Y0170591D01*
X0319213Y0170591D01*
X0319095Y0170552D01*
X0318229Y0167639D02*
X0319095Y0166812D01*
X0318229Y0167639D02*
X0314292Y0167639D01*
X0314292Y0173544D01*
X0318229Y0173544D01*
X0319095Y0174292D01*
X0323150Y0177481D02*
X0310847Y0189784D01*
X0311339Y0190276D01*
X0311339Y0215867D01*
X0303741Y0197107D02*
X0304450Y0196182D01*
X0310847Y0189784D01*
X0304450Y0189292D02*
X0303741Y0190060D01*
X0304450Y0189292D02*
X0304450Y0167639D01*
X0267048Y0167639D01*
X0267048Y0163702D01*
X0263111Y0159765D01*
X0262245Y0159765D01*
X0230631Y0169607D02*
X0228662Y0171576D01*
X0227875Y0172206D01*
X0189667Y0162578D02*
X0189292Y0161733D01*
X0189292Y0146969D01*
X0183387Y0151891D02*
X0183387Y0167639D01*
X0184350Y0167896D01*
X0183387Y0151891D02*
X0165670Y0151891D01*
X0164765Y0152206D01*
X0281812Y0268032D02*
X0292639Y0268032D01*
X0292639Y0273938D01*
X0292698Y0274450D01*
X0292639Y0274922D01*
X0292639Y0287717D01*
X0292816Y0288662D01*
X0293623Y0288702D01*
X0304450Y0299528D01*
X0304450Y0336930D01*
X0304784Y0337206D01*
X0305434Y0337914D01*
X0305434Y0351694D01*
X0304942Y0352048D01*
X0269017Y0359568D02*
X0264095Y0364489D01*
X0263308Y0364922D01*
X0269017Y0359568D02*
X0269017Y0297560D01*
X0261143Y0289686D01*
X0260473Y0289391D01*
X0261143Y0288702D01*
X0281812Y0268032D01*
X0260473Y0289391D02*
X0260158Y0289686D01*
X0248347Y0289686D01*
X0248111Y0289587D01*
X0247363Y0288702D01*
X0239489Y0288702D01*
X0226694Y0275906D01*
X0226162Y0275198D01*
X0155828Y0380237D02*
X0155828Y0383190D01*
X0198150Y0425513D01*
X0198150Y0435355D01*
X0202087Y0439292D01*
X0203061Y0439833D01*
X0188308Y0429450D02*
X0171576Y0429450D01*
X0171403Y0428726D01*
X0198150Y0402875D02*
X0216851Y0402875D01*
X0217185Y0402067D01*
X0221772Y0406812D02*
X0222502Y0407384D01*
X0375316Y0396969D02*
X0387127Y0385158D01*
X0314292Y0167639D02*
X0304450Y0167639D01*
X0367072Y0114277D02*
X0367442Y0114489D01*
X0372363Y0114489D01*
X0377284Y0119410D01*
X0385158Y0127284D01*
X0385158Y0135158D01*
X0386143Y0136143D01*
X0386367Y0136722D01*
D37*
X0377284Y0119410D03*
X0359568Y0134174D03*
X0334961Y0082993D03*
X0304804Y0228816D03*
X0322166Y0240473D03*
X0354646Y0236536D03*
X0375316Y0241457D03*
X0389095Y0241457D03*
X0411733Y0232599D03*
X0358583Y0286733D03*
X0285749Y0281812D03*
X0254253Y0281812D03*
X0218820Y0285749D03*
X0208977Y0298544D03*
X0199135Y0285749D03*
X0193229Y0292639D03*
X0198150Y0264095D03*
X0184371Y0254253D03*
X0180434Y0259174D03*
X0166532Y0252922D03*
X0164686Y0244410D03*
X0182402Y0229646D03*
X0180343Y0219607D03*
X0172560Y0205040D03*
X0142371Y0216934D03*
X0196182Y0239489D03*
X0204056Y0240473D03*
X0159765Y0284765D03*
X0212914Y0378269D03*
X0184371Y0421576D03*
X0326103Y0399922D03*
X0336930Y0432402D03*
X0328072Y0434371D03*
X0372363Y0392048D03*
X0375316Y0396969D03*
X0339883Y0357599D03*
X0136143Y0115473D03*
X0187324Y0084961D03*
D38*
X0213894Y0209812D03*
X0214328Y0225206D03*
X0214611Y0235733D03*
X0227068Y0236017D03*
X0238950Y0250761D03*
X0226997Y0253556D03*
X0251182Y0237938D03*
X0263213Y0237946D03*
X0275052Y0259725D03*
X0192465Y0228666D03*
X0176080Y0249202D03*
X0166772Y0260450D03*
X0161757Y0266032D03*
X0149528Y0277607D03*
X0144017Y0263619D03*
X0131190Y0262721D03*
X0130446Y0269233D03*
X0123387Y0269087D03*
X0116725Y0269182D03*
X0109867Y0269087D03*
X0103351Y0269135D03*
X0096784Y0269438D03*
X0095993Y0246517D03*
X0095910Y0239891D03*
X0095993Y0232930D03*
X0102001Y0229741D03*
X0108875Y0229536D03*
X0115587Y0229410D03*
X0122131Y0229410D03*
X0128883Y0229245D03*
X0132898Y0235127D03*
X0132564Y0241603D03*
X0132772Y0248024D03*
X0127284Y0252028D03*
X0144363Y0249749D03*
X0168024Y0221217D03*
X0182143Y0268737D03*
X0178662Y0288072D03*
X0182174Y0299654D03*
X0164422Y0299044D03*
X0145686Y0318717D03*
X0415076Y0192005D03*
D39*
X0145985Y0216851D02*
X0142454Y0216851D01*
X0142371Y0216934D01*
M02*
