G75*
%MOIN*%
%OFA0B0*%
%FSLAX25Y25*%
%IPPOS*%
%LPD*%
%AMOC8*
5,1,8,0,0,1.08239X$1,22.5*
%
%ADD10C,0.00039*%
%ADD11C,0.00500*%
%ADD12C,0.00400*%
%ADD13C,0.00000*%
D10*
X0005237Y0028859D02*
X0012324Y0028859D01*
X0028859Y0005237D02*
X0029430Y0005244D01*
X0030000Y0005265D01*
X0030570Y0005299D01*
X0031139Y0005347D01*
X0031706Y0005409D01*
X0032272Y0005485D01*
X0032836Y0005574D01*
X0033397Y0005677D01*
X0033956Y0005794D01*
X0034512Y0005923D01*
X0035065Y0006067D01*
X0035614Y0006223D01*
X0036159Y0006393D01*
X0036699Y0006576D01*
X0037235Y0006772D01*
X0037767Y0006981D01*
X0038293Y0007203D01*
X0038813Y0007437D01*
X0039328Y0007684D01*
X0039837Y0007943D01*
X0040339Y0008214D01*
X0040834Y0008498D01*
X0041323Y0008793D01*
X0041804Y0009100D01*
X0042278Y0009418D01*
X0042744Y0009748D01*
X0043201Y0010089D01*
X0043651Y0010442D01*
X0044091Y0010804D01*
X0044523Y0011178D01*
X0044946Y0011561D01*
X0045359Y0011955D01*
X0045763Y0012359D01*
X0046157Y0012772D01*
X0046540Y0013195D01*
X0046914Y0013627D01*
X0047276Y0014067D01*
X0047629Y0014517D01*
X0047970Y0014974D01*
X0048300Y0015440D01*
X0048618Y0015914D01*
X0048925Y0016395D01*
X0049220Y0016884D01*
X0049504Y0017379D01*
X0049775Y0017881D01*
X0050034Y0018390D01*
X0050281Y0018905D01*
X0050515Y0019425D01*
X0050737Y0019951D01*
X0050946Y0020483D01*
X0051142Y0021019D01*
X0051325Y0021559D01*
X0051495Y0022104D01*
X0051651Y0022653D01*
X0051795Y0023206D01*
X0051924Y0023762D01*
X0052041Y0024321D01*
X0052144Y0024882D01*
X0052233Y0025446D01*
X0052309Y0026012D01*
X0052371Y0026579D01*
X0052419Y0027148D01*
X0052453Y0027718D01*
X0052474Y0028288D01*
X0052481Y0028859D01*
X0131221Y0107599D01*
X0178465Y0060355D01*
X0335946Y0060355D01*
X0383190Y0107599D01*
X0461930Y0028859D01*
X0461937Y0028288D01*
X0461958Y0027718D01*
X0461992Y0027148D01*
X0462040Y0026579D01*
X0462102Y0026012D01*
X0462178Y0025446D01*
X0462267Y0024882D01*
X0462370Y0024321D01*
X0462487Y0023762D01*
X0462616Y0023206D01*
X0462760Y0022653D01*
X0462916Y0022104D01*
X0463086Y0021559D01*
X0463269Y0021019D01*
X0463465Y0020483D01*
X0463674Y0019951D01*
X0463896Y0019425D01*
X0464130Y0018905D01*
X0464377Y0018390D01*
X0464636Y0017881D01*
X0464907Y0017379D01*
X0465191Y0016884D01*
X0465486Y0016395D01*
X0465793Y0015914D01*
X0466111Y0015440D01*
X0466441Y0014974D01*
X0466782Y0014517D01*
X0467135Y0014067D01*
X0467497Y0013627D01*
X0467871Y0013195D01*
X0468254Y0012772D01*
X0468648Y0012359D01*
X0469052Y0011955D01*
X0469465Y0011561D01*
X0469888Y0011178D01*
X0470320Y0010804D01*
X0470760Y0010442D01*
X0471210Y0010089D01*
X0471667Y0009748D01*
X0472133Y0009418D01*
X0472607Y0009100D01*
X0473088Y0008793D01*
X0473577Y0008498D01*
X0474072Y0008214D01*
X0474574Y0007943D01*
X0475083Y0007684D01*
X0475598Y0007437D01*
X0476118Y0007203D01*
X0476644Y0006981D01*
X0477176Y0006772D01*
X0477712Y0006576D01*
X0478252Y0006393D01*
X0478797Y0006223D01*
X0479346Y0006067D01*
X0479899Y0005923D01*
X0480455Y0005794D01*
X0481014Y0005677D01*
X0481575Y0005574D01*
X0482139Y0005485D01*
X0482705Y0005409D01*
X0483272Y0005347D01*
X0483841Y0005299D01*
X0484411Y0005265D01*
X0484981Y0005244D01*
X0485552Y0005237D01*
X0485552Y0012324D01*
X0509174Y0028859D02*
X0509167Y0029430D01*
X0509146Y0030000D01*
X0509112Y0030570D01*
X0509064Y0031139D01*
X0509002Y0031706D01*
X0508926Y0032272D01*
X0508837Y0032836D01*
X0508734Y0033397D01*
X0508617Y0033956D01*
X0508488Y0034512D01*
X0508344Y0035065D01*
X0508188Y0035614D01*
X0508018Y0036159D01*
X0507835Y0036699D01*
X0507639Y0037235D01*
X0507430Y0037767D01*
X0507208Y0038293D01*
X0506974Y0038813D01*
X0506727Y0039328D01*
X0506468Y0039837D01*
X0506197Y0040339D01*
X0505913Y0040834D01*
X0505618Y0041323D01*
X0505311Y0041804D01*
X0504993Y0042278D01*
X0504663Y0042744D01*
X0504322Y0043201D01*
X0503969Y0043651D01*
X0503607Y0044091D01*
X0503233Y0044523D01*
X0502850Y0044946D01*
X0502456Y0045359D01*
X0502052Y0045763D01*
X0501639Y0046157D01*
X0501216Y0046540D01*
X0500784Y0046914D01*
X0500344Y0047276D01*
X0499894Y0047629D01*
X0499437Y0047970D01*
X0498971Y0048300D01*
X0498497Y0048618D01*
X0498016Y0048925D01*
X0497527Y0049220D01*
X0497032Y0049504D01*
X0496530Y0049775D01*
X0496021Y0050034D01*
X0495506Y0050281D01*
X0494986Y0050515D01*
X0494460Y0050737D01*
X0493928Y0050946D01*
X0493392Y0051142D01*
X0492852Y0051325D01*
X0492307Y0051495D01*
X0491758Y0051651D01*
X0491205Y0051795D01*
X0490649Y0051924D01*
X0490090Y0052041D01*
X0489529Y0052144D01*
X0488965Y0052233D01*
X0488399Y0052309D01*
X0487832Y0052371D01*
X0487263Y0052419D01*
X0486693Y0052453D01*
X0486123Y0052474D01*
X0485552Y0052481D01*
X0406812Y0131221D01*
X0454056Y0178465D01*
X0454056Y0335946D01*
X0406812Y0383190D01*
X0485552Y0461930D01*
X0486123Y0461937D01*
X0486693Y0461958D01*
X0487263Y0461992D01*
X0487832Y0462040D01*
X0488399Y0462102D01*
X0488965Y0462178D01*
X0489529Y0462267D01*
X0490090Y0462370D01*
X0490649Y0462487D01*
X0491205Y0462616D01*
X0491758Y0462760D01*
X0492307Y0462916D01*
X0492852Y0463086D01*
X0493392Y0463269D01*
X0493928Y0463465D01*
X0494460Y0463674D01*
X0494986Y0463896D01*
X0495506Y0464130D01*
X0496021Y0464377D01*
X0496530Y0464636D01*
X0497032Y0464907D01*
X0497527Y0465191D01*
X0498016Y0465486D01*
X0498497Y0465793D01*
X0498971Y0466111D01*
X0499437Y0466441D01*
X0499894Y0466782D01*
X0500344Y0467135D01*
X0500784Y0467497D01*
X0501216Y0467871D01*
X0501639Y0468254D01*
X0502052Y0468648D01*
X0502456Y0469052D01*
X0502850Y0469465D01*
X0503233Y0469888D01*
X0503607Y0470320D01*
X0503969Y0470760D01*
X0504322Y0471210D01*
X0504663Y0471667D01*
X0504993Y0472133D01*
X0505311Y0472607D01*
X0505618Y0473088D01*
X0505913Y0473577D01*
X0506197Y0474072D01*
X0506468Y0474574D01*
X0506727Y0475083D01*
X0506974Y0475598D01*
X0507208Y0476118D01*
X0507430Y0476644D01*
X0507639Y0477176D01*
X0507835Y0477712D01*
X0508018Y0478252D01*
X0508188Y0478797D01*
X0508344Y0479346D01*
X0508488Y0479899D01*
X0508617Y0480455D01*
X0508734Y0481014D01*
X0508837Y0481575D01*
X0508926Y0482139D01*
X0509002Y0482705D01*
X0509064Y0483272D01*
X0509112Y0483841D01*
X0509146Y0484411D01*
X0509167Y0484981D01*
X0509174Y0485552D01*
X0502087Y0485552D01*
X0485552Y0509174D02*
X0484981Y0509167D01*
X0484411Y0509146D01*
X0483841Y0509112D01*
X0483272Y0509064D01*
X0482705Y0509002D01*
X0482139Y0508926D01*
X0481575Y0508837D01*
X0481014Y0508734D01*
X0480455Y0508617D01*
X0479899Y0508488D01*
X0479346Y0508344D01*
X0478797Y0508188D01*
X0478252Y0508018D01*
X0477712Y0507835D01*
X0477176Y0507639D01*
X0476644Y0507430D01*
X0476118Y0507208D01*
X0475598Y0506974D01*
X0475083Y0506727D01*
X0474574Y0506468D01*
X0474072Y0506197D01*
X0473577Y0505913D01*
X0473088Y0505618D01*
X0472607Y0505311D01*
X0472133Y0504993D01*
X0471667Y0504663D01*
X0471210Y0504322D01*
X0470760Y0503969D01*
X0470320Y0503607D01*
X0469888Y0503233D01*
X0469465Y0502850D01*
X0469052Y0502456D01*
X0468648Y0502052D01*
X0468254Y0501639D01*
X0467871Y0501216D01*
X0467497Y0500784D01*
X0467135Y0500344D01*
X0466782Y0499894D01*
X0466441Y0499437D01*
X0466111Y0498971D01*
X0465793Y0498497D01*
X0465486Y0498016D01*
X0465191Y0497527D01*
X0464907Y0497032D01*
X0464636Y0496530D01*
X0464377Y0496021D01*
X0464130Y0495506D01*
X0463896Y0494986D01*
X0463674Y0494460D01*
X0463465Y0493928D01*
X0463269Y0493392D01*
X0463086Y0492852D01*
X0462916Y0492307D01*
X0462760Y0491758D01*
X0462616Y0491205D01*
X0462487Y0490649D01*
X0462370Y0490090D01*
X0462267Y0489529D01*
X0462178Y0488965D01*
X0462102Y0488399D01*
X0462040Y0487832D01*
X0461992Y0487263D01*
X0461958Y0486693D01*
X0461937Y0486123D01*
X0461930Y0485552D01*
X0383190Y0406812D01*
X0335946Y0454056D01*
X0178465Y0454056D01*
X0131221Y0406812D01*
X0052481Y0485552D01*
X0052474Y0486123D01*
X0052453Y0486693D01*
X0052419Y0487263D01*
X0052371Y0487832D01*
X0052309Y0488399D01*
X0052233Y0488965D01*
X0052144Y0489529D01*
X0052041Y0490090D01*
X0051924Y0490649D01*
X0051795Y0491205D01*
X0051651Y0491758D01*
X0051495Y0492307D01*
X0051325Y0492852D01*
X0051142Y0493392D01*
X0050946Y0493928D01*
X0050737Y0494460D01*
X0050515Y0494986D01*
X0050281Y0495506D01*
X0050034Y0496021D01*
X0049775Y0496530D01*
X0049504Y0497032D01*
X0049220Y0497527D01*
X0048925Y0498016D01*
X0048618Y0498497D01*
X0048300Y0498971D01*
X0047970Y0499437D01*
X0047629Y0499894D01*
X0047276Y0500344D01*
X0046914Y0500784D01*
X0046540Y0501216D01*
X0046157Y0501639D01*
X0045763Y0502052D01*
X0045359Y0502456D01*
X0044946Y0502850D01*
X0044523Y0503233D01*
X0044091Y0503607D01*
X0043651Y0503969D01*
X0043201Y0504322D01*
X0042744Y0504663D01*
X0042278Y0504993D01*
X0041804Y0505311D01*
X0041323Y0505618D01*
X0040834Y0505913D01*
X0040339Y0506197D01*
X0039837Y0506468D01*
X0039328Y0506727D01*
X0038813Y0506974D01*
X0038293Y0507208D01*
X0037767Y0507430D01*
X0037235Y0507639D01*
X0036699Y0507835D01*
X0036159Y0508018D01*
X0035614Y0508188D01*
X0035065Y0508344D01*
X0034512Y0508488D01*
X0033956Y0508617D01*
X0033397Y0508734D01*
X0032836Y0508837D01*
X0032272Y0508926D01*
X0031706Y0509002D01*
X0031139Y0509064D01*
X0030570Y0509112D01*
X0030000Y0509146D01*
X0029430Y0509167D01*
X0028859Y0509174D01*
X0028859Y0502087D01*
X0005237Y0485552D02*
X0005244Y0484981D01*
X0005265Y0484411D01*
X0005299Y0483841D01*
X0005347Y0483272D01*
X0005409Y0482705D01*
X0005485Y0482139D01*
X0005574Y0481575D01*
X0005677Y0481014D01*
X0005794Y0480455D01*
X0005923Y0479899D01*
X0006067Y0479346D01*
X0006223Y0478797D01*
X0006393Y0478252D01*
X0006576Y0477712D01*
X0006772Y0477176D01*
X0006981Y0476644D01*
X0007203Y0476118D01*
X0007437Y0475598D01*
X0007684Y0475083D01*
X0007943Y0474574D01*
X0008214Y0474072D01*
X0008498Y0473577D01*
X0008793Y0473088D01*
X0009100Y0472607D01*
X0009418Y0472133D01*
X0009748Y0471667D01*
X0010089Y0471210D01*
X0010442Y0470760D01*
X0010804Y0470320D01*
X0011178Y0469888D01*
X0011561Y0469465D01*
X0011955Y0469052D01*
X0012359Y0468648D01*
X0012772Y0468254D01*
X0013195Y0467871D01*
X0013627Y0467497D01*
X0014067Y0467135D01*
X0014517Y0466782D01*
X0014974Y0466441D01*
X0015440Y0466111D01*
X0015914Y0465793D01*
X0016395Y0465486D01*
X0016884Y0465191D01*
X0017379Y0464907D01*
X0017881Y0464636D01*
X0018390Y0464377D01*
X0018905Y0464130D01*
X0019425Y0463896D01*
X0019951Y0463674D01*
X0020483Y0463465D01*
X0021019Y0463269D01*
X0021559Y0463086D01*
X0022104Y0462916D01*
X0022653Y0462760D01*
X0023206Y0462616D01*
X0023762Y0462487D01*
X0024321Y0462370D01*
X0024882Y0462267D01*
X0025446Y0462178D01*
X0026012Y0462102D01*
X0026579Y0462040D01*
X0027148Y0461992D01*
X0027718Y0461958D01*
X0028288Y0461937D01*
X0028859Y0461930D01*
X0107599Y0383190D01*
X0060355Y0335946D01*
X0060355Y0178465D01*
X0107599Y0131221D01*
X0028859Y0052481D01*
X0028288Y0052474D01*
X0027718Y0052453D01*
X0027148Y0052419D01*
X0026579Y0052371D01*
X0026012Y0052309D01*
X0025446Y0052233D01*
X0024882Y0052144D01*
X0024321Y0052041D01*
X0023762Y0051924D01*
X0023206Y0051795D01*
X0022653Y0051651D01*
X0022104Y0051495D01*
X0021559Y0051325D01*
X0021019Y0051142D01*
X0020483Y0050946D01*
X0019951Y0050737D01*
X0019425Y0050515D01*
X0018905Y0050281D01*
X0018390Y0050034D01*
X0017881Y0049775D01*
X0017379Y0049504D01*
X0016884Y0049220D01*
X0016395Y0048925D01*
X0015914Y0048618D01*
X0015440Y0048300D01*
X0014974Y0047970D01*
X0014517Y0047629D01*
X0014067Y0047276D01*
X0013627Y0046914D01*
X0013195Y0046540D01*
X0012772Y0046157D01*
X0012359Y0045763D01*
X0011955Y0045359D01*
X0011561Y0044946D01*
X0011178Y0044523D01*
X0010804Y0044091D01*
X0010442Y0043651D01*
X0010089Y0043201D01*
X0009748Y0042744D01*
X0009418Y0042278D01*
X0009100Y0041804D01*
X0008793Y0041323D01*
X0008498Y0040834D01*
X0008214Y0040339D01*
X0007943Y0039837D01*
X0007684Y0039328D01*
X0007437Y0038813D01*
X0007203Y0038293D01*
X0006981Y0037767D01*
X0006772Y0037235D01*
X0006576Y0036699D01*
X0006393Y0036159D01*
X0006223Y0035614D01*
X0006067Y0035065D01*
X0005923Y0034512D01*
X0005794Y0033956D01*
X0005677Y0033397D01*
X0005574Y0032836D01*
X0005485Y0032272D01*
X0005409Y0031706D01*
X0005347Y0031139D01*
X0005299Y0030570D01*
X0005265Y0030000D01*
X0005244Y0029430D01*
X0005237Y0028859D01*
X0012324Y0028859D02*
X0012329Y0029263D01*
X0012344Y0029666D01*
X0012368Y0030069D01*
X0012403Y0030471D01*
X0012447Y0030873D01*
X0012501Y0031273D01*
X0012565Y0031671D01*
X0012638Y0032068D01*
X0012722Y0032463D01*
X0012814Y0032856D01*
X0012917Y0033247D01*
X0013029Y0033635D01*
X0013150Y0034020D01*
X0013281Y0034402D01*
X0013421Y0034780D01*
X0013570Y0035156D01*
X0013728Y0035527D01*
X0013895Y0035894D01*
X0014072Y0036258D01*
X0014257Y0036616D01*
X0014450Y0036971D01*
X0014653Y0037320D01*
X0014864Y0037664D01*
X0015083Y0038003D01*
X0015310Y0038337D01*
X0015545Y0038665D01*
X0015789Y0038987D01*
X0016040Y0039303D01*
X0016299Y0039613D01*
X0016565Y0039916D01*
X0016839Y0040213D01*
X0017120Y0040503D01*
X0017407Y0040786D01*
X0017702Y0041063D01*
X0018003Y0041331D01*
X0018311Y0041593D01*
X0018625Y0041846D01*
X0018945Y0042092D01*
X0019271Y0042330D01*
X0019603Y0042560D01*
X0019940Y0042782D01*
X0020283Y0042996D01*
X0020630Y0043201D01*
X0020983Y0043398D01*
X0021340Y0043586D01*
X0021702Y0043765D01*
X0022068Y0043935D01*
X0022438Y0044096D01*
X0022812Y0044249D01*
X0023190Y0044392D01*
X0023571Y0044525D01*
X0023955Y0044650D01*
X0024342Y0044765D01*
X0024731Y0044870D01*
X0025123Y0044967D01*
X0025518Y0045053D01*
X0025914Y0045130D01*
X0026312Y0045197D01*
X0026712Y0045254D01*
X0027113Y0045302D01*
X0027515Y0045339D01*
X0027917Y0045367D01*
X0028321Y0045385D01*
X0028724Y0045393D01*
X0029128Y0045392D01*
X0029532Y0045380D01*
X0029935Y0045359D01*
X0030337Y0045328D01*
X0030739Y0045287D01*
X0031139Y0045236D01*
X0031539Y0045175D01*
X0031936Y0045105D01*
X0032332Y0045025D01*
X0032726Y0044936D01*
X0033117Y0044836D01*
X0033506Y0044728D01*
X0033892Y0044609D01*
X0034275Y0044482D01*
X0034655Y0044345D01*
X0035031Y0044199D01*
X0035404Y0044044D01*
X0035772Y0043879D01*
X0036137Y0043706D01*
X0036497Y0043524D01*
X0036853Y0043333D01*
X0037204Y0043134D01*
X0037550Y0042926D01*
X0037891Y0042709D01*
X0038226Y0042485D01*
X0038556Y0042252D01*
X0038880Y0042011D01*
X0039198Y0041763D01*
X0039510Y0041506D01*
X0039816Y0041242D01*
X0040115Y0040971D01*
X0040407Y0040693D01*
X0040693Y0040407D01*
X0040971Y0040115D01*
X0041242Y0039816D01*
X0041506Y0039510D01*
X0041763Y0039198D01*
X0042011Y0038880D01*
X0042252Y0038556D01*
X0042485Y0038226D01*
X0042709Y0037891D01*
X0042926Y0037550D01*
X0043134Y0037204D01*
X0043333Y0036853D01*
X0043524Y0036497D01*
X0043706Y0036137D01*
X0043879Y0035772D01*
X0044044Y0035404D01*
X0044199Y0035031D01*
X0044345Y0034655D01*
X0044482Y0034275D01*
X0044609Y0033892D01*
X0044728Y0033506D01*
X0044836Y0033117D01*
X0044936Y0032726D01*
X0045025Y0032332D01*
X0045105Y0031936D01*
X0045175Y0031539D01*
X0045236Y0031139D01*
X0045287Y0030739D01*
X0045328Y0030337D01*
X0045359Y0029935D01*
X0045380Y0029532D01*
X0045392Y0029128D01*
X0045393Y0028724D01*
X0045385Y0028321D01*
X0045367Y0027917D01*
X0045339Y0027515D01*
X0045302Y0027113D01*
X0045254Y0026712D01*
X0045197Y0026312D01*
X0045130Y0025914D01*
X0045053Y0025518D01*
X0044967Y0025123D01*
X0044870Y0024731D01*
X0044765Y0024342D01*
X0044650Y0023955D01*
X0044525Y0023571D01*
X0044392Y0023190D01*
X0044249Y0022812D01*
X0044096Y0022438D01*
X0043935Y0022068D01*
X0043765Y0021702D01*
X0043586Y0021340D01*
X0043398Y0020983D01*
X0043201Y0020630D01*
X0042996Y0020283D01*
X0042782Y0019940D01*
X0042560Y0019603D01*
X0042330Y0019271D01*
X0042092Y0018945D01*
X0041846Y0018625D01*
X0041593Y0018311D01*
X0041331Y0018003D01*
X0041063Y0017702D01*
X0040786Y0017407D01*
X0040503Y0017120D01*
X0040213Y0016839D01*
X0039916Y0016565D01*
X0039613Y0016299D01*
X0039303Y0016040D01*
X0038987Y0015789D01*
X0038665Y0015545D01*
X0038337Y0015310D01*
X0038003Y0015083D01*
X0037664Y0014864D01*
X0037320Y0014653D01*
X0036971Y0014450D01*
X0036616Y0014257D01*
X0036258Y0014072D01*
X0035894Y0013895D01*
X0035527Y0013728D01*
X0035156Y0013570D01*
X0034780Y0013421D01*
X0034402Y0013281D01*
X0034020Y0013150D01*
X0033635Y0013029D01*
X0033247Y0012917D01*
X0032856Y0012814D01*
X0032463Y0012722D01*
X0032068Y0012638D01*
X0031671Y0012565D01*
X0031273Y0012501D01*
X0030873Y0012447D01*
X0030471Y0012403D01*
X0030069Y0012368D01*
X0029666Y0012344D01*
X0029263Y0012329D01*
X0028859Y0012324D01*
X0028859Y0005237D01*
X0485552Y0012324D02*
X0485148Y0012329D01*
X0484745Y0012344D01*
X0484342Y0012368D01*
X0483940Y0012403D01*
X0483538Y0012447D01*
X0483138Y0012501D01*
X0482740Y0012565D01*
X0482343Y0012638D01*
X0481948Y0012722D01*
X0481555Y0012814D01*
X0481164Y0012917D01*
X0480776Y0013029D01*
X0480391Y0013150D01*
X0480009Y0013281D01*
X0479631Y0013421D01*
X0479255Y0013570D01*
X0478884Y0013728D01*
X0478517Y0013895D01*
X0478153Y0014072D01*
X0477795Y0014257D01*
X0477440Y0014450D01*
X0477091Y0014653D01*
X0476747Y0014864D01*
X0476408Y0015083D01*
X0476074Y0015310D01*
X0475746Y0015545D01*
X0475424Y0015789D01*
X0475108Y0016040D01*
X0474798Y0016299D01*
X0474495Y0016565D01*
X0474198Y0016839D01*
X0473908Y0017120D01*
X0473625Y0017407D01*
X0473348Y0017702D01*
X0473080Y0018003D01*
X0472818Y0018311D01*
X0472565Y0018625D01*
X0472319Y0018945D01*
X0472081Y0019271D01*
X0471851Y0019603D01*
X0471629Y0019940D01*
X0471415Y0020283D01*
X0471210Y0020630D01*
X0471013Y0020983D01*
X0470825Y0021340D01*
X0470646Y0021702D01*
X0470476Y0022068D01*
X0470315Y0022438D01*
X0470162Y0022812D01*
X0470019Y0023190D01*
X0469886Y0023571D01*
X0469761Y0023955D01*
X0469646Y0024342D01*
X0469541Y0024731D01*
X0469444Y0025123D01*
X0469358Y0025518D01*
X0469281Y0025914D01*
X0469214Y0026312D01*
X0469157Y0026712D01*
X0469109Y0027113D01*
X0469072Y0027515D01*
X0469044Y0027917D01*
X0469026Y0028321D01*
X0469018Y0028724D01*
X0469019Y0029128D01*
X0469031Y0029532D01*
X0469052Y0029935D01*
X0469083Y0030337D01*
X0469124Y0030739D01*
X0469175Y0031139D01*
X0469236Y0031539D01*
X0469306Y0031936D01*
X0469386Y0032332D01*
X0469475Y0032726D01*
X0469575Y0033117D01*
X0469683Y0033506D01*
X0469802Y0033892D01*
X0469929Y0034275D01*
X0470066Y0034655D01*
X0470212Y0035031D01*
X0470367Y0035404D01*
X0470532Y0035772D01*
X0470705Y0036137D01*
X0470887Y0036497D01*
X0471078Y0036853D01*
X0471277Y0037204D01*
X0471485Y0037550D01*
X0471702Y0037891D01*
X0471926Y0038226D01*
X0472159Y0038556D01*
X0472400Y0038880D01*
X0472648Y0039198D01*
X0472905Y0039510D01*
X0473169Y0039816D01*
X0473440Y0040115D01*
X0473718Y0040407D01*
X0474004Y0040693D01*
X0474296Y0040971D01*
X0474595Y0041242D01*
X0474901Y0041506D01*
X0475213Y0041763D01*
X0475531Y0042011D01*
X0475855Y0042252D01*
X0476185Y0042485D01*
X0476520Y0042709D01*
X0476861Y0042926D01*
X0477207Y0043134D01*
X0477558Y0043333D01*
X0477914Y0043524D01*
X0478274Y0043706D01*
X0478639Y0043879D01*
X0479007Y0044044D01*
X0479380Y0044199D01*
X0479756Y0044345D01*
X0480136Y0044482D01*
X0480519Y0044609D01*
X0480905Y0044728D01*
X0481294Y0044836D01*
X0481685Y0044936D01*
X0482079Y0045025D01*
X0482475Y0045105D01*
X0482872Y0045175D01*
X0483272Y0045236D01*
X0483672Y0045287D01*
X0484074Y0045328D01*
X0484476Y0045359D01*
X0484879Y0045380D01*
X0485283Y0045392D01*
X0485687Y0045393D01*
X0486090Y0045385D01*
X0486494Y0045367D01*
X0486896Y0045339D01*
X0487298Y0045302D01*
X0487699Y0045254D01*
X0488099Y0045197D01*
X0488497Y0045130D01*
X0488893Y0045053D01*
X0489288Y0044967D01*
X0489680Y0044870D01*
X0490069Y0044765D01*
X0490456Y0044650D01*
X0490840Y0044525D01*
X0491221Y0044392D01*
X0491599Y0044249D01*
X0491973Y0044096D01*
X0492343Y0043935D01*
X0492709Y0043765D01*
X0493071Y0043586D01*
X0493428Y0043398D01*
X0493781Y0043201D01*
X0494128Y0042996D01*
X0494471Y0042782D01*
X0494808Y0042560D01*
X0495140Y0042330D01*
X0495466Y0042092D01*
X0495786Y0041846D01*
X0496100Y0041593D01*
X0496408Y0041331D01*
X0496709Y0041063D01*
X0497004Y0040786D01*
X0497291Y0040503D01*
X0497572Y0040213D01*
X0497846Y0039916D01*
X0498112Y0039613D01*
X0498371Y0039303D01*
X0498622Y0038987D01*
X0498866Y0038665D01*
X0499101Y0038337D01*
X0499328Y0038003D01*
X0499547Y0037664D01*
X0499758Y0037320D01*
X0499961Y0036971D01*
X0500154Y0036616D01*
X0500339Y0036258D01*
X0500516Y0035894D01*
X0500683Y0035527D01*
X0500841Y0035156D01*
X0500990Y0034780D01*
X0501130Y0034402D01*
X0501261Y0034020D01*
X0501382Y0033635D01*
X0501494Y0033247D01*
X0501597Y0032856D01*
X0501689Y0032463D01*
X0501773Y0032068D01*
X0501846Y0031671D01*
X0501910Y0031273D01*
X0501964Y0030873D01*
X0502008Y0030471D01*
X0502043Y0030069D01*
X0502067Y0029666D01*
X0502082Y0029263D01*
X0502087Y0028859D01*
X0509174Y0028859D01*
X0502087Y0485552D02*
X0502082Y0485148D01*
X0502067Y0484745D01*
X0502043Y0484342D01*
X0502008Y0483940D01*
X0501964Y0483538D01*
X0501910Y0483138D01*
X0501846Y0482740D01*
X0501773Y0482343D01*
X0501689Y0481948D01*
X0501597Y0481555D01*
X0501494Y0481164D01*
X0501382Y0480776D01*
X0501261Y0480391D01*
X0501130Y0480009D01*
X0500990Y0479631D01*
X0500841Y0479255D01*
X0500683Y0478884D01*
X0500516Y0478517D01*
X0500339Y0478153D01*
X0500154Y0477795D01*
X0499961Y0477440D01*
X0499758Y0477091D01*
X0499547Y0476747D01*
X0499328Y0476408D01*
X0499101Y0476074D01*
X0498866Y0475746D01*
X0498622Y0475424D01*
X0498371Y0475108D01*
X0498112Y0474798D01*
X0497846Y0474495D01*
X0497572Y0474198D01*
X0497291Y0473908D01*
X0497004Y0473625D01*
X0496709Y0473348D01*
X0496408Y0473080D01*
X0496100Y0472818D01*
X0495786Y0472565D01*
X0495466Y0472319D01*
X0495140Y0472081D01*
X0494808Y0471851D01*
X0494471Y0471629D01*
X0494128Y0471415D01*
X0493781Y0471210D01*
X0493428Y0471013D01*
X0493071Y0470825D01*
X0492709Y0470646D01*
X0492343Y0470476D01*
X0491973Y0470315D01*
X0491599Y0470162D01*
X0491221Y0470019D01*
X0490840Y0469886D01*
X0490456Y0469761D01*
X0490069Y0469646D01*
X0489680Y0469541D01*
X0489288Y0469444D01*
X0488893Y0469358D01*
X0488497Y0469281D01*
X0488099Y0469214D01*
X0487699Y0469157D01*
X0487298Y0469109D01*
X0486896Y0469072D01*
X0486494Y0469044D01*
X0486090Y0469026D01*
X0485687Y0469018D01*
X0485283Y0469019D01*
X0484879Y0469031D01*
X0484476Y0469052D01*
X0484074Y0469083D01*
X0483672Y0469124D01*
X0483272Y0469175D01*
X0482872Y0469236D01*
X0482475Y0469306D01*
X0482079Y0469386D01*
X0481685Y0469475D01*
X0481294Y0469575D01*
X0480905Y0469683D01*
X0480519Y0469802D01*
X0480136Y0469929D01*
X0479756Y0470066D01*
X0479380Y0470212D01*
X0479007Y0470367D01*
X0478639Y0470532D01*
X0478274Y0470705D01*
X0477914Y0470887D01*
X0477558Y0471078D01*
X0477207Y0471277D01*
X0476861Y0471485D01*
X0476520Y0471702D01*
X0476185Y0471926D01*
X0475855Y0472159D01*
X0475531Y0472400D01*
X0475213Y0472648D01*
X0474901Y0472905D01*
X0474595Y0473169D01*
X0474296Y0473440D01*
X0474004Y0473718D01*
X0473718Y0474004D01*
X0473440Y0474296D01*
X0473169Y0474595D01*
X0472905Y0474901D01*
X0472648Y0475213D01*
X0472400Y0475531D01*
X0472159Y0475855D01*
X0471926Y0476185D01*
X0471702Y0476520D01*
X0471485Y0476861D01*
X0471277Y0477207D01*
X0471078Y0477558D01*
X0470887Y0477914D01*
X0470705Y0478274D01*
X0470532Y0478639D01*
X0470367Y0479007D01*
X0470212Y0479380D01*
X0470066Y0479756D01*
X0469929Y0480136D01*
X0469802Y0480519D01*
X0469683Y0480905D01*
X0469575Y0481294D01*
X0469475Y0481685D01*
X0469386Y0482079D01*
X0469306Y0482475D01*
X0469236Y0482872D01*
X0469175Y0483272D01*
X0469124Y0483672D01*
X0469083Y0484074D01*
X0469052Y0484476D01*
X0469031Y0484879D01*
X0469019Y0485283D01*
X0469018Y0485687D01*
X0469026Y0486090D01*
X0469044Y0486494D01*
X0469072Y0486896D01*
X0469109Y0487298D01*
X0469157Y0487699D01*
X0469214Y0488099D01*
X0469281Y0488497D01*
X0469358Y0488893D01*
X0469444Y0489288D01*
X0469541Y0489680D01*
X0469646Y0490069D01*
X0469761Y0490456D01*
X0469886Y0490840D01*
X0470019Y0491221D01*
X0470162Y0491599D01*
X0470315Y0491973D01*
X0470476Y0492343D01*
X0470646Y0492709D01*
X0470825Y0493071D01*
X0471013Y0493428D01*
X0471210Y0493781D01*
X0471415Y0494128D01*
X0471629Y0494471D01*
X0471851Y0494808D01*
X0472081Y0495140D01*
X0472319Y0495466D01*
X0472565Y0495786D01*
X0472818Y0496100D01*
X0473080Y0496408D01*
X0473348Y0496709D01*
X0473625Y0497004D01*
X0473908Y0497291D01*
X0474198Y0497572D01*
X0474495Y0497846D01*
X0474798Y0498112D01*
X0475108Y0498371D01*
X0475424Y0498622D01*
X0475746Y0498866D01*
X0476074Y0499101D01*
X0476408Y0499328D01*
X0476747Y0499547D01*
X0477091Y0499758D01*
X0477440Y0499961D01*
X0477795Y0500154D01*
X0478153Y0500339D01*
X0478517Y0500516D01*
X0478884Y0500683D01*
X0479255Y0500841D01*
X0479631Y0500990D01*
X0480009Y0501130D01*
X0480391Y0501261D01*
X0480776Y0501382D01*
X0481164Y0501494D01*
X0481555Y0501597D01*
X0481948Y0501689D01*
X0482343Y0501773D01*
X0482740Y0501846D01*
X0483138Y0501910D01*
X0483538Y0501964D01*
X0483940Y0502008D01*
X0484342Y0502043D01*
X0484745Y0502067D01*
X0485148Y0502082D01*
X0485552Y0502087D01*
X0485552Y0509174D01*
X0028859Y0502087D02*
X0029263Y0502082D01*
X0029666Y0502067D01*
X0030069Y0502043D01*
X0030471Y0502008D01*
X0030873Y0501964D01*
X0031273Y0501910D01*
X0031671Y0501846D01*
X0032068Y0501773D01*
X0032463Y0501689D01*
X0032856Y0501597D01*
X0033247Y0501494D01*
X0033635Y0501382D01*
X0034020Y0501261D01*
X0034402Y0501130D01*
X0034780Y0500990D01*
X0035156Y0500841D01*
X0035527Y0500683D01*
X0035894Y0500516D01*
X0036258Y0500339D01*
X0036616Y0500154D01*
X0036971Y0499961D01*
X0037320Y0499758D01*
X0037664Y0499547D01*
X0038003Y0499328D01*
X0038337Y0499101D01*
X0038665Y0498866D01*
X0038987Y0498622D01*
X0039303Y0498371D01*
X0039613Y0498112D01*
X0039916Y0497846D01*
X0040213Y0497572D01*
X0040503Y0497291D01*
X0040786Y0497004D01*
X0041063Y0496709D01*
X0041331Y0496408D01*
X0041593Y0496100D01*
X0041846Y0495786D01*
X0042092Y0495466D01*
X0042330Y0495140D01*
X0042560Y0494808D01*
X0042782Y0494471D01*
X0042996Y0494128D01*
X0043201Y0493781D01*
X0043398Y0493428D01*
X0043586Y0493071D01*
X0043765Y0492709D01*
X0043935Y0492343D01*
X0044096Y0491973D01*
X0044249Y0491599D01*
X0044392Y0491221D01*
X0044525Y0490840D01*
X0044650Y0490456D01*
X0044765Y0490069D01*
X0044870Y0489680D01*
X0044967Y0489288D01*
X0045053Y0488893D01*
X0045130Y0488497D01*
X0045197Y0488099D01*
X0045254Y0487699D01*
X0045302Y0487298D01*
X0045339Y0486896D01*
X0045367Y0486494D01*
X0045385Y0486090D01*
X0045393Y0485687D01*
X0045392Y0485283D01*
X0045380Y0484879D01*
X0045359Y0484476D01*
X0045328Y0484074D01*
X0045287Y0483672D01*
X0045236Y0483272D01*
X0045175Y0482872D01*
X0045105Y0482475D01*
X0045025Y0482079D01*
X0044936Y0481685D01*
X0044836Y0481294D01*
X0044728Y0480905D01*
X0044609Y0480519D01*
X0044482Y0480136D01*
X0044345Y0479756D01*
X0044199Y0479380D01*
X0044044Y0479007D01*
X0043879Y0478639D01*
X0043706Y0478274D01*
X0043524Y0477914D01*
X0043333Y0477558D01*
X0043134Y0477207D01*
X0042926Y0476861D01*
X0042709Y0476520D01*
X0042485Y0476185D01*
X0042252Y0475855D01*
X0042011Y0475531D01*
X0041763Y0475213D01*
X0041506Y0474901D01*
X0041242Y0474595D01*
X0040971Y0474296D01*
X0040693Y0474004D01*
X0040407Y0473718D01*
X0040115Y0473440D01*
X0039816Y0473169D01*
X0039510Y0472905D01*
X0039198Y0472648D01*
X0038880Y0472400D01*
X0038556Y0472159D01*
X0038226Y0471926D01*
X0037891Y0471702D01*
X0037550Y0471485D01*
X0037204Y0471277D01*
X0036853Y0471078D01*
X0036497Y0470887D01*
X0036137Y0470705D01*
X0035772Y0470532D01*
X0035404Y0470367D01*
X0035031Y0470212D01*
X0034655Y0470066D01*
X0034275Y0469929D01*
X0033892Y0469802D01*
X0033506Y0469683D01*
X0033117Y0469575D01*
X0032726Y0469475D01*
X0032332Y0469386D01*
X0031936Y0469306D01*
X0031539Y0469236D01*
X0031139Y0469175D01*
X0030739Y0469124D01*
X0030337Y0469083D01*
X0029935Y0469052D01*
X0029532Y0469031D01*
X0029128Y0469019D01*
X0028724Y0469018D01*
X0028321Y0469026D01*
X0027917Y0469044D01*
X0027515Y0469072D01*
X0027113Y0469109D01*
X0026712Y0469157D01*
X0026312Y0469214D01*
X0025914Y0469281D01*
X0025518Y0469358D01*
X0025123Y0469444D01*
X0024731Y0469541D01*
X0024342Y0469646D01*
X0023955Y0469761D01*
X0023571Y0469886D01*
X0023190Y0470019D01*
X0022812Y0470162D01*
X0022438Y0470315D01*
X0022068Y0470476D01*
X0021702Y0470646D01*
X0021340Y0470825D01*
X0020983Y0471013D01*
X0020630Y0471210D01*
X0020283Y0471415D01*
X0019940Y0471629D01*
X0019603Y0471851D01*
X0019271Y0472081D01*
X0018945Y0472319D01*
X0018625Y0472565D01*
X0018311Y0472818D01*
X0018003Y0473080D01*
X0017702Y0473348D01*
X0017407Y0473625D01*
X0017120Y0473908D01*
X0016839Y0474198D01*
X0016565Y0474495D01*
X0016299Y0474798D01*
X0016040Y0475108D01*
X0015789Y0475424D01*
X0015545Y0475746D01*
X0015310Y0476074D01*
X0015083Y0476408D01*
X0014864Y0476747D01*
X0014653Y0477091D01*
X0014450Y0477440D01*
X0014257Y0477795D01*
X0014072Y0478153D01*
X0013895Y0478517D01*
X0013728Y0478884D01*
X0013570Y0479255D01*
X0013421Y0479631D01*
X0013281Y0480009D01*
X0013150Y0480391D01*
X0013029Y0480776D01*
X0012917Y0481164D01*
X0012814Y0481555D01*
X0012722Y0481948D01*
X0012638Y0482343D01*
X0012565Y0482740D01*
X0012501Y0483138D01*
X0012447Y0483538D01*
X0012403Y0483940D01*
X0012368Y0484342D01*
X0012344Y0484745D01*
X0012329Y0485148D01*
X0012324Y0485552D01*
X0005237Y0485552D01*
D11*
X0177028Y0300513D02*
X0223741Y0300513D01*
X0223741Y0304450D01*
X0223741Y0300513D02*
X0229646Y0300513D01*
X0232599Y0300513D01*
X0232599Y0304450D01*
X0232599Y0300513D02*
X0245394Y0300513D01*
X0233583Y0267048D01*
X0276891Y0267048D01*
X0288702Y0300513D01*
X0290670Y0300513D02*
X0290670Y0304450D01*
X0290670Y0300513D02*
X0281812Y0300513D01*
X0281812Y0304450D01*
X0281812Y0300513D02*
X0245394Y0300513D01*
X0229646Y0300513D02*
X0217835Y0267048D01*
X0217835Y0247363D01*
X0229646Y0213898D01*
X0223741Y0213898D01*
X0223741Y0209961D01*
X0223741Y0213898D02*
X0177028Y0213898D01*
X0176930Y0213900D01*
X0176832Y0213906D01*
X0176734Y0213915D01*
X0176637Y0213929D01*
X0176540Y0213946D01*
X0176444Y0213967D01*
X0176349Y0213992D01*
X0176255Y0214020D01*
X0176163Y0214053D01*
X0176071Y0214088D01*
X0175981Y0214128D01*
X0175893Y0214170D01*
X0175806Y0214217D01*
X0175722Y0214266D01*
X0175639Y0214319D01*
X0175559Y0214375D01*
X0175480Y0214435D01*
X0175404Y0214497D01*
X0175331Y0214562D01*
X0175260Y0214630D01*
X0175192Y0214701D01*
X0175127Y0214774D01*
X0175065Y0214850D01*
X0175005Y0214929D01*
X0174949Y0215009D01*
X0174896Y0215092D01*
X0174847Y0215176D01*
X0174800Y0215263D01*
X0174758Y0215351D01*
X0174718Y0215441D01*
X0174683Y0215533D01*
X0174650Y0215625D01*
X0174622Y0215719D01*
X0174597Y0215814D01*
X0174576Y0215910D01*
X0174559Y0216007D01*
X0174545Y0216104D01*
X0174536Y0216202D01*
X0174530Y0216300D01*
X0174528Y0216398D01*
X0174528Y0237520D01*
X0164686Y0237520D01*
X0164686Y0251300D01*
X0160749Y0251300D01*
X0160749Y0263111D01*
X0164686Y0263111D01*
X0164686Y0251300D01*
X0174528Y0237520D02*
X0174528Y0276891D01*
X0164686Y0276891D01*
X0164686Y0263111D01*
X0174528Y0276891D02*
X0174528Y0298013D01*
X0174530Y0298111D01*
X0174536Y0298209D01*
X0174545Y0298307D01*
X0174559Y0298404D01*
X0174576Y0298501D01*
X0174597Y0298597D01*
X0174622Y0298692D01*
X0174650Y0298786D01*
X0174683Y0298878D01*
X0174718Y0298970D01*
X0174758Y0299060D01*
X0174800Y0299148D01*
X0174847Y0299235D01*
X0174896Y0299319D01*
X0174949Y0299402D01*
X0175005Y0299482D01*
X0175065Y0299561D01*
X0175127Y0299637D01*
X0175192Y0299710D01*
X0175260Y0299781D01*
X0175331Y0299849D01*
X0175404Y0299914D01*
X0175480Y0299976D01*
X0175559Y0300036D01*
X0175639Y0300092D01*
X0175722Y0300145D01*
X0175806Y0300194D01*
X0175893Y0300241D01*
X0175981Y0300283D01*
X0176071Y0300323D01*
X0176163Y0300358D01*
X0176255Y0300391D01*
X0176349Y0300419D01*
X0176444Y0300444D01*
X0176540Y0300465D01*
X0176637Y0300482D01*
X0176734Y0300496D01*
X0176832Y0300505D01*
X0176930Y0300511D01*
X0177028Y0300513D01*
X0178997Y0298544D02*
X0188308Y0298544D01*
X0176497Y0286733D01*
X0176497Y0296044D01*
X0176499Y0296142D01*
X0176505Y0296240D01*
X0176514Y0296338D01*
X0176528Y0296435D01*
X0176545Y0296532D01*
X0176566Y0296628D01*
X0176591Y0296723D01*
X0176619Y0296817D01*
X0176652Y0296909D01*
X0176687Y0297001D01*
X0176727Y0297091D01*
X0176769Y0297179D01*
X0176816Y0297266D01*
X0176865Y0297350D01*
X0176918Y0297433D01*
X0176974Y0297513D01*
X0177034Y0297592D01*
X0177096Y0297668D01*
X0177161Y0297741D01*
X0177229Y0297812D01*
X0177300Y0297880D01*
X0177373Y0297945D01*
X0177449Y0298007D01*
X0177528Y0298067D01*
X0177608Y0298123D01*
X0177691Y0298176D01*
X0177775Y0298225D01*
X0177862Y0298272D01*
X0177950Y0298314D01*
X0178040Y0298354D01*
X0178132Y0298389D01*
X0178224Y0298422D01*
X0178318Y0298450D01*
X0178413Y0298475D01*
X0178509Y0298496D01*
X0178606Y0298513D01*
X0178703Y0298527D01*
X0178801Y0298536D01*
X0178899Y0298542D01*
X0178997Y0298544D01*
X0223741Y0304450D02*
X0223743Y0304581D01*
X0223749Y0304712D01*
X0223758Y0304843D01*
X0223772Y0304974D01*
X0223790Y0305104D01*
X0223811Y0305233D01*
X0223836Y0305362D01*
X0223865Y0305490D01*
X0223898Y0305617D01*
X0223934Y0305744D01*
X0223974Y0305868D01*
X0224018Y0305992D01*
X0224066Y0306115D01*
X0224117Y0306235D01*
X0224172Y0306355D01*
X0224230Y0306472D01*
X0224291Y0306588D01*
X0224356Y0306702D01*
X0224425Y0306814D01*
X0224497Y0306924D01*
X0224571Y0307032D01*
X0224650Y0307138D01*
X0224731Y0307241D01*
X0224815Y0307341D01*
X0224902Y0307439D01*
X0224992Y0307535D01*
X0225085Y0307628D01*
X0225181Y0307718D01*
X0225279Y0307805D01*
X0225379Y0307889D01*
X0225482Y0307970D01*
X0225588Y0308049D01*
X0225696Y0308123D01*
X0225806Y0308195D01*
X0225918Y0308264D01*
X0226032Y0308329D01*
X0226148Y0308390D01*
X0226265Y0308448D01*
X0226385Y0308503D01*
X0226505Y0308554D01*
X0226628Y0308602D01*
X0226752Y0308646D01*
X0226876Y0308686D01*
X0227003Y0308722D01*
X0227130Y0308755D01*
X0227258Y0308784D01*
X0227387Y0308809D01*
X0227516Y0308830D01*
X0227646Y0308848D01*
X0227777Y0308862D01*
X0227908Y0308871D01*
X0228039Y0308877D01*
X0228170Y0308879D01*
X0228301Y0308877D01*
X0228432Y0308871D01*
X0228563Y0308862D01*
X0228694Y0308848D01*
X0228824Y0308830D01*
X0228953Y0308809D01*
X0229082Y0308784D01*
X0229210Y0308755D01*
X0229337Y0308722D01*
X0229464Y0308686D01*
X0229588Y0308646D01*
X0229712Y0308602D01*
X0229835Y0308554D01*
X0229955Y0308503D01*
X0230075Y0308448D01*
X0230192Y0308390D01*
X0230308Y0308329D01*
X0230422Y0308264D01*
X0230534Y0308195D01*
X0230644Y0308123D01*
X0230752Y0308049D01*
X0230858Y0307970D01*
X0230961Y0307889D01*
X0231061Y0307805D01*
X0231159Y0307718D01*
X0231255Y0307628D01*
X0231348Y0307535D01*
X0231438Y0307439D01*
X0231525Y0307341D01*
X0231609Y0307241D01*
X0231690Y0307138D01*
X0231769Y0307032D01*
X0231843Y0306924D01*
X0231915Y0306814D01*
X0231984Y0306702D01*
X0232049Y0306588D01*
X0232110Y0306472D01*
X0232168Y0306355D01*
X0232223Y0306235D01*
X0232274Y0306115D01*
X0232322Y0305992D01*
X0232366Y0305868D01*
X0232406Y0305744D01*
X0232442Y0305617D01*
X0232475Y0305490D01*
X0232504Y0305362D01*
X0232529Y0305233D01*
X0232550Y0305104D01*
X0232568Y0304974D01*
X0232582Y0304843D01*
X0232591Y0304712D01*
X0232597Y0304581D01*
X0232599Y0304450D01*
X0281812Y0304450D02*
X0281814Y0304581D01*
X0281820Y0304712D01*
X0281829Y0304843D01*
X0281843Y0304974D01*
X0281861Y0305104D01*
X0281882Y0305233D01*
X0281907Y0305362D01*
X0281936Y0305490D01*
X0281969Y0305617D01*
X0282005Y0305744D01*
X0282045Y0305868D01*
X0282089Y0305992D01*
X0282137Y0306115D01*
X0282188Y0306235D01*
X0282243Y0306355D01*
X0282301Y0306472D01*
X0282362Y0306588D01*
X0282427Y0306702D01*
X0282496Y0306814D01*
X0282568Y0306924D01*
X0282642Y0307032D01*
X0282721Y0307138D01*
X0282802Y0307241D01*
X0282886Y0307341D01*
X0282973Y0307439D01*
X0283063Y0307535D01*
X0283156Y0307628D01*
X0283252Y0307718D01*
X0283350Y0307805D01*
X0283450Y0307889D01*
X0283553Y0307970D01*
X0283659Y0308049D01*
X0283767Y0308123D01*
X0283877Y0308195D01*
X0283989Y0308264D01*
X0284103Y0308329D01*
X0284219Y0308390D01*
X0284336Y0308448D01*
X0284456Y0308503D01*
X0284576Y0308554D01*
X0284699Y0308602D01*
X0284823Y0308646D01*
X0284947Y0308686D01*
X0285074Y0308722D01*
X0285201Y0308755D01*
X0285329Y0308784D01*
X0285458Y0308809D01*
X0285587Y0308830D01*
X0285717Y0308848D01*
X0285848Y0308862D01*
X0285979Y0308871D01*
X0286110Y0308877D01*
X0286241Y0308879D01*
X0286372Y0308877D01*
X0286503Y0308871D01*
X0286634Y0308862D01*
X0286765Y0308848D01*
X0286895Y0308830D01*
X0287024Y0308809D01*
X0287153Y0308784D01*
X0287281Y0308755D01*
X0287408Y0308722D01*
X0287535Y0308686D01*
X0287659Y0308646D01*
X0287783Y0308602D01*
X0287906Y0308554D01*
X0288026Y0308503D01*
X0288146Y0308448D01*
X0288263Y0308390D01*
X0288379Y0308329D01*
X0288493Y0308264D01*
X0288605Y0308195D01*
X0288715Y0308123D01*
X0288823Y0308049D01*
X0288929Y0307970D01*
X0289032Y0307889D01*
X0289132Y0307805D01*
X0289230Y0307718D01*
X0289326Y0307628D01*
X0289419Y0307535D01*
X0289509Y0307439D01*
X0289596Y0307341D01*
X0289680Y0307241D01*
X0289761Y0307138D01*
X0289840Y0307032D01*
X0289914Y0306924D01*
X0289986Y0306814D01*
X0290055Y0306702D01*
X0290120Y0306588D01*
X0290181Y0306472D01*
X0290239Y0306355D01*
X0290294Y0306235D01*
X0290345Y0306115D01*
X0290393Y0305992D01*
X0290437Y0305868D01*
X0290477Y0305744D01*
X0290513Y0305617D01*
X0290546Y0305490D01*
X0290575Y0305362D01*
X0290600Y0305233D01*
X0290621Y0305104D01*
X0290639Y0304974D01*
X0290653Y0304843D01*
X0290662Y0304712D01*
X0290668Y0304581D01*
X0290670Y0304450D01*
X0290670Y0300513D02*
X0322166Y0300513D01*
X0335946Y0294607D01*
X0335946Y0273938D01*
X0318229Y0273938D01*
X0318229Y0272954D01*
X0347225Y0272954D01*
X0347323Y0272952D01*
X0347421Y0272946D01*
X0347519Y0272937D01*
X0347616Y0272923D01*
X0347713Y0272906D01*
X0347809Y0272885D01*
X0347904Y0272860D01*
X0347998Y0272832D01*
X0348090Y0272799D01*
X0348182Y0272764D01*
X0348272Y0272724D01*
X0348360Y0272682D01*
X0348447Y0272635D01*
X0348531Y0272586D01*
X0348614Y0272533D01*
X0348694Y0272477D01*
X0348773Y0272417D01*
X0348849Y0272355D01*
X0348922Y0272290D01*
X0348993Y0272222D01*
X0349061Y0272151D01*
X0349126Y0272078D01*
X0349188Y0272002D01*
X0349248Y0271923D01*
X0349304Y0271843D01*
X0349357Y0271760D01*
X0349406Y0271676D01*
X0349453Y0271589D01*
X0349495Y0271501D01*
X0349535Y0271411D01*
X0349570Y0271319D01*
X0349603Y0271227D01*
X0349631Y0271133D01*
X0349656Y0271038D01*
X0349677Y0270942D01*
X0349694Y0270845D01*
X0349708Y0270748D01*
X0349717Y0270650D01*
X0349723Y0270552D01*
X0349725Y0270454D01*
X0349725Y0243957D01*
X0349723Y0243859D01*
X0349717Y0243761D01*
X0349708Y0243663D01*
X0349694Y0243566D01*
X0349677Y0243469D01*
X0349656Y0243373D01*
X0349631Y0243278D01*
X0349603Y0243184D01*
X0349570Y0243092D01*
X0349535Y0243000D01*
X0349495Y0242910D01*
X0349453Y0242822D01*
X0349406Y0242735D01*
X0349357Y0242651D01*
X0349304Y0242568D01*
X0349248Y0242488D01*
X0349188Y0242409D01*
X0349126Y0242333D01*
X0349061Y0242260D01*
X0348993Y0242189D01*
X0348922Y0242121D01*
X0348849Y0242056D01*
X0348773Y0241994D01*
X0348694Y0241934D01*
X0348614Y0241878D01*
X0348531Y0241825D01*
X0348447Y0241776D01*
X0348360Y0241729D01*
X0348272Y0241687D01*
X0348182Y0241647D01*
X0348090Y0241612D01*
X0347998Y0241579D01*
X0347904Y0241551D01*
X0347809Y0241526D01*
X0347713Y0241505D01*
X0347616Y0241488D01*
X0347519Y0241474D01*
X0347421Y0241465D01*
X0347323Y0241459D01*
X0347225Y0241457D01*
X0318229Y0241457D01*
X0318229Y0240473D01*
X0335946Y0240473D01*
X0335946Y0219804D01*
X0322166Y0213898D01*
X0290670Y0213898D01*
X0290670Y0209961D01*
X0290670Y0213898D02*
X0281812Y0213898D01*
X0245394Y0213898D01*
X0232599Y0213898D01*
X0229646Y0213898D01*
X0232599Y0213898D02*
X0232599Y0209961D01*
X0232597Y0209830D01*
X0232591Y0209699D01*
X0232582Y0209568D01*
X0232568Y0209437D01*
X0232550Y0209307D01*
X0232529Y0209178D01*
X0232504Y0209049D01*
X0232475Y0208921D01*
X0232442Y0208794D01*
X0232406Y0208667D01*
X0232366Y0208543D01*
X0232322Y0208419D01*
X0232274Y0208296D01*
X0232223Y0208176D01*
X0232168Y0208056D01*
X0232110Y0207939D01*
X0232049Y0207823D01*
X0231984Y0207709D01*
X0231915Y0207597D01*
X0231843Y0207487D01*
X0231769Y0207379D01*
X0231690Y0207273D01*
X0231609Y0207170D01*
X0231525Y0207070D01*
X0231438Y0206972D01*
X0231348Y0206876D01*
X0231255Y0206783D01*
X0231159Y0206693D01*
X0231061Y0206606D01*
X0230961Y0206522D01*
X0230858Y0206441D01*
X0230752Y0206362D01*
X0230644Y0206288D01*
X0230534Y0206216D01*
X0230422Y0206147D01*
X0230308Y0206082D01*
X0230192Y0206021D01*
X0230075Y0205963D01*
X0229955Y0205908D01*
X0229835Y0205857D01*
X0229712Y0205809D01*
X0229588Y0205765D01*
X0229464Y0205725D01*
X0229337Y0205689D01*
X0229210Y0205656D01*
X0229082Y0205627D01*
X0228953Y0205602D01*
X0228824Y0205581D01*
X0228694Y0205563D01*
X0228563Y0205549D01*
X0228432Y0205540D01*
X0228301Y0205534D01*
X0228170Y0205532D01*
X0228039Y0205534D01*
X0227908Y0205540D01*
X0227777Y0205549D01*
X0227646Y0205563D01*
X0227516Y0205581D01*
X0227387Y0205602D01*
X0227258Y0205627D01*
X0227130Y0205656D01*
X0227003Y0205689D01*
X0226876Y0205725D01*
X0226752Y0205765D01*
X0226628Y0205809D01*
X0226505Y0205857D01*
X0226385Y0205908D01*
X0226265Y0205963D01*
X0226148Y0206021D01*
X0226032Y0206082D01*
X0225918Y0206147D01*
X0225806Y0206216D01*
X0225696Y0206288D01*
X0225588Y0206362D01*
X0225482Y0206441D01*
X0225379Y0206522D01*
X0225279Y0206606D01*
X0225181Y0206693D01*
X0225085Y0206783D01*
X0224992Y0206876D01*
X0224902Y0206972D01*
X0224815Y0207070D01*
X0224731Y0207170D01*
X0224650Y0207273D01*
X0224571Y0207379D01*
X0224497Y0207487D01*
X0224425Y0207597D01*
X0224356Y0207709D01*
X0224291Y0207823D01*
X0224230Y0207939D01*
X0224172Y0208056D01*
X0224117Y0208176D01*
X0224066Y0208296D01*
X0224018Y0208419D01*
X0223974Y0208543D01*
X0223934Y0208667D01*
X0223898Y0208794D01*
X0223865Y0208921D01*
X0223836Y0209049D01*
X0223811Y0209178D01*
X0223790Y0209307D01*
X0223772Y0209437D01*
X0223758Y0209568D01*
X0223749Y0209699D01*
X0223743Y0209830D01*
X0223741Y0209961D01*
X0245394Y0213898D02*
X0233583Y0247363D01*
X0276891Y0247363D01*
X0288702Y0213898D01*
X0290670Y0209961D02*
X0290668Y0209830D01*
X0290662Y0209699D01*
X0290653Y0209568D01*
X0290639Y0209437D01*
X0290621Y0209307D01*
X0290600Y0209178D01*
X0290575Y0209049D01*
X0290546Y0208921D01*
X0290513Y0208794D01*
X0290477Y0208667D01*
X0290437Y0208543D01*
X0290393Y0208419D01*
X0290345Y0208296D01*
X0290294Y0208176D01*
X0290239Y0208056D01*
X0290181Y0207939D01*
X0290120Y0207823D01*
X0290055Y0207709D01*
X0289986Y0207597D01*
X0289914Y0207487D01*
X0289840Y0207379D01*
X0289761Y0207273D01*
X0289680Y0207170D01*
X0289596Y0207070D01*
X0289509Y0206972D01*
X0289419Y0206876D01*
X0289326Y0206783D01*
X0289230Y0206693D01*
X0289132Y0206606D01*
X0289032Y0206522D01*
X0288929Y0206441D01*
X0288823Y0206362D01*
X0288715Y0206288D01*
X0288605Y0206216D01*
X0288493Y0206147D01*
X0288379Y0206082D01*
X0288263Y0206021D01*
X0288146Y0205963D01*
X0288026Y0205908D01*
X0287906Y0205857D01*
X0287783Y0205809D01*
X0287659Y0205765D01*
X0287535Y0205725D01*
X0287408Y0205689D01*
X0287281Y0205656D01*
X0287153Y0205627D01*
X0287024Y0205602D01*
X0286895Y0205581D01*
X0286765Y0205563D01*
X0286634Y0205549D01*
X0286503Y0205540D01*
X0286372Y0205534D01*
X0286241Y0205532D01*
X0286110Y0205534D01*
X0285979Y0205540D01*
X0285848Y0205549D01*
X0285717Y0205563D01*
X0285587Y0205581D01*
X0285458Y0205602D01*
X0285329Y0205627D01*
X0285201Y0205656D01*
X0285074Y0205689D01*
X0284947Y0205725D01*
X0284823Y0205765D01*
X0284699Y0205809D01*
X0284576Y0205857D01*
X0284456Y0205908D01*
X0284336Y0205963D01*
X0284219Y0206021D01*
X0284103Y0206082D01*
X0283989Y0206147D01*
X0283877Y0206216D01*
X0283767Y0206288D01*
X0283659Y0206362D01*
X0283553Y0206441D01*
X0283450Y0206522D01*
X0283350Y0206606D01*
X0283252Y0206693D01*
X0283156Y0206783D01*
X0283063Y0206876D01*
X0282973Y0206972D01*
X0282886Y0207070D01*
X0282802Y0207170D01*
X0282721Y0207273D01*
X0282642Y0207379D01*
X0282568Y0207487D01*
X0282496Y0207597D01*
X0282427Y0207709D01*
X0282362Y0207823D01*
X0282301Y0207939D01*
X0282243Y0208056D01*
X0282188Y0208176D01*
X0282137Y0208296D01*
X0282089Y0208419D01*
X0282045Y0208543D01*
X0282005Y0208667D01*
X0281969Y0208794D01*
X0281936Y0208921D01*
X0281907Y0209049D01*
X0281882Y0209178D01*
X0281861Y0209307D01*
X0281843Y0209437D01*
X0281829Y0209568D01*
X0281820Y0209699D01*
X0281814Y0209830D01*
X0281812Y0209961D01*
X0281812Y0213898D01*
X0304450Y0213898D02*
X0292639Y0247363D01*
X0292639Y0267048D01*
X0304450Y0300513D01*
X0188308Y0215867D02*
X0176497Y0227678D01*
X0176497Y0218367D01*
X0176499Y0218269D01*
X0176505Y0218171D01*
X0176514Y0218073D01*
X0176528Y0217976D01*
X0176545Y0217879D01*
X0176566Y0217783D01*
X0176591Y0217688D01*
X0176619Y0217594D01*
X0176652Y0217502D01*
X0176687Y0217410D01*
X0176727Y0217320D01*
X0176769Y0217232D01*
X0176816Y0217145D01*
X0176865Y0217061D01*
X0176918Y0216978D01*
X0176974Y0216898D01*
X0177034Y0216819D01*
X0177096Y0216743D01*
X0177161Y0216670D01*
X0177229Y0216599D01*
X0177300Y0216531D01*
X0177373Y0216466D01*
X0177449Y0216404D01*
X0177528Y0216344D01*
X0177608Y0216288D01*
X0177691Y0216235D01*
X0177775Y0216186D01*
X0177862Y0216139D01*
X0177950Y0216097D01*
X0178040Y0216057D01*
X0178132Y0216022D01*
X0178224Y0215989D01*
X0178318Y0215961D01*
X0178413Y0215936D01*
X0178509Y0215915D01*
X0178606Y0215898D01*
X0178703Y0215884D01*
X0178801Y0215875D01*
X0178899Y0215869D01*
X0178997Y0215867D01*
X0188308Y0215867D01*
D12*
X0252802Y0189707D02*
X0255871Y0189707D01*
X0265302Y0189707D02*
X0268371Y0189707D01*
X0266836Y0191242D02*
X0266836Y0188173D01*
D13*
X0283387Y0209765D02*
X0283389Y0209870D01*
X0283395Y0209975D01*
X0283405Y0210079D01*
X0283419Y0210183D01*
X0283437Y0210287D01*
X0283459Y0210389D01*
X0283484Y0210491D01*
X0283514Y0210592D01*
X0283547Y0210691D01*
X0283584Y0210789D01*
X0283625Y0210886D01*
X0283670Y0210981D01*
X0283718Y0211074D01*
X0283769Y0211166D01*
X0283825Y0211255D01*
X0283883Y0211342D01*
X0283945Y0211427D01*
X0284009Y0211510D01*
X0284077Y0211590D01*
X0284148Y0211667D01*
X0284222Y0211741D01*
X0284299Y0211813D01*
X0284378Y0211882D01*
X0284460Y0211947D01*
X0284544Y0212010D01*
X0284631Y0212069D01*
X0284720Y0212125D01*
X0284811Y0212178D01*
X0284904Y0212227D01*
X0284998Y0212272D01*
X0285094Y0212314D01*
X0285192Y0212352D01*
X0285291Y0212386D01*
X0285392Y0212417D01*
X0285493Y0212443D01*
X0285596Y0212466D01*
X0285699Y0212485D01*
X0285803Y0212500D01*
X0285907Y0212511D01*
X0286012Y0212518D01*
X0286117Y0212521D01*
X0286222Y0212520D01*
X0286327Y0212515D01*
X0286431Y0212506D01*
X0286535Y0212493D01*
X0286639Y0212476D01*
X0286742Y0212455D01*
X0286844Y0212430D01*
X0286945Y0212402D01*
X0287044Y0212369D01*
X0287143Y0212333D01*
X0287240Y0212293D01*
X0287335Y0212250D01*
X0287429Y0212202D01*
X0287521Y0212152D01*
X0287611Y0212098D01*
X0287699Y0212040D01*
X0287784Y0211979D01*
X0287867Y0211915D01*
X0287948Y0211848D01*
X0288026Y0211778D01*
X0288101Y0211704D01*
X0288173Y0211629D01*
X0288243Y0211550D01*
X0288309Y0211469D01*
X0288373Y0211385D01*
X0288433Y0211299D01*
X0288489Y0211211D01*
X0288543Y0211120D01*
X0288593Y0211028D01*
X0288639Y0210934D01*
X0288682Y0210838D01*
X0288721Y0210740D01*
X0288756Y0210642D01*
X0288787Y0210541D01*
X0288815Y0210440D01*
X0288839Y0210338D01*
X0288859Y0210235D01*
X0288875Y0210131D01*
X0288887Y0210027D01*
X0288895Y0209922D01*
X0288899Y0209817D01*
X0288899Y0209713D01*
X0288895Y0209608D01*
X0288887Y0209503D01*
X0288875Y0209399D01*
X0288859Y0209295D01*
X0288839Y0209192D01*
X0288815Y0209090D01*
X0288787Y0208989D01*
X0288756Y0208888D01*
X0288721Y0208790D01*
X0288682Y0208692D01*
X0288639Y0208596D01*
X0288593Y0208502D01*
X0288543Y0208410D01*
X0288489Y0208319D01*
X0288433Y0208231D01*
X0288373Y0208145D01*
X0288309Y0208061D01*
X0288243Y0207980D01*
X0288173Y0207901D01*
X0288101Y0207826D01*
X0288026Y0207752D01*
X0287948Y0207682D01*
X0287867Y0207615D01*
X0287784Y0207551D01*
X0287699Y0207490D01*
X0287611Y0207432D01*
X0287521Y0207378D01*
X0287429Y0207328D01*
X0287335Y0207280D01*
X0287240Y0207237D01*
X0287143Y0207197D01*
X0287044Y0207161D01*
X0286945Y0207128D01*
X0286844Y0207100D01*
X0286742Y0207075D01*
X0286639Y0207054D01*
X0286535Y0207037D01*
X0286431Y0207024D01*
X0286327Y0207015D01*
X0286222Y0207010D01*
X0286117Y0207009D01*
X0286012Y0207012D01*
X0285907Y0207019D01*
X0285803Y0207030D01*
X0285699Y0207045D01*
X0285596Y0207064D01*
X0285493Y0207087D01*
X0285392Y0207113D01*
X0285291Y0207144D01*
X0285192Y0207178D01*
X0285094Y0207216D01*
X0284998Y0207258D01*
X0284904Y0207303D01*
X0284811Y0207352D01*
X0284720Y0207405D01*
X0284631Y0207461D01*
X0284544Y0207520D01*
X0284460Y0207583D01*
X0284378Y0207648D01*
X0284299Y0207717D01*
X0284222Y0207789D01*
X0284148Y0207863D01*
X0284077Y0207940D01*
X0284009Y0208020D01*
X0283945Y0208103D01*
X0283883Y0208188D01*
X0283825Y0208275D01*
X0283769Y0208364D01*
X0283718Y0208456D01*
X0283670Y0208549D01*
X0283625Y0208644D01*
X0283584Y0208741D01*
X0283547Y0208839D01*
X0283514Y0208938D01*
X0283484Y0209039D01*
X0283459Y0209141D01*
X0283437Y0209243D01*
X0283419Y0209347D01*
X0283405Y0209451D01*
X0283395Y0209555D01*
X0283389Y0209660D01*
X0283387Y0209765D01*
X0225513Y0209765D02*
X0225515Y0209870D01*
X0225521Y0209975D01*
X0225531Y0210079D01*
X0225545Y0210183D01*
X0225563Y0210287D01*
X0225585Y0210389D01*
X0225610Y0210491D01*
X0225640Y0210592D01*
X0225673Y0210691D01*
X0225710Y0210789D01*
X0225751Y0210886D01*
X0225796Y0210981D01*
X0225844Y0211074D01*
X0225895Y0211166D01*
X0225951Y0211255D01*
X0226009Y0211342D01*
X0226071Y0211427D01*
X0226135Y0211510D01*
X0226203Y0211590D01*
X0226274Y0211667D01*
X0226348Y0211741D01*
X0226425Y0211813D01*
X0226504Y0211882D01*
X0226586Y0211947D01*
X0226670Y0212010D01*
X0226757Y0212069D01*
X0226846Y0212125D01*
X0226937Y0212178D01*
X0227030Y0212227D01*
X0227124Y0212272D01*
X0227220Y0212314D01*
X0227318Y0212352D01*
X0227417Y0212386D01*
X0227518Y0212417D01*
X0227619Y0212443D01*
X0227722Y0212466D01*
X0227825Y0212485D01*
X0227929Y0212500D01*
X0228033Y0212511D01*
X0228138Y0212518D01*
X0228243Y0212521D01*
X0228348Y0212520D01*
X0228453Y0212515D01*
X0228557Y0212506D01*
X0228661Y0212493D01*
X0228765Y0212476D01*
X0228868Y0212455D01*
X0228970Y0212430D01*
X0229071Y0212402D01*
X0229170Y0212369D01*
X0229269Y0212333D01*
X0229366Y0212293D01*
X0229461Y0212250D01*
X0229555Y0212202D01*
X0229647Y0212152D01*
X0229737Y0212098D01*
X0229825Y0212040D01*
X0229910Y0211979D01*
X0229993Y0211915D01*
X0230074Y0211848D01*
X0230152Y0211778D01*
X0230227Y0211704D01*
X0230299Y0211629D01*
X0230369Y0211550D01*
X0230435Y0211469D01*
X0230499Y0211385D01*
X0230559Y0211299D01*
X0230615Y0211211D01*
X0230669Y0211120D01*
X0230719Y0211028D01*
X0230765Y0210934D01*
X0230808Y0210838D01*
X0230847Y0210740D01*
X0230882Y0210642D01*
X0230913Y0210541D01*
X0230941Y0210440D01*
X0230965Y0210338D01*
X0230985Y0210235D01*
X0231001Y0210131D01*
X0231013Y0210027D01*
X0231021Y0209922D01*
X0231025Y0209817D01*
X0231025Y0209713D01*
X0231021Y0209608D01*
X0231013Y0209503D01*
X0231001Y0209399D01*
X0230985Y0209295D01*
X0230965Y0209192D01*
X0230941Y0209090D01*
X0230913Y0208989D01*
X0230882Y0208888D01*
X0230847Y0208790D01*
X0230808Y0208692D01*
X0230765Y0208596D01*
X0230719Y0208502D01*
X0230669Y0208410D01*
X0230615Y0208319D01*
X0230559Y0208231D01*
X0230499Y0208145D01*
X0230435Y0208061D01*
X0230369Y0207980D01*
X0230299Y0207901D01*
X0230227Y0207826D01*
X0230152Y0207752D01*
X0230074Y0207682D01*
X0229993Y0207615D01*
X0229910Y0207551D01*
X0229825Y0207490D01*
X0229737Y0207432D01*
X0229647Y0207378D01*
X0229555Y0207328D01*
X0229461Y0207280D01*
X0229366Y0207237D01*
X0229269Y0207197D01*
X0229170Y0207161D01*
X0229071Y0207128D01*
X0228970Y0207100D01*
X0228868Y0207075D01*
X0228765Y0207054D01*
X0228661Y0207037D01*
X0228557Y0207024D01*
X0228453Y0207015D01*
X0228348Y0207010D01*
X0228243Y0207009D01*
X0228138Y0207012D01*
X0228033Y0207019D01*
X0227929Y0207030D01*
X0227825Y0207045D01*
X0227722Y0207064D01*
X0227619Y0207087D01*
X0227518Y0207113D01*
X0227417Y0207144D01*
X0227318Y0207178D01*
X0227220Y0207216D01*
X0227124Y0207258D01*
X0227030Y0207303D01*
X0226937Y0207352D01*
X0226846Y0207405D01*
X0226757Y0207461D01*
X0226670Y0207520D01*
X0226586Y0207583D01*
X0226504Y0207648D01*
X0226425Y0207717D01*
X0226348Y0207789D01*
X0226274Y0207863D01*
X0226203Y0207940D01*
X0226135Y0208020D01*
X0226071Y0208103D01*
X0226009Y0208188D01*
X0225951Y0208275D01*
X0225895Y0208364D01*
X0225844Y0208456D01*
X0225796Y0208549D01*
X0225751Y0208644D01*
X0225710Y0208741D01*
X0225673Y0208839D01*
X0225640Y0208938D01*
X0225610Y0209039D01*
X0225585Y0209141D01*
X0225563Y0209243D01*
X0225545Y0209347D01*
X0225531Y0209451D01*
X0225521Y0209555D01*
X0225515Y0209660D01*
X0225513Y0209765D01*
X0225513Y0304646D02*
X0225515Y0304751D01*
X0225521Y0304856D01*
X0225531Y0304960D01*
X0225545Y0305064D01*
X0225563Y0305168D01*
X0225585Y0305270D01*
X0225610Y0305372D01*
X0225640Y0305473D01*
X0225673Y0305572D01*
X0225710Y0305670D01*
X0225751Y0305767D01*
X0225796Y0305862D01*
X0225844Y0305955D01*
X0225895Y0306047D01*
X0225951Y0306136D01*
X0226009Y0306223D01*
X0226071Y0306308D01*
X0226135Y0306391D01*
X0226203Y0306471D01*
X0226274Y0306548D01*
X0226348Y0306622D01*
X0226425Y0306694D01*
X0226504Y0306763D01*
X0226586Y0306828D01*
X0226670Y0306891D01*
X0226757Y0306950D01*
X0226846Y0307006D01*
X0226937Y0307059D01*
X0227030Y0307108D01*
X0227124Y0307153D01*
X0227220Y0307195D01*
X0227318Y0307233D01*
X0227417Y0307267D01*
X0227518Y0307298D01*
X0227619Y0307324D01*
X0227722Y0307347D01*
X0227825Y0307366D01*
X0227929Y0307381D01*
X0228033Y0307392D01*
X0228138Y0307399D01*
X0228243Y0307402D01*
X0228348Y0307401D01*
X0228453Y0307396D01*
X0228557Y0307387D01*
X0228661Y0307374D01*
X0228765Y0307357D01*
X0228868Y0307336D01*
X0228970Y0307311D01*
X0229071Y0307283D01*
X0229170Y0307250D01*
X0229269Y0307214D01*
X0229366Y0307174D01*
X0229461Y0307131D01*
X0229555Y0307083D01*
X0229647Y0307033D01*
X0229737Y0306979D01*
X0229825Y0306921D01*
X0229910Y0306860D01*
X0229993Y0306796D01*
X0230074Y0306729D01*
X0230152Y0306659D01*
X0230227Y0306585D01*
X0230299Y0306510D01*
X0230369Y0306431D01*
X0230435Y0306350D01*
X0230499Y0306266D01*
X0230559Y0306180D01*
X0230615Y0306092D01*
X0230669Y0306001D01*
X0230719Y0305909D01*
X0230765Y0305815D01*
X0230808Y0305719D01*
X0230847Y0305621D01*
X0230882Y0305523D01*
X0230913Y0305422D01*
X0230941Y0305321D01*
X0230965Y0305219D01*
X0230985Y0305116D01*
X0231001Y0305012D01*
X0231013Y0304908D01*
X0231021Y0304803D01*
X0231025Y0304698D01*
X0231025Y0304594D01*
X0231021Y0304489D01*
X0231013Y0304384D01*
X0231001Y0304280D01*
X0230985Y0304176D01*
X0230965Y0304073D01*
X0230941Y0303971D01*
X0230913Y0303870D01*
X0230882Y0303769D01*
X0230847Y0303671D01*
X0230808Y0303573D01*
X0230765Y0303477D01*
X0230719Y0303383D01*
X0230669Y0303291D01*
X0230615Y0303200D01*
X0230559Y0303112D01*
X0230499Y0303026D01*
X0230435Y0302942D01*
X0230369Y0302861D01*
X0230299Y0302782D01*
X0230227Y0302707D01*
X0230152Y0302633D01*
X0230074Y0302563D01*
X0229993Y0302496D01*
X0229910Y0302432D01*
X0229825Y0302371D01*
X0229737Y0302313D01*
X0229647Y0302259D01*
X0229555Y0302209D01*
X0229461Y0302161D01*
X0229366Y0302118D01*
X0229269Y0302078D01*
X0229170Y0302042D01*
X0229071Y0302009D01*
X0228970Y0301981D01*
X0228868Y0301956D01*
X0228765Y0301935D01*
X0228661Y0301918D01*
X0228557Y0301905D01*
X0228453Y0301896D01*
X0228348Y0301891D01*
X0228243Y0301890D01*
X0228138Y0301893D01*
X0228033Y0301900D01*
X0227929Y0301911D01*
X0227825Y0301926D01*
X0227722Y0301945D01*
X0227619Y0301968D01*
X0227518Y0301994D01*
X0227417Y0302025D01*
X0227318Y0302059D01*
X0227220Y0302097D01*
X0227124Y0302139D01*
X0227030Y0302184D01*
X0226937Y0302233D01*
X0226846Y0302286D01*
X0226757Y0302342D01*
X0226670Y0302401D01*
X0226586Y0302464D01*
X0226504Y0302529D01*
X0226425Y0302598D01*
X0226348Y0302670D01*
X0226274Y0302744D01*
X0226203Y0302821D01*
X0226135Y0302901D01*
X0226071Y0302984D01*
X0226009Y0303069D01*
X0225951Y0303156D01*
X0225895Y0303245D01*
X0225844Y0303337D01*
X0225796Y0303430D01*
X0225751Y0303525D01*
X0225710Y0303622D01*
X0225673Y0303720D01*
X0225640Y0303819D01*
X0225610Y0303920D01*
X0225585Y0304022D01*
X0225563Y0304124D01*
X0225545Y0304228D01*
X0225531Y0304332D01*
X0225521Y0304436D01*
X0225515Y0304541D01*
X0225513Y0304646D01*
X0283387Y0304646D02*
X0283389Y0304751D01*
X0283395Y0304856D01*
X0283405Y0304960D01*
X0283419Y0305064D01*
X0283437Y0305168D01*
X0283459Y0305270D01*
X0283484Y0305372D01*
X0283514Y0305473D01*
X0283547Y0305572D01*
X0283584Y0305670D01*
X0283625Y0305767D01*
X0283670Y0305862D01*
X0283718Y0305955D01*
X0283769Y0306047D01*
X0283825Y0306136D01*
X0283883Y0306223D01*
X0283945Y0306308D01*
X0284009Y0306391D01*
X0284077Y0306471D01*
X0284148Y0306548D01*
X0284222Y0306622D01*
X0284299Y0306694D01*
X0284378Y0306763D01*
X0284460Y0306828D01*
X0284544Y0306891D01*
X0284631Y0306950D01*
X0284720Y0307006D01*
X0284811Y0307059D01*
X0284904Y0307108D01*
X0284998Y0307153D01*
X0285094Y0307195D01*
X0285192Y0307233D01*
X0285291Y0307267D01*
X0285392Y0307298D01*
X0285493Y0307324D01*
X0285596Y0307347D01*
X0285699Y0307366D01*
X0285803Y0307381D01*
X0285907Y0307392D01*
X0286012Y0307399D01*
X0286117Y0307402D01*
X0286222Y0307401D01*
X0286327Y0307396D01*
X0286431Y0307387D01*
X0286535Y0307374D01*
X0286639Y0307357D01*
X0286742Y0307336D01*
X0286844Y0307311D01*
X0286945Y0307283D01*
X0287044Y0307250D01*
X0287143Y0307214D01*
X0287240Y0307174D01*
X0287335Y0307131D01*
X0287429Y0307083D01*
X0287521Y0307033D01*
X0287611Y0306979D01*
X0287699Y0306921D01*
X0287784Y0306860D01*
X0287867Y0306796D01*
X0287948Y0306729D01*
X0288026Y0306659D01*
X0288101Y0306585D01*
X0288173Y0306510D01*
X0288243Y0306431D01*
X0288309Y0306350D01*
X0288373Y0306266D01*
X0288433Y0306180D01*
X0288489Y0306092D01*
X0288543Y0306001D01*
X0288593Y0305909D01*
X0288639Y0305815D01*
X0288682Y0305719D01*
X0288721Y0305621D01*
X0288756Y0305523D01*
X0288787Y0305422D01*
X0288815Y0305321D01*
X0288839Y0305219D01*
X0288859Y0305116D01*
X0288875Y0305012D01*
X0288887Y0304908D01*
X0288895Y0304803D01*
X0288899Y0304698D01*
X0288899Y0304594D01*
X0288895Y0304489D01*
X0288887Y0304384D01*
X0288875Y0304280D01*
X0288859Y0304176D01*
X0288839Y0304073D01*
X0288815Y0303971D01*
X0288787Y0303870D01*
X0288756Y0303769D01*
X0288721Y0303671D01*
X0288682Y0303573D01*
X0288639Y0303477D01*
X0288593Y0303383D01*
X0288543Y0303291D01*
X0288489Y0303200D01*
X0288433Y0303112D01*
X0288373Y0303026D01*
X0288309Y0302942D01*
X0288243Y0302861D01*
X0288173Y0302782D01*
X0288101Y0302707D01*
X0288026Y0302633D01*
X0287948Y0302563D01*
X0287867Y0302496D01*
X0287784Y0302432D01*
X0287699Y0302371D01*
X0287611Y0302313D01*
X0287521Y0302259D01*
X0287429Y0302209D01*
X0287335Y0302161D01*
X0287240Y0302118D01*
X0287143Y0302078D01*
X0287044Y0302042D01*
X0286945Y0302009D01*
X0286844Y0301981D01*
X0286742Y0301956D01*
X0286639Y0301935D01*
X0286535Y0301918D01*
X0286431Y0301905D01*
X0286327Y0301896D01*
X0286222Y0301891D01*
X0286117Y0301890D01*
X0286012Y0301893D01*
X0285907Y0301900D01*
X0285803Y0301911D01*
X0285699Y0301926D01*
X0285596Y0301945D01*
X0285493Y0301968D01*
X0285392Y0301994D01*
X0285291Y0302025D01*
X0285192Y0302059D01*
X0285094Y0302097D01*
X0284998Y0302139D01*
X0284904Y0302184D01*
X0284811Y0302233D01*
X0284720Y0302286D01*
X0284631Y0302342D01*
X0284544Y0302401D01*
X0284460Y0302464D01*
X0284378Y0302529D01*
X0284299Y0302598D01*
X0284222Y0302670D01*
X0284148Y0302744D01*
X0284077Y0302821D01*
X0284009Y0302901D01*
X0283945Y0302984D01*
X0283883Y0303069D01*
X0283825Y0303156D01*
X0283769Y0303245D01*
X0283718Y0303337D01*
X0283670Y0303430D01*
X0283625Y0303525D01*
X0283584Y0303622D01*
X0283547Y0303720D01*
X0283514Y0303819D01*
X0283484Y0303920D01*
X0283459Y0304022D01*
X0283437Y0304124D01*
X0283419Y0304228D01*
X0283405Y0304332D01*
X0283395Y0304436D01*
X0283389Y0304541D01*
X0283387Y0304646D01*
M02*
