%
M48
M72
T01C0.01378
T02C0.01500
T03C0.03937
T04C0.04000
T05C0.04331
T06C0.05512
%
T01
X149052Y215091
X132217Y235083
X123946Y234009
X115741Y234009
X107686Y234233
X99509Y234343
X132217Y243391
X131859Y251623
X132576Y262646
X125627Y267300
X117036Y268446
X108387Y268532
X99863Y268387
X147261Y281544
X164505Y265489
X159694Y250906
X199493Y275595
X215351Y291753
X216194Y279324
X232398Y294186
X248457Y276292
X257162Y275143
X273650Y259981
X276749Y251048
X252076Y226902
X239741Y226383
X238950Y218253
X239024Y259068
X176091Y317237
T02
X138532Y144052
X163702Y98741
X187324Y84961
X203072Y162717
X207993Y197166
X177481Y221772
X170591Y214883
X173544Y201103
X146969Y230631
X158780Y244410
X168623Y255237
X176497Y257206
X184371Y260158
X184371Y268032
X197166Y254253
X184371Y248347
X201103Y238505
X218820Y243426
X229646Y238505
X217835Y260158
X217835Y266064
X200119Y290670
X191261Y294607
X145001Y298544
X164686Y375316
X154843Y376300
X184371Y421576
X165670Y423544
X288702Y379253
X308387Y371379
X336930Y424528
X342835Y424528
X356615Y279843
X357599Y233583
X368426Y234568
X338898Y228662
X402875Y158780
X394017Y149922
X343820Y91851
X244410Y168623
T03
X257206Y199706
X267206Y199706
T04
X262954Y82442
X272954Y82442
X282954Y82442
X252954Y82442
X242954Y82442
X232954Y82442
X243308Y354922
X253308Y354922
X263308Y354922
X263308Y364922
X253308Y364922
X243308Y364922
X244017Y441221
X254017Y441221
X264017Y441221
X274017Y441221
X284017Y441221
X234017Y441221
T05
X443583Y302599
X443583Y292599
X443583Y282599
X443583Y272599
X443583Y262599
X443583Y252599
X443583Y242599
X443583Y232599
X443583Y222599
X443583Y212599
X261709Y176717
X261709Y166717
T06
X286143Y209765
X228269Y209765
X228269Y304646
X286143Y304646
M30
