G75*
%MOIN*%
%OFA0B0*%
%FSLAX25Y25*%
%IPPOS*%
%LPD*%
%AMOC8*
5,1,8,0,0,1.08239X$1,22.5*
%
%ADD10C,0.00039*%
%ADD11C,0.00300*%
%ADD12C,0.00800*%
%ADD13C,0.00400*%
%ADD14C,0.00500*%
%ADD15C,0.00000*%
%ADD16C,0.00472*%
%ADD17C,0.00787*%
%ADD18C,0.00827*%
%ADD19C,0.00600*%
%ADD20C,0.01575*%
D10*
X0005237Y0028859D02*
X0012324Y0028859D01*
X0028859Y0005237D02*
X0029430Y0005244D01*
X0030000Y0005265D01*
X0030570Y0005299D01*
X0031139Y0005347D01*
X0031706Y0005409D01*
X0032272Y0005485D01*
X0032836Y0005574D01*
X0033397Y0005677D01*
X0033956Y0005794D01*
X0034512Y0005923D01*
X0035065Y0006067D01*
X0035614Y0006223D01*
X0036159Y0006393D01*
X0036699Y0006576D01*
X0037235Y0006772D01*
X0037767Y0006981D01*
X0038293Y0007203D01*
X0038813Y0007437D01*
X0039328Y0007684D01*
X0039837Y0007943D01*
X0040339Y0008214D01*
X0040834Y0008498D01*
X0041323Y0008793D01*
X0041804Y0009100D01*
X0042278Y0009418D01*
X0042744Y0009748D01*
X0043201Y0010089D01*
X0043651Y0010442D01*
X0044091Y0010804D01*
X0044523Y0011178D01*
X0044946Y0011561D01*
X0045359Y0011955D01*
X0045763Y0012359D01*
X0046157Y0012772D01*
X0046540Y0013195D01*
X0046914Y0013627D01*
X0047276Y0014067D01*
X0047629Y0014517D01*
X0047970Y0014974D01*
X0048300Y0015440D01*
X0048618Y0015914D01*
X0048925Y0016395D01*
X0049220Y0016884D01*
X0049504Y0017379D01*
X0049775Y0017881D01*
X0050034Y0018390D01*
X0050281Y0018905D01*
X0050515Y0019425D01*
X0050737Y0019951D01*
X0050946Y0020483D01*
X0051142Y0021019D01*
X0051325Y0021559D01*
X0051495Y0022104D01*
X0051651Y0022653D01*
X0051795Y0023206D01*
X0051924Y0023762D01*
X0052041Y0024321D01*
X0052144Y0024882D01*
X0052233Y0025446D01*
X0052309Y0026012D01*
X0052371Y0026579D01*
X0052419Y0027148D01*
X0052453Y0027718D01*
X0052474Y0028288D01*
X0052481Y0028859D01*
X0131221Y0107599D01*
X0178465Y0060355D01*
X0335946Y0060355D01*
X0383190Y0107599D01*
X0461930Y0028859D01*
X0461937Y0028288D01*
X0461958Y0027718D01*
X0461992Y0027148D01*
X0462040Y0026579D01*
X0462102Y0026012D01*
X0462178Y0025446D01*
X0462267Y0024882D01*
X0462370Y0024321D01*
X0462487Y0023762D01*
X0462616Y0023206D01*
X0462760Y0022653D01*
X0462916Y0022104D01*
X0463086Y0021559D01*
X0463269Y0021019D01*
X0463465Y0020483D01*
X0463674Y0019951D01*
X0463896Y0019425D01*
X0464130Y0018905D01*
X0464377Y0018390D01*
X0464636Y0017881D01*
X0464907Y0017379D01*
X0465191Y0016884D01*
X0465486Y0016395D01*
X0465793Y0015914D01*
X0466111Y0015440D01*
X0466441Y0014974D01*
X0466782Y0014517D01*
X0467135Y0014067D01*
X0467497Y0013627D01*
X0467871Y0013195D01*
X0468254Y0012772D01*
X0468648Y0012359D01*
X0469052Y0011955D01*
X0469465Y0011561D01*
X0469888Y0011178D01*
X0470320Y0010804D01*
X0470760Y0010442D01*
X0471210Y0010089D01*
X0471667Y0009748D01*
X0472133Y0009418D01*
X0472607Y0009100D01*
X0473088Y0008793D01*
X0473577Y0008498D01*
X0474072Y0008214D01*
X0474574Y0007943D01*
X0475083Y0007684D01*
X0475598Y0007437D01*
X0476118Y0007203D01*
X0476644Y0006981D01*
X0477176Y0006772D01*
X0477712Y0006576D01*
X0478252Y0006393D01*
X0478797Y0006223D01*
X0479346Y0006067D01*
X0479899Y0005923D01*
X0480455Y0005794D01*
X0481014Y0005677D01*
X0481575Y0005574D01*
X0482139Y0005485D01*
X0482705Y0005409D01*
X0483272Y0005347D01*
X0483841Y0005299D01*
X0484411Y0005265D01*
X0484981Y0005244D01*
X0485552Y0005237D01*
X0485552Y0012324D01*
X0509174Y0028859D02*
X0509167Y0029430D01*
X0509146Y0030000D01*
X0509112Y0030570D01*
X0509064Y0031139D01*
X0509002Y0031706D01*
X0508926Y0032272D01*
X0508837Y0032836D01*
X0508734Y0033397D01*
X0508617Y0033956D01*
X0508488Y0034512D01*
X0508344Y0035065D01*
X0508188Y0035614D01*
X0508018Y0036159D01*
X0507835Y0036699D01*
X0507639Y0037235D01*
X0507430Y0037767D01*
X0507208Y0038293D01*
X0506974Y0038813D01*
X0506727Y0039328D01*
X0506468Y0039837D01*
X0506197Y0040339D01*
X0505913Y0040834D01*
X0505618Y0041323D01*
X0505311Y0041804D01*
X0504993Y0042278D01*
X0504663Y0042744D01*
X0504322Y0043201D01*
X0503969Y0043651D01*
X0503607Y0044091D01*
X0503233Y0044523D01*
X0502850Y0044946D01*
X0502456Y0045359D01*
X0502052Y0045763D01*
X0501639Y0046157D01*
X0501216Y0046540D01*
X0500784Y0046914D01*
X0500344Y0047276D01*
X0499894Y0047629D01*
X0499437Y0047970D01*
X0498971Y0048300D01*
X0498497Y0048618D01*
X0498016Y0048925D01*
X0497527Y0049220D01*
X0497032Y0049504D01*
X0496530Y0049775D01*
X0496021Y0050034D01*
X0495506Y0050281D01*
X0494986Y0050515D01*
X0494460Y0050737D01*
X0493928Y0050946D01*
X0493392Y0051142D01*
X0492852Y0051325D01*
X0492307Y0051495D01*
X0491758Y0051651D01*
X0491205Y0051795D01*
X0490649Y0051924D01*
X0490090Y0052041D01*
X0489529Y0052144D01*
X0488965Y0052233D01*
X0488399Y0052309D01*
X0487832Y0052371D01*
X0487263Y0052419D01*
X0486693Y0052453D01*
X0486123Y0052474D01*
X0485552Y0052481D01*
X0406812Y0131221D01*
X0454056Y0178465D01*
X0454056Y0335946D01*
X0406812Y0383190D01*
X0485552Y0461930D01*
X0486123Y0461937D01*
X0486693Y0461958D01*
X0487263Y0461992D01*
X0487832Y0462040D01*
X0488399Y0462102D01*
X0488965Y0462178D01*
X0489529Y0462267D01*
X0490090Y0462370D01*
X0490649Y0462487D01*
X0491205Y0462616D01*
X0491758Y0462760D01*
X0492307Y0462916D01*
X0492852Y0463086D01*
X0493392Y0463269D01*
X0493928Y0463465D01*
X0494460Y0463674D01*
X0494986Y0463896D01*
X0495506Y0464130D01*
X0496021Y0464377D01*
X0496530Y0464636D01*
X0497032Y0464907D01*
X0497527Y0465191D01*
X0498016Y0465486D01*
X0498497Y0465793D01*
X0498971Y0466111D01*
X0499437Y0466441D01*
X0499894Y0466782D01*
X0500344Y0467135D01*
X0500784Y0467497D01*
X0501216Y0467871D01*
X0501639Y0468254D01*
X0502052Y0468648D01*
X0502456Y0469052D01*
X0502850Y0469465D01*
X0503233Y0469888D01*
X0503607Y0470320D01*
X0503969Y0470760D01*
X0504322Y0471210D01*
X0504663Y0471667D01*
X0504993Y0472133D01*
X0505311Y0472607D01*
X0505618Y0473088D01*
X0505913Y0473577D01*
X0506197Y0474072D01*
X0506468Y0474574D01*
X0506727Y0475083D01*
X0506974Y0475598D01*
X0507208Y0476118D01*
X0507430Y0476644D01*
X0507639Y0477176D01*
X0507835Y0477712D01*
X0508018Y0478252D01*
X0508188Y0478797D01*
X0508344Y0479346D01*
X0508488Y0479899D01*
X0508617Y0480455D01*
X0508734Y0481014D01*
X0508837Y0481575D01*
X0508926Y0482139D01*
X0509002Y0482705D01*
X0509064Y0483272D01*
X0509112Y0483841D01*
X0509146Y0484411D01*
X0509167Y0484981D01*
X0509174Y0485552D01*
X0502087Y0485552D01*
X0485552Y0509174D02*
X0484981Y0509167D01*
X0484411Y0509146D01*
X0483841Y0509112D01*
X0483272Y0509064D01*
X0482705Y0509002D01*
X0482139Y0508926D01*
X0481575Y0508837D01*
X0481014Y0508734D01*
X0480455Y0508617D01*
X0479899Y0508488D01*
X0479346Y0508344D01*
X0478797Y0508188D01*
X0478252Y0508018D01*
X0477712Y0507835D01*
X0477176Y0507639D01*
X0476644Y0507430D01*
X0476118Y0507208D01*
X0475598Y0506974D01*
X0475083Y0506727D01*
X0474574Y0506468D01*
X0474072Y0506197D01*
X0473577Y0505913D01*
X0473088Y0505618D01*
X0472607Y0505311D01*
X0472133Y0504993D01*
X0471667Y0504663D01*
X0471210Y0504322D01*
X0470760Y0503969D01*
X0470320Y0503607D01*
X0469888Y0503233D01*
X0469465Y0502850D01*
X0469052Y0502456D01*
X0468648Y0502052D01*
X0468254Y0501639D01*
X0467871Y0501216D01*
X0467497Y0500784D01*
X0467135Y0500344D01*
X0466782Y0499894D01*
X0466441Y0499437D01*
X0466111Y0498971D01*
X0465793Y0498497D01*
X0465486Y0498016D01*
X0465191Y0497527D01*
X0464907Y0497032D01*
X0464636Y0496530D01*
X0464377Y0496021D01*
X0464130Y0495506D01*
X0463896Y0494986D01*
X0463674Y0494460D01*
X0463465Y0493928D01*
X0463269Y0493392D01*
X0463086Y0492852D01*
X0462916Y0492307D01*
X0462760Y0491758D01*
X0462616Y0491205D01*
X0462487Y0490649D01*
X0462370Y0490090D01*
X0462267Y0489529D01*
X0462178Y0488965D01*
X0462102Y0488399D01*
X0462040Y0487832D01*
X0461992Y0487263D01*
X0461958Y0486693D01*
X0461937Y0486123D01*
X0461930Y0485552D01*
X0383190Y0406812D01*
X0335946Y0454056D01*
X0178465Y0454056D01*
X0131221Y0406812D01*
X0052481Y0485552D01*
X0052474Y0486123D01*
X0052453Y0486693D01*
X0052419Y0487263D01*
X0052371Y0487832D01*
X0052309Y0488399D01*
X0052233Y0488965D01*
X0052144Y0489529D01*
X0052041Y0490090D01*
X0051924Y0490649D01*
X0051795Y0491205D01*
X0051651Y0491758D01*
X0051495Y0492307D01*
X0051325Y0492852D01*
X0051142Y0493392D01*
X0050946Y0493928D01*
X0050737Y0494460D01*
X0050515Y0494986D01*
X0050281Y0495506D01*
X0050034Y0496021D01*
X0049775Y0496530D01*
X0049504Y0497032D01*
X0049220Y0497527D01*
X0048925Y0498016D01*
X0048618Y0498497D01*
X0048300Y0498971D01*
X0047970Y0499437D01*
X0047629Y0499894D01*
X0047276Y0500344D01*
X0046914Y0500784D01*
X0046540Y0501216D01*
X0046157Y0501639D01*
X0045763Y0502052D01*
X0045359Y0502456D01*
X0044946Y0502850D01*
X0044523Y0503233D01*
X0044091Y0503607D01*
X0043651Y0503969D01*
X0043201Y0504322D01*
X0042744Y0504663D01*
X0042278Y0504993D01*
X0041804Y0505311D01*
X0041323Y0505618D01*
X0040834Y0505913D01*
X0040339Y0506197D01*
X0039837Y0506468D01*
X0039328Y0506727D01*
X0038813Y0506974D01*
X0038293Y0507208D01*
X0037767Y0507430D01*
X0037235Y0507639D01*
X0036699Y0507835D01*
X0036159Y0508018D01*
X0035614Y0508188D01*
X0035065Y0508344D01*
X0034512Y0508488D01*
X0033956Y0508617D01*
X0033397Y0508734D01*
X0032836Y0508837D01*
X0032272Y0508926D01*
X0031706Y0509002D01*
X0031139Y0509064D01*
X0030570Y0509112D01*
X0030000Y0509146D01*
X0029430Y0509167D01*
X0028859Y0509174D01*
X0028859Y0502087D01*
X0005237Y0485552D02*
X0005244Y0484981D01*
X0005265Y0484411D01*
X0005299Y0483841D01*
X0005347Y0483272D01*
X0005409Y0482705D01*
X0005485Y0482139D01*
X0005574Y0481575D01*
X0005677Y0481014D01*
X0005794Y0480455D01*
X0005923Y0479899D01*
X0006067Y0479346D01*
X0006223Y0478797D01*
X0006393Y0478252D01*
X0006576Y0477712D01*
X0006772Y0477176D01*
X0006981Y0476644D01*
X0007203Y0476118D01*
X0007437Y0475598D01*
X0007684Y0475083D01*
X0007943Y0474574D01*
X0008214Y0474072D01*
X0008498Y0473577D01*
X0008793Y0473088D01*
X0009100Y0472607D01*
X0009418Y0472133D01*
X0009748Y0471667D01*
X0010089Y0471210D01*
X0010442Y0470760D01*
X0010804Y0470320D01*
X0011178Y0469888D01*
X0011561Y0469465D01*
X0011955Y0469052D01*
X0012359Y0468648D01*
X0012772Y0468254D01*
X0013195Y0467871D01*
X0013627Y0467497D01*
X0014067Y0467135D01*
X0014517Y0466782D01*
X0014974Y0466441D01*
X0015440Y0466111D01*
X0015914Y0465793D01*
X0016395Y0465486D01*
X0016884Y0465191D01*
X0017379Y0464907D01*
X0017881Y0464636D01*
X0018390Y0464377D01*
X0018905Y0464130D01*
X0019425Y0463896D01*
X0019951Y0463674D01*
X0020483Y0463465D01*
X0021019Y0463269D01*
X0021559Y0463086D01*
X0022104Y0462916D01*
X0022653Y0462760D01*
X0023206Y0462616D01*
X0023762Y0462487D01*
X0024321Y0462370D01*
X0024882Y0462267D01*
X0025446Y0462178D01*
X0026012Y0462102D01*
X0026579Y0462040D01*
X0027148Y0461992D01*
X0027718Y0461958D01*
X0028288Y0461937D01*
X0028859Y0461930D01*
X0107599Y0383190D01*
X0060355Y0335946D01*
X0060355Y0178465D01*
X0107599Y0131221D01*
X0028859Y0052481D01*
X0028288Y0052474D01*
X0027718Y0052453D01*
X0027148Y0052419D01*
X0026579Y0052371D01*
X0026012Y0052309D01*
X0025446Y0052233D01*
X0024882Y0052144D01*
X0024321Y0052041D01*
X0023762Y0051924D01*
X0023206Y0051795D01*
X0022653Y0051651D01*
X0022104Y0051495D01*
X0021559Y0051325D01*
X0021019Y0051142D01*
X0020483Y0050946D01*
X0019951Y0050737D01*
X0019425Y0050515D01*
X0018905Y0050281D01*
X0018390Y0050034D01*
X0017881Y0049775D01*
X0017379Y0049504D01*
X0016884Y0049220D01*
X0016395Y0048925D01*
X0015914Y0048618D01*
X0015440Y0048300D01*
X0014974Y0047970D01*
X0014517Y0047629D01*
X0014067Y0047276D01*
X0013627Y0046914D01*
X0013195Y0046540D01*
X0012772Y0046157D01*
X0012359Y0045763D01*
X0011955Y0045359D01*
X0011561Y0044946D01*
X0011178Y0044523D01*
X0010804Y0044091D01*
X0010442Y0043651D01*
X0010089Y0043201D01*
X0009748Y0042744D01*
X0009418Y0042278D01*
X0009100Y0041804D01*
X0008793Y0041323D01*
X0008498Y0040834D01*
X0008214Y0040339D01*
X0007943Y0039837D01*
X0007684Y0039328D01*
X0007437Y0038813D01*
X0007203Y0038293D01*
X0006981Y0037767D01*
X0006772Y0037235D01*
X0006576Y0036699D01*
X0006393Y0036159D01*
X0006223Y0035614D01*
X0006067Y0035065D01*
X0005923Y0034512D01*
X0005794Y0033956D01*
X0005677Y0033397D01*
X0005574Y0032836D01*
X0005485Y0032272D01*
X0005409Y0031706D01*
X0005347Y0031139D01*
X0005299Y0030570D01*
X0005265Y0030000D01*
X0005244Y0029430D01*
X0005237Y0028859D01*
X0012324Y0028859D02*
X0012329Y0029263D01*
X0012344Y0029666D01*
X0012368Y0030069D01*
X0012403Y0030471D01*
X0012447Y0030873D01*
X0012501Y0031273D01*
X0012565Y0031671D01*
X0012638Y0032068D01*
X0012722Y0032463D01*
X0012814Y0032856D01*
X0012917Y0033247D01*
X0013029Y0033635D01*
X0013150Y0034020D01*
X0013281Y0034402D01*
X0013421Y0034780D01*
X0013570Y0035156D01*
X0013728Y0035527D01*
X0013895Y0035894D01*
X0014072Y0036258D01*
X0014257Y0036616D01*
X0014450Y0036971D01*
X0014653Y0037320D01*
X0014864Y0037664D01*
X0015083Y0038003D01*
X0015310Y0038337D01*
X0015545Y0038665D01*
X0015789Y0038987D01*
X0016040Y0039303D01*
X0016299Y0039613D01*
X0016565Y0039916D01*
X0016839Y0040213D01*
X0017120Y0040503D01*
X0017407Y0040786D01*
X0017702Y0041063D01*
X0018003Y0041331D01*
X0018311Y0041593D01*
X0018625Y0041846D01*
X0018945Y0042092D01*
X0019271Y0042330D01*
X0019603Y0042560D01*
X0019940Y0042782D01*
X0020283Y0042996D01*
X0020630Y0043201D01*
X0020983Y0043398D01*
X0021340Y0043586D01*
X0021702Y0043765D01*
X0022068Y0043935D01*
X0022438Y0044096D01*
X0022812Y0044249D01*
X0023190Y0044392D01*
X0023571Y0044525D01*
X0023955Y0044650D01*
X0024342Y0044765D01*
X0024731Y0044870D01*
X0025123Y0044967D01*
X0025518Y0045053D01*
X0025914Y0045130D01*
X0026312Y0045197D01*
X0026712Y0045254D01*
X0027113Y0045302D01*
X0027515Y0045339D01*
X0027917Y0045367D01*
X0028321Y0045385D01*
X0028724Y0045393D01*
X0029128Y0045392D01*
X0029532Y0045380D01*
X0029935Y0045359D01*
X0030337Y0045328D01*
X0030739Y0045287D01*
X0031139Y0045236D01*
X0031539Y0045175D01*
X0031936Y0045105D01*
X0032332Y0045025D01*
X0032726Y0044936D01*
X0033117Y0044836D01*
X0033506Y0044728D01*
X0033892Y0044609D01*
X0034275Y0044482D01*
X0034655Y0044345D01*
X0035031Y0044199D01*
X0035404Y0044044D01*
X0035772Y0043879D01*
X0036137Y0043706D01*
X0036497Y0043524D01*
X0036853Y0043333D01*
X0037204Y0043134D01*
X0037550Y0042926D01*
X0037891Y0042709D01*
X0038226Y0042485D01*
X0038556Y0042252D01*
X0038880Y0042011D01*
X0039198Y0041763D01*
X0039510Y0041506D01*
X0039816Y0041242D01*
X0040115Y0040971D01*
X0040407Y0040693D01*
X0040693Y0040407D01*
X0040971Y0040115D01*
X0041242Y0039816D01*
X0041506Y0039510D01*
X0041763Y0039198D01*
X0042011Y0038880D01*
X0042252Y0038556D01*
X0042485Y0038226D01*
X0042709Y0037891D01*
X0042926Y0037550D01*
X0043134Y0037204D01*
X0043333Y0036853D01*
X0043524Y0036497D01*
X0043706Y0036137D01*
X0043879Y0035772D01*
X0044044Y0035404D01*
X0044199Y0035031D01*
X0044345Y0034655D01*
X0044482Y0034275D01*
X0044609Y0033892D01*
X0044728Y0033506D01*
X0044836Y0033117D01*
X0044936Y0032726D01*
X0045025Y0032332D01*
X0045105Y0031936D01*
X0045175Y0031539D01*
X0045236Y0031139D01*
X0045287Y0030739D01*
X0045328Y0030337D01*
X0045359Y0029935D01*
X0045380Y0029532D01*
X0045392Y0029128D01*
X0045393Y0028724D01*
X0045385Y0028321D01*
X0045367Y0027917D01*
X0045339Y0027515D01*
X0045302Y0027113D01*
X0045254Y0026712D01*
X0045197Y0026312D01*
X0045130Y0025914D01*
X0045053Y0025518D01*
X0044967Y0025123D01*
X0044870Y0024731D01*
X0044765Y0024342D01*
X0044650Y0023955D01*
X0044525Y0023571D01*
X0044392Y0023190D01*
X0044249Y0022812D01*
X0044096Y0022438D01*
X0043935Y0022068D01*
X0043765Y0021702D01*
X0043586Y0021340D01*
X0043398Y0020983D01*
X0043201Y0020630D01*
X0042996Y0020283D01*
X0042782Y0019940D01*
X0042560Y0019603D01*
X0042330Y0019271D01*
X0042092Y0018945D01*
X0041846Y0018625D01*
X0041593Y0018311D01*
X0041331Y0018003D01*
X0041063Y0017702D01*
X0040786Y0017407D01*
X0040503Y0017120D01*
X0040213Y0016839D01*
X0039916Y0016565D01*
X0039613Y0016299D01*
X0039303Y0016040D01*
X0038987Y0015789D01*
X0038665Y0015545D01*
X0038337Y0015310D01*
X0038003Y0015083D01*
X0037664Y0014864D01*
X0037320Y0014653D01*
X0036971Y0014450D01*
X0036616Y0014257D01*
X0036258Y0014072D01*
X0035894Y0013895D01*
X0035527Y0013728D01*
X0035156Y0013570D01*
X0034780Y0013421D01*
X0034402Y0013281D01*
X0034020Y0013150D01*
X0033635Y0013029D01*
X0033247Y0012917D01*
X0032856Y0012814D01*
X0032463Y0012722D01*
X0032068Y0012638D01*
X0031671Y0012565D01*
X0031273Y0012501D01*
X0030873Y0012447D01*
X0030471Y0012403D01*
X0030069Y0012368D01*
X0029666Y0012344D01*
X0029263Y0012329D01*
X0028859Y0012324D01*
X0028859Y0005237D01*
X0485552Y0012324D02*
X0485148Y0012329D01*
X0484745Y0012344D01*
X0484342Y0012368D01*
X0483940Y0012403D01*
X0483538Y0012447D01*
X0483138Y0012501D01*
X0482740Y0012565D01*
X0482343Y0012638D01*
X0481948Y0012722D01*
X0481555Y0012814D01*
X0481164Y0012917D01*
X0480776Y0013029D01*
X0480391Y0013150D01*
X0480009Y0013281D01*
X0479631Y0013421D01*
X0479255Y0013570D01*
X0478884Y0013728D01*
X0478517Y0013895D01*
X0478153Y0014072D01*
X0477795Y0014257D01*
X0477440Y0014450D01*
X0477091Y0014653D01*
X0476747Y0014864D01*
X0476408Y0015083D01*
X0476074Y0015310D01*
X0475746Y0015545D01*
X0475424Y0015789D01*
X0475108Y0016040D01*
X0474798Y0016299D01*
X0474495Y0016565D01*
X0474198Y0016839D01*
X0473908Y0017120D01*
X0473625Y0017407D01*
X0473348Y0017702D01*
X0473080Y0018003D01*
X0472818Y0018311D01*
X0472565Y0018625D01*
X0472319Y0018945D01*
X0472081Y0019271D01*
X0471851Y0019603D01*
X0471629Y0019940D01*
X0471415Y0020283D01*
X0471210Y0020630D01*
X0471013Y0020983D01*
X0470825Y0021340D01*
X0470646Y0021702D01*
X0470476Y0022068D01*
X0470315Y0022438D01*
X0470162Y0022812D01*
X0470019Y0023190D01*
X0469886Y0023571D01*
X0469761Y0023955D01*
X0469646Y0024342D01*
X0469541Y0024731D01*
X0469444Y0025123D01*
X0469358Y0025518D01*
X0469281Y0025914D01*
X0469214Y0026312D01*
X0469157Y0026712D01*
X0469109Y0027113D01*
X0469072Y0027515D01*
X0469044Y0027917D01*
X0469026Y0028321D01*
X0469018Y0028724D01*
X0469019Y0029128D01*
X0469031Y0029532D01*
X0469052Y0029935D01*
X0469083Y0030337D01*
X0469124Y0030739D01*
X0469175Y0031139D01*
X0469236Y0031539D01*
X0469306Y0031936D01*
X0469386Y0032332D01*
X0469475Y0032726D01*
X0469575Y0033117D01*
X0469683Y0033506D01*
X0469802Y0033892D01*
X0469929Y0034275D01*
X0470066Y0034655D01*
X0470212Y0035031D01*
X0470367Y0035404D01*
X0470532Y0035772D01*
X0470705Y0036137D01*
X0470887Y0036497D01*
X0471078Y0036853D01*
X0471277Y0037204D01*
X0471485Y0037550D01*
X0471702Y0037891D01*
X0471926Y0038226D01*
X0472159Y0038556D01*
X0472400Y0038880D01*
X0472648Y0039198D01*
X0472905Y0039510D01*
X0473169Y0039816D01*
X0473440Y0040115D01*
X0473718Y0040407D01*
X0474004Y0040693D01*
X0474296Y0040971D01*
X0474595Y0041242D01*
X0474901Y0041506D01*
X0475213Y0041763D01*
X0475531Y0042011D01*
X0475855Y0042252D01*
X0476185Y0042485D01*
X0476520Y0042709D01*
X0476861Y0042926D01*
X0477207Y0043134D01*
X0477558Y0043333D01*
X0477914Y0043524D01*
X0478274Y0043706D01*
X0478639Y0043879D01*
X0479007Y0044044D01*
X0479380Y0044199D01*
X0479756Y0044345D01*
X0480136Y0044482D01*
X0480519Y0044609D01*
X0480905Y0044728D01*
X0481294Y0044836D01*
X0481685Y0044936D01*
X0482079Y0045025D01*
X0482475Y0045105D01*
X0482872Y0045175D01*
X0483272Y0045236D01*
X0483672Y0045287D01*
X0484074Y0045328D01*
X0484476Y0045359D01*
X0484879Y0045380D01*
X0485283Y0045392D01*
X0485687Y0045393D01*
X0486090Y0045385D01*
X0486494Y0045367D01*
X0486896Y0045339D01*
X0487298Y0045302D01*
X0487699Y0045254D01*
X0488099Y0045197D01*
X0488497Y0045130D01*
X0488893Y0045053D01*
X0489288Y0044967D01*
X0489680Y0044870D01*
X0490069Y0044765D01*
X0490456Y0044650D01*
X0490840Y0044525D01*
X0491221Y0044392D01*
X0491599Y0044249D01*
X0491973Y0044096D01*
X0492343Y0043935D01*
X0492709Y0043765D01*
X0493071Y0043586D01*
X0493428Y0043398D01*
X0493781Y0043201D01*
X0494128Y0042996D01*
X0494471Y0042782D01*
X0494808Y0042560D01*
X0495140Y0042330D01*
X0495466Y0042092D01*
X0495786Y0041846D01*
X0496100Y0041593D01*
X0496408Y0041331D01*
X0496709Y0041063D01*
X0497004Y0040786D01*
X0497291Y0040503D01*
X0497572Y0040213D01*
X0497846Y0039916D01*
X0498112Y0039613D01*
X0498371Y0039303D01*
X0498622Y0038987D01*
X0498866Y0038665D01*
X0499101Y0038337D01*
X0499328Y0038003D01*
X0499547Y0037664D01*
X0499758Y0037320D01*
X0499961Y0036971D01*
X0500154Y0036616D01*
X0500339Y0036258D01*
X0500516Y0035894D01*
X0500683Y0035527D01*
X0500841Y0035156D01*
X0500990Y0034780D01*
X0501130Y0034402D01*
X0501261Y0034020D01*
X0501382Y0033635D01*
X0501494Y0033247D01*
X0501597Y0032856D01*
X0501689Y0032463D01*
X0501773Y0032068D01*
X0501846Y0031671D01*
X0501910Y0031273D01*
X0501964Y0030873D01*
X0502008Y0030471D01*
X0502043Y0030069D01*
X0502067Y0029666D01*
X0502082Y0029263D01*
X0502087Y0028859D01*
X0509174Y0028859D01*
X0502087Y0485552D02*
X0502082Y0485148D01*
X0502067Y0484745D01*
X0502043Y0484342D01*
X0502008Y0483940D01*
X0501964Y0483538D01*
X0501910Y0483138D01*
X0501846Y0482740D01*
X0501773Y0482343D01*
X0501689Y0481948D01*
X0501597Y0481555D01*
X0501494Y0481164D01*
X0501382Y0480776D01*
X0501261Y0480391D01*
X0501130Y0480009D01*
X0500990Y0479631D01*
X0500841Y0479255D01*
X0500683Y0478884D01*
X0500516Y0478517D01*
X0500339Y0478153D01*
X0500154Y0477795D01*
X0499961Y0477440D01*
X0499758Y0477091D01*
X0499547Y0476747D01*
X0499328Y0476408D01*
X0499101Y0476074D01*
X0498866Y0475746D01*
X0498622Y0475424D01*
X0498371Y0475108D01*
X0498112Y0474798D01*
X0497846Y0474495D01*
X0497572Y0474198D01*
X0497291Y0473908D01*
X0497004Y0473625D01*
X0496709Y0473348D01*
X0496408Y0473080D01*
X0496100Y0472818D01*
X0495786Y0472565D01*
X0495466Y0472319D01*
X0495140Y0472081D01*
X0494808Y0471851D01*
X0494471Y0471629D01*
X0494128Y0471415D01*
X0493781Y0471210D01*
X0493428Y0471013D01*
X0493071Y0470825D01*
X0492709Y0470646D01*
X0492343Y0470476D01*
X0491973Y0470315D01*
X0491599Y0470162D01*
X0491221Y0470019D01*
X0490840Y0469886D01*
X0490456Y0469761D01*
X0490069Y0469646D01*
X0489680Y0469541D01*
X0489288Y0469444D01*
X0488893Y0469358D01*
X0488497Y0469281D01*
X0488099Y0469214D01*
X0487699Y0469157D01*
X0487298Y0469109D01*
X0486896Y0469072D01*
X0486494Y0469044D01*
X0486090Y0469026D01*
X0485687Y0469018D01*
X0485283Y0469019D01*
X0484879Y0469031D01*
X0484476Y0469052D01*
X0484074Y0469083D01*
X0483672Y0469124D01*
X0483272Y0469175D01*
X0482872Y0469236D01*
X0482475Y0469306D01*
X0482079Y0469386D01*
X0481685Y0469475D01*
X0481294Y0469575D01*
X0480905Y0469683D01*
X0480519Y0469802D01*
X0480136Y0469929D01*
X0479756Y0470066D01*
X0479380Y0470212D01*
X0479007Y0470367D01*
X0478639Y0470532D01*
X0478274Y0470705D01*
X0477914Y0470887D01*
X0477558Y0471078D01*
X0477207Y0471277D01*
X0476861Y0471485D01*
X0476520Y0471702D01*
X0476185Y0471926D01*
X0475855Y0472159D01*
X0475531Y0472400D01*
X0475213Y0472648D01*
X0474901Y0472905D01*
X0474595Y0473169D01*
X0474296Y0473440D01*
X0474004Y0473718D01*
X0473718Y0474004D01*
X0473440Y0474296D01*
X0473169Y0474595D01*
X0472905Y0474901D01*
X0472648Y0475213D01*
X0472400Y0475531D01*
X0472159Y0475855D01*
X0471926Y0476185D01*
X0471702Y0476520D01*
X0471485Y0476861D01*
X0471277Y0477207D01*
X0471078Y0477558D01*
X0470887Y0477914D01*
X0470705Y0478274D01*
X0470532Y0478639D01*
X0470367Y0479007D01*
X0470212Y0479380D01*
X0470066Y0479756D01*
X0469929Y0480136D01*
X0469802Y0480519D01*
X0469683Y0480905D01*
X0469575Y0481294D01*
X0469475Y0481685D01*
X0469386Y0482079D01*
X0469306Y0482475D01*
X0469236Y0482872D01*
X0469175Y0483272D01*
X0469124Y0483672D01*
X0469083Y0484074D01*
X0469052Y0484476D01*
X0469031Y0484879D01*
X0469019Y0485283D01*
X0469018Y0485687D01*
X0469026Y0486090D01*
X0469044Y0486494D01*
X0469072Y0486896D01*
X0469109Y0487298D01*
X0469157Y0487699D01*
X0469214Y0488099D01*
X0469281Y0488497D01*
X0469358Y0488893D01*
X0469444Y0489288D01*
X0469541Y0489680D01*
X0469646Y0490069D01*
X0469761Y0490456D01*
X0469886Y0490840D01*
X0470019Y0491221D01*
X0470162Y0491599D01*
X0470315Y0491973D01*
X0470476Y0492343D01*
X0470646Y0492709D01*
X0470825Y0493071D01*
X0471013Y0493428D01*
X0471210Y0493781D01*
X0471415Y0494128D01*
X0471629Y0494471D01*
X0471851Y0494808D01*
X0472081Y0495140D01*
X0472319Y0495466D01*
X0472565Y0495786D01*
X0472818Y0496100D01*
X0473080Y0496408D01*
X0473348Y0496709D01*
X0473625Y0497004D01*
X0473908Y0497291D01*
X0474198Y0497572D01*
X0474495Y0497846D01*
X0474798Y0498112D01*
X0475108Y0498371D01*
X0475424Y0498622D01*
X0475746Y0498866D01*
X0476074Y0499101D01*
X0476408Y0499328D01*
X0476747Y0499547D01*
X0477091Y0499758D01*
X0477440Y0499961D01*
X0477795Y0500154D01*
X0478153Y0500339D01*
X0478517Y0500516D01*
X0478884Y0500683D01*
X0479255Y0500841D01*
X0479631Y0500990D01*
X0480009Y0501130D01*
X0480391Y0501261D01*
X0480776Y0501382D01*
X0481164Y0501494D01*
X0481555Y0501597D01*
X0481948Y0501689D01*
X0482343Y0501773D01*
X0482740Y0501846D01*
X0483138Y0501910D01*
X0483538Y0501964D01*
X0483940Y0502008D01*
X0484342Y0502043D01*
X0484745Y0502067D01*
X0485148Y0502082D01*
X0485552Y0502087D01*
X0485552Y0509174D01*
X0028859Y0502087D02*
X0029263Y0502082D01*
X0029666Y0502067D01*
X0030069Y0502043D01*
X0030471Y0502008D01*
X0030873Y0501964D01*
X0031273Y0501910D01*
X0031671Y0501846D01*
X0032068Y0501773D01*
X0032463Y0501689D01*
X0032856Y0501597D01*
X0033247Y0501494D01*
X0033635Y0501382D01*
X0034020Y0501261D01*
X0034402Y0501130D01*
X0034780Y0500990D01*
X0035156Y0500841D01*
X0035527Y0500683D01*
X0035894Y0500516D01*
X0036258Y0500339D01*
X0036616Y0500154D01*
X0036971Y0499961D01*
X0037320Y0499758D01*
X0037664Y0499547D01*
X0038003Y0499328D01*
X0038337Y0499101D01*
X0038665Y0498866D01*
X0038987Y0498622D01*
X0039303Y0498371D01*
X0039613Y0498112D01*
X0039916Y0497846D01*
X0040213Y0497572D01*
X0040503Y0497291D01*
X0040786Y0497004D01*
X0041063Y0496709D01*
X0041331Y0496408D01*
X0041593Y0496100D01*
X0041846Y0495786D01*
X0042092Y0495466D01*
X0042330Y0495140D01*
X0042560Y0494808D01*
X0042782Y0494471D01*
X0042996Y0494128D01*
X0043201Y0493781D01*
X0043398Y0493428D01*
X0043586Y0493071D01*
X0043765Y0492709D01*
X0043935Y0492343D01*
X0044096Y0491973D01*
X0044249Y0491599D01*
X0044392Y0491221D01*
X0044525Y0490840D01*
X0044650Y0490456D01*
X0044765Y0490069D01*
X0044870Y0489680D01*
X0044967Y0489288D01*
X0045053Y0488893D01*
X0045130Y0488497D01*
X0045197Y0488099D01*
X0045254Y0487699D01*
X0045302Y0487298D01*
X0045339Y0486896D01*
X0045367Y0486494D01*
X0045385Y0486090D01*
X0045393Y0485687D01*
X0045392Y0485283D01*
X0045380Y0484879D01*
X0045359Y0484476D01*
X0045328Y0484074D01*
X0045287Y0483672D01*
X0045236Y0483272D01*
X0045175Y0482872D01*
X0045105Y0482475D01*
X0045025Y0482079D01*
X0044936Y0481685D01*
X0044836Y0481294D01*
X0044728Y0480905D01*
X0044609Y0480519D01*
X0044482Y0480136D01*
X0044345Y0479756D01*
X0044199Y0479380D01*
X0044044Y0479007D01*
X0043879Y0478639D01*
X0043706Y0478274D01*
X0043524Y0477914D01*
X0043333Y0477558D01*
X0043134Y0477207D01*
X0042926Y0476861D01*
X0042709Y0476520D01*
X0042485Y0476185D01*
X0042252Y0475855D01*
X0042011Y0475531D01*
X0041763Y0475213D01*
X0041506Y0474901D01*
X0041242Y0474595D01*
X0040971Y0474296D01*
X0040693Y0474004D01*
X0040407Y0473718D01*
X0040115Y0473440D01*
X0039816Y0473169D01*
X0039510Y0472905D01*
X0039198Y0472648D01*
X0038880Y0472400D01*
X0038556Y0472159D01*
X0038226Y0471926D01*
X0037891Y0471702D01*
X0037550Y0471485D01*
X0037204Y0471277D01*
X0036853Y0471078D01*
X0036497Y0470887D01*
X0036137Y0470705D01*
X0035772Y0470532D01*
X0035404Y0470367D01*
X0035031Y0470212D01*
X0034655Y0470066D01*
X0034275Y0469929D01*
X0033892Y0469802D01*
X0033506Y0469683D01*
X0033117Y0469575D01*
X0032726Y0469475D01*
X0032332Y0469386D01*
X0031936Y0469306D01*
X0031539Y0469236D01*
X0031139Y0469175D01*
X0030739Y0469124D01*
X0030337Y0469083D01*
X0029935Y0469052D01*
X0029532Y0469031D01*
X0029128Y0469019D01*
X0028724Y0469018D01*
X0028321Y0469026D01*
X0027917Y0469044D01*
X0027515Y0469072D01*
X0027113Y0469109D01*
X0026712Y0469157D01*
X0026312Y0469214D01*
X0025914Y0469281D01*
X0025518Y0469358D01*
X0025123Y0469444D01*
X0024731Y0469541D01*
X0024342Y0469646D01*
X0023955Y0469761D01*
X0023571Y0469886D01*
X0023190Y0470019D01*
X0022812Y0470162D01*
X0022438Y0470315D01*
X0022068Y0470476D01*
X0021702Y0470646D01*
X0021340Y0470825D01*
X0020983Y0471013D01*
X0020630Y0471210D01*
X0020283Y0471415D01*
X0019940Y0471629D01*
X0019603Y0471851D01*
X0019271Y0472081D01*
X0018945Y0472319D01*
X0018625Y0472565D01*
X0018311Y0472818D01*
X0018003Y0473080D01*
X0017702Y0473348D01*
X0017407Y0473625D01*
X0017120Y0473908D01*
X0016839Y0474198D01*
X0016565Y0474495D01*
X0016299Y0474798D01*
X0016040Y0475108D01*
X0015789Y0475424D01*
X0015545Y0475746D01*
X0015310Y0476074D01*
X0015083Y0476408D01*
X0014864Y0476747D01*
X0014653Y0477091D01*
X0014450Y0477440D01*
X0014257Y0477795D01*
X0014072Y0478153D01*
X0013895Y0478517D01*
X0013728Y0478884D01*
X0013570Y0479255D01*
X0013421Y0479631D01*
X0013281Y0480009D01*
X0013150Y0480391D01*
X0013029Y0480776D01*
X0012917Y0481164D01*
X0012814Y0481555D01*
X0012722Y0481948D01*
X0012638Y0482343D01*
X0012565Y0482740D01*
X0012501Y0483138D01*
X0012447Y0483538D01*
X0012403Y0483940D01*
X0012368Y0484342D01*
X0012344Y0484745D01*
X0012329Y0485148D01*
X0012324Y0485552D01*
X0005237Y0485552D01*
D11*
X0128605Y0360933D02*
X0130844Y0358694D01*
X0132337Y0360187D01*
X0130471Y0360560D02*
X0129724Y0359813D01*
X0129335Y0358677D02*
X0129708Y0358304D01*
X0129708Y0357558D01*
X0128962Y0356811D01*
X0128215Y0356811D01*
X0127842Y0357931D02*
X0128588Y0358677D01*
X0129335Y0358677D01*
X0128215Y0359797D02*
X0127469Y0359797D01*
X0126722Y0359051D01*
X0126722Y0358304D01*
X0127095Y0357931D01*
X0127842Y0357931D01*
X0125586Y0357915D02*
X0124093Y0356422D01*
X0126333Y0354182D01*
X0125197Y0353793D02*
X0123704Y0355286D01*
X0122957Y0355286D01*
X0122211Y0354539D01*
X0122211Y0353793D01*
X0123704Y0352300D01*
X0124450Y0352300D01*
X0125197Y0353046D01*
X0125197Y0353793D01*
X0125213Y0355302D02*
X0125959Y0356048D01*
X0121075Y0353403D02*
X0123314Y0351164D01*
X0121821Y0349671D02*
X0119582Y0351910D01*
X0121075Y0351910D01*
X0121075Y0353403D01*
X0128605Y0360933D02*
X0130098Y0362426D01*
X0130860Y0363189D02*
X0132353Y0364682D01*
X0131607Y0363935D02*
X0133846Y0361696D01*
X0135356Y0363205D02*
X0135356Y0366191D01*
X0134982Y0366564D01*
X0134236Y0366564D01*
X0133489Y0365818D01*
X0133489Y0365071D01*
X0135356Y0363205D02*
X0136849Y0364698D01*
X0140333Y0361025D02*
X0139213Y0359905D01*
X0141452Y0357665D01*
X0142572Y0358785D01*
X0142572Y0359532D01*
X0141079Y0361025D01*
X0140333Y0361025D01*
X0152949Y0373785D02*
X0154442Y0372292D01*
X0155188Y0372292D01*
X0155935Y0373039D01*
X0155935Y0373785D01*
X0155188Y0374532D01*
X0154442Y0373785D01*
X0154442Y0375278D02*
X0153695Y0375278D01*
X0152949Y0374532D01*
X0152949Y0373785D01*
X0150233Y0377526D02*
X0149486Y0377526D01*
X0150233Y0377526D02*
X0150980Y0378272D01*
X0150980Y0379019D01*
X0150606Y0379392D01*
X0149860Y0379392D01*
X0149113Y0378645D01*
X0148367Y0378645D01*
X0147993Y0379019D01*
X0147993Y0379765D01*
X0148740Y0380512D01*
X0149486Y0380512D01*
X0229600Y0431217D02*
X0230075Y0430741D01*
X0231026Y0430741D01*
X0231501Y0431217D01*
X0231501Y0432167D01*
X0230550Y0432167D01*
X0229600Y0431217D02*
X0229600Y0433118D01*
X0230075Y0433593D01*
X0231026Y0433593D01*
X0231501Y0433118D01*
X0232500Y0433593D02*
X0234401Y0430741D01*
X0234401Y0433593D01*
X0235400Y0433593D02*
X0236826Y0433593D01*
X0237301Y0433118D01*
X0237301Y0431217D01*
X0236826Y0430741D01*
X0235400Y0430741D01*
X0235400Y0433593D01*
X0232500Y0433593D02*
X0232500Y0430741D01*
X0239678Y0431295D02*
X0239678Y0433197D01*
X0240154Y0433672D01*
X0241104Y0433672D01*
X0241580Y0433197D01*
X0242578Y0433672D02*
X0244480Y0433672D01*
X0243529Y0433672D02*
X0243529Y0430820D01*
X0241580Y0431295D02*
X0241104Y0430820D01*
X0240154Y0430820D01*
X0239678Y0431295D01*
X0245479Y0431295D02*
X0245954Y0430820D01*
X0246905Y0430820D01*
X0247380Y0431295D01*
X0247380Y0431771D01*
X0246905Y0432246D01*
X0245954Y0432246D01*
X0245479Y0432721D01*
X0245479Y0433197D01*
X0245954Y0433672D01*
X0246905Y0433672D01*
X0247380Y0433197D01*
X0249718Y0433554D02*
X0249718Y0431653D01*
X0250668Y0430702D01*
X0251619Y0431653D01*
X0251619Y0433554D01*
X0252618Y0433079D02*
X0252618Y0431177D01*
X0253093Y0430702D01*
X0254044Y0430702D01*
X0254519Y0431177D01*
X0255518Y0431177D02*
X0255993Y0430702D01*
X0256944Y0430702D01*
X0257419Y0431177D01*
X0255518Y0431177D02*
X0255518Y0433079D01*
X0255993Y0433554D01*
X0256944Y0433554D01*
X0257419Y0433079D01*
X0260151Y0433515D02*
X0262052Y0433515D01*
X0261101Y0433515D02*
X0261101Y0430663D01*
X0263051Y0430663D02*
X0264952Y0433515D01*
X0265951Y0433039D02*
X0265951Y0431138D01*
X0266426Y0430663D01*
X0267377Y0430663D01*
X0267852Y0431138D01*
X0267852Y0433039D01*
X0267377Y0433515D01*
X0266426Y0433515D01*
X0265951Y0433039D01*
X0264952Y0430663D02*
X0263051Y0433515D01*
X0271096Y0433593D02*
X0271096Y0430741D01*
X0271096Y0431692D02*
X0272522Y0431692D01*
X0272997Y0432167D01*
X0272997Y0433118D01*
X0272522Y0433593D01*
X0271096Y0433593D01*
X0272046Y0431692D02*
X0272997Y0430741D01*
X0273996Y0430741D02*
X0275897Y0433593D01*
X0276896Y0433593D02*
X0277847Y0433593D01*
X0277371Y0433593D02*
X0277371Y0430741D01*
X0276896Y0430741D02*
X0277847Y0430741D01*
X0275897Y0430741D02*
X0273996Y0433593D01*
X0280663Y0433554D02*
X0280663Y0430702D01*
X0282089Y0430702D01*
X0282564Y0431177D01*
X0282564Y0433079D01*
X0282089Y0433554D01*
X0280663Y0433554D01*
X0283563Y0433554D02*
X0285464Y0433554D01*
X0284513Y0433554D02*
X0284513Y0430702D01*
X0286463Y0430702D02*
X0286463Y0433554D01*
X0287889Y0433554D01*
X0288364Y0433079D01*
X0288364Y0432128D01*
X0287889Y0431653D01*
X0286463Y0431653D01*
X0287413Y0431653D02*
X0288364Y0430702D01*
X0254519Y0433079D02*
X0254044Y0433554D01*
X0253093Y0433554D01*
X0252618Y0433079D01*
X0377677Y0354531D02*
X0377677Y0353785D01*
X0378424Y0353038D01*
X0379170Y0353038D01*
X0379544Y0353411D01*
X0379544Y0354158D01*
X0378797Y0354904D01*
X0378797Y0355651D01*
X0379170Y0356024D01*
X0379917Y0356024D01*
X0380663Y0355278D01*
X0380663Y0354531D01*
X0383658Y0357993D02*
X0384404Y0357993D01*
X0385151Y0358740D01*
X0384404Y0359486D01*
X0382911Y0359486D02*
X0382911Y0358740D01*
X0383658Y0357993D01*
X0382911Y0359486D02*
X0384404Y0360979D01*
X0385151Y0360979D01*
X0385897Y0360233D01*
X0385897Y0359486D01*
X0399031Y0347990D02*
X0400151Y0346870D01*
X0400151Y0346124D01*
X0398658Y0344631D01*
X0397911Y0344631D01*
X0396791Y0345750D01*
X0399031Y0347990D01*
X0393491Y0341893D02*
X0393491Y0340400D01*
X0394984Y0340400D01*
X0392744Y0338161D01*
X0393880Y0337771D02*
X0393880Y0337025D01*
X0394627Y0336278D01*
X0395373Y0336278D01*
X0396866Y0337771D01*
X0396866Y0338518D01*
X0396120Y0339264D01*
X0395373Y0339264D01*
X0393880Y0337771D01*
X0391251Y0339654D02*
X0393491Y0341893D01*
X0398002Y0337382D02*
X0395763Y0335142D01*
X0396883Y0336262D02*
X0397629Y0335516D01*
X0398002Y0337382D02*
X0399495Y0335889D01*
X0399885Y0334753D02*
X0399512Y0334380D01*
X0399512Y0333633D01*
X0400258Y0332886D01*
X0400258Y0332140D01*
X0399885Y0331767D01*
X0399138Y0331767D01*
X0398392Y0332513D01*
X0398392Y0333260D01*
X0399885Y0334753D02*
X0400631Y0334753D01*
X0401378Y0334006D01*
X0401378Y0333260D01*
X0402514Y0332870D02*
X0400274Y0330631D01*
X0401767Y0329138D01*
X0402141Y0331004D02*
X0401394Y0331751D01*
X0402514Y0332870D02*
X0404007Y0331377D01*
X0404770Y0330615D02*
X0406263Y0329122D01*
X0405516Y0329868D02*
X0403277Y0327628D01*
X0405159Y0326492D02*
X0405159Y0325746D01*
X0405906Y0324999D01*
X0406652Y0324999D01*
X0407025Y0325373D01*
X0407025Y0326119D01*
X0406652Y0326492D01*
X0407025Y0326119D02*
X0407772Y0326119D01*
X0408145Y0326492D01*
X0408145Y0327239D01*
X0407399Y0327986D01*
X0406652Y0327986D01*
X0432471Y0309267D02*
X0432471Y0307841D01*
X0435323Y0307841D01*
X0435323Y0309267D01*
X0434848Y0309743D01*
X0432947Y0309743D01*
X0432471Y0309267D01*
X0432471Y0306842D02*
X0435323Y0306842D01*
X0432471Y0304941D01*
X0435323Y0304941D01*
X0434848Y0303942D02*
X0433897Y0303942D01*
X0433897Y0302992D01*
X0432947Y0303942D02*
X0432471Y0303467D01*
X0432471Y0302516D01*
X0432947Y0302041D01*
X0434848Y0302041D01*
X0435323Y0302516D01*
X0435323Y0303467D01*
X0434848Y0303942D01*
X0435799Y0301042D02*
X0435799Y0299141D01*
X0435323Y0297191D02*
X0432471Y0297191D01*
X0432471Y0296241D02*
X0432471Y0298142D01*
X0433422Y0295242D02*
X0435323Y0295242D01*
X0433897Y0295242D02*
X0433897Y0293341D01*
X0433422Y0293341D02*
X0432471Y0294291D01*
X0433422Y0295242D01*
X0433422Y0293341D02*
X0435323Y0293341D01*
X0434848Y0292342D02*
X0435323Y0291867D01*
X0435323Y0290441D01*
X0432471Y0290441D01*
X0432471Y0291867D01*
X0432947Y0292342D01*
X0433422Y0292342D01*
X0433897Y0291867D01*
X0433897Y0290441D01*
X0433897Y0291867D02*
X0434373Y0292342D01*
X0434848Y0292342D01*
X0432392Y0289388D02*
X0432392Y0287487D01*
X0432392Y0288438D02*
X0435244Y0288438D01*
X0435244Y0286488D02*
X0433343Y0286488D01*
X0432392Y0285537D01*
X0433343Y0284587D01*
X0435244Y0284587D01*
X0434769Y0283588D02*
X0435244Y0283113D01*
X0435244Y0281687D01*
X0432392Y0281687D01*
X0432392Y0283113D01*
X0432868Y0283588D01*
X0433343Y0283588D01*
X0433818Y0283113D01*
X0433818Y0281687D01*
X0434294Y0280688D02*
X0432392Y0280688D01*
X0432392Y0278787D02*
X0434294Y0278787D01*
X0435244Y0279737D01*
X0434294Y0280688D01*
X0433818Y0283113D02*
X0434294Y0283588D01*
X0434769Y0283588D01*
X0433818Y0284587D02*
X0433818Y0286488D01*
X0434690Y0276278D02*
X0435166Y0275803D01*
X0435166Y0274852D01*
X0434690Y0274377D01*
X0432789Y0274377D01*
X0432314Y0274852D01*
X0432314Y0275803D01*
X0432789Y0276278D01*
X0432789Y0273378D02*
X0432314Y0272903D01*
X0432314Y0271952D01*
X0432789Y0271477D01*
X0434690Y0271477D01*
X0435166Y0271952D01*
X0435166Y0272903D01*
X0434690Y0273378D01*
X0434215Y0270478D02*
X0432314Y0270478D01*
X0434215Y0270478D02*
X0435166Y0269527D01*
X0434215Y0268576D01*
X0432314Y0268576D01*
X0432432Y0266829D02*
X0432432Y0264928D01*
X0433858Y0264928D01*
X0433383Y0265879D01*
X0433383Y0266354D01*
X0433858Y0266829D01*
X0434809Y0266829D01*
X0435284Y0266354D01*
X0435284Y0265403D01*
X0434809Y0264928D01*
X0435284Y0263929D02*
X0435284Y0262028D01*
X0432432Y0262028D01*
X0432432Y0263929D01*
X0433858Y0262978D02*
X0433858Y0262028D01*
X0433858Y0261029D02*
X0434333Y0260554D01*
X0434333Y0259128D01*
X0435284Y0259128D02*
X0432432Y0259128D01*
X0432432Y0260554D01*
X0432907Y0261029D01*
X0433858Y0261029D01*
X0433937Y0256987D02*
X0433937Y0255085D01*
X0432511Y0256511D01*
X0435363Y0256511D01*
X0435363Y0254087D02*
X0435363Y0252185D01*
X0432511Y0252185D01*
X0432511Y0254087D01*
X0433937Y0253136D02*
X0433937Y0252185D01*
X0433937Y0251186D02*
X0434412Y0250711D01*
X0434412Y0249285D01*
X0435363Y0249285D02*
X0432511Y0249285D01*
X0432511Y0250711D01*
X0432986Y0251186D01*
X0433937Y0251186D01*
X0433540Y0246711D02*
X0434015Y0246236D01*
X0434491Y0246711D01*
X0434966Y0246711D01*
X0435441Y0246236D01*
X0435441Y0245285D01*
X0434966Y0244810D01*
X0435441Y0243811D02*
X0435441Y0241910D01*
X0432589Y0241910D01*
X0432589Y0243811D01*
X0433065Y0244810D02*
X0432589Y0245285D01*
X0432589Y0246236D01*
X0433065Y0246711D01*
X0433540Y0246711D01*
X0434015Y0246236D02*
X0434015Y0245760D01*
X0434015Y0242860D02*
X0434015Y0241910D01*
X0434015Y0240911D02*
X0434491Y0240436D01*
X0434491Y0239009D01*
X0435441Y0239009D02*
X0432589Y0239009D01*
X0432589Y0240436D01*
X0433065Y0240911D01*
X0434015Y0240911D01*
X0434094Y0236554D02*
X0435045Y0236554D01*
X0435520Y0236078D01*
X0435520Y0235128D01*
X0435045Y0234652D01*
X0434094Y0234652D02*
X0433619Y0235603D01*
X0433619Y0236078D01*
X0434094Y0236554D01*
X0432668Y0236554D02*
X0432668Y0234652D01*
X0434094Y0234652D01*
X0433619Y0233653D02*
X0434094Y0233178D01*
X0434094Y0231752D01*
X0434094Y0230753D02*
X0434569Y0230278D01*
X0434569Y0228852D01*
X0435520Y0228852D02*
X0432668Y0228852D01*
X0432668Y0230278D01*
X0433143Y0230753D01*
X0434094Y0230753D01*
X0432668Y0231752D02*
X0432668Y0233178D01*
X0433143Y0233653D01*
X0433619Y0233653D01*
X0434094Y0233178D02*
X0434569Y0233653D01*
X0435045Y0233653D01*
X0435520Y0233178D01*
X0435520Y0231752D01*
X0432668Y0231752D01*
X0433737Y0226475D02*
X0435638Y0226475D01*
X0434212Y0226475D02*
X0434212Y0224573D01*
X0433737Y0224573D02*
X0432786Y0225524D01*
X0433737Y0226475D01*
X0433737Y0224573D02*
X0435638Y0224573D01*
X0435163Y0223575D02*
X0433261Y0223575D01*
X0432786Y0223099D01*
X0432786Y0221673D01*
X0435638Y0221673D01*
X0435638Y0223099D01*
X0435163Y0223575D01*
X0435163Y0220675D02*
X0435638Y0220199D01*
X0435638Y0219249D01*
X0435163Y0218773D01*
X0434212Y0219249D02*
X0434212Y0220199D01*
X0434688Y0220675D01*
X0435163Y0220675D01*
X0434212Y0219249D02*
X0433737Y0218773D01*
X0433261Y0218773D01*
X0432786Y0219249D01*
X0432786Y0220199D01*
X0433261Y0220675D01*
X0435717Y0216317D02*
X0435717Y0214416D01*
X0432865Y0214416D01*
X0433340Y0213417D02*
X0432865Y0212942D01*
X0432865Y0211991D01*
X0433340Y0211516D01*
X0435242Y0211516D01*
X0435717Y0211991D01*
X0435717Y0212942D01*
X0435242Y0213417D01*
X0435242Y0210517D02*
X0435717Y0210042D01*
X0435717Y0209091D01*
X0435242Y0208616D01*
X0434291Y0209091D02*
X0434291Y0210042D01*
X0434766Y0210517D01*
X0435242Y0210517D01*
X0434291Y0209091D02*
X0433816Y0208616D01*
X0433340Y0208616D01*
X0432865Y0209091D01*
X0432865Y0210042D01*
X0433340Y0210517D01*
X0420633Y0185259D02*
X0420633Y0183020D01*
X0422126Y0184513D01*
X0422872Y0183020D02*
X0420633Y0185259D01*
X0418750Y0183377D02*
X0417257Y0181884D01*
X0418004Y0182630D02*
X0420243Y0180391D01*
X0418734Y0178882D02*
X0417241Y0177388D01*
X0415001Y0179628D01*
X0416494Y0181121D01*
X0416868Y0179255D02*
X0416121Y0178508D01*
X0415732Y0177372D02*
X0416105Y0176999D01*
X0416105Y0176253D01*
X0415358Y0175506D01*
X0414612Y0175506D01*
X0414239Y0176626D02*
X0414985Y0177372D01*
X0415732Y0177372D01*
X0414612Y0178492D02*
X0413865Y0178492D01*
X0413119Y0177746D01*
X0413119Y0176999D01*
X0413492Y0176626D01*
X0414239Y0176626D01*
X0411983Y0176610D02*
X0410490Y0175117D01*
X0412729Y0172877D01*
X0411593Y0172488D02*
X0410100Y0173981D01*
X0409354Y0173981D01*
X0408607Y0173234D01*
X0408607Y0172488D01*
X0410100Y0170994D01*
X0410847Y0170994D01*
X0411593Y0171741D01*
X0411593Y0172488D01*
X0411610Y0173997D02*
X0412356Y0174743D01*
X0409711Y0169859D02*
X0407471Y0172098D01*
X0407471Y0170605D01*
X0405978Y0170605D01*
X0408218Y0168365D01*
X0402121Y0173905D02*
X0403241Y0175025D01*
X0403241Y0175772D01*
X0401748Y0177265D01*
X0401001Y0177265D01*
X0399882Y0176145D01*
X0402121Y0173905D01*
X0389878Y0161518D02*
X0389132Y0162265D01*
X0388385Y0161518D01*
X0388385Y0160025D02*
X0389132Y0160025D01*
X0389878Y0160772D01*
X0389878Y0161518D01*
X0388385Y0160025D02*
X0386892Y0161518D01*
X0386892Y0162265D01*
X0387639Y0163011D01*
X0388385Y0163011D01*
X0392594Y0157778D02*
X0391848Y0157031D01*
X0391848Y0156285D01*
X0392221Y0155911D01*
X0392967Y0155911D01*
X0393714Y0156658D01*
X0394460Y0156658D01*
X0394834Y0156285D01*
X0394834Y0155538D01*
X0394087Y0154791D01*
X0393341Y0154791D01*
X0393341Y0157778D02*
X0392594Y0157778D01*
X0387167Y0248300D02*
X0387167Y0251152D01*
X0385741Y0249726D01*
X0387642Y0249726D01*
X0384742Y0248776D02*
X0384742Y0250677D01*
X0384267Y0251152D01*
X0382841Y0251152D01*
X0382841Y0248300D01*
X0384267Y0248300D01*
X0384742Y0248776D01*
X0381842Y0248300D02*
X0379941Y0248300D01*
X0379941Y0251152D01*
X0381842Y0251152D01*
X0380891Y0249726D02*
X0379941Y0249726D01*
X0378942Y0248300D02*
X0377041Y0248300D01*
X0377041Y0251152D01*
X0377041Y0271922D02*
X0378942Y0271922D01*
X0379941Y0271922D02*
X0381842Y0271922D01*
X0382841Y0271922D02*
X0384267Y0271922D01*
X0384742Y0272398D01*
X0384742Y0274299D01*
X0384267Y0274774D01*
X0382841Y0274774D01*
X0382841Y0271922D01*
X0380891Y0273348D02*
X0379941Y0273348D01*
X0379941Y0274774D02*
X0379941Y0271922D01*
X0379941Y0274774D02*
X0381842Y0274774D01*
X0385741Y0273824D02*
X0386692Y0274774D01*
X0386692Y0271922D01*
X0387642Y0271922D02*
X0385741Y0271922D01*
X0377041Y0271922D02*
X0377041Y0274774D01*
X0438497Y0325626D02*
X0438973Y0325151D01*
X0439923Y0325151D01*
X0440399Y0325626D01*
X0440399Y0326577D01*
X0439448Y0326577D01*
X0440399Y0327527D02*
X0439923Y0328003D01*
X0438973Y0328003D01*
X0438497Y0327527D01*
X0438497Y0325626D01*
X0441397Y0325151D02*
X0441397Y0328003D01*
X0443299Y0325151D01*
X0443299Y0328003D01*
X0444297Y0328003D02*
X0445723Y0328003D01*
X0446199Y0327527D01*
X0446199Y0325626D01*
X0445723Y0325151D01*
X0444297Y0325151D01*
X0444297Y0328003D01*
X0261281Y0267592D02*
X0259170Y0267592D01*
X0260225Y0267592D02*
X0260225Y0270759D01*
X0259170Y0269703D01*
X0258091Y0270759D02*
X0258091Y0268120D01*
X0257563Y0267592D01*
X0256507Y0267592D01*
X0255979Y0268120D01*
X0255979Y0270759D01*
X0254901Y0270759D02*
X0254901Y0267592D01*
X0252789Y0267592D02*
X0252789Y0270759D01*
X0253845Y0269703D01*
X0254901Y0270759D01*
X0251718Y0270759D02*
X0250663Y0270759D01*
X0251190Y0270759D02*
X0251190Y0267592D01*
X0250663Y0267592D02*
X0251718Y0267592D01*
X0144884Y0164246D02*
X0144137Y0164992D01*
X0143391Y0164992D01*
X0143018Y0164619D01*
X0143018Y0163872D01*
X0143764Y0163126D01*
X0143764Y0162379D01*
X0143391Y0162006D01*
X0142644Y0162006D01*
X0141898Y0162752D01*
X0141898Y0163499D01*
X0141135Y0165755D02*
X0140388Y0166501D01*
X0138879Y0166517D02*
X0140372Y0168011D01*
X0140372Y0168757D01*
X0139626Y0169504D01*
X0138879Y0169504D01*
X0137386Y0168011D01*
X0137386Y0167264D01*
X0138133Y0166517D01*
X0138879Y0166517D01*
X0139269Y0165381D02*
X0141508Y0167621D01*
X0143001Y0166128D01*
X0144884Y0164246D02*
X0144884Y0163499D01*
X0146020Y0163110D02*
X0143780Y0160870D01*
X0145273Y0159377D01*
X0145647Y0161243D02*
X0144900Y0161990D01*
X0146020Y0163110D02*
X0147513Y0161617D01*
X0148276Y0160854D02*
X0149769Y0159361D01*
X0149022Y0160107D02*
X0146782Y0157868D01*
X0148292Y0156358D02*
X0149785Y0154865D01*
X0149038Y0155612D02*
X0151278Y0157852D01*
X0149785Y0157852D01*
X0144991Y0152501D02*
X0146111Y0151382D01*
X0146111Y0150635D01*
X0144618Y0149142D01*
X0143872Y0149142D01*
X0142752Y0150262D01*
X0144991Y0152501D01*
X0136250Y0168400D02*
X0138490Y0170640D01*
X0136997Y0170640D01*
X0136997Y0172133D01*
X0134757Y0169893D01*
X0162612Y0142228D02*
X0162612Y0141481D01*
X0163359Y0140735D01*
X0164105Y0140735D01*
X0164479Y0141108D01*
X0164479Y0141854D01*
X0163732Y0142601D01*
X0163732Y0143347D01*
X0164105Y0143721D01*
X0164852Y0143721D01*
X0165598Y0142974D01*
X0165598Y0142228D01*
X0160365Y0138019D02*
X0159618Y0138765D01*
X0158872Y0138765D01*
X0157379Y0137272D01*
X0157379Y0136526D01*
X0158125Y0135779D01*
X0158872Y0135779D01*
X0159618Y0136526D01*
X0158872Y0137272D01*
X0160365Y0137272D02*
X0160365Y0138019D01*
X0229128Y0074932D02*
X0230554Y0074932D01*
X0231029Y0074457D01*
X0231029Y0072555D01*
X0230554Y0072080D01*
X0229128Y0072080D01*
X0229128Y0074932D01*
X0232028Y0074932D02*
X0233929Y0074932D01*
X0232978Y0074932D02*
X0232978Y0072080D01*
X0234928Y0072080D02*
X0234928Y0074932D01*
X0236354Y0074932D01*
X0236829Y0074457D01*
X0236829Y0073506D01*
X0236354Y0073031D01*
X0234928Y0073031D01*
X0235879Y0073031D02*
X0236829Y0072080D01*
X0239583Y0071962D02*
X0239583Y0074814D01*
X0241009Y0074814D01*
X0241484Y0074339D01*
X0241484Y0073388D01*
X0241009Y0072912D01*
X0239583Y0072912D01*
X0240533Y0072912D02*
X0241484Y0071962D01*
X0242483Y0071962D02*
X0244384Y0074814D01*
X0245383Y0074814D02*
X0246333Y0074814D01*
X0245858Y0074814D02*
X0245858Y0071962D01*
X0245383Y0071962D02*
X0246333Y0071962D01*
X0244384Y0071962D02*
X0242483Y0074814D01*
X0248891Y0074893D02*
X0250793Y0074893D01*
X0249842Y0074893D02*
X0249842Y0072041D01*
X0251791Y0072041D02*
X0253693Y0074893D01*
X0254692Y0074417D02*
X0254692Y0072516D01*
X0255167Y0072041D01*
X0256118Y0072041D01*
X0256593Y0072516D01*
X0256593Y0074417D01*
X0256118Y0074893D01*
X0255167Y0074893D01*
X0254692Y0074417D01*
X0253693Y0072041D02*
X0251791Y0074893D01*
X0258734Y0074735D02*
X0258734Y0072834D01*
X0259685Y0071883D01*
X0260635Y0072834D01*
X0260635Y0074735D01*
X0261634Y0074260D02*
X0261634Y0072358D01*
X0262109Y0071883D01*
X0263060Y0071883D01*
X0263535Y0072358D01*
X0264534Y0072358D02*
X0265009Y0071883D01*
X0265960Y0071883D01*
X0266435Y0072358D01*
X0264534Y0072358D02*
X0264534Y0074260D01*
X0265009Y0074735D01*
X0265960Y0074735D01*
X0266435Y0074260D01*
X0268970Y0074220D02*
X0268970Y0072319D01*
X0269445Y0071844D01*
X0270396Y0071844D01*
X0270871Y0072319D01*
X0270871Y0074220D02*
X0270396Y0074696D01*
X0269445Y0074696D01*
X0268970Y0074220D01*
X0271870Y0074696D02*
X0273772Y0074696D01*
X0272821Y0074696D02*
X0272821Y0071844D01*
X0274770Y0072319D02*
X0275246Y0071844D01*
X0276196Y0071844D01*
X0276672Y0072319D01*
X0276672Y0072794D01*
X0276196Y0073270D01*
X0275246Y0073270D01*
X0274770Y0073745D01*
X0274770Y0074220D01*
X0275246Y0074696D01*
X0276196Y0074696D01*
X0276672Y0074220D01*
X0278852Y0074220D02*
X0278852Y0072319D01*
X0279327Y0071844D01*
X0280278Y0071844D01*
X0280753Y0072319D01*
X0280753Y0073270D01*
X0279803Y0073270D01*
X0280753Y0074220D02*
X0280278Y0074696D01*
X0279327Y0074696D01*
X0278852Y0074220D01*
X0281752Y0074696D02*
X0283653Y0071844D01*
X0283653Y0074696D01*
X0284652Y0074696D02*
X0286078Y0074696D01*
X0286554Y0074220D01*
X0286554Y0072319D01*
X0286078Y0071844D01*
X0284652Y0071844D01*
X0284652Y0074696D01*
X0281752Y0074696D02*
X0281752Y0071844D01*
X0263535Y0074260D02*
X0263060Y0074735D01*
X0262109Y0074735D01*
X0261634Y0074260D01*
D12*
X0260454Y0077442D02*
X0257954Y0079942D01*
X0255454Y0077442D01*
X0250454Y0077442D01*
X0247954Y0079942D01*
X0245454Y0077442D01*
X0240454Y0077442D01*
X0237954Y0079942D01*
X0235454Y0077442D01*
X0230454Y0077442D01*
X0227954Y0079942D01*
X0227954Y0084942D01*
X0230454Y0087442D01*
X0235454Y0087442D01*
X0237954Y0084942D01*
X0240454Y0087442D01*
X0245454Y0087442D01*
X0247954Y0084942D01*
X0250454Y0087442D01*
X0255454Y0087442D01*
X0257954Y0084942D01*
X0260454Y0087442D01*
X0265454Y0087442D01*
X0267954Y0084942D01*
X0270454Y0087442D01*
X0275454Y0087442D01*
X0277954Y0084942D01*
X0280454Y0087442D01*
X0285454Y0087442D01*
X0287954Y0084942D01*
X0287954Y0079942D01*
X0285454Y0077442D01*
X0280454Y0077442D01*
X0277954Y0079942D01*
X0275454Y0077442D01*
X0270454Y0077442D01*
X0267954Y0079942D01*
X0265454Y0077442D01*
X0260454Y0077442D01*
X0189489Y0239489D02*
X0189489Y0240670D01*
X0189489Y0239489D02*
X0188308Y0239489D01*
X0155237Y0239489D02*
X0154056Y0239489D01*
X0154056Y0240670D01*
X0154056Y0273741D02*
X0155237Y0274922D01*
X0165934Y0287544D02*
X0170658Y0287544D01*
X0178139Y0292662D02*
X0178139Y0295024D01*
X0170658Y0300143D02*
X0165934Y0300143D01*
X0158454Y0295024D02*
X0158454Y0292662D01*
X0188308Y0274922D02*
X0189489Y0274922D01*
X0189489Y0273741D01*
X0240808Y0349922D02*
X0238308Y0352422D01*
X0238308Y0367422D01*
X0240808Y0369922D01*
X0245808Y0369922D01*
X0248308Y0367422D01*
X0248308Y0352422D01*
X0245808Y0349922D01*
X0240808Y0349922D01*
X0248308Y0352422D02*
X0250808Y0349922D01*
X0255808Y0349922D01*
X0258308Y0352422D01*
X0258308Y0367422D01*
X0260808Y0369922D01*
X0265808Y0369922D01*
X0268308Y0367422D01*
X0268308Y0352422D01*
X0265808Y0349922D01*
X0260808Y0349922D01*
X0258308Y0352422D01*
X0258308Y0367422D02*
X0255808Y0369922D01*
X0250808Y0369922D01*
X0251517Y0436221D02*
X0249017Y0438721D01*
X0246517Y0436221D01*
X0241517Y0436221D01*
X0239017Y0438721D01*
X0236517Y0436221D01*
X0231517Y0436221D01*
X0229017Y0438721D01*
X0229017Y0443721D01*
X0231517Y0446221D01*
X0236517Y0446221D01*
X0239017Y0443721D01*
X0241517Y0446221D01*
X0246517Y0446221D01*
X0249017Y0443721D01*
X0251517Y0446221D01*
X0256517Y0446221D01*
X0259017Y0443721D01*
X0261517Y0446221D01*
X0266517Y0446221D01*
X0269017Y0443721D01*
X0271517Y0446221D01*
X0276517Y0446221D01*
X0279017Y0443721D01*
X0281517Y0446221D01*
X0286517Y0446221D01*
X0289017Y0443721D01*
X0289017Y0438721D01*
X0286517Y0436221D01*
X0281517Y0436221D01*
X0279017Y0438721D01*
X0276517Y0436221D01*
X0271517Y0436221D01*
X0269017Y0438721D01*
X0266517Y0436221D01*
X0261517Y0436221D01*
X0259017Y0438721D01*
X0256517Y0436221D01*
X0251517Y0436221D01*
X0094139Y0261765D02*
X0075139Y0261765D01*
X0077639Y0258765D02*
X0076139Y0257265D01*
X0077639Y0255765D01*
X0076139Y0257265D02*
X0079639Y0257265D01*
X0075139Y0252765D02*
X0094139Y0252765D01*
D13*
X0092830Y0249998D02*
X0091295Y0248463D01*
X0089761Y0248463D02*
X0089761Y0245394D01*
X0091295Y0245394D02*
X0094365Y0245394D01*
X0092830Y0245394D02*
X0092830Y0249998D01*
X0089761Y0248463D02*
X0088226Y0249998D01*
X0086691Y0248463D01*
X0086691Y0245394D01*
X0086691Y0247696D02*
X0089761Y0247696D01*
X0108668Y0263764D02*
X0108668Y0268368D01*
X0110970Y0268368D01*
X0111737Y0267600D01*
X0111737Y0266833D01*
X0110970Y0266066D01*
X0108668Y0266066D01*
X0110970Y0266066D02*
X0111737Y0265298D01*
X0111737Y0264531D01*
X0110970Y0263764D01*
X0108668Y0263764D01*
X0113272Y0263764D02*
X0116341Y0263764D01*
X0114806Y0263764D02*
X0114806Y0268368D01*
X0113272Y0266833D01*
X0164050Y0284337D02*
X0165584Y0282802D01*
X0165584Y0280500D01*
X0165584Y0282802D02*
X0167119Y0284337D01*
X0167119Y0285104D01*
X0168654Y0283569D02*
X0170188Y0285104D01*
X0170188Y0280500D01*
X0168654Y0280500D02*
X0171723Y0280500D01*
X0164050Y0284337D02*
X0164050Y0285104D01*
X0245896Y0304906D02*
X0248198Y0304906D01*
X0248965Y0305673D01*
X0248965Y0306440D01*
X0248198Y0307207D01*
X0245896Y0307207D01*
X0245896Y0304906D02*
X0245896Y0309509D01*
X0248198Y0309509D01*
X0248965Y0308742D01*
X0248965Y0307975D01*
X0248198Y0307207D01*
X0250500Y0307207D02*
X0253569Y0307207D01*
X0253569Y0307975D02*
X0253569Y0304906D01*
X0253569Y0307975D02*
X0252034Y0309509D01*
X0250500Y0307975D01*
X0250500Y0304906D01*
X0256638Y0304906D02*
X0256638Y0309509D01*
X0255104Y0309509D02*
X0258173Y0309509D01*
X0259707Y0309509D02*
X0262777Y0309509D01*
X0261242Y0309509D02*
X0261242Y0304906D01*
X0264311Y0304906D02*
X0267381Y0304906D01*
X0265846Y0304906D02*
X0265846Y0309509D01*
X0264311Y0307975D01*
X0382094Y0389331D02*
X0384265Y0391502D01*
X0382094Y0391502D02*
X0384265Y0389331D01*
X0386579Y0391362D02*
X0389834Y0394617D01*
X0389834Y0392447D01*
X0392005Y0392447D01*
X0388749Y0389191D01*
X0390377Y0388649D02*
X0390377Y0387564D01*
X0391462Y0386478D01*
X0392547Y0386478D01*
X0393090Y0387021D01*
X0393090Y0388106D01*
X0392547Y0388649D01*
X0393090Y0388106D02*
X0394175Y0388106D01*
X0394717Y0388649D01*
X0394717Y0389734D01*
X0393632Y0390819D01*
X0392547Y0390819D01*
X0390446Y0383150D02*
X0392616Y0380980D01*
X0337950Y0175749D02*
X0337950Y0172680D01*
X0334881Y0175749D01*
X0334114Y0175749D01*
X0333346Y0174982D01*
X0333346Y0173447D01*
X0334114Y0172680D01*
X0334114Y0171145D02*
X0333346Y0170378D01*
X0333346Y0168843D01*
X0334114Y0168076D01*
X0334881Y0168076D01*
X0335648Y0168843D01*
X0335648Y0170378D01*
X0336416Y0171145D01*
X0337183Y0171145D01*
X0337950Y0170378D01*
X0337950Y0168843D01*
X0337183Y0168076D01*
X0337183Y0166541D02*
X0333346Y0166541D01*
X0333346Y0163472D02*
X0337183Y0163472D01*
X0337950Y0164239D01*
X0337950Y0165774D01*
X0337183Y0166541D01*
X0338718Y0169611D02*
X0332579Y0169611D01*
X0380844Y0122098D02*
X0383014Y0124268D01*
X0385800Y0122709D02*
X0387970Y0122709D01*
X0387970Y0124880D01*
X0391226Y0121624D01*
X0390683Y0124337D02*
X0392853Y0126507D01*
X0393939Y0124337D02*
X0390683Y0127592D01*
X0390683Y0124337D01*
X0389055Y0119454D02*
X0385800Y0122709D01*
X0389195Y0130449D02*
X0391366Y0132620D01*
X0389195Y0132620D02*
X0391366Y0130449D01*
X0142631Y0135184D02*
X0142631Y0136269D01*
X0141546Y0137354D01*
X0140461Y0137354D01*
X0139918Y0138982D02*
X0137748Y0138982D01*
X0137748Y0141152D01*
X0134492Y0137897D01*
X0132178Y0138037D02*
X0130008Y0135867D01*
X0130008Y0138037D02*
X0132178Y0135867D01*
X0136662Y0135727D02*
X0139918Y0138982D01*
X0142631Y0135184D02*
X0142088Y0134642D01*
X0137748Y0134642D01*
X0139918Y0132471D01*
X0138359Y0129685D02*
X0140530Y0127515D01*
X0136015Y0371096D02*
X0132760Y0374351D01*
X0134930Y0374351D01*
X0134930Y0376522D01*
X0138186Y0373266D01*
X0139271Y0374351D02*
X0141441Y0376522D01*
X0140356Y0375436D02*
X0137100Y0378692D01*
X0137100Y0376522D01*
X0136155Y0382091D02*
X0138326Y0384262D01*
X0136155Y0384262D02*
X0138326Y0382091D01*
X0129974Y0375910D02*
X0127804Y0373740D01*
D14*
X0127063Y0369572D02*
X0143767Y0386276D01*
X0132631Y0397411D01*
X0115928Y0380708D01*
X0127063Y0369572D01*
X0168606Y0375265D02*
X0170100Y0376760D01*
X0171097Y0376760D01*
X0172094Y0375764D01*
X0172094Y0374767D01*
X0170599Y0373272D01*
X0171595Y0372276D02*
X0168606Y0375265D01*
X0171595Y0374269D02*
X0173588Y0374269D01*
X0174671Y0375352D02*
X0174671Y0379338D01*
X0174173Y0379836D01*
X0173176Y0379836D01*
X0172180Y0378840D01*
X0172180Y0377843D01*
X0174671Y0375352D02*
X0176664Y0377345D01*
X0191322Y0392930D02*
X0192817Y0394425D01*
X0193813Y0394425D01*
X0194810Y0393428D01*
X0194810Y0392432D01*
X0193315Y0390937D01*
X0194311Y0391933D02*
X0196305Y0391933D01*
X0197387Y0393016D02*
X0199381Y0395009D01*
X0198384Y0394013D02*
X0195394Y0397003D01*
X0195394Y0395009D01*
X0191322Y0392930D02*
X0194311Y0389940D01*
X0183038Y0402793D02*
X0184035Y0403789D01*
X0184035Y0404786D01*
X0185616Y0405371D02*
X0185616Y0409357D01*
X0185118Y0409855D01*
X0184121Y0409855D01*
X0183124Y0408859D01*
X0183124Y0407862D01*
X0182041Y0406779D02*
X0181045Y0406779D01*
X0180048Y0405783D01*
X0180048Y0404786D01*
X0182041Y0402793D01*
X0183038Y0402793D01*
X0185616Y0405371D02*
X0187609Y0407364D01*
X0167786Y0425463D02*
X0165793Y0423470D01*
X0166790Y0424466D02*
X0163800Y0427456D01*
X0163800Y0425463D01*
X0162219Y0424878D02*
X0161222Y0424878D01*
X0160226Y0423882D01*
X0160226Y0422885D01*
X0162219Y0420892D01*
X0163216Y0420892D01*
X0164212Y0421889D01*
X0164212Y0422885D01*
X0195436Y0438541D02*
X0198426Y0435551D01*
X0199921Y0437046D01*
X0199921Y0438043D01*
X0197928Y0440036D01*
X0196931Y0440036D01*
X0195436Y0438541D01*
X0199509Y0440620D02*
X0199509Y0442613D01*
X0202499Y0439624D01*
X0203495Y0440620D02*
X0201502Y0438627D01*
X0252582Y0430553D02*
X0253333Y0429803D01*
X0254083Y0429803D01*
X0254834Y0430553D01*
X0254834Y0434307D01*
X0255584Y0434307D02*
X0254083Y0434307D01*
X0257186Y0434307D02*
X0257186Y0429803D01*
X0257186Y0431304D02*
X0259438Y0431304D01*
X0260188Y0432055D01*
X0260188Y0433556D01*
X0259438Y0434307D01*
X0257186Y0434307D01*
X0261790Y0433556D02*
X0261790Y0432805D01*
X0262540Y0432055D01*
X0264792Y0432055D01*
X0264792Y0433556D02*
X0264792Y0430553D01*
X0264042Y0429803D01*
X0262540Y0429803D01*
X0261790Y0430553D01*
X0261790Y0433556D02*
X0262540Y0434307D01*
X0264042Y0434307D01*
X0264792Y0433556D01*
X0283987Y0403995D02*
X0284692Y0402586D01*
X0286101Y0401176D01*
X0286101Y0403290D01*
X0286806Y0403995D01*
X0287511Y0403995D01*
X0288215Y0403290D01*
X0288215Y0401881D01*
X0287511Y0401176D01*
X0286101Y0401176D01*
X0288215Y0399645D02*
X0288215Y0396826D01*
X0288215Y0398235D02*
X0283987Y0398235D01*
X0285397Y0396826D01*
X0284692Y0395295D02*
X0283987Y0394590D01*
X0283987Y0393181D01*
X0284692Y0392476D01*
X0287511Y0392476D01*
X0288215Y0393181D01*
X0288215Y0394590D01*
X0287511Y0395295D01*
X0300172Y0376172D02*
X0302286Y0376172D01*
X0302991Y0375467D01*
X0302991Y0374058D01*
X0302286Y0373353D01*
X0300172Y0373353D01*
X0300172Y0371944D02*
X0300172Y0376172D01*
X0301581Y0373353D02*
X0302991Y0371944D01*
X0304522Y0372648D02*
X0305227Y0371944D01*
X0306636Y0371944D01*
X0307341Y0372648D01*
X0307341Y0375467D01*
X0306636Y0376172D01*
X0305227Y0376172D01*
X0304522Y0375467D01*
X0304522Y0374762D01*
X0305227Y0374058D01*
X0307341Y0374058D01*
X0333220Y0399537D02*
X0333220Y0400533D01*
X0333220Y0399537D02*
X0334217Y0398540D01*
X0335213Y0398540D01*
X0336210Y0399537D01*
X0336210Y0400533D01*
X0335711Y0401032D01*
X0334217Y0401530D01*
X0335711Y0403025D01*
X0337704Y0401032D01*
X0334130Y0403609D02*
X0333134Y0402613D01*
X0332137Y0402613D01*
X0330642Y0404108D01*
X0329646Y0403111D02*
X0332635Y0406101D01*
X0334130Y0404606D01*
X0334130Y0403609D01*
X0331639Y0403111D02*
X0331639Y0401118D01*
X0338436Y0381894D02*
X0336443Y0379901D01*
X0336443Y0378904D01*
X0337440Y0377908D01*
X0338436Y0377908D01*
X0340516Y0377821D02*
X0342509Y0375828D01*
X0343505Y0377821D02*
X0340516Y0377821D01*
X0340429Y0379901D02*
X0340429Y0380897D01*
X0339433Y0381894D01*
X0338436Y0381894D01*
X0343505Y0377821D02*
X0340516Y0374831D01*
X0360631Y0351518D02*
X0362126Y0350024D01*
X0362126Y0349027D01*
X0361129Y0348030D01*
X0360132Y0348030D01*
X0358638Y0349525D01*
X0359634Y0348529D02*
X0359634Y0346536D01*
X0361215Y0345951D02*
X0361215Y0344954D01*
X0362212Y0343958D01*
X0363209Y0343958D01*
X0363707Y0344456D01*
X0363707Y0345453D01*
X0362212Y0346948D01*
X0361215Y0345951D01*
X0362212Y0346948D02*
X0364205Y0346948D01*
X0365700Y0346449D01*
X0360631Y0351518D02*
X0357641Y0348529D01*
X0386447Y0368299D02*
X0397583Y0379434D01*
X0380880Y0396138D01*
X0369744Y0385002D01*
X0386447Y0368299D01*
X0353673Y0409029D02*
X0352677Y0409029D01*
X0351680Y0410025D01*
X0351680Y0411022D01*
X0350597Y0412105D02*
X0349601Y0412105D01*
X0348604Y0413101D01*
X0348604Y0414098D01*
X0350597Y0416091D01*
X0351594Y0416091D01*
X0352590Y0415094D01*
X0352590Y0414098D01*
X0353673Y0413015D02*
X0354670Y0413015D01*
X0355666Y0412018D01*
X0355666Y0411022D01*
X0355168Y0410524D01*
X0354171Y0410524D01*
X0354171Y0409527D01*
X0353673Y0409029D01*
X0354171Y0410524D02*
X0353673Y0411022D01*
X0326965Y0433935D02*
X0326467Y0433437D01*
X0325471Y0433437D01*
X0325471Y0432440D01*
X0324972Y0431942D01*
X0323976Y0431942D01*
X0322979Y0432939D01*
X0322979Y0433935D01*
X0321896Y0435018D02*
X0323889Y0437011D01*
X0323889Y0438008D01*
X0322395Y0439503D01*
X0319405Y0436513D01*
X0320900Y0435018D01*
X0321896Y0435018D01*
X0324972Y0435928D02*
X0325969Y0435928D01*
X0326965Y0434932D01*
X0326965Y0433935D01*
X0325471Y0433437D02*
X0324972Y0433935D01*
X0244663Y0377176D02*
X0244663Y0372672D01*
X0243162Y0372672D02*
X0246164Y0372672D01*
X0243162Y0375675D02*
X0244663Y0377176D01*
X0241560Y0377176D02*
X0240059Y0377176D01*
X0240810Y0377176D02*
X0240810Y0373423D01*
X0240059Y0372672D01*
X0239309Y0372672D01*
X0238558Y0373423D01*
X0186065Y0311841D02*
X0183951Y0309727D01*
X0186770Y0309727D01*
X0186065Y0307613D02*
X0186065Y0311841D01*
X0181010Y0311841D02*
X0181010Y0307613D01*
X0179601Y0307613D02*
X0182420Y0307613D01*
X0179601Y0310432D02*
X0181010Y0311841D01*
X0178069Y0311136D02*
X0177365Y0311841D01*
X0175955Y0311841D01*
X0175251Y0311136D01*
X0175251Y0308318D01*
X0175955Y0307613D01*
X0177365Y0307613D01*
X0178069Y0308318D01*
X0158778Y0306455D02*
X0158778Y0305751D01*
X0158074Y0305046D01*
X0158778Y0304341D01*
X0158778Y0303637D01*
X0158074Y0302932D01*
X0156664Y0302932D01*
X0155960Y0303637D01*
X0154428Y0302932D02*
X0151609Y0302932D01*
X0153019Y0302932D02*
X0153019Y0307160D01*
X0151609Y0305751D01*
X0150078Y0306455D02*
X0149373Y0307160D01*
X0147964Y0307160D01*
X0147259Y0306455D01*
X0147259Y0303637D01*
X0147964Y0302932D01*
X0149373Y0302932D01*
X0150078Y0303637D01*
X0149743Y0301467D02*
X0146924Y0301467D01*
X0146220Y0300762D01*
X0146220Y0299353D01*
X0146924Y0298648D01*
X0147629Y0298648D01*
X0148334Y0299353D01*
X0148334Y0301467D01*
X0149743Y0301467D02*
X0150448Y0300762D01*
X0150448Y0299353D01*
X0149743Y0298648D01*
X0149743Y0297117D02*
X0150448Y0296412D01*
X0150448Y0295003D01*
X0149743Y0294298D01*
X0146924Y0294298D01*
X0146220Y0295003D01*
X0146220Y0296412D01*
X0146924Y0297117D01*
X0155960Y0306455D02*
X0156664Y0307160D01*
X0158074Y0307160D01*
X0158778Y0306455D01*
X0158074Y0305046D02*
X0157369Y0305046D01*
X0117009Y0259666D02*
X0117009Y0254745D01*
X0109904Y0256694D02*
X0109906Y0256720D01*
X0109912Y0256746D01*
X0109921Y0256770D01*
X0109935Y0256793D01*
X0109951Y0256814D01*
X0109970Y0256832D01*
X0109992Y0256846D01*
X0110016Y0256858D01*
X0110041Y0256866D01*
X0110067Y0256870D01*
X0110093Y0256870D01*
X0110119Y0256866D01*
X0110144Y0256858D01*
X0110168Y0256846D01*
X0110190Y0256832D01*
X0110209Y0256814D01*
X0110225Y0256793D01*
X0110239Y0256770D01*
X0110248Y0256746D01*
X0110254Y0256720D01*
X0110256Y0256694D01*
X0110254Y0256668D01*
X0110248Y0256642D01*
X0110239Y0256618D01*
X0110225Y0256595D01*
X0110209Y0256574D01*
X0110190Y0256556D01*
X0110168Y0256542D01*
X0110144Y0256530D01*
X0110119Y0256522D01*
X0110093Y0256518D01*
X0110067Y0256518D01*
X0110041Y0256522D01*
X0110016Y0256530D01*
X0109992Y0256542D01*
X0109970Y0256556D01*
X0109951Y0256574D01*
X0109935Y0256595D01*
X0109921Y0256618D01*
X0109912Y0256642D01*
X0109906Y0256668D01*
X0109904Y0256694D01*
X0109135Y0254745D02*
X0109135Y0259666D01*
X0105444Y0252565D02*
X0104739Y0252565D01*
X0101920Y0255384D01*
X0101216Y0255384D01*
X0101216Y0252565D01*
X0101216Y0249624D02*
X0105444Y0249624D01*
X0105444Y0248215D02*
X0105444Y0251034D01*
X0102625Y0248215D02*
X0101216Y0249624D01*
X0101920Y0246684D02*
X0101216Y0245979D01*
X0101216Y0244570D01*
X0101920Y0243865D01*
X0104739Y0243865D01*
X0105444Y0244570D01*
X0105444Y0245979D01*
X0104739Y0246684D01*
X0115976Y0242404D02*
X0115976Y0239586D01*
X0118090Y0239586D01*
X0117385Y0240995D01*
X0117385Y0241700D01*
X0118090Y0242404D01*
X0119499Y0242404D01*
X0120204Y0241700D01*
X0120204Y0240290D01*
X0119499Y0239586D01*
X0120204Y0238054D02*
X0120204Y0235235D01*
X0120204Y0236645D02*
X0115976Y0236645D01*
X0117385Y0235235D01*
X0116680Y0233704D02*
X0115976Y0232999D01*
X0115976Y0231590D01*
X0116680Y0230885D01*
X0119499Y0230885D01*
X0120204Y0231590D01*
X0120204Y0232999D01*
X0119499Y0233704D01*
X0155735Y0222731D02*
X0156440Y0223436D01*
X0159259Y0220617D01*
X0159963Y0221322D01*
X0159963Y0222731D01*
X0159259Y0223436D01*
X0156440Y0223436D01*
X0155735Y0222731D02*
X0155735Y0221322D01*
X0156440Y0220617D01*
X0159259Y0220617D01*
X0159963Y0219086D02*
X0159963Y0216267D01*
X0159963Y0217676D02*
X0155735Y0217676D01*
X0157145Y0216267D01*
X0156440Y0214735D02*
X0155735Y0214031D01*
X0155735Y0212621D01*
X0156440Y0211917D01*
X0159259Y0211917D01*
X0159963Y0212621D01*
X0159963Y0214031D01*
X0159259Y0214735D01*
X0167149Y0202156D02*
X0169263Y0200042D01*
X0169263Y0202861D01*
X0171377Y0202156D02*
X0167149Y0202156D01*
X0167149Y0197102D02*
X0171377Y0197102D01*
X0171377Y0198511D02*
X0171377Y0195692D01*
X0171377Y0194161D02*
X0169967Y0192751D01*
X0169967Y0193456D02*
X0169967Y0191342D01*
X0171377Y0191342D02*
X0167149Y0191342D01*
X0167149Y0193456D01*
X0167853Y0194161D01*
X0169263Y0194161D01*
X0169967Y0193456D01*
X0168558Y0195692D02*
X0167149Y0197102D01*
X0180153Y0197007D02*
X0184381Y0197007D01*
X0184381Y0195598D02*
X0184381Y0198416D01*
X0183676Y0199948D02*
X0184381Y0200653D01*
X0184381Y0202062D01*
X0183676Y0202767D01*
X0182267Y0202767D01*
X0181562Y0202062D01*
X0181562Y0201357D01*
X0182267Y0199948D01*
X0180153Y0199948D01*
X0180153Y0202767D01*
X0180153Y0197007D02*
X0181562Y0195598D01*
X0180857Y0194066D02*
X0182267Y0194066D01*
X0182971Y0193362D01*
X0182971Y0191248D01*
X0182971Y0192657D02*
X0184381Y0194066D01*
X0184381Y0191248D02*
X0180153Y0191248D01*
X0180153Y0193362D01*
X0180857Y0194066D01*
X0186757Y0141534D02*
X0188252Y0140039D01*
X0188252Y0139042D01*
X0187256Y0138046D01*
X0186259Y0138046D01*
X0184764Y0139541D01*
X0183768Y0138544D02*
X0186757Y0141534D01*
X0185761Y0138544D02*
X0185761Y0136551D01*
X0188339Y0136963D02*
X0190332Y0134970D01*
X0191328Y0136963D02*
X0188339Y0136963D01*
X0191328Y0136963D02*
X0188339Y0133973D01*
X0182928Y0114174D02*
X0181932Y0114174D01*
X0179939Y0112181D01*
X0179939Y0111184D01*
X0180935Y0110187D01*
X0181932Y0110187D01*
X0183015Y0109104D02*
X0183513Y0109603D01*
X0184509Y0109603D01*
X0185506Y0108606D01*
X0185506Y0107610D01*
X0185008Y0107111D01*
X0184011Y0107111D01*
X0183015Y0108108D01*
X0183015Y0109104D01*
X0184509Y0109603D02*
X0184509Y0110599D01*
X0185008Y0111098D01*
X0186004Y0111098D01*
X0187001Y0110101D01*
X0187001Y0109105D01*
X0186503Y0108606D01*
X0185506Y0108606D01*
X0183925Y0112181D02*
X0183925Y0113177D01*
X0182928Y0114174D01*
X0168846Y0100126D02*
X0168348Y0099628D01*
X0164362Y0099628D01*
X0163863Y0099129D01*
X0163279Y0100711D02*
X0162282Y0100711D01*
X0161286Y0101707D01*
X0161286Y0102704D01*
X0163279Y0104697D01*
X0164275Y0104697D01*
X0165272Y0103700D01*
X0165272Y0102704D01*
X0166853Y0102119D02*
X0168846Y0100126D01*
X0189449Y0076615D02*
X0190944Y0075120D01*
X0191940Y0075120D01*
X0193933Y0077113D01*
X0193933Y0078110D01*
X0192438Y0079605D01*
X0189449Y0076615D01*
X0192525Y0073539D02*
X0194518Y0071546D01*
X0192525Y0073539D02*
X0196511Y0073539D01*
X0197009Y0074037D01*
X0197009Y0075034D01*
X0196013Y0076030D01*
X0195016Y0076030D01*
X0208126Y0109543D02*
X0205137Y0112532D01*
X0206632Y0114027D01*
X0207628Y0114027D01*
X0208625Y0113031D01*
X0208625Y0112034D01*
X0207130Y0110539D01*
X0208126Y0111536D02*
X0210119Y0111536D01*
X0210704Y0113117D02*
X0211701Y0113117D01*
X0212697Y0114114D01*
X0212697Y0115110D01*
X0212199Y0115608D01*
X0211202Y0115608D01*
X0210704Y0115110D01*
X0211202Y0115608D02*
X0211202Y0116605D01*
X0210704Y0117103D01*
X0209708Y0117103D01*
X0208711Y0116107D01*
X0208711Y0115110D01*
X0253020Y0075527D02*
X0254521Y0075527D01*
X0253771Y0075527D02*
X0253771Y0071774D01*
X0253020Y0071023D01*
X0252270Y0071023D01*
X0251519Y0071774D01*
X0256123Y0072525D02*
X0258375Y0072525D01*
X0259125Y0073275D01*
X0259125Y0074776D01*
X0258375Y0075527D01*
X0256123Y0075527D01*
X0256123Y0071023D01*
X0260727Y0071023D02*
X0263729Y0074026D01*
X0263729Y0074776D01*
X0262979Y0075527D01*
X0261477Y0075527D01*
X0260727Y0074776D01*
X0260727Y0071023D02*
X0263729Y0071023D01*
X0306078Y0104938D02*
X0309068Y0107928D01*
X0310563Y0106433D01*
X0310563Y0105436D01*
X0309566Y0104440D01*
X0308570Y0104440D01*
X0307075Y0105935D01*
X0308071Y0104938D02*
X0308071Y0102945D01*
X0309652Y0102360D02*
X0310151Y0102859D01*
X0311147Y0102859D01*
X0312144Y0101862D01*
X0312144Y0100866D01*
X0311646Y0100367D01*
X0310649Y0100367D01*
X0309652Y0101364D01*
X0309652Y0102360D01*
X0311147Y0102859D02*
X0311147Y0103855D01*
X0311646Y0104354D01*
X0312642Y0104354D01*
X0313639Y0103357D01*
X0313639Y0102360D01*
X0313140Y0101862D01*
X0312144Y0101862D01*
X0327485Y0119109D02*
X0329478Y0117116D01*
X0330475Y0117116D01*
X0331472Y0118112D01*
X0331472Y0119109D01*
X0332555Y0120192D02*
X0333551Y0120192D01*
X0334548Y0121188D01*
X0334548Y0122185D01*
X0334049Y0122683D01*
X0333053Y0122683D01*
X0331558Y0121188D01*
X0332555Y0120192D01*
X0331558Y0121188D02*
X0331558Y0123181D01*
X0332056Y0124676D01*
X0329478Y0121102D02*
X0328482Y0121102D01*
X0327485Y0120105D01*
X0327485Y0119109D01*
X0353084Y0099940D02*
X0353084Y0098944D01*
X0355077Y0096950D01*
X0356073Y0096950D01*
X0357070Y0097947D01*
X0357070Y0098944D01*
X0358153Y0100026D02*
X0359149Y0100026D01*
X0360146Y0101023D01*
X0360146Y0102020D01*
X0359150Y0103016D01*
X0358153Y0103016D01*
X0357655Y0102518D01*
X0357156Y0101023D01*
X0355662Y0102518D01*
X0357655Y0104511D01*
X0355077Y0100937D02*
X0354080Y0100937D01*
X0353084Y0099940D01*
X0380104Y0117930D02*
X0396807Y0134634D01*
X0385671Y0145769D01*
X0368968Y0129066D01*
X0380104Y0117930D01*
X0356906Y0143019D02*
X0353916Y0146009D01*
X0355411Y0147504D01*
X0356408Y0147504D01*
X0357404Y0146507D01*
X0357404Y0145510D01*
X0355909Y0144016D01*
X0356906Y0145012D02*
X0358899Y0145012D01*
X0359982Y0146095D02*
X0359484Y0146593D01*
X0359484Y0150580D01*
X0358985Y0151078D01*
X0356992Y0149085D01*
X0349794Y0178185D02*
X0346975Y0178185D01*
X0346271Y0178889D01*
X0346271Y0180299D01*
X0346975Y0181003D01*
X0347680Y0182535D02*
X0346271Y0183944D01*
X0350499Y0183944D01*
X0350499Y0182535D02*
X0350499Y0185353D01*
X0349794Y0186885D02*
X0350499Y0187590D01*
X0350499Y0188999D01*
X0349794Y0189704D01*
X0346975Y0189704D01*
X0346271Y0188999D01*
X0346271Y0187590D01*
X0346975Y0186885D01*
X0347680Y0186885D01*
X0348385Y0187590D01*
X0348385Y0189704D01*
X0349794Y0181003D02*
X0350499Y0180299D01*
X0350499Y0178889D01*
X0349794Y0178185D01*
X0354641Y0223204D02*
X0354641Y0227432D01*
X0356755Y0227432D01*
X0357460Y0226727D01*
X0357460Y0225318D01*
X0356755Y0224613D01*
X0354641Y0224613D01*
X0356051Y0224613D02*
X0357460Y0223204D01*
X0358991Y0223204D02*
X0361810Y0223204D01*
X0360401Y0223204D02*
X0360401Y0227432D01*
X0358991Y0226022D01*
X0363342Y0226022D02*
X0364751Y0227432D01*
X0364751Y0223204D01*
X0363342Y0223204D02*
X0366160Y0223204D01*
X0399188Y0227928D02*
X0402006Y0227928D01*
X0403538Y0227928D02*
X0406357Y0227928D01*
X0407888Y0227928D02*
X0410002Y0227928D01*
X0410707Y0228633D01*
X0410707Y0231451D01*
X0410002Y0232156D01*
X0407888Y0232156D01*
X0407888Y0227928D01*
X0404947Y0230042D02*
X0403538Y0230042D01*
X0403538Y0232156D02*
X0403538Y0227928D01*
X0403538Y0232156D02*
X0406357Y0232156D01*
X0412238Y0231451D02*
X0412943Y0232156D01*
X0414352Y0232156D01*
X0415057Y0231451D01*
X0415057Y0230747D01*
X0412238Y0227928D01*
X0415057Y0227928D01*
X0399188Y0227928D02*
X0399188Y0232156D01*
X0439105Y0259259D02*
X0439105Y0260668D01*
X0439105Y0259963D02*
X0442629Y0259963D01*
X0443333Y0259259D01*
X0443333Y0258554D01*
X0442629Y0257849D01*
X0441219Y0262199D02*
X0441219Y0265018D01*
X0439105Y0264313D02*
X0441219Y0262199D01*
X0443333Y0264313D02*
X0439105Y0264313D01*
X0415057Y0287688D02*
X0415057Y0288392D01*
X0414352Y0289097D01*
X0413648Y0289097D01*
X0414352Y0289097D02*
X0415057Y0289802D01*
X0415057Y0290506D01*
X0414352Y0291211D01*
X0412943Y0291211D01*
X0412238Y0290506D01*
X0410707Y0290506D02*
X0410707Y0287688D01*
X0410002Y0286983D01*
X0407888Y0286983D01*
X0407888Y0291211D01*
X0410002Y0291211D01*
X0410707Y0290506D01*
X0412238Y0287688D02*
X0412943Y0286983D01*
X0414352Y0286983D01*
X0415057Y0287688D01*
X0406357Y0286983D02*
X0403538Y0286983D01*
X0403538Y0291211D01*
X0406357Y0291211D01*
X0404947Y0289097D02*
X0403538Y0289097D01*
X0402006Y0286983D02*
X0399188Y0286983D01*
X0399188Y0291211D01*
X0366160Y0285782D02*
X0363342Y0282963D01*
X0364046Y0282259D01*
X0365456Y0282259D01*
X0366160Y0282963D01*
X0366160Y0285782D01*
X0365456Y0286487D01*
X0364046Y0286487D01*
X0363342Y0285782D01*
X0363342Y0282963D01*
X0361810Y0282259D02*
X0358991Y0282259D01*
X0360401Y0282259D02*
X0360401Y0286487D01*
X0358991Y0285077D01*
X0357460Y0284373D02*
X0356755Y0283668D01*
X0354641Y0283668D01*
X0354641Y0282259D02*
X0354641Y0286487D01*
X0356755Y0286487D01*
X0357460Y0285782D01*
X0357460Y0284373D01*
X0356051Y0283668D02*
X0357460Y0282259D01*
X0320692Y0331200D02*
X0317873Y0331200D01*
X0319282Y0331200D02*
X0319282Y0335428D01*
X0317873Y0334018D01*
X0316342Y0335428D02*
X0316342Y0331200D01*
X0314932Y0332609D01*
X0313523Y0331200D01*
X0313523Y0335428D01*
X0311991Y0334723D02*
X0311287Y0335428D01*
X0309877Y0335428D01*
X0309173Y0334723D01*
X0309173Y0334018D01*
X0309877Y0333314D01*
X0311287Y0333314D01*
X0311991Y0332609D01*
X0311991Y0331904D01*
X0311287Y0331200D01*
X0309877Y0331200D01*
X0309173Y0331904D01*
X0287306Y0288416D02*
X0285897Y0288416D01*
X0285192Y0287711D01*
X0283660Y0287711D02*
X0282956Y0288416D01*
X0281546Y0288416D01*
X0280842Y0287711D01*
X0279310Y0287711D02*
X0278606Y0288416D01*
X0277196Y0288416D01*
X0276492Y0287711D01*
X0276492Y0284892D01*
X0277196Y0284188D01*
X0278606Y0284188D01*
X0279310Y0284892D01*
X0280842Y0284188D02*
X0283660Y0287006D01*
X0283660Y0287711D01*
X0283660Y0284188D02*
X0280842Y0284188D01*
X0285192Y0284188D02*
X0288011Y0287006D01*
X0288011Y0287711D01*
X0287306Y0288416D01*
X0288011Y0284188D02*
X0285192Y0284188D01*
X0285779Y0274203D02*
X0287188Y0274203D01*
X0287893Y0273499D01*
X0287893Y0272794D01*
X0287188Y0272089D01*
X0287893Y0271385D01*
X0287893Y0270680D01*
X0287188Y0269975D01*
X0285779Y0269975D01*
X0285074Y0270680D01*
X0283542Y0269975D02*
X0280724Y0269975D01*
X0283542Y0272794D01*
X0283542Y0273499D01*
X0282838Y0274203D01*
X0281428Y0274203D01*
X0280724Y0273499D01*
X0279192Y0273499D02*
X0278488Y0274203D01*
X0277078Y0274203D01*
X0276373Y0273499D01*
X0276373Y0270680D01*
X0277078Y0269975D01*
X0278488Y0269975D01*
X0279192Y0270680D01*
X0285074Y0273499D02*
X0285779Y0274203D01*
X0286483Y0272089D02*
X0287188Y0272089D01*
X0264095Y0263111D02*
X0264095Y0251300D01*
X0250316Y0251300D01*
X0250316Y0263111D01*
X0264095Y0263111D01*
X0252585Y0273968D02*
X0252585Y0275377D01*
X0251881Y0276082D01*
X0252585Y0277613D02*
X0249767Y0280432D01*
X0249062Y0280432D01*
X0248357Y0279727D01*
X0248357Y0278318D01*
X0249062Y0277613D01*
X0249062Y0276082D02*
X0248357Y0275377D01*
X0248357Y0273968D01*
X0249062Y0273263D01*
X0251881Y0273263D01*
X0252585Y0273968D01*
X0252585Y0277613D02*
X0252585Y0280432D01*
X0252585Y0281964D02*
X0252585Y0284782D01*
X0252585Y0283373D02*
X0248357Y0283373D01*
X0249767Y0281964D01*
X0255995Y0286822D02*
X0256700Y0286117D01*
X0259519Y0286117D01*
X0260223Y0286822D01*
X0260223Y0288231D01*
X0259519Y0288936D01*
X0260223Y0290467D02*
X0257405Y0293286D01*
X0256700Y0293286D01*
X0255995Y0292581D01*
X0255995Y0291172D01*
X0256700Y0290467D01*
X0256700Y0288936D02*
X0255995Y0288231D01*
X0255995Y0286822D01*
X0260223Y0290467D02*
X0260223Y0293286D01*
X0259519Y0294817D02*
X0256700Y0297636D01*
X0259519Y0297636D01*
X0260223Y0296931D01*
X0260223Y0295522D01*
X0259519Y0294817D01*
X0256700Y0294817D01*
X0255995Y0295522D01*
X0255995Y0296931D01*
X0256700Y0297636D01*
X0230570Y0271900D02*
X0228456Y0269786D01*
X0231274Y0269786D01*
X0230570Y0267672D02*
X0230570Y0271900D01*
X0226924Y0271195D02*
X0226220Y0271900D01*
X0224810Y0271900D01*
X0224106Y0271195D01*
X0222574Y0271195D02*
X0221869Y0271900D01*
X0220460Y0271900D01*
X0219755Y0271195D01*
X0219755Y0268377D01*
X0220460Y0267672D01*
X0221869Y0267672D01*
X0222574Y0268377D01*
X0224106Y0267672D02*
X0226924Y0270491D01*
X0226924Y0271195D01*
X0225553Y0272436D02*
X0222735Y0272436D01*
X0225553Y0275255D01*
X0225553Y0275959D01*
X0224849Y0276664D01*
X0223439Y0276664D01*
X0222735Y0275959D01*
X0219794Y0276664D02*
X0219794Y0272436D01*
X0221203Y0272436D02*
X0218384Y0272436D01*
X0216853Y0273140D02*
X0216148Y0272436D01*
X0214739Y0272436D01*
X0214034Y0273140D01*
X0214034Y0275959D01*
X0214739Y0276664D01*
X0216148Y0276664D01*
X0216853Y0275959D01*
X0218384Y0275255D02*
X0219794Y0276664D01*
X0224106Y0267672D02*
X0226924Y0267672D01*
X0225616Y0285148D02*
X0222798Y0285148D01*
X0224207Y0285148D02*
X0224207Y0289376D01*
X0222798Y0287967D01*
X0221266Y0285148D02*
X0218447Y0285148D01*
X0219857Y0285148D02*
X0219857Y0289376D01*
X0218447Y0287967D01*
X0216916Y0288672D02*
X0216211Y0289376D01*
X0214802Y0289376D01*
X0214097Y0288672D01*
X0214097Y0285853D01*
X0214802Y0285148D01*
X0216211Y0285148D01*
X0216916Y0285853D01*
X0299263Y0204648D02*
X0299968Y0205352D01*
X0300672Y0205352D01*
X0301377Y0204648D01*
X0301377Y0203238D01*
X0300672Y0202534D01*
X0299968Y0202534D01*
X0299263Y0203238D01*
X0299263Y0204648D01*
X0301377Y0204648D02*
X0302082Y0205352D01*
X0302786Y0205352D01*
X0303491Y0204648D01*
X0303491Y0203238D01*
X0302786Y0202534D01*
X0302082Y0202534D01*
X0301377Y0203238D01*
X0303491Y0201002D02*
X0303491Y0198184D01*
X0303491Y0199593D02*
X0299263Y0199593D01*
X0300672Y0198184D01*
X0299968Y0196652D02*
X0299263Y0195947D01*
X0299263Y0194538D01*
X0299968Y0193833D01*
X0302786Y0193833D01*
X0303491Y0194538D01*
X0303491Y0195947D01*
X0302786Y0196652D01*
X0254184Y0180036D02*
X0254184Y0177217D01*
X0251365Y0180036D01*
X0250661Y0180036D01*
X0249956Y0179331D01*
X0249956Y0177922D01*
X0250661Y0177217D01*
X0249956Y0175686D02*
X0249956Y0174276D01*
X0249956Y0174981D02*
X0253479Y0174981D01*
X0254184Y0174276D01*
X0254184Y0173572D01*
X0253479Y0172867D01*
X0325503Y0080312D02*
X0325503Y0077322D01*
X0327496Y0079315D01*
X0328493Y0077322D02*
X0325503Y0080312D01*
X0323423Y0077236D02*
X0325416Y0075243D01*
X0325416Y0074246D01*
X0323922Y0072751D01*
X0320932Y0075741D01*
X0322427Y0077236D01*
X0323423Y0077236D01*
X0145496Y0125970D02*
X0128793Y0142673D01*
X0117657Y0131538D01*
X0134361Y0114834D01*
X0145496Y0125970D01*
D15*
X0225513Y0209765D02*
X0225515Y0209870D01*
X0225521Y0209975D01*
X0225531Y0210079D01*
X0225545Y0210183D01*
X0225563Y0210287D01*
X0225585Y0210389D01*
X0225610Y0210491D01*
X0225640Y0210592D01*
X0225673Y0210691D01*
X0225710Y0210789D01*
X0225751Y0210886D01*
X0225796Y0210981D01*
X0225844Y0211074D01*
X0225895Y0211166D01*
X0225951Y0211255D01*
X0226009Y0211342D01*
X0226071Y0211427D01*
X0226135Y0211510D01*
X0226203Y0211590D01*
X0226274Y0211667D01*
X0226348Y0211741D01*
X0226425Y0211813D01*
X0226504Y0211882D01*
X0226586Y0211947D01*
X0226670Y0212010D01*
X0226757Y0212069D01*
X0226846Y0212125D01*
X0226937Y0212178D01*
X0227030Y0212227D01*
X0227124Y0212272D01*
X0227220Y0212314D01*
X0227318Y0212352D01*
X0227417Y0212386D01*
X0227518Y0212417D01*
X0227619Y0212443D01*
X0227722Y0212466D01*
X0227825Y0212485D01*
X0227929Y0212500D01*
X0228033Y0212511D01*
X0228138Y0212518D01*
X0228243Y0212521D01*
X0228348Y0212520D01*
X0228453Y0212515D01*
X0228557Y0212506D01*
X0228661Y0212493D01*
X0228765Y0212476D01*
X0228868Y0212455D01*
X0228970Y0212430D01*
X0229071Y0212402D01*
X0229170Y0212369D01*
X0229269Y0212333D01*
X0229366Y0212293D01*
X0229461Y0212250D01*
X0229555Y0212202D01*
X0229647Y0212152D01*
X0229737Y0212098D01*
X0229825Y0212040D01*
X0229910Y0211979D01*
X0229993Y0211915D01*
X0230074Y0211848D01*
X0230152Y0211778D01*
X0230227Y0211704D01*
X0230299Y0211629D01*
X0230369Y0211550D01*
X0230435Y0211469D01*
X0230499Y0211385D01*
X0230559Y0211299D01*
X0230615Y0211211D01*
X0230669Y0211120D01*
X0230719Y0211028D01*
X0230765Y0210934D01*
X0230808Y0210838D01*
X0230847Y0210740D01*
X0230882Y0210642D01*
X0230913Y0210541D01*
X0230941Y0210440D01*
X0230965Y0210338D01*
X0230985Y0210235D01*
X0231001Y0210131D01*
X0231013Y0210027D01*
X0231021Y0209922D01*
X0231025Y0209817D01*
X0231025Y0209713D01*
X0231021Y0209608D01*
X0231013Y0209503D01*
X0231001Y0209399D01*
X0230985Y0209295D01*
X0230965Y0209192D01*
X0230941Y0209090D01*
X0230913Y0208989D01*
X0230882Y0208888D01*
X0230847Y0208790D01*
X0230808Y0208692D01*
X0230765Y0208596D01*
X0230719Y0208502D01*
X0230669Y0208410D01*
X0230615Y0208319D01*
X0230559Y0208231D01*
X0230499Y0208145D01*
X0230435Y0208061D01*
X0230369Y0207980D01*
X0230299Y0207901D01*
X0230227Y0207826D01*
X0230152Y0207752D01*
X0230074Y0207682D01*
X0229993Y0207615D01*
X0229910Y0207551D01*
X0229825Y0207490D01*
X0229737Y0207432D01*
X0229647Y0207378D01*
X0229555Y0207328D01*
X0229461Y0207280D01*
X0229366Y0207237D01*
X0229269Y0207197D01*
X0229170Y0207161D01*
X0229071Y0207128D01*
X0228970Y0207100D01*
X0228868Y0207075D01*
X0228765Y0207054D01*
X0228661Y0207037D01*
X0228557Y0207024D01*
X0228453Y0207015D01*
X0228348Y0207010D01*
X0228243Y0207009D01*
X0228138Y0207012D01*
X0228033Y0207019D01*
X0227929Y0207030D01*
X0227825Y0207045D01*
X0227722Y0207064D01*
X0227619Y0207087D01*
X0227518Y0207113D01*
X0227417Y0207144D01*
X0227318Y0207178D01*
X0227220Y0207216D01*
X0227124Y0207258D01*
X0227030Y0207303D01*
X0226937Y0207352D01*
X0226846Y0207405D01*
X0226757Y0207461D01*
X0226670Y0207520D01*
X0226586Y0207583D01*
X0226504Y0207648D01*
X0226425Y0207717D01*
X0226348Y0207789D01*
X0226274Y0207863D01*
X0226203Y0207940D01*
X0226135Y0208020D01*
X0226071Y0208103D01*
X0226009Y0208188D01*
X0225951Y0208275D01*
X0225895Y0208364D01*
X0225844Y0208456D01*
X0225796Y0208549D01*
X0225751Y0208644D01*
X0225710Y0208741D01*
X0225673Y0208839D01*
X0225640Y0208938D01*
X0225610Y0209039D01*
X0225585Y0209141D01*
X0225563Y0209243D01*
X0225545Y0209347D01*
X0225531Y0209451D01*
X0225521Y0209555D01*
X0225515Y0209660D01*
X0225513Y0209765D01*
X0283387Y0209765D02*
X0283389Y0209870D01*
X0283395Y0209975D01*
X0283405Y0210079D01*
X0283419Y0210183D01*
X0283437Y0210287D01*
X0283459Y0210389D01*
X0283484Y0210491D01*
X0283514Y0210592D01*
X0283547Y0210691D01*
X0283584Y0210789D01*
X0283625Y0210886D01*
X0283670Y0210981D01*
X0283718Y0211074D01*
X0283769Y0211166D01*
X0283825Y0211255D01*
X0283883Y0211342D01*
X0283945Y0211427D01*
X0284009Y0211510D01*
X0284077Y0211590D01*
X0284148Y0211667D01*
X0284222Y0211741D01*
X0284299Y0211813D01*
X0284378Y0211882D01*
X0284460Y0211947D01*
X0284544Y0212010D01*
X0284631Y0212069D01*
X0284720Y0212125D01*
X0284811Y0212178D01*
X0284904Y0212227D01*
X0284998Y0212272D01*
X0285094Y0212314D01*
X0285192Y0212352D01*
X0285291Y0212386D01*
X0285392Y0212417D01*
X0285493Y0212443D01*
X0285596Y0212466D01*
X0285699Y0212485D01*
X0285803Y0212500D01*
X0285907Y0212511D01*
X0286012Y0212518D01*
X0286117Y0212521D01*
X0286222Y0212520D01*
X0286327Y0212515D01*
X0286431Y0212506D01*
X0286535Y0212493D01*
X0286639Y0212476D01*
X0286742Y0212455D01*
X0286844Y0212430D01*
X0286945Y0212402D01*
X0287044Y0212369D01*
X0287143Y0212333D01*
X0287240Y0212293D01*
X0287335Y0212250D01*
X0287429Y0212202D01*
X0287521Y0212152D01*
X0287611Y0212098D01*
X0287699Y0212040D01*
X0287784Y0211979D01*
X0287867Y0211915D01*
X0287948Y0211848D01*
X0288026Y0211778D01*
X0288101Y0211704D01*
X0288173Y0211629D01*
X0288243Y0211550D01*
X0288309Y0211469D01*
X0288373Y0211385D01*
X0288433Y0211299D01*
X0288489Y0211211D01*
X0288543Y0211120D01*
X0288593Y0211028D01*
X0288639Y0210934D01*
X0288682Y0210838D01*
X0288721Y0210740D01*
X0288756Y0210642D01*
X0288787Y0210541D01*
X0288815Y0210440D01*
X0288839Y0210338D01*
X0288859Y0210235D01*
X0288875Y0210131D01*
X0288887Y0210027D01*
X0288895Y0209922D01*
X0288899Y0209817D01*
X0288899Y0209713D01*
X0288895Y0209608D01*
X0288887Y0209503D01*
X0288875Y0209399D01*
X0288859Y0209295D01*
X0288839Y0209192D01*
X0288815Y0209090D01*
X0288787Y0208989D01*
X0288756Y0208888D01*
X0288721Y0208790D01*
X0288682Y0208692D01*
X0288639Y0208596D01*
X0288593Y0208502D01*
X0288543Y0208410D01*
X0288489Y0208319D01*
X0288433Y0208231D01*
X0288373Y0208145D01*
X0288309Y0208061D01*
X0288243Y0207980D01*
X0288173Y0207901D01*
X0288101Y0207826D01*
X0288026Y0207752D01*
X0287948Y0207682D01*
X0287867Y0207615D01*
X0287784Y0207551D01*
X0287699Y0207490D01*
X0287611Y0207432D01*
X0287521Y0207378D01*
X0287429Y0207328D01*
X0287335Y0207280D01*
X0287240Y0207237D01*
X0287143Y0207197D01*
X0287044Y0207161D01*
X0286945Y0207128D01*
X0286844Y0207100D01*
X0286742Y0207075D01*
X0286639Y0207054D01*
X0286535Y0207037D01*
X0286431Y0207024D01*
X0286327Y0207015D01*
X0286222Y0207010D01*
X0286117Y0207009D01*
X0286012Y0207012D01*
X0285907Y0207019D01*
X0285803Y0207030D01*
X0285699Y0207045D01*
X0285596Y0207064D01*
X0285493Y0207087D01*
X0285392Y0207113D01*
X0285291Y0207144D01*
X0285192Y0207178D01*
X0285094Y0207216D01*
X0284998Y0207258D01*
X0284904Y0207303D01*
X0284811Y0207352D01*
X0284720Y0207405D01*
X0284631Y0207461D01*
X0284544Y0207520D01*
X0284460Y0207583D01*
X0284378Y0207648D01*
X0284299Y0207717D01*
X0284222Y0207789D01*
X0284148Y0207863D01*
X0284077Y0207940D01*
X0284009Y0208020D01*
X0283945Y0208103D01*
X0283883Y0208188D01*
X0283825Y0208275D01*
X0283769Y0208364D01*
X0283718Y0208456D01*
X0283670Y0208549D01*
X0283625Y0208644D01*
X0283584Y0208741D01*
X0283547Y0208839D01*
X0283514Y0208938D01*
X0283484Y0209039D01*
X0283459Y0209141D01*
X0283437Y0209243D01*
X0283419Y0209347D01*
X0283405Y0209451D01*
X0283395Y0209555D01*
X0283389Y0209660D01*
X0283387Y0209765D01*
X0283387Y0304646D02*
X0283389Y0304751D01*
X0283395Y0304856D01*
X0283405Y0304960D01*
X0283419Y0305064D01*
X0283437Y0305168D01*
X0283459Y0305270D01*
X0283484Y0305372D01*
X0283514Y0305473D01*
X0283547Y0305572D01*
X0283584Y0305670D01*
X0283625Y0305767D01*
X0283670Y0305862D01*
X0283718Y0305955D01*
X0283769Y0306047D01*
X0283825Y0306136D01*
X0283883Y0306223D01*
X0283945Y0306308D01*
X0284009Y0306391D01*
X0284077Y0306471D01*
X0284148Y0306548D01*
X0284222Y0306622D01*
X0284299Y0306694D01*
X0284378Y0306763D01*
X0284460Y0306828D01*
X0284544Y0306891D01*
X0284631Y0306950D01*
X0284720Y0307006D01*
X0284811Y0307059D01*
X0284904Y0307108D01*
X0284998Y0307153D01*
X0285094Y0307195D01*
X0285192Y0307233D01*
X0285291Y0307267D01*
X0285392Y0307298D01*
X0285493Y0307324D01*
X0285596Y0307347D01*
X0285699Y0307366D01*
X0285803Y0307381D01*
X0285907Y0307392D01*
X0286012Y0307399D01*
X0286117Y0307402D01*
X0286222Y0307401D01*
X0286327Y0307396D01*
X0286431Y0307387D01*
X0286535Y0307374D01*
X0286639Y0307357D01*
X0286742Y0307336D01*
X0286844Y0307311D01*
X0286945Y0307283D01*
X0287044Y0307250D01*
X0287143Y0307214D01*
X0287240Y0307174D01*
X0287335Y0307131D01*
X0287429Y0307083D01*
X0287521Y0307033D01*
X0287611Y0306979D01*
X0287699Y0306921D01*
X0287784Y0306860D01*
X0287867Y0306796D01*
X0287948Y0306729D01*
X0288026Y0306659D01*
X0288101Y0306585D01*
X0288173Y0306510D01*
X0288243Y0306431D01*
X0288309Y0306350D01*
X0288373Y0306266D01*
X0288433Y0306180D01*
X0288489Y0306092D01*
X0288543Y0306001D01*
X0288593Y0305909D01*
X0288639Y0305815D01*
X0288682Y0305719D01*
X0288721Y0305621D01*
X0288756Y0305523D01*
X0288787Y0305422D01*
X0288815Y0305321D01*
X0288839Y0305219D01*
X0288859Y0305116D01*
X0288875Y0305012D01*
X0288887Y0304908D01*
X0288895Y0304803D01*
X0288899Y0304698D01*
X0288899Y0304594D01*
X0288895Y0304489D01*
X0288887Y0304384D01*
X0288875Y0304280D01*
X0288859Y0304176D01*
X0288839Y0304073D01*
X0288815Y0303971D01*
X0288787Y0303870D01*
X0288756Y0303769D01*
X0288721Y0303671D01*
X0288682Y0303573D01*
X0288639Y0303477D01*
X0288593Y0303383D01*
X0288543Y0303291D01*
X0288489Y0303200D01*
X0288433Y0303112D01*
X0288373Y0303026D01*
X0288309Y0302942D01*
X0288243Y0302861D01*
X0288173Y0302782D01*
X0288101Y0302707D01*
X0288026Y0302633D01*
X0287948Y0302563D01*
X0287867Y0302496D01*
X0287784Y0302432D01*
X0287699Y0302371D01*
X0287611Y0302313D01*
X0287521Y0302259D01*
X0287429Y0302209D01*
X0287335Y0302161D01*
X0287240Y0302118D01*
X0287143Y0302078D01*
X0287044Y0302042D01*
X0286945Y0302009D01*
X0286844Y0301981D01*
X0286742Y0301956D01*
X0286639Y0301935D01*
X0286535Y0301918D01*
X0286431Y0301905D01*
X0286327Y0301896D01*
X0286222Y0301891D01*
X0286117Y0301890D01*
X0286012Y0301893D01*
X0285907Y0301900D01*
X0285803Y0301911D01*
X0285699Y0301926D01*
X0285596Y0301945D01*
X0285493Y0301968D01*
X0285392Y0301994D01*
X0285291Y0302025D01*
X0285192Y0302059D01*
X0285094Y0302097D01*
X0284998Y0302139D01*
X0284904Y0302184D01*
X0284811Y0302233D01*
X0284720Y0302286D01*
X0284631Y0302342D01*
X0284544Y0302401D01*
X0284460Y0302464D01*
X0284378Y0302529D01*
X0284299Y0302598D01*
X0284222Y0302670D01*
X0284148Y0302744D01*
X0284077Y0302821D01*
X0284009Y0302901D01*
X0283945Y0302984D01*
X0283883Y0303069D01*
X0283825Y0303156D01*
X0283769Y0303245D01*
X0283718Y0303337D01*
X0283670Y0303430D01*
X0283625Y0303525D01*
X0283584Y0303622D01*
X0283547Y0303720D01*
X0283514Y0303819D01*
X0283484Y0303920D01*
X0283459Y0304022D01*
X0283437Y0304124D01*
X0283419Y0304228D01*
X0283405Y0304332D01*
X0283395Y0304436D01*
X0283389Y0304541D01*
X0283387Y0304646D01*
X0225513Y0304646D02*
X0225515Y0304751D01*
X0225521Y0304856D01*
X0225531Y0304960D01*
X0225545Y0305064D01*
X0225563Y0305168D01*
X0225585Y0305270D01*
X0225610Y0305372D01*
X0225640Y0305473D01*
X0225673Y0305572D01*
X0225710Y0305670D01*
X0225751Y0305767D01*
X0225796Y0305862D01*
X0225844Y0305955D01*
X0225895Y0306047D01*
X0225951Y0306136D01*
X0226009Y0306223D01*
X0226071Y0306308D01*
X0226135Y0306391D01*
X0226203Y0306471D01*
X0226274Y0306548D01*
X0226348Y0306622D01*
X0226425Y0306694D01*
X0226504Y0306763D01*
X0226586Y0306828D01*
X0226670Y0306891D01*
X0226757Y0306950D01*
X0226846Y0307006D01*
X0226937Y0307059D01*
X0227030Y0307108D01*
X0227124Y0307153D01*
X0227220Y0307195D01*
X0227318Y0307233D01*
X0227417Y0307267D01*
X0227518Y0307298D01*
X0227619Y0307324D01*
X0227722Y0307347D01*
X0227825Y0307366D01*
X0227929Y0307381D01*
X0228033Y0307392D01*
X0228138Y0307399D01*
X0228243Y0307402D01*
X0228348Y0307401D01*
X0228453Y0307396D01*
X0228557Y0307387D01*
X0228661Y0307374D01*
X0228765Y0307357D01*
X0228868Y0307336D01*
X0228970Y0307311D01*
X0229071Y0307283D01*
X0229170Y0307250D01*
X0229269Y0307214D01*
X0229366Y0307174D01*
X0229461Y0307131D01*
X0229555Y0307083D01*
X0229647Y0307033D01*
X0229737Y0306979D01*
X0229825Y0306921D01*
X0229910Y0306860D01*
X0229993Y0306796D01*
X0230074Y0306729D01*
X0230152Y0306659D01*
X0230227Y0306585D01*
X0230299Y0306510D01*
X0230369Y0306431D01*
X0230435Y0306350D01*
X0230499Y0306266D01*
X0230559Y0306180D01*
X0230615Y0306092D01*
X0230669Y0306001D01*
X0230719Y0305909D01*
X0230765Y0305815D01*
X0230808Y0305719D01*
X0230847Y0305621D01*
X0230882Y0305523D01*
X0230913Y0305422D01*
X0230941Y0305321D01*
X0230965Y0305219D01*
X0230985Y0305116D01*
X0231001Y0305012D01*
X0231013Y0304908D01*
X0231021Y0304803D01*
X0231025Y0304698D01*
X0231025Y0304594D01*
X0231021Y0304489D01*
X0231013Y0304384D01*
X0231001Y0304280D01*
X0230985Y0304176D01*
X0230965Y0304073D01*
X0230941Y0303971D01*
X0230913Y0303870D01*
X0230882Y0303769D01*
X0230847Y0303671D01*
X0230808Y0303573D01*
X0230765Y0303477D01*
X0230719Y0303383D01*
X0230669Y0303291D01*
X0230615Y0303200D01*
X0230559Y0303112D01*
X0230499Y0303026D01*
X0230435Y0302942D01*
X0230369Y0302861D01*
X0230299Y0302782D01*
X0230227Y0302707D01*
X0230152Y0302633D01*
X0230074Y0302563D01*
X0229993Y0302496D01*
X0229910Y0302432D01*
X0229825Y0302371D01*
X0229737Y0302313D01*
X0229647Y0302259D01*
X0229555Y0302209D01*
X0229461Y0302161D01*
X0229366Y0302118D01*
X0229269Y0302078D01*
X0229170Y0302042D01*
X0229071Y0302009D01*
X0228970Y0301981D01*
X0228868Y0301956D01*
X0228765Y0301935D01*
X0228661Y0301918D01*
X0228557Y0301905D01*
X0228453Y0301896D01*
X0228348Y0301891D01*
X0228243Y0301890D01*
X0228138Y0301893D01*
X0228033Y0301900D01*
X0227929Y0301911D01*
X0227825Y0301926D01*
X0227722Y0301945D01*
X0227619Y0301968D01*
X0227518Y0301994D01*
X0227417Y0302025D01*
X0227318Y0302059D01*
X0227220Y0302097D01*
X0227124Y0302139D01*
X0227030Y0302184D01*
X0226937Y0302233D01*
X0226846Y0302286D01*
X0226757Y0302342D01*
X0226670Y0302401D01*
X0226586Y0302464D01*
X0226504Y0302529D01*
X0226425Y0302598D01*
X0226348Y0302670D01*
X0226274Y0302744D01*
X0226203Y0302821D01*
X0226135Y0302901D01*
X0226071Y0302984D01*
X0226009Y0303069D01*
X0225951Y0303156D01*
X0225895Y0303245D01*
X0225844Y0303337D01*
X0225796Y0303430D01*
X0225751Y0303525D01*
X0225710Y0303622D01*
X0225673Y0303720D01*
X0225640Y0303819D01*
X0225610Y0303920D01*
X0225585Y0304022D01*
X0225563Y0304124D01*
X0225545Y0304228D01*
X0225531Y0304332D01*
X0225521Y0304436D01*
X0225515Y0304541D01*
X0225513Y0304646D01*
D16*
X0217784Y0288402D02*
X0209910Y0288402D01*
X0209910Y0281394D02*
X0217784Y0281394D01*
X0217721Y0275690D02*
X0209847Y0275690D01*
X0209847Y0268682D02*
X0217721Y0268682D01*
X0228619Y0268643D02*
X0236493Y0268643D01*
X0236493Y0275650D02*
X0228619Y0275650D01*
X0244607Y0282127D02*
X0244607Y0290001D01*
X0251615Y0290001D02*
X0251615Y0282127D01*
X0256969Y0281930D02*
X0256969Y0289804D01*
X0263977Y0289804D02*
X0263977Y0281930D01*
X0285355Y0285158D02*
X0293229Y0285158D01*
X0293229Y0292166D02*
X0285355Y0292166D01*
X0285237Y0277954D02*
X0293111Y0277954D01*
X0293111Y0270946D02*
X0285237Y0270946D01*
X0309926Y0323627D02*
X0309926Y0347721D01*
X0334020Y0347721D01*
X0334020Y0331658D01*
X0325989Y0323627D02*
X0309926Y0323627D01*
X0303859Y0368269D02*
X0295985Y0368269D01*
X0295985Y0375119D02*
X0303859Y0375119D01*
X0330330Y0379709D02*
X0335898Y0374141D01*
X0340853Y0379096D02*
X0335285Y0384664D01*
X0329654Y0397905D02*
X0324086Y0403473D01*
X0328930Y0408317D02*
X0334498Y0402749D01*
X0340681Y0414546D02*
X0363328Y0391900D01*
X0376134Y0404705D01*
X0353487Y0427352D01*
X0337926Y0429331D02*
X0332915Y0424320D01*
X0322280Y0434954D01*
X0327291Y0439965D02*
X0337926Y0429331D01*
X0287245Y0409213D02*
X0287245Y0401339D01*
X0280237Y0401339D02*
X0280237Y0409213D01*
X0202329Y0399441D02*
X0196761Y0393874D01*
X0191917Y0398718D02*
X0197485Y0404285D01*
X0190613Y0411740D02*
X0185045Y0406172D01*
X0180090Y0411128D02*
X0185657Y0416695D01*
X0194055Y0425816D02*
X0189044Y0430827D01*
X0199679Y0441461D01*
X0204690Y0436450D02*
X0194055Y0425816D01*
X0179281Y0423798D02*
X0156635Y0401151D01*
X0143829Y0413957D01*
X0166476Y0436604D01*
X0171957Y0377128D02*
X0166389Y0371560D01*
X0171233Y0366716D02*
X0176801Y0372284D01*
X0178938Y0310867D02*
X0171064Y0310867D01*
X0171064Y0303859D02*
X0178938Y0303859D01*
X0163997Y0303902D02*
X0156123Y0303902D01*
X0156123Y0310910D02*
X0163997Y0310910D01*
X0154202Y0297985D02*
X0154202Y0290111D01*
X0147194Y0290111D02*
X0147194Y0297985D01*
X0119233Y0247623D02*
X0119233Y0239749D01*
X0112225Y0239749D02*
X0112225Y0247623D01*
X0109198Y0247552D02*
X0109198Y0239678D01*
X0102190Y0239678D02*
X0102190Y0247552D01*
X0151985Y0228654D02*
X0151985Y0220780D01*
X0158993Y0220780D02*
X0158993Y0228654D01*
X0163477Y0208080D02*
X0163477Y0200206D01*
X0170328Y0200206D02*
X0170328Y0208080D01*
X0176481Y0207985D02*
X0176481Y0200111D01*
X0183331Y0200111D02*
X0183331Y0207985D01*
X0183052Y0143750D02*
X0188620Y0138182D01*
X0183776Y0133338D02*
X0178208Y0138906D01*
X0154351Y0121094D02*
X0176998Y0098447D01*
X0183318Y0109177D02*
X0188886Y0103609D01*
X0193841Y0108565D02*
X0188273Y0114132D01*
X0205732Y0118320D02*
X0211300Y0123888D01*
X0216144Y0119044D02*
X0210576Y0113476D01*
X0184725Y0085997D02*
X0195359Y0075362D01*
X0190348Y0070351D02*
X0179714Y0080986D01*
X0184725Y0085997D01*
X0164192Y0085641D02*
X0141545Y0108288D01*
X0154351Y0121094D01*
X0256709Y0161717D02*
X0266709Y0161717D01*
X0266709Y0178384D01*
X0263376Y0181717D02*
X0256709Y0181717D01*
X0256709Y0161717D01*
X0300237Y0189646D02*
X0300237Y0197520D01*
X0307245Y0197520D02*
X0307245Y0189646D01*
X0342520Y0187048D02*
X0342520Y0194922D01*
X0349528Y0194922D02*
X0349528Y0187048D01*
X0360079Y0157364D02*
X0354511Y0151796D01*
X0359355Y0146952D02*
X0364923Y0152520D01*
X0364469Y0124480D02*
X0377275Y0111674D01*
X0354628Y0089027D01*
X0341822Y0101833D02*
X0364469Y0124480D01*
X0338050Y0126063D02*
X0332482Y0120495D01*
X0327527Y0125450D02*
X0333094Y0131018D01*
X0314855Y0107333D02*
X0320423Y0101765D01*
X0315579Y0096921D02*
X0310011Y0102489D01*
X0331104Y0091272D02*
X0320469Y0080638D01*
X0325480Y0075627D02*
X0336115Y0086261D01*
X0331104Y0091272D01*
X0441917Y0207599D02*
X0448583Y0207599D01*
X0448583Y0307599D01*
X0438583Y0307599D01*
X0438583Y0210933D01*
X0402875Y0225001D02*
X0392265Y0225001D01*
X0392265Y0230355D01*
X0402875Y0230355D01*
X0371379Y0231103D02*
X0363505Y0231103D01*
X0363505Y0224253D02*
X0371379Y0224253D01*
X0371379Y0283308D02*
X0363505Y0283308D01*
X0363505Y0290158D02*
X0371379Y0290158D01*
X0392265Y0289410D02*
X0392265Y0284056D01*
X0402875Y0284056D01*
X0402875Y0289410D02*
X0392265Y0289410D01*
X0367142Y0340511D02*
X0361574Y0346079D01*
X0366418Y0350923D02*
X0371986Y0345355D01*
D17*
X0315083Y0335674D02*
X0315085Y0335843D01*
X0315091Y0336012D01*
X0315102Y0336181D01*
X0315116Y0336349D01*
X0315135Y0336517D01*
X0315158Y0336685D01*
X0315184Y0336852D01*
X0315215Y0337018D01*
X0315250Y0337184D01*
X0315289Y0337348D01*
X0315333Y0337512D01*
X0315380Y0337674D01*
X0315431Y0337835D01*
X0315486Y0337995D01*
X0315545Y0338154D01*
X0315607Y0338311D01*
X0315674Y0338466D01*
X0315745Y0338620D01*
X0315819Y0338772D01*
X0315897Y0338922D01*
X0315978Y0339070D01*
X0316063Y0339216D01*
X0316152Y0339360D01*
X0316244Y0339502D01*
X0316340Y0339641D01*
X0316439Y0339778D01*
X0316541Y0339913D01*
X0316647Y0340045D01*
X0316756Y0340174D01*
X0316868Y0340301D01*
X0316983Y0340425D01*
X0317101Y0340546D01*
X0317222Y0340664D01*
X0317346Y0340779D01*
X0317473Y0340891D01*
X0317602Y0341000D01*
X0317734Y0341106D01*
X0317869Y0341208D01*
X0318006Y0341307D01*
X0318145Y0341403D01*
X0318287Y0341495D01*
X0318431Y0341584D01*
X0318577Y0341669D01*
X0318725Y0341750D01*
X0318875Y0341828D01*
X0319027Y0341902D01*
X0319181Y0341973D01*
X0319336Y0342040D01*
X0319493Y0342102D01*
X0319652Y0342161D01*
X0319812Y0342216D01*
X0319973Y0342267D01*
X0320135Y0342314D01*
X0320299Y0342358D01*
X0320463Y0342397D01*
X0320629Y0342432D01*
X0320795Y0342463D01*
X0320962Y0342489D01*
X0321130Y0342512D01*
X0321298Y0342531D01*
X0321466Y0342545D01*
X0321635Y0342556D01*
X0321804Y0342562D01*
X0321973Y0342564D01*
X0322142Y0342562D01*
X0322311Y0342556D01*
X0322480Y0342545D01*
X0322648Y0342531D01*
X0322816Y0342512D01*
X0322984Y0342489D01*
X0323151Y0342463D01*
X0323317Y0342432D01*
X0323483Y0342397D01*
X0323647Y0342358D01*
X0323811Y0342314D01*
X0323973Y0342267D01*
X0324134Y0342216D01*
X0324294Y0342161D01*
X0324453Y0342102D01*
X0324610Y0342040D01*
X0324765Y0341973D01*
X0324919Y0341902D01*
X0325071Y0341828D01*
X0325221Y0341750D01*
X0325369Y0341669D01*
X0325515Y0341584D01*
X0325659Y0341495D01*
X0325801Y0341403D01*
X0325940Y0341307D01*
X0326077Y0341208D01*
X0326212Y0341106D01*
X0326344Y0341000D01*
X0326473Y0340891D01*
X0326600Y0340779D01*
X0326724Y0340664D01*
X0326845Y0340546D01*
X0326963Y0340425D01*
X0327078Y0340301D01*
X0327190Y0340174D01*
X0327299Y0340045D01*
X0327405Y0339913D01*
X0327507Y0339778D01*
X0327606Y0339641D01*
X0327702Y0339502D01*
X0327794Y0339360D01*
X0327883Y0339216D01*
X0327968Y0339070D01*
X0328049Y0338922D01*
X0328127Y0338772D01*
X0328201Y0338620D01*
X0328272Y0338466D01*
X0328339Y0338311D01*
X0328401Y0338154D01*
X0328460Y0337995D01*
X0328515Y0337835D01*
X0328566Y0337674D01*
X0328613Y0337512D01*
X0328657Y0337348D01*
X0328696Y0337184D01*
X0328731Y0337018D01*
X0328762Y0336852D01*
X0328788Y0336685D01*
X0328811Y0336517D01*
X0328830Y0336349D01*
X0328844Y0336181D01*
X0328855Y0336012D01*
X0328861Y0335843D01*
X0328863Y0335674D01*
X0328861Y0335505D01*
X0328855Y0335336D01*
X0328844Y0335167D01*
X0328830Y0334999D01*
X0328811Y0334831D01*
X0328788Y0334663D01*
X0328762Y0334496D01*
X0328731Y0334330D01*
X0328696Y0334164D01*
X0328657Y0334000D01*
X0328613Y0333836D01*
X0328566Y0333674D01*
X0328515Y0333513D01*
X0328460Y0333353D01*
X0328401Y0333194D01*
X0328339Y0333037D01*
X0328272Y0332882D01*
X0328201Y0332728D01*
X0328127Y0332576D01*
X0328049Y0332426D01*
X0327968Y0332278D01*
X0327883Y0332132D01*
X0327794Y0331988D01*
X0327702Y0331846D01*
X0327606Y0331707D01*
X0327507Y0331570D01*
X0327405Y0331435D01*
X0327299Y0331303D01*
X0327190Y0331174D01*
X0327078Y0331047D01*
X0326963Y0330923D01*
X0326845Y0330802D01*
X0326724Y0330684D01*
X0326600Y0330569D01*
X0326473Y0330457D01*
X0326344Y0330348D01*
X0326212Y0330242D01*
X0326077Y0330140D01*
X0325940Y0330041D01*
X0325801Y0329945D01*
X0325659Y0329853D01*
X0325515Y0329764D01*
X0325369Y0329679D01*
X0325221Y0329598D01*
X0325071Y0329520D01*
X0324919Y0329446D01*
X0324765Y0329375D01*
X0324610Y0329308D01*
X0324453Y0329246D01*
X0324294Y0329187D01*
X0324134Y0329132D01*
X0323973Y0329081D01*
X0323811Y0329034D01*
X0323647Y0328990D01*
X0323483Y0328951D01*
X0323317Y0328916D01*
X0323151Y0328885D01*
X0322984Y0328859D01*
X0322816Y0328836D01*
X0322648Y0328817D01*
X0322480Y0328803D01*
X0322311Y0328792D01*
X0322142Y0328786D01*
X0321973Y0328784D01*
X0321804Y0328786D01*
X0321635Y0328792D01*
X0321466Y0328803D01*
X0321298Y0328817D01*
X0321130Y0328836D01*
X0320962Y0328859D01*
X0320795Y0328885D01*
X0320629Y0328916D01*
X0320463Y0328951D01*
X0320299Y0328990D01*
X0320135Y0329034D01*
X0319973Y0329081D01*
X0319812Y0329132D01*
X0319652Y0329187D01*
X0319493Y0329246D01*
X0319336Y0329308D01*
X0319181Y0329375D01*
X0319027Y0329446D01*
X0318875Y0329520D01*
X0318725Y0329598D01*
X0318577Y0329679D01*
X0318431Y0329764D01*
X0318287Y0329853D01*
X0318145Y0329945D01*
X0318006Y0330041D01*
X0317869Y0330140D01*
X0317734Y0330242D01*
X0317602Y0330348D01*
X0317473Y0330457D01*
X0317346Y0330569D01*
X0317222Y0330684D01*
X0317101Y0330802D01*
X0316983Y0330923D01*
X0316868Y0331047D01*
X0316756Y0331174D01*
X0316647Y0331303D01*
X0316541Y0331435D01*
X0316439Y0331570D01*
X0316340Y0331707D01*
X0316244Y0331846D01*
X0316152Y0331988D01*
X0316063Y0332132D01*
X0315978Y0332278D01*
X0315897Y0332426D01*
X0315819Y0332576D01*
X0315745Y0332728D01*
X0315674Y0332882D01*
X0315607Y0333037D01*
X0315545Y0333194D01*
X0315486Y0333353D01*
X0315431Y0333513D01*
X0315380Y0333674D01*
X0315333Y0333836D01*
X0315289Y0334000D01*
X0315250Y0334164D01*
X0315215Y0334330D01*
X0315184Y0334496D01*
X0315158Y0334663D01*
X0315135Y0334831D01*
X0315116Y0334999D01*
X0315102Y0335167D01*
X0315091Y0335336D01*
X0315085Y0335505D01*
X0315083Y0335674D01*
X0370227Y0397412D02*
X0370229Y0397451D01*
X0370235Y0397490D01*
X0370245Y0397528D01*
X0370258Y0397565D01*
X0370275Y0397600D01*
X0370295Y0397634D01*
X0370319Y0397665D01*
X0370346Y0397694D01*
X0370375Y0397720D01*
X0370407Y0397743D01*
X0370441Y0397763D01*
X0370477Y0397779D01*
X0370514Y0397791D01*
X0370553Y0397800D01*
X0370592Y0397805D01*
X0370631Y0397806D01*
X0370670Y0397803D01*
X0370709Y0397796D01*
X0370746Y0397785D01*
X0370783Y0397771D01*
X0370818Y0397753D01*
X0370851Y0397732D01*
X0370882Y0397707D01*
X0370910Y0397680D01*
X0370935Y0397650D01*
X0370957Y0397617D01*
X0370976Y0397583D01*
X0370991Y0397547D01*
X0371003Y0397509D01*
X0371011Y0397471D01*
X0371015Y0397432D01*
X0371015Y0397392D01*
X0371011Y0397353D01*
X0371003Y0397315D01*
X0370991Y0397277D01*
X0370976Y0397241D01*
X0370957Y0397207D01*
X0370935Y0397174D01*
X0370910Y0397144D01*
X0370882Y0397117D01*
X0370851Y0397092D01*
X0370818Y0397071D01*
X0370783Y0397053D01*
X0370746Y0397039D01*
X0370709Y0397028D01*
X0370670Y0397021D01*
X0370631Y0397018D01*
X0370592Y0397019D01*
X0370553Y0397024D01*
X0370514Y0397033D01*
X0370477Y0397045D01*
X0370441Y0397061D01*
X0370407Y0397081D01*
X0370375Y0397104D01*
X0370346Y0397130D01*
X0370319Y0397159D01*
X0370295Y0397190D01*
X0370275Y0397224D01*
X0370258Y0397259D01*
X0370245Y0397296D01*
X0370235Y0397334D01*
X0370229Y0397373D01*
X0370227Y0397412D01*
X0335917Y0425935D02*
X0335919Y0425974D01*
X0335925Y0426013D01*
X0335935Y0426051D01*
X0335948Y0426088D01*
X0335965Y0426123D01*
X0335985Y0426157D01*
X0336009Y0426188D01*
X0336036Y0426217D01*
X0336065Y0426243D01*
X0336097Y0426266D01*
X0336131Y0426286D01*
X0336167Y0426302D01*
X0336204Y0426314D01*
X0336243Y0426323D01*
X0336282Y0426328D01*
X0336321Y0426329D01*
X0336360Y0426326D01*
X0336399Y0426319D01*
X0336436Y0426308D01*
X0336473Y0426294D01*
X0336508Y0426276D01*
X0336541Y0426255D01*
X0336572Y0426230D01*
X0336600Y0426203D01*
X0336625Y0426173D01*
X0336647Y0426140D01*
X0336666Y0426106D01*
X0336681Y0426070D01*
X0336693Y0426032D01*
X0336701Y0425994D01*
X0336705Y0425955D01*
X0336705Y0425915D01*
X0336701Y0425876D01*
X0336693Y0425838D01*
X0336681Y0425800D01*
X0336666Y0425764D01*
X0336647Y0425730D01*
X0336625Y0425697D01*
X0336600Y0425667D01*
X0336572Y0425640D01*
X0336541Y0425615D01*
X0336508Y0425594D01*
X0336473Y0425576D01*
X0336436Y0425562D01*
X0336399Y0425551D01*
X0336360Y0425544D01*
X0336321Y0425541D01*
X0336282Y0425542D01*
X0336243Y0425547D01*
X0336204Y0425556D01*
X0336167Y0425568D01*
X0336131Y0425584D01*
X0336097Y0425604D01*
X0336065Y0425627D01*
X0336036Y0425653D01*
X0336009Y0425682D01*
X0335985Y0425713D01*
X0335965Y0425747D01*
X0335948Y0425782D01*
X0335935Y0425819D01*
X0335925Y0425857D01*
X0335919Y0425896D01*
X0335917Y0425935D01*
X0390611Y0286733D02*
X0390613Y0286772D01*
X0390619Y0286811D01*
X0390629Y0286849D01*
X0390642Y0286886D01*
X0390659Y0286921D01*
X0390679Y0286955D01*
X0390703Y0286986D01*
X0390730Y0287015D01*
X0390759Y0287041D01*
X0390791Y0287064D01*
X0390825Y0287084D01*
X0390861Y0287100D01*
X0390898Y0287112D01*
X0390937Y0287121D01*
X0390976Y0287126D01*
X0391015Y0287127D01*
X0391054Y0287124D01*
X0391093Y0287117D01*
X0391130Y0287106D01*
X0391167Y0287092D01*
X0391202Y0287074D01*
X0391235Y0287053D01*
X0391266Y0287028D01*
X0391294Y0287001D01*
X0391319Y0286971D01*
X0391341Y0286938D01*
X0391360Y0286904D01*
X0391375Y0286868D01*
X0391387Y0286830D01*
X0391395Y0286792D01*
X0391399Y0286753D01*
X0391399Y0286713D01*
X0391395Y0286674D01*
X0391387Y0286636D01*
X0391375Y0286598D01*
X0391360Y0286562D01*
X0391341Y0286528D01*
X0391319Y0286495D01*
X0391294Y0286465D01*
X0391266Y0286438D01*
X0391235Y0286413D01*
X0391202Y0286392D01*
X0391167Y0286374D01*
X0391130Y0286360D01*
X0391093Y0286349D01*
X0391054Y0286342D01*
X0391015Y0286339D01*
X0390976Y0286340D01*
X0390937Y0286345D01*
X0390898Y0286354D01*
X0390861Y0286366D01*
X0390825Y0286382D01*
X0390791Y0286402D01*
X0390759Y0286425D01*
X0390730Y0286451D01*
X0390703Y0286480D01*
X0390679Y0286511D01*
X0390659Y0286545D01*
X0390642Y0286580D01*
X0390629Y0286617D01*
X0390619Y0286655D01*
X0390613Y0286694D01*
X0390611Y0286733D01*
X0390611Y0227678D02*
X0390613Y0227717D01*
X0390619Y0227756D01*
X0390629Y0227794D01*
X0390642Y0227831D01*
X0390659Y0227866D01*
X0390679Y0227900D01*
X0390703Y0227931D01*
X0390730Y0227960D01*
X0390759Y0227986D01*
X0390791Y0228009D01*
X0390825Y0228029D01*
X0390861Y0228045D01*
X0390898Y0228057D01*
X0390937Y0228066D01*
X0390976Y0228071D01*
X0391015Y0228072D01*
X0391054Y0228069D01*
X0391093Y0228062D01*
X0391130Y0228051D01*
X0391167Y0228037D01*
X0391202Y0228019D01*
X0391235Y0227998D01*
X0391266Y0227973D01*
X0391294Y0227946D01*
X0391319Y0227916D01*
X0391341Y0227883D01*
X0391360Y0227849D01*
X0391375Y0227813D01*
X0391387Y0227775D01*
X0391395Y0227737D01*
X0391399Y0227698D01*
X0391399Y0227658D01*
X0391395Y0227619D01*
X0391387Y0227581D01*
X0391375Y0227543D01*
X0391360Y0227507D01*
X0391341Y0227473D01*
X0391319Y0227440D01*
X0391294Y0227410D01*
X0391266Y0227383D01*
X0391235Y0227358D01*
X0391202Y0227337D01*
X0391167Y0227319D01*
X0391130Y0227305D01*
X0391093Y0227294D01*
X0391054Y0227287D01*
X0391015Y0227284D01*
X0390976Y0227285D01*
X0390937Y0227290D01*
X0390898Y0227299D01*
X0390861Y0227311D01*
X0390825Y0227327D01*
X0390791Y0227347D01*
X0390759Y0227370D01*
X0390730Y0227396D01*
X0390703Y0227425D01*
X0390679Y0227456D01*
X0390659Y0227490D01*
X0390642Y0227525D01*
X0390629Y0227562D01*
X0390619Y0227600D01*
X0390613Y0227639D01*
X0390611Y0227678D01*
X0371369Y0118968D02*
X0371371Y0119007D01*
X0371377Y0119046D01*
X0371387Y0119084D01*
X0371400Y0119121D01*
X0371417Y0119156D01*
X0371437Y0119190D01*
X0371461Y0119221D01*
X0371488Y0119250D01*
X0371517Y0119276D01*
X0371549Y0119299D01*
X0371583Y0119319D01*
X0371619Y0119335D01*
X0371656Y0119347D01*
X0371695Y0119356D01*
X0371734Y0119361D01*
X0371773Y0119362D01*
X0371812Y0119359D01*
X0371851Y0119352D01*
X0371888Y0119341D01*
X0371925Y0119327D01*
X0371960Y0119309D01*
X0371993Y0119288D01*
X0372024Y0119263D01*
X0372052Y0119236D01*
X0372077Y0119206D01*
X0372099Y0119173D01*
X0372118Y0119139D01*
X0372133Y0119103D01*
X0372145Y0119065D01*
X0372153Y0119027D01*
X0372157Y0118988D01*
X0372157Y0118948D01*
X0372153Y0118909D01*
X0372145Y0118871D01*
X0372133Y0118833D01*
X0372118Y0118797D01*
X0372099Y0118763D01*
X0372077Y0118730D01*
X0372052Y0118700D01*
X0372024Y0118673D01*
X0371993Y0118648D01*
X0371960Y0118627D01*
X0371925Y0118609D01*
X0371888Y0118595D01*
X0371851Y0118584D01*
X0371812Y0118577D01*
X0371773Y0118574D01*
X0371734Y0118575D01*
X0371695Y0118580D01*
X0371656Y0118589D01*
X0371619Y0118601D01*
X0371583Y0118617D01*
X0371549Y0118637D01*
X0371517Y0118660D01*
X0371488Y0118686D01*
X0371461Y0118715D01*
X0371437Y0118746D01*
X0371417Y0118780D01*
X0371400Y0118815D01*
X0371387Y0118852D01*
X0371377Y0118890D01*
X0371371Y0118929D01*
X0371369Y0118968D01*
X0334106Y0089658D02*
X0334108Y0089697D01*
X0334114Y0089736D01*
X0334124Y0089774D01*
X0334137Y0089811D01*
X0334154Y0089846D01*
X0334174Y0089880D01*
X0334198Y0089911D01*
X0334225Y0089940D01*
X0334254Y0089966D01*
X0334286Y0089989D01*
X0334320Y0090009D01*
X0334356Y0090025D01*
X0334393Y0090037D01*
X0334432Y0090046D01*
X0334471Y0090051D01*
X0334510Y0090052D01*
X0334549Y0090049D01*
X0334588Y0090042D01*
X0334625Y0090031D01*
X0334662Y0090017D01*
X0334697Y0089999D01*
X0334730Y0089978D01*
X0334761Y0089953D01*
X0334789Y0089926D01*
X0334814Y0089896D01*
X0334836Y0089863D01*
X0334855Y0089829D01*
X0334870Y0089793D01*
X0334882Y0089755D01*
X0334890Y0089717D01*
X0334894Y0089678D01*
X0334894Y0089638D01*
X0334890Y0089599D01*
X0334882Y0089561D01*
X0334870Y0089523D01*
X0334855Y0089487D01*
X0334836Y0089453D01*
X0334814Y0089420D01*
X0334789Y0089390D01*
X0334761Y0089363D01*
X0334730Y0089338D01*
X0334697Y0089317D01*
X0334662Y0089299D01*
X0334625Y0089285D01*
X0334588Y0089274D01*
X0334549Y0089267D01*
X0334510Y0089264D01*
X0334471Y0089265D01*
X0334432Y0089270D01*
X0334393Y0089279D01*
X0334356Y0089291D01*
X0334320Y0089307D01*
X0334286Y0089327D01*
X0334254Y0089350D01*
X0334225Y0089376D01*
X0334198Y0089405D01*
X0334174Y0089436D01*
X0334154Y0089470D01*
X0334137Y0089505D01*
X0334124Y0089542D01*
X0334114Y0089580D01*
X0334108Y0089619D01*
X0334106Y0089658D01*
X0180934Y0084382D02*
X0180936Y0084421D01*
X0180942Y0084460D01*
X0180952Y0084498D01*
X0180965Y0084535D01*
X0180982Y0084570D01*
X0181002Y0084604D01*
X0181026Y0084635D01*
X0181053Y0084664D01*
X0181082Y0084690D01*
X0181114Y0084713D01*
X0181148Y0084733D01*
X0181184Y0084749D01*
X0181221Y0084761D01*
X0181260Y0084770D01*
X0181299Y0084775D01*
X0181338Y0084776D01*
X0181377Y0084773D01*
X0181416Y0084766D01*
X0181453Y0084755D01*
X0181490Y0084741D01*
X0181525Y0084723D01*
X0181558Y0084702D01*
X0181589Y0084677D01*
X0181617Y0084650D01*
X0181642Y0084620D01*
X0181664Y0084587D01*
X0181683Y0084553D01*
X0181698Y0084517D01*
X0181710Y0084479D01*
X0181718Y0084441D01*
X0181722Y0084402D01*
X0181722Y0084362D01*
X0181718Y0084323D01*
X0181710Y0084285D01*
X0181698Y0084247D01*
X0181683Y0084211D01*
X0181664Y0084177D01*
X0181642Y0084144D01*
X0181617Y0084114D01*
X0181589Y0084087D01*
X0181558Y0084062D01*
X0181525Y0084041D01*
X0181490Y0084023D01*
X0181453Y0084009D01*
X0181416Y0083998D01*
X0181377Y0083991D01*
X0181338Y0083988D01*
X0181299Y0083989D01*
X0181260Y0083994D01*
X0181221Y0084003D01*
X0181184Y0084015D01*
X0181148Y0084031D01*
X0181114Y0084051D01*
X0181082Y0084074D01*
X0181053Y0084100D01*
X0181026Y0084129D01*
X0181002Y0084160D01*
X0180982Y0084194D01*
X0180965Y0084229D01*
X0180952Y0084266D01*
X0180942Y0084304D01*
X0180936Y0084343D01*
X0180934Y0084382D01*
X0146663Y0115582D02*
X0146665Y0115621D01*
X0146671Y0115660D01*
X0146681Y0115698D01*
X0146694Y0115735D01*
X0146711Y0115770D01*
X0146731Y0115804D01*
X0146755Y0115835D01*
X0146782Y0115864D01*
X0146811Y0115890D01*
X0146843Y0115913D01*
X0146877Y0115933D01*
X0146913Y0115949D01*
X0146950Y0115961D01*
X0146989Y0115970D01*
X0147028Y0115975D01*
X0147067Y0115976D01*
X0147106Y0115973D01*
X0147145Y0115966D01*
X0147182Y0115955D01*
X0147219Y0115941D01*
X0147254Y0115923D01*
X0147287Y0115902D01*
X0147318Y0115877D01*
X0147346Y0115850D01*
X0147371Y0115820D01*
X0147393Y0115787D01*
X0147412Y0115753D01*
X0147427Y0115717D01*
X0147439Y0115679D01*
X0147447Y0115641D01*
X0147451Y0115602D01*
X0147451Y0115562D01*
X0147447Y0115523D01*
X0147439Y0115485D01*
X0147427Y0115447D01*
X0147412Y0115411D01*
X0147393Y0115377D01*
X0147371Y0115344D01*
X0147346Y0115314D01*
X0147318Y0115287D01*
X0147287Y0115262D01*
X0147254Y0115241D01*
X0147219Y0115223D01*
X0147182Y0115209D01*
X0147145Y0115198D01*
X0147106Y0115191D01*
X0147067Y0115188D01*
X0147028Y0115189D01*
X0146989Y0115194D01*
X0146950Y0115203D01*
X0146913Y0115215D01*
X0146877Y0115231D01*
X0146843Y0115251D01*
X0146811Y0115274D01*
X0146782Y0115300D01*
X0146755Y0115329D01*
X0146731Y0115360D01*
X0146711Y0115394D01*
X0146694Y0115429D01*
X0146681Y0115466D01*
X0146671Y0115504D01*
X0146665Y0115543D01*
X0146663Y0115582D01*
X0148947Y0406664D02*
X0148949Y0406703D01*
X0148955Y0406742D01*
X0148965Y0406780D01*
X0148978Y0406817D01*
X0148995Y0406852D01*
X0149015Y0406886D01*
X0149039Y0406917D01*
X0149066Y0406946D01*
X0149095Y0406972D01*
X0149127Y0406995D01*
X0149161Y0407015D01*
X0149197Y0407031D01*
X0149234Y0407043D01*
X0149273Y0407052D01*
X0149312Y0407057D01*
X0149351Y0407058D01*
X0149390Y0407055D01*
X0149429Y0407048D01*
X0149466Y0407037D01*
X0149503Y0407023D01*
X0149538Y0407005D01*
X0149571Y0406984D01*
X0149602Y0406959D01*
X0149630Y0406932D01*
X0149655Y0406902D01*
X0149677Y0406869D01*
X0149696Y0406835D01*
X0149711Y0406799D01*
X0149723Y0406761D01*
X0149731Y0406723D01*
X0149735Y0406684D01*
X0149735Y0406644D01*
X0149731Y0406605D01*
X0149723Y0406567D01*
X0149711Y0406529D01*
X0149696Y0406493D01*
X0149677Y0406459D01*
X0149655Y0406426D01*
X0149630Y0406396D01*
X0149602Y0406369D01*
X0149571Y0406344D01*
X0149538Y0406323D01*
X0149503Y0406305D01*
X0149466Y0406291D01*
X0149429Y0406280D01*
X0149390Y0406273D01*
X0149351Y0406270D01*
X0149312Y0406271D01*
X0149273Y0406276D01*
X0149234Y0406285D01*
X0149197Y0406297D01*
X0149161Y0406313D01*
X0149127Y0406333D01*
X0149095Y0406356D01*
X0149066Y0406382D01*
X0149039Y0406411D01*
X0149015Y0406442D01*
X0148995Y0406476D01*
X0148978Y0406511D01*
X0148965Y0406548D01*
X0148955Y0406586D01*
X0148949Y0406625D01*
X0148947Y0406664D01*
X0190265Y0427431D02*
X0190267Y0427470D01*
X0190273Y0427509D01*
X0190283Y0427547D01*
X0190296Y0427584D01*
X0190313Y0427619D01*
X0190333Y0427653D01*
X0190357Y0427684D01*
X0190384Y0427713D01*
X0190413Y0427739D01*
X0190445Y0427762D01*
X0190479Y0427782D01*
X0190515Y0427798D01*
X0190552Y0427810D01*
X0190591Y0427819D01*
X0190630Y0427824D01*
X0190669Y0427825D01*
X0190708Y0427822D01*
X0190747Y0427815D01*
X0190784Y0427804D01*
X0190821Y0427790D01*
X0190856Y0427772D01*
X0190889Y0427751D01*
X0190920Y0427726D01*
X0190948Y0427699D01*
X0190973Y0427669D01*
X0190995Y0427636D01*
X0191014Y0427602D01*
X0191029Y0427566D01*
X0191041Y0427528D01*
X0191049Y0427490D01*
X0191053Y0427451D01*
X0191053Y0427411D01*
X0191049Y0427372D01*
X0191041Y0427334D01*
X0191029Y0427296D01*
X0191014Y0427260D01*
X0190995Y0427226D01*
X0190973Y0427193D01*
X0190948Y0427163D01*
X0190920Y0427136D01*
X0190889Y0427111D01*
X0190856Y0427090D01*
X0190821Y0427072D01*
X0190784Y0427058D01*
X0190747Y0427047D01*
X0190708Y0427040D01*
X0190669Y0427037D01*
X0190630Y0427038D01*
X0190591Y0427043D01*
X0190552Y0427052D01*
X0190515Y0427064D01*
X0190479Y0427080D01*
X0190445Y0427100D01*
X0190413Y0427123D01*
X0190384Y0427149D01*
X0190357Y0427178D01*
X0190333Y0427209D01*
X0190313Y0427243D01*
X0190296Y0427278D01*
X0190283Y0427315D01*
X0190273Y0427353D01*
X0190267Y0427392D01*
X0190265Y0427431D01*
D18*
X0252087Y0260355D02*
X0252089Y0260394D01*
X0252095Y0260433D01*
X0252105Y0260471D01*
X0252118Y0260508D01*
X0252135Y0260543D01*
X0252155Y0260577D01*
X0252179Y0260608D01*
X0252206Y0260637D01*
X0252235Y0260663D01*
X0252267Y0260686D01*
X0252301Y0260706D01*
X0252337Y0260722D01*
X0252374Y0260734D01*
X0252413Y0260743D01*
X0252452Y0260748D01*
X0252491Y0260749D01*
X0252530Y0260746D01*
X0252569Y0260739D01*
X0252606Y0260728D01*
X0252643Y0260714D01*
X0252678Y0260696D01*
X0252711Y0260675D01*
X0252742Y0260650D01*
X0252770Y0260623D01*
X0252795Y0260593D01*
X0252817Y0260560D01*
X0252836Y0260526D01*
X0252851Y0260490D01*
X0252863Y0260452D01*
X0252871Y0260414D01*
X0252875Y0260375D01*
X0252875Y0260335D01*
X0252871Y0260296D01*
X0252863Y0260258D01*
X0252851Y0260220D01*
X0252836Y0260184D01*
X0252817Y0260150D01*
X0252795Y0260117D01*
X0252770Y0260087D01*
X0252742Y0260060D01*
X0252711Y0260035D01*
X0252678Y0260014D01*
X0252643Y0259996D01*
X0252606Y0259982D01*
X0252569Y0259971D01*
X0252530Y0259964D01*
X0252491Y0259961D01*
X0252452Y0259962D01*
X0252413Y0259967D01*
X0252374Y0259976D01*
X0252337Y0259988D01*
X0252301Y0260004D01*
X0252267Y0260024D01*
X0252235Y0260047D01*
X0252206Y0260073D01*
X0252179Y0260102D01*
X0252155Y0260133D01*
X0252135Y0260167D01*
X0252118Y0260202D01*
X0252105Y0260239D01*
X0252095Y0260277D01*
X0252089Y0260316D01*
X0252087Y0260355D01*
D19*
X0321024Y0176150D02*
X0327402Y0176150D01*
X0327402Y0175780D01*
X0327402Y0172607D02*
X0327402Y0168497D01*
X0327402Y0165324D02*
X0327402Y0164954D01*
X0321024Y0164954D01*
X0321024Y0165324D01*
X0321024Y0168497D02*
X0321024Y0168867D01*
X0321024Y0172237D02*
X0321024Y0172607D01*
X0321024Y0175780D02*
X0321024Y0176150D01*
X0148764Y0275841D02*
X0145828Y0275841D01*
X0147296Y0275841D02*
X0147296Y0280245D01*
X0145828Y0278777D01*
X0144160Y0280245D02*
X0144160Y0276575D01*
X0143426Y0275841D01*
X0141958Y0275841D01*
X0141224Y0276575D01*
X0141224Y0280245D01*
D20*
X0335163Y0317957D02*
X0335165Y0318013D01*
X0335171Y0318068D01*
X0335181Y0318122D01*
X0335194Y0318176D01*
X0335212Y0318229D01*
X0335233Y0318280D01*
X0335257Y0318330D01*
X0335285Y0318378D01*
X0335317Y0318424D01*
X0335351Y0318468D01*
X0335389Y0318509D01*
X0335429Y0318547D01*
X0335472Y0318582D01*
X0335517Y0318614D01*
X0335565Y0318643D01*
X0335614Y0318669D01*
X0335665Y0318691D01*
X0335717Y0318709D01*
X0335771Y0318723D01*
X0335826Y0318734D01*
X0335881Y0318741D01*
X0335936Y0318744D01*
X0335992Y0318743D01*
X0336047Y0318738D01*
X0336102Y0318729D01*
X0336156Y0318717D01*
X0336209Y0318700D01*
X0336261Y0318680D01*
X0336311Y0318656D01*
X0336359Y0318629D01*
X0336406Y0318599D01*
X0336450Y0318565D01*
X0336492Y0318528D01*
X0336530Y0318488D01*
X0336567Y0318446D01*
X0336600Y0318401D01*
X0336629Y0318355D01*
X0336656Y0318306D01*
X0336678Y0318255D01*
X0336698Y0318203D01*
X0336713Y0318149D01*
X0336725Y0318095D01*
X0336733Y0318040D01*
X0336737Y0317985D01*
X0336737Y0317929D01*
X0336733Y0317874D01*
X0336725Y0317819D01*
X0336713Y0317765D01*
X0336698Y0317711D01*
X0336678Y0317659D01*
X0336656Y0317608D01*
X0336629Y0317559D01*
X0336600Y0317513D01*
X0336567Y0317468D01*
X0336530Y0317426D01*
X0336492Y0317386D01*
X0336450Y0317349D01*
X0336406Y0317315D01*
X0336359Y0317285D01*
X0336311Y0317258D01*
X0336261Y0317234D01*
X0336209Y0317214D01*
X0336156Y0317197D01*
X0336102Y0317185D01*
X0336047Y0317176D01*
X0335992Y0317171D01*
X0335936Y0317170D01*
X0335881Y0317173D01*
X0335826Y0317180D01*
X0335771Y0317191D01*
X0335717Y0317205D01*
X0335665Y0317223D01*
X0335614Y0317245D01*
X0335565Y0317271D01*
X0335517Y0317300D01*
X0335472Y0317332D01*
X0335429Y0317367D01*
X0335389Y0317405D01*
X0335351Y0317446D01*
X0335317Y0317490D01*
X0335285Y0317536D01*
X0335257Y0317584D01*
X0335233Y0317634D01*
X0335212Y0317685D01*
X0335194Y0317738D01*
X0335181Y0317792D01*
X0335171Y0317846D01*
X0335165Y0317901D01*
X0335163Y0317957D01*
M02*
