%
M48
M72
T01C0.01500
T02C0.02362
T03C0.03937
T04C0.04000
T05C0.04331
T06C0.05512
%
T01
X163702Y98741
X175513Y84961
X206024Y121379
X240473Y169607
X180434Y225709
X168623Y226694
X160749Y244410
X184371Y249331
X190276Y237520
X197166Y235552
X207009Y231615
X207009Y248347
X210946Y252284
X208977Y259174
X203072Y258190
X200119Y266064
X201103Y271969
X223741Y271969
X247363Y299528
X285749Y281812
X325119Y322166
X338898Y357599
X308387Y371379
X327087Y396969
X353662Y413702
X342835Y427481
X277875Y345788
X220788Y349725
X150906Y303465
X166654Y269017
X165670Y423544
X197166Y427481
X374331Y268032
X324135Y217835
X350709Y160749
X388111Y146969
X390080Y170591
X343820Y91851
T02
X437946Y175481
X443552Y183044
X392599Y206288
X384044Y200300
X338741Y210643
X314048Y229398
X274957Y247828
X274603Y259816
X258347Y275497
X247363Y273957
X229229Y254702
X232627Y247481
X239725Y249631
X222485Y247662
X165564Y249784
X131906Y251615
X131989Y244678
X131871Y237879
X131930Y231139
X124831Y230839
X117973Y230603
X111351Y230422
X105028Y230245
X98524Y230304
X98347Y237044
X98524Y243902
X99115Y269894
X105564Y269772
X111977Y269643
X118473Y269434
X125131Y269560
X131749Y269477
X131906Y263005
X181694Y349709
T03
X257206Y199706
X267206Y199706
T04
X262954Y82442
X272954Y82442
X282954Y82442
X252954Y82442
X242954Y82442
X232954Y82442
X243308Y354922
X253308Y354922
X263308Y354922
X263308Y364922
X253308Y364922
X243308Y364922
X244017Y441221
X254017Y441221
X264017Y441221
X274017Y441221
X284017Y441221
X234017Y441221
T05
X443583Y302599
X443583Y292599
X443583Y282599
X443583Y272599
X443583Y262599
X443583Y252599
X443583Y242599
X443583Y232599
X443583Y222599
X443583Y212599
X261709Y176717
X261709Y166717
T06
X286143Y209765
X228269Y209765
X228269Y304646
X286143Y304646
M30
