%
M48
M72
T01C0.01378
T02C0.01500
T03C0.03937
T04C0.04000
T05C0.04331
T06C0.05512
%
T01
X167662Y153831
X164044Y216957
X159835Y250355
X128339Y250993
X128095Y242249
X124985Y234355
X115587Y233942
X107591Y233942
X99418Y233706
X127863Y262761
X123020Y269765
X115241Y269942
X107520Y270001
X99548Y270048
X146028Y326879
X153072Y384788
X252753Y287580
X235493Y273221
X225528Y255477
X237879Y251481
X249509Y241363
X263044Y241631
X273761Y259792
X354339Y193954
X378052Y159135
X392623Y244320
X377489Y340729
T02
X163702Y98741
X187324Y84961
X181418Y132206
X163702Y140080
X181418Y178465
X222757Y168623
X215867Y229646
X222757Y231615
X213898Y237520
X201103Y238505
X197166Y254253
X184371Y254253
X180434Y258190
X170591Y258190
X174528Y250316
X158780Y244410
X168623Y231615
X173544Y229646
X148938Y221772
X166654Y270001
X176497Y282796
X188308Y287717
X195198Y285749
X207993Y286733
X217835Y273938
X213898Y264095
X216851Y259174
X221772Y250316
X201103Y270001
X184371Y270001
X223741Y309371
X168623Y339883
X158780Y371379
X165670Y374331
X184371Y421576
X165670Y423544
X336930Y424528
X342835Y424528
X354646Y277875
X362520Y235552
X367442Y222757
X337914Y227678
X337914Y174528
X394017Y149922
X402875Y158780
X343820Y91851
X411733Y272954
T03
X267206Y199706
X257206Y199706
T04
X252954Y82442
X262954Y82442
X272954Y82442
X282954Y82442
X242954Y82442
X232954Y82442
X243308Y354922
X253308Y354922
X263308Y354922
X263308Y364922
X253308Y364922
X243308Y364922
X244017Y441221
X254017Y441221
X264017Y441221
X274017Y441221
X284017Y441221
X234017Y441221
T05
X443583Y302599
X443583Y292599
X443583Y282599
X443583Y272599
X443583Y262599
X443583Y252599
X443583Y242599
X443583Y232599
X443583Y222599
X443583Y212599
X261709Y176717
X261709Y166717
T06
X286143Y209765
X228269Y209765
X228269Y304646
X286143Y304646
M30
