G75*
%MOIN*%
%OFA0B0*%
%FSLAX25Y25*%
%IPPOS*%
%LPD*%
%AMOC8*
5,1,8,0,0,1.08239X$1,22.5*
%
%ADD10C,0.00039*%
%ADD11C,0.00300*%
%ADD12C,0.00800*%
%ADD13C,0.00400*%
%ADD14C,0.00500*%
%ADD15C,0.00000*%
%ADD16C,0.00472*%
%ADD17C,0.00787*%
%ADD18C,0.00827*%
%ADD19C,0.00600*%
D10*
X0032796Y0056418D02*
X0039883Y0056418D01*
X0056418Y0032796D02*
X0056989Y0032803D01*
X0057559Y0032824D01*
X0058129Y0032858D01*
X0058698Y0032906D01*
X0059265Y0032968D01*
X0059831Y0033044D01*
X0060395Y0033133D01*
X0060956Y0033236D01*
X0061515Y0033353D01*
X0062071Y0033482D01*
X0062624Y0033626D01*
X0063173Y0033782D01*
X0063718Y0033952D01*
X0064258Y0034135D01*
X0064794Y0034331D01*
X0065326Y0034540D01*
X0065852Y0034762D01*
X0066372Y0034996D01*
X0066887Y0035243D01*
X0067396Y0035502D01*
X0067898Y0035773D01*
X0068393Y0036057D01*
X0068882Y0036352D01*
X0069363Y0036659D01*
X0069837Y0036977D01*
X0070303Y0037307D01*
X0070760Y0037648D01*
X0071210Y0038001D01*
X0071650Y0038363D01*
X0072082Y0038737D01*
X0072505Y0039120D01*
X0072918Y0039514D01*
X0073322Y0039918D01*
X0073716Y0040331D01*
X0074099Y0040754D01*
X0074473Y0041186D01*
X0074835Y0041626D01*
X0075188Y0042076D01*
X0075529Y0042533D01*
X0075859Y0042999D01*
X0076177Y0043473D01*
X0076484Y0043954D01*
X0076779Y0044443D01*
X0077063Y0044938D01*
X0077334Y0045440D01*
X0077593Y0045949D01*
X0077840Y0046464D01*
X0078074Y0046984D01*
X0078296Y0047510D01*
X0078505Y0048042D01*
X0078701Y0048578D01*
X0078884Y0049118D01*
X0079054Y0049663D01*
X0079210Y0050212D01*
X0079354Y0050765D01*
X0079483Y0051321D01*
X0079600Y0051880D01*
X0079703Y0052441D01*
X0079792Y0053005D01*
X0079868Y0053571D01*
X0079930Y0054138D01*
X0079978Y0054707D01*
X0080012Y0055277D01*
X0080033Y0055847D01*
X0080040Y0056418D01*
X0131221Y0107599D01*
X0178465Y0060355D01*
X0335946Y0060355D01*
X0383190Y0107599D01*
X0434371Y0056418D01*
X0434378Y0055847D01*
X0434399Y0055277D01*
X0434433Y0054707D01*
X0434481Y0054138D01*
X0434543Y0053571D01*
X0434619Y0053005D01*
X0434708Y0052441D01*
X0434811Y0051880D01*
X0434928Y0051321D01*
X0435057Y0050765D01*
X0435201Y0050212D01*
X0435357Y0049663D01*
X0435527Y0049118D01*
X0435710Y0048578D01*
X0435906Y0048042D01*
X0436115Y0047510D01*
X0436337Y0046984D01*
X0436571Y0046464D01*
X0436818Y0045949D01*
X0437077Y0045440D01*
X0437348Y0044938D01*
X0437632Y0044443D01*
X0437927Y0043954D01*
X0438234Y0043473D01*
X0438552Y0042999D01*
X0438882Y0042533D01*
X0439223Y0042076D01*
X0439576Y0041626D01*
X0439938Y0041186D01*
X0440312Y0040754D01*
X0440695Y0040331D01*
X0441089Y0039918D01*
X0441493Y0039514D01*
X0441906Y0039120D01*
X0442329Y0038737D01*
X0442761Y0038363D01*
X0443201Y0038001D01*
X0443651Y0037648D01*
X0444108Y0037307D01*
X0444574Y0036977D01*
X0445048Y0036659D01*
X0445529Y0036352D01*
X0446018Y0036057D01*
X0446513Y0035773D01*
X0447015Y0035502D01*
X0447524Y0035243D01*
X0448039Y0034996D01*
X0448559Y0034762D01*
X0449085Y0034540D01*
X0449617Y0034331D01*
X0450153Y0034135D01*
X0450693Y0033952D01*
X0451238Y0033782D01*
X0451787Y0033626D01*
X0452340Y0033482D01*
X0452896Y0033353D01*
X0453455Y0033236D01*
X0454016Y0033133D01*
X0454580Y0033044D01*
X0455146Y0032968D01*
X0455713Y0032906D01*
X0456282Y0032858D01*
X0456852Y0032824D01*
X0457422Y0032803D01*
X0457993Y0032796D01*
X0457993Y0039883D01*
X0481615Y0056418D02*
X0481608Y0056989D01*
X0481587Y0057559D01*
X0481553Y0058129D01*
X0481505Y0058698D01*
X0481443Y0059265D01*
X0481367Y0059831D01*
X0481278Y0060395D01*
X0481175Y0060956D01*
X0481058Y0061515D01*
X0480929Y0062071D01*
X0480785Y0062624D01*
X0480629Y0063173D01*
X0480459Y0063718D01*
X0480276Y0064258D01*
X0480080Y0064794D01*
X0479871Y0065326D01*
X0479649Y0065852D01*
X0479415Y0066372D01*
X0479168Y0066887D01*
X0478909Y0067396D01*
X0478638Y0067898D01*
X0478354Y0068393D01*
X0478059Y0068882D01*
X0477752Y0069363D01*
X0477434Y0069837D01*
X0477104Y0070303D01*
X0476763Y0070760D01*
X0476410Y0071210D01*
X0476048Y0071650D01*
X0475674Y0072082D01*
X0475291Y0072505D01*
X0474897Y0072918D01*
X0474493Y0073322D01*
X0474080Y0073716D01*
X0473657Y0074099D01*
X0473225Y0074473D01*
X0472785Y0074835D01*
X0472335Y0075188D01*
X0471878Y0075529D01*
X0471412Y0075859D01*
X0470938Y0076177D01*
X0470457Y0076484D01*
X0469968Y0076779D01*
X0469473Y0077063D01*
X0468971Y0077334D01*
X0468462Y0077593D01*
X0467947Y0077840D01*
X0467427Y0078074D01*
X0466901Y0078296D01*
X0466369Y0078505D01*
X0465833Y0078701D01*
X0465293Y0078884D01*
X0464748Y0079054D01*
X0464199Y0079210D01*
X0463646Y0079354D01*
X0463090Y0079483D01*
X0462531Y0079600D01*
X0461970Y0079703D01*
X0461406Y0079792D01*
X0460840Y0079868D01*
X0460273Y0079930D01*
X0459704Y0079978D01*
X0459134Y0080012D01*
X0458564Y0080033D01*
X0457993Y0080040D01*
X0406812Y0131221D01*
X0454056Y0178465D01*
X0454056Y0335946D01*
X0406812Y0383190D01*
X0457993Y0434371D01*
X0458564Y0434378D01*
X0459134Y0434399D01*
X0459704Y0434433D01*
X0460273Y0434481D01*
X0460840Y0434543D01*
X0461406Y0434619D01*
X0461970Y0434708D01*
X0462531Y0434811D01*
X0463090Y0434928D01*
X0463646Y0435057D01*
X0464199Y0435201D01*
X0464748Y0435357D01*
X0465293Y0435527D01*
X0465833Y0435710D01*
X0466369Y0435906D01*
X0466901Y0436115D01*
X0467427Y0436337D01*
X0467947Y0436571D01*
X0468462Y0436818D01*
X0468971Y0437077D01*
X0469473Y0437348D01*
X0469968Y0437632D01*
X0470457Y0437927D01*
X0470938Y0438234D01*
X0471412Y0438552D01*
X0471878Y0438882D01*
X0472335Y0439223D01*
X0472785Y0439576D01*
X0473225Y0439938D01*
X0473657Y0440312D01*
X0474080Y0440695D01*
X0474493Y0441089D01*
X0474897Y0441493D01*
X0475291Y0441906D01*
X0475674Y0442329D01*
X0476048Y0442761D01*
X0476410Y0443201D01*
X0476763Y0443651D01*
X0477104Y0444108D01*
X0477434Y0444574D01*
X0477752Y0445048D01*
X0478059Y0445529D01*
X0478354Y0446018D01*
X0478638Y0446513D01*
X0478909Y0447015D01*
X0479168Y0447524D01*
X0479415Y0448039D01*
X0479649Y0448559D01*
X0479871Y0449085D01*
X0480080Y0449617D01*
X0480276Y0450153D01*
X0480459Y0450693D01*
X0480629Y0451238D01*
X0480785Y0451787D01*
X0480929Y0452340D01*
X0481058Y0452896D01*
X0481175Y0453455D01*
X0481278Y0454016D01*
X0481367Y0454580D01*
X0481443Y0455146D01*
X0481505Y0455713D01*
X0481553Y0456282D01*
X0481587Y0456852D01*
X0481608Y0457422D01*
X0481615Y0457993D01*
X0474528Y0457993D01*
X0457993Y0481615D02*
X0457422Y0481608D01*
X0456852Y0481587D01*
X0456282Y0481553D01*
X0455713Y0481505D01*
X0455146Y0481443D01*
X0454580Y0481367D01*
X0454016Y0481278D01*
X0453455Y0481175D01*
X0452896Y0481058D01*
X0452340Y0480929D01*
X0451787Y0480785D01*
X0451238Y0480629D01*
X0450693Y0480459D01*
X0450153Y0480276D01*
X0449617Y0480080D01*
X0449085Y0479871D01*
X0448559Y0479649D01*
X0448039Y0479415D01*
X0447524Y0479168D01*
X0447015Y0478909D01*
X0446513Y0478638D01*
X0446018Y0478354D01*
X0445529Y0478059D01*
X0445048Y0477752D01*
X0444574Y0477434D01*
X0444108Y0477104D01*
X0443651Y0476763D01*
X0443201Y0476410D01*
X0442761Y0476048D01*
X0442329Y0475674D01*
X0441906Y0475291D01*
X0441493Y0474897D01*
X0441089Y0474493D01*
X0440695Y0474080D01*
X0440312Y0473657D01*
X0439938Y0473225D01*
X0439576Y0472785D01*
X0439223Y0472335D01*
X0438882Y0471878D01*
X0438552Y0471412D01*
X0438234Y0470938D01*
X0437927Y0470457D01*
X0437632Y0469968D01*
X0437348Y0469473D01*
X0437077Y0468971D01*
X0436818Y0468462D01*
X0436571Y0467947D01*
X0436337Y0467427D01*
X0436115Y0466901D01*
X0435906Y0466369D01*
X0435710Y0465833D01*
X0435527Y0465293D01*
X0435357Y0464748D01*
X0435201Y0464199D01*
X0435057Y0463646D01*
X0434928Y0463090D01*
X0434811Y0462531D01*
X0434708Y0461970D01*
X0434619Y0461406D01*
X0434543Y0460840D01*
X0434481Y0460273D01*
X0434433Y0459704D01*
X0434399Y0459134D01*
X0434378Y0458564D01*
X0434371Y0457993D01*
X0383190Y0406812D01*
X0335946Y0454056D01*
X0178465Y0454056D01*
X0131221Y0406812D01*
X0080040Y0457993D01*
X0080033Y0458564D01*
X0080012Y0459134D01*
X0079978Y0459704D01*
X0079930Y0460273D01*
X0079868Y0460840D01*
X0079792Y0461406D01*
X0079703Y0461970D01*
X0079600Y0462531D01*
X0079483Y0463090D01*
X0079354Y0463646D01*
X0079210Y0464199D01*
X0079054Y0464748D01*
X0078884Y0465293D01*
X0078701Y0465833D01*
X0078505Y0466369D01*
X0078296Y0466901D01*
X0078074Y0467427D01*
X0077840Y0467947D01*
X0077593Y0468462D01*
X0077334Y0468971D01*
X0077063Y0469473D01*
X0076779Y0469968D01*
X0076484Y0470457D01*
X0076177Y0470938D01*
X0075859Y0471412D01*
X0075529Y0471878D01*
X0075188Y0472335D01*
X0074835Y0472785D01*
X0074473Y0473225D01*
X0074099Y0473657D01*
X0073716Y0474080D01*
X0073322Y0474493D01*
X0072918Y0474897D01*
X0072505Y0475291D01*
X0072082Y0475674D01*
X0071650Y0476048D01*
X0071210Y0476410D01*
X0070760Y0476763D01*
X0070303Y0477104D01*
X0069837Y0477434D01*
X0069363Y0477752D01*
X0068882Y0478059D01*
X0068393Y0478354D01*
X0067898Y0478638D01*
X0067396Y0478909D01*
X0066887Y0479168D01*
X0066372Y0479415D01*
X0065852Y0479649D01*
X0065326Y0479871D01*
X0064794Y0480080D01*
X0064258Y0480276D01*
X0063718Y0480459D01*
X0063173Y0480629D01*
X0062624Y0480785D01*
X0062071Y0480929D01*
X0061515Y0481058D01*
X0060956Y0481175D01*
X0060395Y0481278D01*
X0059831Y0481367D01*
X0059265Y0481443D01*
X0058698Y0481505D01*
X0058129Y0481553D01*
X0057559Y0481587D01*
X0056989Y0481608D01*
X0056418Y0481615D01*
X0056418Y0474528D01*
X0032796Y0457993D02*
X0032803Y0457422D01*
X0032824Y0456852D01*
X0032858Y0456282D01*
X0032906Y0455713D01*
X0032968Y0455146D01*
X0033044Y0454580D01*
X0033133Y0454016D01*
X0033236Y0453455D01*
X0033353Y0452896D01*
X0033482Y0452340D01*
X0033626Y0451787D01*
X0033782Y0451238D01*
X0033952Y0450693D01*
X0034135Y0450153D01*
X0034331Y0449617D01*
X0034540Y0449085D01*
X0034762Y0448559D01*
X0034996Y0448039D01*
X0035243Y0447524D01*
X0035502Y0447015D01*
X0035773Y0446513D01*
X0036057Y0446018D01*
X0036352Y0445529D01*
X0036659Y0445048D01*
X0036977Y0444574D01*
X0037307Y0444108D01*
X0037648Y0443651D01*
X0038001Y0443201D01*
X0038363Y0442761D01*
X0038737Y0442329D01*
X0039120Y0441906D01*
X0039514Y0441493D01*
X0039918Y0441089D01*
X0040331Y0440695D01*
X0040754Y0440312D01*
X0041186Y0439938D01*
X0041626Y0439576D01*
X0042076Y0439223D01*
X0042533Y0438882D01*
X0042999Y0438552D01*
X0043473Y0438234D01*
X0043954Y0437927D01*
X0044443Y0437632D01*
X0044938Y0437348D01*
X0045440Y0437077D01*
X0045949Y0436818D01*
X0046464Y0436571D01*
X0046984Y0436337D01*
X0047510Y0436115D01*
X0048042Y0435906D01*
X0048578Y0435710D01*
X0049118Y0435527D01*
X0049663Y0435357D01*
X0050212Y0435201D01*
X0050765Y0435057D01*
X0051321Y0434928D01*
X0051880Y0434811D01*
X0052441Y0434708D01*
X0053005Y0434619D01*
X0053571Y0434543D01*
X0054138Y0434481D01*
X0054707Y0434433D01*
X0055277Y0434399D01*
X0055847Y0434378D01*
X0056418Y0434371D01*
X0107599Y0383190D01*
X0060355Y0335946D01*
X0060355Y0178465D01*
X0107599Y0131221D01*
X0056418Y0080040D01*
X0055847Y0080033D01*
X0055277Y0080012D01*
X0054707Y0079978D01*
X0054138Y0079930D01*
X0053571Y0079868D01*
X0053005Y0079792D01*
X0052441Y0079703D01*
X0051880Y0079600D01*
X0051321Y0079483D01*
X0050765Y0079354D01*
X0050212Y0079210D01*
X0049663Y0079054D01*
X0049118Y0078884D01*
X0048578Y0078701D01*
X0048042Y0078505D01*
X0047510Y0078296D01*
X0046984Y0078074D01*
X0046464Y0077840D01*
X0045949Y0077593D01*
X0045440Y0077334D01*
X0044938Y0077063D01*
X0044443Y0076779D01*
X0043954Y0076484D01*
X0043473Y0076177D01*
X0042999Y0075859D01*
X0042533Y0075529D01*
X0042076Y0075188D01*
X0041626Y0074835D01*
X0041186Y0074473D01*
X0040754Y0074099D01*
X0040331Y0073716D01*
X0039918Y0073322D01*
X0039514Y0072918D01*
X0039120Y0072505D01*
X0038737Y0072082D01*
X0038363Y0071650D01*
X0038001Y0071210D01*
X0037648Y0070760D01*
X0037307Y0070303D01*
X0036977Y0069837D01*
X0036659Y0069363D01*
X0036352Y0068882D01*
X0036057Y0068393D01*
X0035773Y0067898D01*
X0035502Y0067396D01*
X0035243Y0066887D01*
X0034996Y0066372D01*
X0034762Y0065852D01*
X0034540Y0065326D01*
X0034331Y0064794D01*
X0034135Y0064258D01*
X0033952Y0063718D01*
X0033782Y0063173D01*
X0033626Y0062624D01*
X0033482Y0062071D01*
X0033353Y0061515D01*
X0033236Y0060956D01*
X0033133Y0060395D01*
X0033044Y0059831D01*
X0032968Y0059265D01*
X0032906Y0058698D01*
X0032858Y0058129D01*
X0032824Y0057559D01*
X0032803Y0056989D01*
X0032796Y0056418D01*
X0039883Y0056418D02*
X0039888Y0056822D01*
X0039903Y0057225D01*
X0039927Y0057628D01*
X0039962Y0058030D01*
X0040006Y0058432D01*
X0040060Y0058832D01*
X0040124Y0059230D01*
X0040197Y0059627D01*
X0040281Y0060022D01*
X0040373Y0060415D01*
X0040476Y0060806D01*
X0040588Y0061194D01*
X0040709Y0061579D01*
X0040840Y0061961D01*
X0040980Y0062339D01*
X0041129Y0062715D01*
X0041287Y0063086D01*
X0041454Y0063453D01*
X0041631Y0063817D01*
X0041816Y0064175D01*
X0042009Y0064530D01*
X0042212Y0064879D01*
X0042423Y0065223D01*
X0042642Y0065562D01*
X0042869Y0065896D01*
X0043104Y0066224D01*
X0043348Y0066546D01*
X0043599Y0066862D01*
X0043858Y0067172D01*
X0044124Y0067475D01*
X0044398Y0067772D01*
X0044679Y0068062D01*
X0044966Y0068345D01*
X0045261Y0068622D01*
X0045562Y0068890D01*
X0045870Y0069152D01*
X0046184Y0069405D01*
X0046504Y0069651D01*
X0046830Y0069889D01*
X0047162Y0070119D01*
X0047499Y0070341D01*
X0047842Y0070555D01*
X0048189Y0070760D01*
X0048542Y0070957D01*
X0048899Y0071145D01*
X0049261Y0071324D01*
X0049627Y0071494D01*
X0049997Y0071655D01*
X0050371Y0071808D01*
X0050749Y0071951D01*
X0051130Y0072084D01*
X0051514Y0072209D01*
X0051901Y0072324D01*
X0052290Y0072429D01*
X0052682Y0072526D01*
X0053077Y0072612D01*
X0053473Y0072689D01*
X0053871Y0072756D01*
X0054271Y0072813D01*
X0054672Y0072861D01*
X0055074Y0072898D01*
X0055476Y0072926D01*
X0055880Y0072944D01*
X0056283Y0072952D01*
X0056687Y0072951D01*
X0057091Y0072939D01*
X0057494Y0072918D01*
X0057896Y0072887D01*
X0058298Y0072846D01*
X0058698Y0072795D01*
X0059098Y0072734D01*
X0059495Y0072664D01*
X0059891Y0072584D01*
X0060285Y0072495D01*
X0060676Y0072395D01*
X0061065Y0072287D01*
X0061451Y0072168D01*
X0061834Y0072041D01*
X0062214Y0071904D01*
X0062590Y0071758D01*
X0062963Y0071603D01*
X0063331Y0071438D01*
X0063696Y0071265D01*
X0064056Y0071083D01*
X0064412Y0070892D01*
X0064763Y0070693D01*
X0065109Y0070485D01*
X0065450Y0070268D01*
X0065785Y0070044D01*
X0066115Y0069811D01*
X0066439Y0069570D01*
X0066757Y0069322D01*
X0067069Y0069065D01*
X0067375Y0068801D01*
X0067674Y0068530D01*
X0067966Y0068252D01*
X0068252Y0067966D01*
X0068530Y0067674D01*
X0068801Y0067375D01*
X0069065Y0067069D01*
X0069322Y0066757D01*
X0069570Y0066439D01*
X0069811Y0066115D01*
X0070044Y0065785D01*
X0070268Y0065450D01*
X0070485Y0065109D01*
X0070693Y0064763D01*
X0070892Y0064412D01*
X0071083Y0064056D01*
X0071265Y0063696D01*
X0071438Y0063331D01*
X0071603Y0062963D01*
X0071758Y0062590D01*
X0071904Y0062214D01*
X0072041Y0061834D01*
X0072168Y0061451D01*
X0072287Y0061065D01*
X0072395Y0060676D01*
X0072495Y0060285D01*
X0072584Y0059891D01*
X0072664Y0059495D01*
X0072734Y0059098D01*
X0072795Y0058698D01*
X0072846Y0058298D01*
X0072887Y0057896D01*
X0072918Y0057494D01*
X0072939Y0057091D01*
X0072951Y0056687D01*
X0072952Y0056283D01*
X0072944Y0055880D01*
X0072926Y0055476D01*
X0072898Y0055074D01*
X0072861Y0054672D01*
X0072813Y0054271D01*
X0072756Y0053871D01*
X0072689Y0053473D01*
X0072612Y0053077D01*
X0072526Y0052682D01*
X0072429Y0052290D01*
X0072324Y0051901D01*
X0072209Y0051514D01*
X0072084Y0051130D01*
X0071951Y0050749D01*
X0071808Y0050371D01*
X0071655Y0049997D01*
X0071494Y0049627D01*
X0071324Y0049261D01*
X0071145Y0048899D01*
X0070957Y0048542D01*
X0070760Y0048189D01*
X0070555Y0047842D01*
X0070341Y0047499D01*
X0070119Y0047162D01*
X0069889Y0046830D01*
X0069651Y0046504D01*
X0069405Y0046184D01*
X0069152Y0045870D01*
X0068890Y0045562D01*
X0068622Y0045261D01*
X0068345Y0044966D01*
X0068062Y0044679D01*
X0067772Y0044398D01*
X0067475Y0044124D01*
X0067172Y0043858D01*
X0066862Y0043599D01*
X0066546Y0043348D01*
X0066224Y0043104D01*
X0065896Y0042869D01*
X0065562Y0042642D01*
X0065223Y0042423D01*
X0064879Y0042212D01*
X0064530Y0042009D01*
X0064175Y0041816D01*
X0063817Y0041631D01*
X0063453Y0041454D01*
X0063086Y0041287D01*
X0062715Y0041129D01*
X0062339Y0040980D01*
X0061961Y0040840D01*
X0061579Y0040709D01*
X0061194Y0040588D01*
X0060806Y0040476D01*
X0060415Y0040373D01*
X0060022Y0040281D01*
X0059627Y0040197D01*
X0059230Y0040124D01*
X0058832Y0040060D01*
X0058432Y0040006D01*
X0058030Y0039962D01*
X0057628Y0039927D01*
X0057225Y0039903D01*
X0056822Y0039888D01*
X0056418Y0039883D01*
X0056418Y0032796D01*
X0457993Y0039883D02*
X0457589Y0039888D01*
X0457186Y0039903D01*
X0456783Y0039927D01*
X0456381Y0039962D01*
X0455979Y0040006D01*
X0455579Y0040060D01*
X0455181Y0040124D01*
X0454784Y0040197D01*
X0454389Y0040281D01*
X0453996Y0040373D01*
X0453605Y0040476D01*
X0453217Y0040588D01*
X0452832Y0040709D01*
X0452450Y0040840D01*
X0452072Y0040980D01*
X0451696Y0041129D01*
X0451325Y0041287D01*
X0450958Y0041454D01*
X0450594Y0041631D01*
X0450236Y0041816D01*
X0449881Y0042009D01*
X0449532Y0042212D01*
X0449188Y0042423D01*
X0448849Y0042642D01*
X0448515Y0042869D01*
X0448187Y0043104D01*
X0447865Y0043348D01*
X0447549Y0043599D01*
X0447239Y0043858D01*
X0446936Y0044124D01*
X0446639Y0044398D01*
X0446349Y0044679D01*
X0446066Y0044966D01*
X0445789Y0045261D01*
X0445521Y0045562D01*
X0445259Y0045870D01*
X0445006Y0046184D01*
X0444760Y0046504D01*
X0444522Y0046830D01*
X0444292Y0047162D01*
X0444070Y0047499D01*
X0443856Y0047842D01*
X0443651Y0048189D01*
X0443454Y0048542D01*
X0443266Y0048899D01*
X0443087Y0049261D01*
X0442917Y0049627D01*
X0442756Y0049997D01*
X0442603Y0050371D01*
X0442460Y0050749D01*
X0442327Y0051130D01*
X0442202Y0051514D01*
X0442087Y0051901D01*
X0441982Y0052290D01*
X0441885Y0052682D01*
X0441799Y0053077D01*
X0441722Y0053473D01*
X0441655Y0053871D01*
X0441598Y0054271D01*
X0441550Y0054672D01*
X0441513Y0055074D01*
X0441485Y0055476D01*
X0441467Y0055880D01*
X0441459Y0056283D01*
X0441460Y0056687D01*
X0441472Y0057091D01*
X0441493Y0057494D01*
X0441524Y0057896D01*
X0441565Y0058298D01*
X0441616Y0058698D01*
X0441677Y0059098D01*
X0441747Y0059495D01*
X0441827Y0059891D01*
X0441916Y0060285D01*
X0442016Y0060676D01*
X0442124Y0061065D01*
X0442243Y0061451D01*
X0442370Y0061834D01*
X0442507Y0062214D01*
X0442653Y0062590D01*
X0442808Y0062963D01*
X0442973Y0063331D01*
X0443146Y0063696D01*
X0443328Y0064056D01*
X0443519Y0064412D01*
X0443718Y0064763D01*
X0443926Y0065109D01*
X0444143Y0065450D01*
X0444367Y0065785D01*
X0444600Y0066115D01*
X0444841Y0066439D01*
X0445089Y0066757D01*
X0445346Y0067069D01*
X0445610Y0067375D01*
X0445881Y0067674D01*
X0446159Y0067966D01*
X0446445Y0068252D01*
X0446737Y0068530D01*
X0447036Y0068801D01*
X0447342Y0069065D01*
X0447654Y0069322D01*
X0447972Y0069570D01*
X0448296Y0069811D01*
X0448626Y0070044D01*
X0448961Y0070268D01*
X0449302Y0070485D01*
X0449648Y0070693D01*
X0449999Y0070892D01*
X0450355Y0071083D01*
X0450715Y0071265D01*
X0451080Y0071438D01*
X0451448Y0071603D01*
X0451821Y0071758D01*
X0452197Y0071904D01*
X0452577Y0072041D01*
X0452960Y0072168D01*
X0453346Y0072287D01*
X0453735Y0072395D01*
X0454126Y0072495D01*
X0454520Y0072584D01*
X0454916Y0072664D01*
X0455313Y0072734D01*
X0455713Y0072795D01*
X0456113Y0072846D01*
X0456515Y0072887D01*
X0456917Y0072918D01*
X0457320Y0072939D01*
X0457724Y0072951D01*
X0458128Y0072952D01*
X0458531Y0072944D01*
X0458935Y0072926D01*
X0459337Y0072898D01*
X0459739Y0072861D01*
X0460140Y0072813D01*
X0460540Y0072756D01*
X0460938Y0072689D01*
X0461334Y0072612D01*
X0461729Y0072526D01*
X0462121Y0072429D01*
X0462510Y0072324D01*
X0462897Y0072209D01*
X0463281Y0072084D01*
X0463662Y0071951D01*
X0464040Y0071808D01*
X0464414Y0071655D01*
X0464784Y0071494D01*
X0465150Y0071324D01*
X0465512Y0071145D01*
X0465869Y0070957D01*
X0466222Y0070760D01*
X0466569Y0070555D01*
X0466912Y0070341D01*
X0467249Y0070119D01*
X0467581Y0069889D01*
X0467907Y0069651D01*
X0468227Y0069405D01*
X0468541Y0069152D01*
X0468849Y0068890D01*
X0469150Y0068622D01*
X0469445Y0068345D01*
X0469732Y0068062D01*
X0470013Y0067772D01*
X0470287Y0067475D01*
X0470553Y0067172D01*
X0470812Y0066862D01*
X0471063Y0066546D01*
X0471307Y0066224D01*
X0471542Y0065896D01*
X0471769Y0065562D01*
X0471988Y0065223D01*
X0472199Y0064879D01*
X0472402Y0064530D01*
X0472595Y0064175D01*
X0472780Y0063817D01*
X0472957Y0063453D01*
X0473124Y0063086D01*
X0473282Y0062715D01*
X0473431Y0062339D01*
X0473571Y0061961D01*
X0473702Y0061579D01*
X0473823Y0061194D01*
X0473935Y0060806D01*
X0474038Y0060415D01*
X0474130Y0060022D01*
X0474214Y0059627D01*
X0474287Y0059230D01*
X0474351Y0058832D01*
X0474405Y0058432D01*
X0474449Y0058030D01*
X0474484Y0057628D01*
X0474508Y0057225D01*
X0474523Y0056822D01*
X0474528Y0056418D01*
X0481615Y0056418D01*
X0474528Y0457993D02*
X0474523Y0457589D01*
X0474508Y0457186D01*
X0474484Y0456783D01*
X0474449Y0456381D01*
X0474405Y0455979D01*
X0474351Y0455579D01*
X0474287Y0455181D01*
X0474214Y0454784D01*
X0474130Y0454389D01*
X0474038Y0453996D01*
X0473935Y0453605D01*
X0473823Y0453217D01*
X0473702Y0452832D01*
X0473571Y0452450D01*
X0473431Y0452072D01*
X0473282Y0451696D01*
X0473124Y0451325D01*
X0472957Y0450958D01*
X0472780Y0450594D01*
X0472595Y0450236D01*
X0472402Y0449881D01*
X0472199Y0449532D01*
X0471988Y0449188D01*
X0471769Y0448849D01*
X0471542Y0448515D01*
X0471307Y0448187D01*
X0471063Y0447865D01*
X0470812Y0447549D01*
X0470553Y0447239D01*
X0470287Y0446936D01*
X0470013Y0446639D01*
X0469732Y0446349D01*
X0469445Y0446066D01*
X0469150Y0445789D01*
X0468849Y0445521D01*
X0468541Y0445259D01*
X0468227Y0445006D01*
X0467907Y0444760D01*
X0467581Y0444522D01*
X0467249Y0444292D01*
X0466912Y0444070D01*
X0466569Y0443856D01*
X0466222Y0443651D01*
X0465869Y0443454D01*
X0465512Y0443266D01*
X0465150Y0443087D01*
X0464784Y0442917D01*
X0464414Y0442756D01*
X0464040Y0442603D01*
X0463662Y0442460D01*
X0463281Y0442327D01*
X0462897Y0442202D01*
X0462510Y0442087D01*
X0462121Y0441982D01*
X0461729Y0441885D01*
X0461334Y0441799D01*
X0460938Y0441722D01*
X0460540Y0441655D01*
X0460140Y0441598D01*
X0459739Y0441550D01*
X0459337Y0441513D01*
X0458935Y0441485D01*
X0458531Y0441467D01*
X0458128Y0441459D01*
X0457724Y0441460D01*
X0457320Y0441472D01*
X0456917Y0441493D01*
X0456515Y0441524D01*
X0456113Y0441565D01*
X0455713Y0441616D01*
X0455313Y0441677D01*
X0454916Y0441747D01*
X0454520Y0441827D01*
X0454126Y0441916D01*
X0453735Y0442016D01*
X0453346Y0442124D01*
X0452960Y0442243D01*
X0452577Y0442370D01*
X0452197Y0442507D01*
X0451821Y0442653D01*
X0451448Y0442808D01*
X0451080Y0442973D01*
X0450715Y0443146D01*
X0450355Y0443328D01*
X0449999Y0443519D01*
X0449648Y0443718D01*
X0449302Y0443926D01*
X0448961Y0444143D01*
X0448626Y0444367D01*
X0448296Y0444600D01*
X0447972Y0444841D01*
X0447654Y0445089D01*
X0447342Y0445346D01*
X0447036Y0445610D01*
X0446737Y0445881D01*
X0446445Y0446159D01*
X0446159Y0446445D01*
X0445881Y0446737D01*
X0445610Y0447036D01*
X0445346Y0447342D01*
X0445089Y0447654D01*
X0444841Y0447972D01*
X0444600Y0448296D01*
X0444367Y0448626D01*
X0444143Y0448961D01*
X0443926Y0449302D01*
X0443718Y0449648D01*
X0443519Y0449999D01*
X0443328Y0450355D01*
X0443146Y0450715D01*
X0442973Y0451080D01*
X0442808Y0451448D01*
X0442653Y0451821D01*
X0442507Y0452197D01*
X0442370Y0452577D01*
X0442243Y0452960D01*
X0442124Y0453346D01*
X0442016Y0453735D01*
X0441916Y0454126D01*
X0441827Y0454520D01*
X0441747Y0454916D01*
X0441677Y0455313D01*
X0441616Y0455713D01*
X0441565Y0456113D01*
X0441524Y0456515D01*
X0441493Y0456917D01*
X0441472Y0457320D01*
X0441460Y0457724D01*
X0441459Y0458128D01*
X0441467Y0458531D01*
X0441485Y0458935D01*
X0441513Y0459337D01*
X0441550Y0459739D01*
X0441598Y0460140D01*
X0441655Y0460540D01*
X0441722Y0460938D01*
X0441799Y0461334D01*
X0441885Y0461729D01*
X0441982Y0462121D01*
X0442087Y0462510D01*
X0442202Y0462897D01*
X0442327Y0463281D01*
X0442460Y0463662D01*
X0442603Y0464040D01*
X0442756Y0464414D01*
X0442917Y0464784D01*
X0443087Y0465150D01*
X0443266Y0465512D01*
X0443454Y0465869D01*
X0443651Y0466222D01*
X0443856Y0466569D01*
X0444070Y0466912D01*
X0444292Y0467249D01*
X0444522Y0467581D01*
X0444760Y0467907D01*
X0445006Y0468227D01*
X0445259Y0468541D01*
X0445521Y0468849D01*
X0445789Y0469150D01*
X0446066Y0469445D01*
X0446349Y0469732D01*
X0446639Y0470013D01*
X0446936Y0470287D01*
X0447239Y0470553D01*
X0447549Y0470812D01*
X0447865Y0471063D01*
X0448187Y0471307D01*
X0448515Y0471542D01*
X0448849Y0471769D01*
X0449188Y0471988D01*
X0449532Y0472199D01*
X0449881Y0472402D01*
X0450236Y0472595D01*
X0450594Y0472780D01*
X0450958Y0472957D01*
X0451325Y0473124D01*
X0451696Y0473282D01*
X0452072Y0473431D01*
X0452450Y0473571D01*
X0452832Y0473702D01*
X0453217Y0473823D01*
X0453605Y0473935D01*
X0453996Y0474038D01*
X0454389Y0474130D01*
X0454784Y0474214D01*
X0455181Y0474287D01*
X0455579Y0474351D01*
X0455979Y0474405D01*
X0456381Y0474449D01*
X0456783Y0474484D01*
X0457186Y0474508D01*
X0457589Y0474523D01*
X0457993Y0474528D01*
X0457993Y0481615D01*
X0056418Y0474528D02*
X0056822Y0474523D01*
X0057225Y0474508D01*
X0057628Y0474484D01*
X0058030Y0474449D01*
X0058432Y0474405D01*
X0058832Y0474351D01*
X0059230Y0474287D01*
X0059627Y0474214D01*
X0060022Y0474130D01*
X0060415Y0474038D01*
X0060806Y0473935D01*
X0061194Y0473823D01*
X0061579Y0473702D01*
X0061961Y0473571D01*
X0062339Y0473431D01*
X0062715Y0473282D01*
X0063086Y0473124D01*
X0063453Y0472957D01*
X0063817Y0472780D01*
X0064175Y0472595D01*
X0064530Y0472402D01*
X0064879Y0472199D01*
X0065223Y0471988D01*
X0065562Y0471769D01*
X0065896Y0471542D01*
X0066224Y0471307D01*
X0066546Y0471063D01*
X0066862Y0470812D01*
X0067172Y0470553D01*
X0067475Y0470287D01*
X0067772Y0470013D01*
X0068062Y0469732D01*
X0068345Y0469445D01*
X0068622Y0469150D01*
X0068890Y0468849D01*
X0069152Y0468541D01*
X0069405Y0468227D01*
X0069651Y0467907D01*
X0069889Y0467581D01*
X0070119Y0467249D01*
X0070341Y0466912D01*
X0070555Y0466569D01*
X0070760Y0466222D01*
X0070957Y0465869D01*
X0071145Y0465512D01*
X0071324Y0465150D01*
X0071494Y0464784D01*
X0071655Y0464414D01*
X0071808Y0464040D01*
X0071951Y0463662D01*
X0072084Y0463281D01*
X0072209Y0462897D01*
X0072324Y0462510D01*
X0072429Y0462121D01*
X0072526Y0461729D01*
X0072612Y0461334D01*
X0072689Y0460938D01*
X0072756Y0460540D01*
X0072813Y0460140D01*
X0072861Y0459739D01*
X0072898Y0459337D01*
X0072926Y0458935D01*
X0072944Y0458531D01*
X0072952Y0458128D01*
X0072951Y0457724D01*
X0072939Y0457320D01*
X0072918Y0456917D01*
X0072887Y0456515D01*
X0072846Y0456113D01*
X0072795Y0455713D01*
X0072734Y0455313D01*
X0072664Y0454916D01*
X0072584Y0454520D01*
X0072495Y0454126D01*
X0072395Y0453735D01*
X0072287Y0453346D01*
X0072168Y0452960D01*
X0072041Y0452577D01*
X0071904Y0452197D01*
X0071758Y0451821D01*
X0071603Y0451448D01*
X0071438Y0451080D01*
X0071265Y0450715D01*
X0071083Y0450355D01*
X0070892Y0449999D01*
X0070693Y0449648D01*
X0070485Y0449302D01*
X0070268Y0448961D01*
X0070044Y0448626D01*
X0069811Y0448296D01*
X0069570Y0447972D01*
X0069322Y0447654D01*
X0069065Y0447342D01*
X0068801Y0447036D01*
X0068530Y0446737D01*
X0068252Y0446445D01*
X0067966Y0446159D01*
X0067674Y0445881D01*
X0067375Y0445610D01*
X0067069Y0445346D01*
X0066757Y0445089D01*
X0066439Y0444841D01*
X0066115Y0444600D01*
X0065785Y0444367D01*
X0065450Y0444143D01*
X0065109Y0443926D01*
X0064763Y0443718D01*
X0064412Y0443519D01*
X0064056Y0443328D01*
X0063696Y0443146D01*
X0063331Y0442973D01*
X0062963Y0442808D01*
X0062590Y0442653D01*
X0062214Y0442507D01*
X0061834Y0442370D01*
X0061451Y0442243D01*
X0061065Y0442124D01*
X0060676Y0442016D01*
X0060285Y0441916D01*
X0059891Y0441827D01*
X0059495Y0441747D01*
X0059098Y0441677D01*
X0058698Y0441616D01*
X0058298Y0441565D01*
X0057896Y0441524D01*
X0057494Y0441493D01*
X0057091Y0441472D01*
X0056687Y0441460D01*
X0056283Y0441459D01*
X0055880Y0441467D01*
X0055476Y0441485D01*
X0055074Y0441513D01*
X0054672Y0441550D01*
X0054271Y0441598D01*
X0053871Y0441655D01*
X0053473Y0441722D01*
X0053077Y0441799D01*
X0052682Y0441885D01*
X0052290Y0441982D01*
X0051901Y0442087D01*
X0051514Y0442202D01*
X0051130Y0442327D01*
X0050749Y0442460D01*
X0050371Y0442603D01*
X0049997Y0442756D01*
X0049627Y0442917D01*
X0049261Y0443087D01*
X0048899Y0443266D01*
X0048542Y0443454D01*
X0048189Y0443651D01*
X0047842Y0443856D01*
X0047499Y0444070D01*
X0047162Y0444292D01*
X0046830Y0444522D01*
X0046504Y0444760D01*
X0046184Y0445006D01*
X0045870Y0445259D01*
X0045562Y0445521D01*
X0045261Y0445789D01*
X0044966Y0446066D01*
X0044679Y0446349D01*
X0044398Y0446639D01*
X0044124Y0446936D01*
X0043858Y0447239D01*
X0043599Y0447549D01*
X0043348Y0447865D01*
X0043104Y0448187D01*
X0042869Y0448515D01*
X0042642Y0448849D01*
X0042423Y0449188D01*
X0042212Y0449532D01*
X0042009Y0449881D01*
X0041816Y0450236D01*
X0041631Y0450594D01*
X0041454Y0450958D01*
X0041287Y0451325D01*
X0041129Y0451696D01*
X0040980Y0452072D01*
X0040840Y0452450D01*
X0040709Y0452832D01*
X0040588Y0453217D01*
X0040476Y0453605D01*
X0040373Y0453996D01*
X0040281Y0454389D01*
X0040197Y0454784D01*
X0040124Y0455181D01*
X0040060Y0455579D01*
X0040006Y0455979D01*
X0039962Y0456381D01*
X0039927Y0456783D01*
X0039903Y0457186D01*
X0039888Y0457589D01*
X0039883Y0457993D01*
X0032796Y0457993D01*
D11*
X0137926Y0355010D02*
X0139419Y0355010D01*
X0139419Y0356503D01*
X0141659Y0354264D01*
X0142048Y0355399D02*
X0142795Y0355399D01*
X0143541Y0356146D01*
X0143541Y0356893D01*
X0142048Y0358386D01*
X0141302Y0358386D01*
X0140555Y0357639D01*
X0140555Y0356893D01*
X0142048Y0355399D01*
X0140166Y0352770D02*
X0137926Y0355010D01*
X0142438Y0359522D02*
X0143931Y0361015D01*
X0145067Y0361404D02*
X0145440Y0361031D01*
X0146187Y0361031D01*
X0146933Y0361777D01*
X0147680Y0361777D01*
X0148053Y0361404D01*
X0148053Y0360657D01*
X0147306Y0359911D01*
X0146560Y0359911D01*
X0145067Y0361404D02*
X0145067Y0362151D01*
X0145813Y0362897D01*
X0146560Y0362897D01*
X0146949Y0364033D02*
X0149189Y0361793D01*
X0150682Y0363287D01*
X0148816Y0363660D02*
X0148069Y0362913D01*
X0146949Y0364033D02*
X0148442Y0365526D01*
X0149205Y0366289D02*
X0150698Y0367782D01*
X0149952Y0367035D02*
X0152191Y0364796D01*
X0153700Y0366305D02*
X0153700Y0369291D01*
X0153327Y0369664D01*
X0152581Y0369664D01*
X0151834Y0368918D01*
X0151834Y0368171D01*
X0153700Y0366305D02*
X0155193Y0367798D01*
X0158572Y0371455D02*
X0159692Y0372575D01*
X0159692Y0373322D01*
X0158199Y0374815D01*
X0157452Y0374815D01*
X0156333Y0373695D01*
X0158572Y0371455D01*
X0160186Y0371234D02*
X0161679Y0369741D01*
X0162425Y0369741D01*
X0163172Y0370487D01*
X0163172Y0371234D01*
X0162425Y0371980D01*
X0161679Y0371234D01*
X0161679Y0372727D02*
X0160932Y0372727D01*
X0160186Y0371980D01*
X0160186Y0371234D01*
X0156997Y0375169D02*
X0157743Y0375916D01*
X0157743Y0376662D01*
X0157370Y0377035D01*
X0156624Y0377035D01*
X0155877Y0376289D01*
X0155130Y0376289D01*
X0154757Y0376662D01*
X0154757Y0377409D01*
X0155504Y0378155D01*
X0156250Y0378155D01*
X0156250Y0375169D02*
X0156997Y0375169D01*
X0144304Y0359148D02*
X0143558Y0358402D01*
X0144677Y0357282D02*
X0142438Y0359522D01*
X0229600Y0431217D02*
X0230075Y0430741D01*
X0231026Y0430741D01*
X0231501Y0431217D01*
X0231501Y0432167D01*
X0230550Y0432167D01*
X0229600Y0431217D02*
X0229600Y0433118D01*
X0230075Y0433593D01*
X0231026Y0433593D01*
X0231501Y0433118D01*
X0232500Y0433593D02*
X0234401Y0430741D01*
X0234401Y0433593D01*
X0235400Y0433593D02*
X0236826Y0433593D01*
X0237301Y0433118D01*
X0237301Y0431217D01*
X0236826Y0430741D01*
X0235400Y0430741D01*
X0235400Y0433593D01*
X0232500Y0433593D02*
X0232500Y0430741D01*
X0239678Y0431295D02*
X0239678Y0433197D01*
X0240154Y0433672D01*
X0241104Y0433672D01*
X0241580Y0433197D01*
X0242578Y0433672D02*
X0244480Y0433672D01*
X0243529Y0433672D02*
X0243529Y0430820D01*
X0241580Y0431295D02*
X0241104Y0430820D01*
X0240154Y0430820D01*
X0239678Y0431295D01*
X0245479Y0431295D02*
X0245954Y0430820D01*
X0246905Y0430820D01*
X0247380Y0431295D01*
X0247380Y0431771D01*
X0246905Y0432246D01*
X0245954Y0432246D01*
X0245479Y0432721D01*
X0245479Y0433197D01*
X0245954Y0433672D01*
X0246905Y0433672D01*
X0247380Y0433197D01*
X0249718Y0433554D02*
X0249718Y0431653D01*
X0250668Y0430702D01*
X0251619Y0431653D01*
X0251619Y0433554D01*
X0252618Y0433079D02*
X0252618Y0431177D01*
X0253093Y0430702D01*
X0254044Y0430702D01*
X0254519Y0431177D01*
X0255518Y0431177D02*
X0255993Y0430702D01*
X0256944Y0430702D01*
X0257419Y0431177D01*
X0255518Y0431177D02*
X0255518Y0433079D01*
X0255993Y0433554D01*
X0256944Y0433554D01*
X0257419Y0433079D01*
X0260151Y0433515D02*
X0262052Y0433515D01*
X0261101Y0433515D02*
X0261101Y0430663D01*
X0263051Y0430663D02*
X0264952Y0433515D01*
X0265951Y0433039D02*
X0265951Y0431138D01*
X0266426Y0430663D01*
X0267377Y0430663D01*
X0267852Y0431138D01*
X0267852Y0433039D01*
X0267377Y0433515D01*
X0266426Y0433515D01*
X0265951Y0433039D01*
X0264952Y0430663D02*
X0263051Y0433515D01*
X0271096Y0433593D02*
X0271096Y0430741D01*
X0271096Y0431692D02*
X0272522Y0431692D01*
X0272997Y0432167D01*
X0272997Y0433118D01*
X0272522Y0433593D01*
X0271096Y0433593D01*
X0272046Y0431692D02*
X0272997Y0430741D01*
X0273996Y0430741D02*
X0275897Y0433593D01*
X0276896Y0433593D02*
X0277847Y0433593D01*
X0277371Y0433593D02*
X0277371Y0430741D01*
X0276896Y0430741D02*
X0277847Y0430741D01*
X0275897Y0430741D02*
X0273996Y0433593D01*
X0280663Y0433554D02*
X0280663Y0430702D01*
X0282089Y0430702D01*
X0282564Y0431177D01*
X0282564Y0433079D01*
X0282089Y0433554D01*
X0280663Y0433554D01*
X0283563Y0433554D02*
X0285464Y0433554D01*
X0284513Y0433554D02*
X0284513Y0430702D01*
X0286463Y0430702D02*
X0286463Y0433554D01*
X0287889Y0433554D01*
X0288364Y0433079D01*
X0288364Y0432128D01*
X0287889Y0431653D01*
X0286463Y0431653D01*
X0287413Y0431653D02*
X0288364Y0430702D01*
X0254519Y0433079D02*
X0254044Y0433554D01*
X0253093Y0433554D01*
X0252618Y0433079D01*
X0380353Y0339283D02*
X0380353Y0338537D01*
X0381099Y0337790D01*
X0381846Y0337790D01*
X0382219Y0338163D01*
X0382219Y0338910D01*
X0381473Y0339656D01*
X0381473Y0340403D01*
X0381846Y0340776D01*
X0382592Y0340776D01*
X0383339Y0340030D01*
X0383339Y0339283D01*
X0384440Y0339739D02*
X0385186Y0339739D01*
X0386680Y0341232D01*
X0386680Y0341978D01*
X0385560Y0343098D01*
X0383320Y0340859D01*
X0384440Y0339739D01*
X0386528Y0343219D02*
X0387274Y0343219D01*
X0388021Y0343965D01*
X0387274Y0344712D01*
X0385781Y0344712D02*
X0385781Y0343965D01*
X0386528Y0343219D01*
X0385781Y0344712D02*
X0387274Y0346205D01*
X0388021Y0346205D01*
X0388767Y0345458D01*
X0388767Y0344712D01*
X0390710Y0338226D02*
X0390710Y0336733D01*
X0392203Y0336733D01*
X0389963Y0334494D01*
X0391099Y0334104D02*
X0391099Y0333358D01*
X0391846Y0332611D01*
X0392592Y0332611D01*
X0394085Y0334104D01*
X0394085Y0334851D01*
X0393339Y0335597D01*
X0392592Y0335597D01*
X0391099Y0334104D01*
X0388470Y0335987D02*
X0390710Y0338226D01*
X0395221Y0333715D02*
X0396714Y0332222D01*
X0397104Y0331086D02*
X0396731Y0330713D01*
X0396731Y0329966D01*
X0397477Y0329219D01*
X0397477Y0328473D01*
X0397104Y0328100D01*
X0396357Y0328100D01*
X0395611Y0328846D01*
X0395611Y0329593D01*
X0397104Y0331086D02*
X0397850Y0331086D01*
X0398597Y0330339D01*
X0398597Y0329593D01*
X0399733Y0329203D02*
X0397493Y0326964D01*
X0398986Y0325471D01*
X0399360Y0327337D02*
X0398613Y0328083D01*
X0399733Y0329203D02*
X0401226Y0327710D01*
X0401989Y0326948D02*
X0403482Y0325454D01*
X0402735Y0326201D02*
X0400496Y0323961D01*
X0402378Y0322825D02*
X0402378Y0322079D01*
X0403125Y0321332D01*
X0403871Y0321332D01*
X0404244Y0321706D01*
X0404244Y0322452D01*
X0403871Y0322825D01*
X0404244Y0322452D02*
X0404991Y0322452D01*
X0405364Y0322825D01*
X0405364Y0323572D01*
X0404618Y0324319D01*
X0403871Y0324319D01*
X0394848Y0331848D02*
X0394102Y0332595D01*
X0392982Y0331475D02*
X0395221Y0333715D01*
X0432471Y0309267D02*
X0432471Y0307841D01*
X0435323Y0307841D01*
X0435323Y0309267D01*
X0434848Y0309743D01*
X0432947Y0309743D01*
X0432471Y0309267D01*
X0432471Y0306842D02*
X0435323Y0306842D01*
X0432471Y0304941D01*
X0435323Y0304941D01*
X0434848Y0303942D02*
X0433897Y0303942D01*
X0433897Y0302992D01*
X0432947Y0303942D02*
X0432471Y0303467D01*
X0432471Y0302516D01*
X0432947Y0302041D01*
X0434848Y0302041D01*
X0435323Y0302516D01*
X0435323Y0303467D01*
X0434848Y0303942D01*
X0435799Y0301042D02*
X0435799Y0299141D01*
X0435323Y0297191D02*
X0432471Y0297191D01*
X0432471Y0296241D02*
X0432471Y0298142D01*
X0433422Y0295242D02*
X0435323Y0295242D01*
X0433897Y0295242D02*
X0433897Y0293341D01*
X0433422Y0293341D02*
X0432471Y0294291D01*
X0433422Y0295242D01*
X0433422Y0293341D02*
X0435323Y0293341D01*
X0434848Y0292342D02*
X0435323Y0291867D01*
X0435323Y0290441D01*
X0432471Y0290441D01*
X0432471Y0291867D01*
X0432947Y0292342D01*
X0433422Y0292342D01*
X0433897Y0291867D01*
X0433897Y0290441D01*
X0433897Y0291867D02*
X0434373Y0292342D01*
X0434848Y0292342D01*
X0432392Y0289388D02*
X0432392Y0287487D01*
X0432392Y0288438D02*
X0435244Y0288438D01*
X0435244Y0286488D02*
X0433343Y0286488D01*
X0432392Y0285537D01*
X0433343Y0284587D01*
X0435244Y0284587D01*
X0434769Y0283588D02*
X0435244Y0283113D01*
X0435244Y0281687D01*
X0432392Y0281687D01*
X0432392Y0283113D01*
X0432868Y0283588D01*
X0433343Y0283588D01*
X0433818Y0283113D01*
X0433818Y0281687D01*
X0434294Y0280688D02*
X0432392Y0280688D01*
X0432392Y0278787D02*
X0434294Y0278787D01*
X0435244Y0279737D01*
X0434294Y0280688D01*
X0433818Y0283113D02*
X0434294Y0283588D01*
X0434769Y0283588D01*
X0433818Y0284587D02*
X0433818Y0286488D01*
X0434690Y0276278D02*
X0435166Y0275803D01*
X0435166Y0274852D01*
X0434690Y0274377D01*
X0432789Y0274377D01*
X0432314Y0274852D01*
X0432314Y0275803D01*
X0432789Y0276278D01*
X0432789Y0273378D02*
X0432314Y0272903D01*
X0432314Y0271952D01*
X0432789Y0271477D01*
X0434690Y0271477D01*
X0435166Y0271952D01*
X0435166Y0272903D01*
X0434690Y0273378D01*
X0434215Y0270478D02*
X0432314Y0270478D01*
X0434215Y0270478D02*
X0435166Y0269527D01*
X0434215Y0268576D01*
X0432314Y0268576D01*
X0432432Y0266829D02*
X0432432Y0264928D01*
X0433858Y0264928D01*
X0433383Y0265879D01*
X0433383Y0266354D01*
X0433858Y0266829D01*
X0434809Y0266829D01*
X0435284Y0266354D01*
X0435284Y0265403D01*
X0434809Y0264928D01*
X0435284Y0263929D02*
X0435284Y0262028D01*
X0432432Y0262028D01*
X0432432Y0263929D01*
X0433858Y0262978D02*
X0433858Y0262028D01*
X0433858Y0261029D02*
X0434333Y0260554D01*
X0434333Y0259128D01*
X0435284Y0259128D02*
X0432432Y0259128D01*
X0432432Y0260554D01*
X0432907Y0261029D01*
X0433858Y0261029D01*
X0433937Y0256987D02*
X0433937Y0255085D01*
X0432511Y0256511D01*
X0435363Y0256511D01*
X0435363Y0254087D02*
X0435363Y0252185D01*
X0432511Y0252185D01*
X0432511Y0254087D01*
X0433937Y0253136D02*
X0433937Y0252185D01*
X0433937Y0251186D02*
X0434412Y0250711D01*
X0434412Y0249285D01*
X0435363Y0249285D02*
X0432511Y0249285D01*
X0432511Y0250711D01*
X0432986Y0251186D01*
X0433937Y0251186D01*
X0433540Y0246711D02*
X0434015Y0246236D01*
X0434491Y0246711D01*
X0434966Y0246711D01*
X0435441Y0246236D01*
X0435441Y0245285D01*
X0434966Y0244810D01*
X0435441Y0243811D02*
X0435441Y0241910D01*
X0432589Y0241910D01*
X0432589Y0243811D01*
X0433065Y0244810D02*
X0432589Y0245285D01*
X0432589Y0246236D01*
X0433065Y0246711D01*
X0433540Y0246711D01*
X0434015Y0246236D02*
X0434015Y0245760D01*
X0434015Y0242860D02*
X0434015Y0241910D01*
X0434015Y0240911D02*
X0434491Y0240436D01*
X0434491Y0239009D01*
X0435441Y0239009D02*
X0432589Y0239009D01*
X0432589Y0240436D01*
X0433065Y0240911D01*
X0434015Y0240911D01*
X0434094Y0236554D02*
X0435045Y0236554D01*
X0435520Y0236078D01*
X0435520Y0235128D01*
X0435045Y0234652D01*
X0434094Y0234652D02*
X0433619Y0235603D01*
X0433619Y0236078D01*
X0434094Y0236554D01*
X0432668Y0236554D02*
X0432668Y0234652D01*
X0434094Y0234652D01*
X0433619Y0233653D02*
X0434094Y0233178D01*
X0434094Y0231752D01*
X0434094Y0230753D02*
X0434569Y0230278D01*
X0434569Y0228852D01*
X0435520Y0228852D02*
X0432668Y0228852D01*
X0432668Y0230278D01*
X0433143Y0230753D01*
X0434094Y0230753D01*
X0432668Y0231752D02*
X0432668Y0233178D01*
X0433143Y0233653D01*
X0433619Y0233653D01*
X0434094Y0233178D02*
X0434569Y0233653D01*
X0435045Y0233653D01*
X0435520Y0233178D01*
X0435520Y0231752D01*
X0432668Y0231752D01*
X0433737Y0226475D02*
X0435638Y0226475D01*
X0434212Y0226475D02*
X0434212Y0224573D01*
X0433737Y0224573D02*
X0432786Y0225524D01*
X0433737Y0226475D01*
X0433737Y0224573D02*
X0435638Y0224573D01*
X0435163Y0223575D02*
X0433261Y0223575D01*
X0432786Y0223099D01*
X0432786Y0221673D01*
X0435638Y0221673D01*
X0435638Y0223099D01*
X0435163Y0223575D01*
X0435163Y0220675D02*
X0435638Y0220199D01*
X0435638Y0219249D01*
X0435163Y0218773D01*
X0434212Y0219249D02*
X0434212Y0220199D01*
X0434688Y0220675D01*
X0435163Y0220675D01*
X0434212Y0219249D02*
X0433737Y0218773D01*
X0433261Y0218773D01*
X0432786Y0219249D01*
X0432786Y0220199D01*
X0433261Y0220675D01*
X0435717Y0216317D02*
X0435717Y0214416D01*
X0432865Y0214416D01*
X0433340Y0213417D02*
X0432865Y0212942D01*
X0432865Y0211991D01*
X0433340Y0211516D01*
X0435242Y0211516D01*
X0435717Y0211991D01*
X0435717Y0212942D01*
X0435242Y0213417D01*
X0435242Y0210517D02*
X0435717Y0210042D01*
X0435717Y0209091D01*
X0435242Y0208616D01*
X0434291Y0209091D02*
X0434291Y0210042D01*
X0434766Y0210517D01*
X0435242Y0210517D01*
X0434291Y0209091D02*
X0433816Y0208616D01*
X0433340Y0208616D01*
X0432865Y0209091D01*
X0432865Y0210042D01*
X0433340Y0210517D01*
X0397017Y0177492D02*
X0395524Y0175999D01*
X0395524Y0178238D01*
X0397764Y0175999D01*
X0395135Y0173370D02*
X0392895Y0175609D01*
X0392148Y0174863D02*
X0393642Y0176356D01*
X0391386Y0174100D02*
X0389893Y0172607D01*
X0392132Y0170367D01*
X0393625Y0171860D01*
X0391759Y0172234D02*
X0391012Y0171487D01*
X0390623Y0170351D02*
X0390996Y0169978D01*
X0390996Y0169231D01*
X0390250Y0168485D01*
X0389503Y0168485D01*
X0389130Y0169605D02*
X0389877Y0170351D01*
X0390623Y0170351D01*
X0389503Y0171471D02*
X0388757Y0171471D01*
X0388010Y0170724D01*
X0388010Y0169978D01*
X0388383Y0169605D01*
X0389130Y0169605D01*
X0386874Y0169589D02*
X0385381Y0168095D01*
X0387621Y0165856D01*
X0386485Y0165466D02*
X0384992Y0166959D01*
X0384245Y0166959D01*
X0383499Y0166213D01*
X0383499Y0165466D01*
X0384992Y0163973D01*
X0385738Y0163973D01*
X0386485Y0164720D01*
X0386485Y0165466D01*
X0386501Y0166976D02*
X0387248Y0167722D01*
X0382363Y0165077D02*
X0384602Y0162837D01*
X0383109Y0161344D02*
X0380870Y0163584D01*
X0382363Y0163584D01*
X0382363Y0165077D01*
X0377864Y0159554D02*
X0377118Y0159554D01*
X0375998Y0158434D01*
X0378238Y0156194D01*
X0379357Y0157314D01*
X0379357Y0158060D01*
X0377864Y0159554D01*
X0375877Y0159402D02*
X0375877Y0160148D01*
X0375131Y0160895D01*
X0374384Y0160148D01*
X0372891Y0160148D02*
X0374384Y0158655D01*
X0375131Y0158655D01*
X0375877Y0159402D01*
X0374384Y0161641D02*
X0373638Y0161641D01*
X0372891Y0160895D01*
X0372891Y0160148D01*
X0378320Y0155466D02*
X0378320Y0154720D01*
X0378693Y0154347D01*
X0379440Y0154347D01*
X0380186Y0155093D01*
X0380933Y0155093D01*
X0381306Y0154720D01*
X0381306Y0153973D01*
X0380560Y0153227D01*
X0379813Y0153227D01*
X0378320Y0155466D02*
X0379066Y0156213D01*
X0379813Y0156213D01*
X0379941Y0248300D02*
X0381842Y0248300D01*
X0382841Y0248300D02*
X0384267Y0248300D01*
X0384742Y0248776D01*
X0384742Y0250677D01*
X0384267Y0251152D01*
X0382841Y0251152D01*
X0382841Y0248300D01*
X0380891Y0249726D02*
X0379941Y0249726D01*
X0379941Y0251152D02*
X0379941Y0248300D01*
X0378942Y0248300D02*
X0377041Y0248300D01*
X0377041Y0251152D01*
X0379941Y0251152D02*
X0381842Y0251152D01*
X0385741Y0249726D02*
X0387642Y0249726D01*
X0387167Y0248300D02*
X0387167Y0251152D01*
X0385741Y0249726D01*
X0385741Y0271922D02*
X0387642Y0271922D01*
X0386692Y0271922D02*
X0386692Y0274774D01*
X0385741Y0273824D01*
X0384742Y0274299D02*
X0384742Y0272398D01*
X0384267Y0271922D01*
X0382841Y0271922D01*
X0382841Y0274774D01*
X0384267Y0274774D01*
X0384742Y0274299D01*
X0381842Y0274774D02*
X0379941Y0274774D01*
X0379941Y0271922D01*
X0381842Y0271922D01*
X0380891Y0273348D02*
X0379941Y0273348D01*
X0378942Y0271922D02*
X0377041Y0271922D01*
X0377041Y0274774D01*
X0438497Y0325626D02*
X0438973Y0325151D01*
X0439923Y0325151D01*
X0440399Y0325626D01*
X0440399Y0326577D01*
X0439448Y0326577D01*
X0440399Y0327527D02*
X0439923Y0328003D01*
X0438973Y0328003D01*
X0438497Y0327527D01*
X0438497Y0325626D01*
X0441397Y0325151D02*
X0441397Y0328003D01*
X0443299Y0325151D01*
X0443299Y0328003D01*
X0444297Y0328003D02*
X0445723Y0328003D01*
X0446199Y0327527D01*
X0446199Y0325626D01*
X0445723Y0325151D01*
X0444297Y0325151D01*
X0444297Y0328003D01*
X0261281Y0267592D02*
X0259170Y0267592D01*
X0260225Y0267592D02*
X0260225Y0270759D01*
X0259170Y0269703D01*
X0258091Y0270759D02*
X0258091Y0268120D01*
X0257563Y0267592D01*
X0256507Y0267592D01*
X0255979Y0268120D01*
X0255979Y0270759D01*
X0254901Y0270759D02*
X0254901Y0267592D01*
X0252789Y0267592D02*
X0252789Y0270759D01*
X0253845Y0269703D01*
X0254901Y0270759D01*
X0251718Y0270759D02*
X0250663Y0270759D01*
X0251190Y0270759D02*
X0251190Y0267592D01*
X0250663Y0267592D02*
X0251718Y0267592D01*
X0148094Y0165605D02*
X0147347Y0166352D01*
X0146601Y0166352D01*
X0146228Y0165979D01*
X0146228Y0165232D01*
X0146974Y0164486D01*
X0146974Y0163739D01*
X0146601Y0163366D01*
X0145854Y0163366D01*
X0145108Y0164112D01*
X0145108Y0164859D01*
X0144345Y0167115D02*
X0143599Y0167861D01*
X0143582Y0169370D02*
X0143582Y0170117D01*
X0142836Y0170864D01*
X0142089Y0170864D01*
X0140596Y0169370D01*
X0140596Y0168624D01*
X0141343Y0167877D01*
X0142089Y0167877D01*
X0143582Y0169370D01*
X0144718Y0168981D02*
X0142479Y0166741D01*
X0144718Y0168981D02*
X0146211Y0167488D01*
X0148094Y0165605D02*
X0148094Y0164859D01*
X0149230Y0164470D02*
X0146990Y0162230D01*
X0148483Y0160737D01*
X0148857Y0162603D02*
X0148110Y0163350D01*
X0149230Y0164470D02*
X0150723Y0162976D01*
X0151486Y0162214D02*
X0152979Y0160721D01*
X0152232Y0161467D02*
X0149993Y0159228D01*
X0151502Y0157718D02*
X0152995Y0156225D01*
X0152248Y0156972D02*
X0154488Y0159211D01*
X0152995Y0159211D01*
X0158892Y0155086D02*
X0156652Y0152847D01*
X0157772Y0151727D01*
X0158518Y0151727D01*
X0160011Y0153220D01*
X0160011Y0153966D01*
X0158892Y0155086D01*
X0160366Y0155169D02*
X0160366Y0154422D01*
X0161113Y0153676D01*
X0161859Y0153676D01*
X0162232Y0154049D01*
X0162232Y0154795D01*
X0161486Y0155542D01*
X0161486Y0156288D01*
X0161859Y0156662D01*
X0162606Y0156662D01*
X0163352Y0155915D01*
X0163352Y0155169D01*
X0157924Y0150487D02*
X0157177Y0151233D01*
X0156430Y0151233D01*
X0154937Y0149740D01*
X0154937Y0148993D01*
X0155684Y0148247D01*
X0156430Y0148247D01*
X0157177Y0148993D01*
X0156430Y0149740D01*
X0157924Y0149740D02*
X0157924Y0150487D01*
X0139460Y0169760D02*
X0141700Y0171999D01*
X0140207Y0171999D01*
X0140207Y0173493D01*
X0137967Y0171253D01*
X0229128Y0074932D02*
X0230554Y0074932D01*
X0231029Y0074457D01*
X0231029Y0072555D01*
X0230554Y0072080D01*
X0229128Y0072080D01*
X0229128Y0074932D01*
X0232028Y0074932D02*
X0233929Y0074932D01*
X0232978Y0074932D02*
X0232978Y0072080D01*
X0234928Y0072080D02*
X0234928Y0074932D01*
X0236354Y0074932D01*
X0236829Y0074457D01*
X0236829Y0073506D01*
X0236354Y0073031D01*
X0234928Y0073031D01*
X0235879Y0073031D02*
X0236829Y0072080D01*
X0239583Y0071962D02*
X0239583Y0074814D01*
X0241009Y0074814D01*
X0241484Y0074339D01*
X0241484Y0073388D01*
X0241009Y0072912D01*
X0239583Y0072912D01*
X0240533Y0072912D02*
X0241484Y0071962D01*
X0242483Y0071962D02*
X0244384Y0074814D01*
X0245383Y0074814D02*
X0246333Y0074814D01*
X0245858Y0074814D02*
X0245858Y0071962D01*
X0245383Y0071962D02*
X0246333Y0071962D01*
X0244384Y0071962D02*
X0242483Y0074814D01*
X0248891Y0074893D02*
X0250793Y0074893D01*
X0249842Y0074893D02*
X0249842Y0072041D01*
X0251791Y0072041D02*
X0253693Y0074893D01*
X0254692Y0074417D02*
X0254692Y0072516D01*
X0255167Y0072041D01*
X0256118Y0072041D01*
X0256593Y0072516D01*
X0256593Y0074417D01*
X0256118Y0074893D01*
X0255167Y0074893D01*
X0254692Y0074417D01*
X0253693Y0072041D02*
X0251791Y0074893D01*
X0258734Y0074735D02*
X0258734Y0072834D01*
X0259685Y0071883D01*
X0260635Y0072834D01*
X0260635Y0074735D01*
X0261634Y0074260D02*
X0261634Y0072358D01*
X0262109Y0071883D01*
X0263060Y0071883D01*
X0263535Y0072358D01*
X0264534Y0072358D02*
X0265009Y0071883D01*
X0265960Y0071883D01*
X0266435Y0072358D01*
X0264534Y0072358D02*
X0264534Y0074260D01*
X0265009Y0074735D01*
X0265960Y0074735D01*
X0266435Y0074260D01*
X0268970Y0074220D02*
X0268970Y0072319D01*
X0269445Y0071844D01*
X0270396Y0071844D01*
X0270871Y0072319D01*
X0270871Y0074220D02*
X0270396Y0074696D01*
X0269445Y0074696D01*
X0268970Y0074220D01*
X0271870Y0074696D02*
X0273772Y0074696D01*
X0272821Y0074696D02*
X0272821Y0071844D01*
X0274770Y0072319D02*
X0275246Y0071844D01*
X0276196Y0071844D01*
X0276672Y0072319D01*
X0276672Y0072794D01*
X0276196Y0073270D01*
X0275246Y0073270D01*
X0274770Y0073745D01*
X0274770Y0074220D01*
X0275246Y0074696D01*
X0276196Y0074696D01*
X0276672Y0074220D01*
X0278852Y0074220D02*
X0278852Y0072319D01*
X0279327Y0071844D01*
X0280278Y0071844D01*
X0280753Y0072319D01*
X0280753Y0073270D01*
X0279803Y0073270D01*
X0280753Y0074220D02*
X0280278Y0074696D01*
X0279327Y0074696D01*
X0278852Y0074220D01*
X0281752Y0074696D02*
X0283653Y0071844D01*
X0283653Y0074696D01*
X0284652Y0074696D02*
X0286078Y0074696D01*
X0286554Y0074220D01*
X0286554Y0072319D01*
X0286078Y0071844D01*
X0284652Y0071844D01*
X0284652Y0074696D01*
X0281752Y0074696D02*
X0281752Y0071844D01*
X0263535Y0074260D02*
X0263060Y0074735D01*
X0262109Y0074735D01*
X0261634Y0074260D01*
D12*
X0260454Y0077442D02*
X0257954Y0079942D01*
X0255454Y0077442D01*
X0250454Y0077442D01*
X0247954Y0079942D01*
X0245454Y0077442D01*
X0240454Y0077442D01*
X0237954Y0079942D01*
X0235454Y0077442D01*
X0230454Y0077442D01*
X0227954Y0079942D01*
X0227954Y0084942D01*
X0230454Y0087442D01*
X0235454Y0087442D01*
X0237954Y0084942D01*
X0240454Y0087442D01*
X0245454Y0087442D01*
X0247954Y0084942D01*
X0250454Y0087442D01*
X0255454Y0087442D01*
X0257954Y0084942D01*
X0260454Y0087442D01*
X0265454Y0087442D01*
X0267954Y0084942D01*
X0270454Y0087442D01*
X0275454Y0087442D01*
X0277954Y0084942D01*
X0280454Y0087442D01*
X0285454Y0087442D01*
X0287954Y0084942D01*
X0287954Y0079942D01*
X0285454Y0077442D01*
X0280454Y0077442D01*
X0277954Y0079942D01*
X0275454Y0077442D01*
X0270454Y0077442D01*
X0267954Y0079942D01*
X0265454Y0077442D01*
X0260454Y0077442D01*
X0189489Y0239489D02*
X0189489Y0240670D01*
X0189489Y0239489D02*
X0188308Y0239489D01*
X0155237Y0239489D02*
X0154056Y0239489D01*
X0154056Y0240670D01*
X0154056Y0273741D02*
X0155237Y0274922D01*
X0188308Y0274922D02*
X0189489Y0274922D01*
X0189489Y0273741D01*
X0180119Y0341654D02*
X0175394Y0341654D01*
X0167914Y0346772D02*
X0167914Y0349135D01*
X0175394Y0354253D02*
X0180119Y0354253D01*
X0187599Y0349135D02*
X0187599Y0346772D01*
X0238308Y0352422D02*
X0238308Y0367422D01*
X0240808Y0369922D01*
X0245808Y0369922D01*
X0248308Y0367422D01*
X0248308Y0352422D01*
X0245808Y0349922D01*
X0240808Y0349922D01*
X0238308Y0352422D01*
X0248308Y0352422D02*
X0250808Y0349922D01*
X0255808Y0349922D01*
X0258308Y0352422D01*
X0258308Y0367422D01*
X0260808Y0369922D01*
X0265808Y0369922D01*
X0268308Y0367422D01*
X0268308Y0352422D01*
X0265808Y0349922D01*
X0260808Y0349922D01*
X0258308Y0352422D01*
X0258308Y0367422D02*
X0255808Y0369922D01*
X0250808Y0369922D01*
X0251517Y0436221D02*
X0249017Y0438721D01*
X0246517Y0436221D01*
X0241517Y0436221D01*
X0239017Y0438721D01*
X0236517Y0436221D01*
X0231517Y0436221D01*
X0229017Y0438721D01*
X0229017Y0443721D01*
X0231517Y0446221D01*
X0236517Y0446221D01*
X0239017Y0443721D01*
X0241517Y0446221D01*
X0246517Y0446221D01*
X0249017Y0443721D01*
X0251517Y0446221D01*
X0256517Y0446221D01*
X0259017Y0443721D01*
X0261517Y0446221D01*
X0266517Y0446221D01*
X0269017Y0443721D01*
X0271517Y0446221D01*
X0276517Y0446221D01*
X0279017Y0443721D01*
X0281517Y0446221D01*
X0286517Y0446221D01*
X0289017Y0443721D01*
X0289017Y0438721D01*
X0286517Y0436221D01*
X0281517Y0436221D01*
X0279017Y0438721D01*
X0276517Y0436221D01*
X0271517Y0436221D01*
X0269017Y0438721D01*
X0266517Y0436221D01*
X0261517Y0436221D01*
X0259017Y0438721D01*
X0256517Y0436221D01*
X0251517Y0436221D01*
X0090800Y0261706D02*
X0071800Y0261706D01*
X0074300Y0258706D02*
X0072800Y0257206D01*
X0074300Y0255706D01*
X0072800Y0257206D02*
X0076300Y0257206D01*
X0071800Y0252706D02*
X0090800Y0252706D01*
D13*
X0089491Y0249939D02*
X0089491Y0245335D01*
X0087957Y0245335D02*
X0091026Y0245335D01*
X0087957Y0248404D02*
X0089491Y0249939D01*
X0086422Y0248404D02*
X0086422Y0245335D01*
X0086422Y0247637D02*
X0083353Y0247637D01*
X0083353Y0248404D02*
X0084887Y0249939D01*
X0086422Y0248404D01*
X0083353Y0248404D02*
X0083353Y0245335D01*
X0108668Y0263764D02*
X0108668Y0268368D01*
X0110970Y0268368D01*
X0111737Y0267600D01*
X0111737Y0266833D01*
X0110970Y0266066D01*
X0108668Y0266066D01*
X0110970Y0266066D02*
X0111737Y0265298D01*
X0111737Y0264531D01*
X0110970Y0263764D01*
X0108668Y0263764D01*
X0113272Y0263764D02*
X0116341Y0263764D01*
X0114806Y0263764D02*
X0114806Y0268368D01*
X0113272Y0266833D01*
X0175045Y0334610D02*
X0175045Y0336912D01*
X0176580Y0338447D01*
X0176580Y0339214D01*
X0178114Y0337680D02*
X0179649Y0339214D01*
X0179649Y0334610D01*
X0181183Y0334610D02*
X0178114Y0334610D01*
X0175045Y0336912D02*
X0173510Y0338447D01*
X0173510Y0339214D01*
X0139271Y0374351D02*
X0141441Y0376522D01*
X0140356Y0375436D02*
X0137100Y0378692D01*
X0137100Y0376522D01*
X0134930Y0376522D02*
X0138186Y0373266D01*
X0136015Y0371096D02*
X0132760Y0374351D01*
X0134930Y0374351D01*
X0134930Y0376522D01*
X0129974Y0375910D02*
X0127804Y0373740D01*
X0136155Y0382091D02*
X0138326Y0384262D01*
X0136155Y0384262D02*
X0138326Y0382091D01*
X0245896Y0309509D02*
X0245896Y0304906D01*
X0248198Y0304906D01*
X0248965Y0305673D01*
X0248965Y0306440D01*
X0248198Y0307207D01*
X0245896Y0307207D01*
X0248198Y0307207D02*
X0248965Y0307975D01*
X0248965Y0308742D01*
X0248198Y0309509D01*
X0245896Y0309509D01*
X0250500Y0307975D02*
X0252034Y0309509D01*
X0253569Y0307975D01*
X0253569Y0304906D01*
X0253569Y0307207D02*
X0250500Y0307207D01*
X0250500Y0307975D02*
X0250500Y0304906D01*
X0256638Y0304906D02*
X0256638Y0309509D01*
X0255104Y0309509D02*
X0258173Y0309509D01*
X0259707Y0309509D02*
X0262777Y0309509D01*
X0261242Y0309509D02*
X0261242Y0304906D01*
X0264311Y0304906D02*
X0267381Y0304906D01*
X0265846Y0304906D02*
X0265846Y0309509D01*
X0264311Y0307975D01*
X0382094Y0389331D02*
X0384265Y0391502D01*
X0382094Y0391502D02*
X0384265Y0389331D01*
X0386579Y0391362D02*
X0389834Y0394617D01*
X0389834Y0392447D01*
X0392005Y0392447D01*
X0388749Y0389191D01*
X0390377Y0388649D02*
X0390377Y0387564D01*
X0391462Y0386478D01*
X0392547Y0386478D01*
X0393090Y0387021D01*
X0393090Y0388106D01*
X0392547Y0388649D01*
X0393090Y0388106D02*
X0394175Y0388106D01*
X0394717Y0388649D01*
X0394717Y0389734D01*
X0393632Y0390819D01*
X0392547Y0390819D01*
X0390446Y0383150D02*
X0392616Y0380980D01*
X0337950Y0175749D02*
X0337950Y0172680D01*
X0334881Y0175749D01*
X0334114Y0175749D01*
X0333346Y0174982D01*
X0333346Y0173447D01*
X0334114Y0172680D01*
X0334114Y0171145D02*
X0333346Y0170378D01*
X0333346Y0168843D01*
X0334114Y0168076D01*
X0334881Y0168076D01*
X0335648Y0168843D01*
X0335648Y0170378D01*
X0336416Y0171145D01*
X0337183Y0171145D01*
X0337950Y0170378D01*
X0337950Y0168843D01*
X0337183Y0168076D01*
X0337183Y0166541D02*
X0333346Y0166541D01*
X0333346Y0163472D02*
X0337183Y0163472D01*
X0337950Y0164239D01*
X0337950Y0165774D01*
X0337183Y0166541D01*
X0338718Y0169611D02*
X0332579Y0169611D01*
X0380844Y0122098D02*
X0383014Y0124268D01*
X0385800Y0122709D02*
X0387970Y0122709D01*
X0387970Y0124880D01*
X0391226Y0121624D01*
X0390683Y0124337D02*
X0392853Y0126507D01*
X0393939Y0124337D02*
X0390683Y0127592D01*
X0390683Y0124337D01*
X0389055Y0119454D02*
X0385800Y0122709D01*
X0389195Y0130449D02*
X0391366Y0132620D01*
X0389195Y0132620D02*
X0391366Y0130449D01*
X0142631Y0135184D02*
X0142631Y0136269D01*
X0141546Y0137354D01*
X0140461Y0137354D01*
X0139918Y0138982D02*
X0137748Y0138982D01*
X0137748Y0141152D01*
X0134492Y0137897D01*
X0132178Y0138037D02*
X0130008Y0135867D01*
X0130008Y0138037D02*
X0132178Y0135867D01*
X0136662Y0135727D02*
X0139918Y0138982D01*
X0142631Y0135184D02*
X0142088Y0134642D01*
X0137748Y0134642D01*
X0139918Y0132471D01*
X0138359Y0129685D02*
X0140530Y0127515D01*
D14*
X0145496Y0125970D02*
X0128793Y0142673D01*
X0117657Y0131538D01*
X0134361Y0114834D01*
X0145496Y0125970D01*
X0163279Y0104697D02*
X0161286Y0102704D01*
X0161286Y0101707D01*
X0162282Y0100711D01*
X0163279Y0100711D01*
X0164362Y0099628D02*
X0163863Y0099129D01*
X0164362Y0099628D02*
X0168348Y0099628D01*
X0168846Y0100126D01*
X0166853Y0102119D01*
X0165272Y0102704D02*
X0165272Y0103700D01*
X0164275Y0104697D01*
X0163279Y0104697D01*
X0187895Y0119912D02*
X0188892Y0118916D01*
X0189888Y0118916D01*
X0190971Y0117833D02*
X0191470Y0118331D01*
X0192466Y0118331D01*
X0193463Y0117335D01*
X0193463Y0116338D01*
X0192964Y0115840D01*
X0191968Y0115840D01*
X0190971Y0116836D01*
X0190971Y0117833D01*
X0192466Y0118331D02*
X0192466Y0119328D01*
X0192964Y0119826D01*
X0193961Y0119826D01*
X0194958Y0118829D01*
X0194958Y0117833D01*
X0194459Y0117335D01*
X0193463Y0117335D01*
X0191882Y0120909D02*
X0191881Y0121905D01*
X0190885Y0122902D01*
X0189888Y0122902D01*
X0187895Y0120909D01*
X0187895Y0119912D01*
X0214633Y0131017D02*
X0216128Y0132511D01*
X0217124Y0132511D01*
X0218121Y0131515D01*
X0218121Y0130518D01*
X0216626Y0129023D01*
X0217622Y0128027D02*
X0214633Y0131017D01*
X0217622Y0130020D02*
X0219616Y0130020D01*
X0220200Y0131601D02*
X0221197Y0131601D01*
X0222193Y0132598D01*
X0222193Y0133594D01*
X0221695Y0134093D01*
X0220698Y0134093D01*
X0220200Y0133594D01*
X0220698Y0134093D02*
X0220698Y0135089D01*
X0220200Y0135587D01*
X0219204Y0135587D01*
X0218207Y0134591D01*
X0218207Y0133594D01*
X0193926Y0161663D02*
X0191933Y0163656D01*
X0194923Y0163656D01*
X0191933Y0160666D01*
X0189355Y0163244D02*
X0189355Y0165237D01*
X0189854Y0164739D02*
X0188359Y0166234D01*
X0187362Y0165237D02*
X0190352Y0168227D01*
X0191847Y0166732D01*
X0191847Y0165735D01*
X0190850Y0164739D01*
X0189854Y0164739D01*
X0186483Y0184444D02*
X0182255Y0184444D01*
X0182255Y0186558D01*
X0182960Y0187263D01*
X0184369Y0187263D01*
X0185074Y0186558D01*
X0185074Y0184444D01*
X0185074Y0185854D02*
X0186483Y0187263D01*
X0186483Y0188795D02*
X0186483Y0191613D01*
X0186483Y0190204D02*
X0182255Y0190204D01*
X0183664Y0188795D01*
X0184369Y0193145D02*
X0183664Y0194554D01*
X0183664Y0195259D01*
X0184369Y0195963D01*
X0185778Y0195963D01*
X0186483Y0195259D01*
X0186483Y0193849D01*
X0185778Y0193145D01*
X0184369Y0193145D02*
X0182255Y0193145D01*
X0182255Y0195963D01*
X0170263Y0194983D02*
X0166035Y0194983D01*
X0168149Y0192869D01*
X0168149Y0195688D01*
X0170263Y0191338D02*
X0170263Y0188519D01*
X0170263Y0189928D02*
X0166035Y0189928D01*
X0167444Y0188519D01*
X0168149Y0186987D02*
X0168853Y0186283D01*
X0168853Y0184169D01*
X0168853Y0185578D02*
X0170263Y0186987D01*
X0168149Y0186987D02*
X0166739Y0186987D01*
X0166035Y0186283D01*
X0166035Y0184169D01*
X0170263Y0184169D01*
X0150219Y0212141D02*
X0148810Y0212141D01*
X0148105Y0212845D01*
X0150924Y0215664D01*
X0150924Y0212845D01*
X0150219Y0212141D01*
X0148105Y0212845D02*
X0148105Y0215664D01*
X0148810Y0216369D01*
X0150219Y0216369D01*
X0150924Y0215664D01*
X0146574Y0212141D02*
X0143755Y0212141D01*
X0145165Y0212141D02*
X0145165Y0216369D01*
X0143755Y0214959D01*
X0142224Y0215664D02*
X0141519Y0216369D01*
X0140110Y0216369D01*
X0139405Y0215664D01*
X0139405Y0212845D01*
X0140110Y0212141D01*
X0141519Y0212141D01*
X0142224Y0212845D01*
X0126798Y0228417D02*
X0126798Y0229826D01*
X0126093Y0230531D01*
X0126798Y0232062D02*
X0126798Y0234881D01*
X0126798Y0233472D02*
X0122570Y0233472D01*
X0123979Y0232062D01*
X0123275Y0230531D02*
X0122570Y0229826D01*
X0122570Y0228417D01*
X0123275Y0227712D01*
X0126093Y0227712D01*
X0126798Y0228417D01*
X0126093Y0236412D02*
X0126798Y0237117D01*
X0126798Y0238526D01*
X0126093Y0239231D01*
X0124684Y0239231D01*
X0123979Y0238526D01*
X0123979Y0237822D01*
X0124684Y0236412D01*
X0122570Y0236412D01*
X0122570Y0239231D01*
X0117009Y0254745D02*
X0117009Y0259666D01*
X0109904Y0256694D02*
X0109906Y0256720D01*
X0109912Y0256746D01*
X0109921Y0256770D01*
X0109935Y0256793D01*
X0109951Y0256814D01*
X0109970Y0256832D01*
X0109992Y0256846D01*
X0110016Y0256858D01*
X0110041Y0256866D01*
X0110067Y0256870D01*
X0110093Y0256870D01*
X0110119Y0256866D01*
X0110144Y0256858D01*
X0110168Y0256846D01*
X0110190Y0256832D01*
X0110209Y0256814D01*
X0110225Y0256793D01*
X0110239Y0256770D01*
X0110248Y0256746D01*
X0110254Y0256720D01*
X0110256Y0256694D01*
X0110254Y0256668D01*
X0110248Y0256642D01*
X0110239Y0256618D01*
X0110225Y0256595D01*
X0110209Y0256574D01*
X0110190Y0256556D01*
X0110168Y0256542D01*
X0110144Y0256530D01*
X0110119Y0256522D01*
X0110093Y0256518D01*
X0110067Y0256518D01*
X0110041Y0256522D01*
X0110016Y0256530D01*
X0109992Y0256542D01*
X0109970Y0256556D01*
X0109951Y0256574D01*
X0109935Y0256595D01*
X0109921Y0256618D01*
X0109912Y0256642D01*
X0109906Y0256668D01*
X0109904Y0256694D01*
X0109135Y0254745D02*
X0109135Y0259666D01*
X0103333Y0249502D02*
X0102629Y0249502D01*
X0099810Y0252321D01*
X0099105Y0252321D01*
X0099105Y0249502D01*
X0099105Y0246561D02*
X0103333Y0246561D01*
X0103333Y0245152D02*
X0103333Y0247971D01*
X0100515Y0245152D02*
X0099105Y0246561D01*
X0099810Y0243621D02*
X0099105Y0242916D01*
X0099105Y0241507D01*
X0099810Y0240802D01*
X0102629Y0240802D01*
X0103333Y0241507D01*
X0103333Y0242916D01*
X0102629Y0243621D01*
X0151542Y0315763D02*
X0154361Y0315763D01*
X0155066Y0316467D01*
X0155066Y0317877D01*
X0154361Y0318581D01*
X0154361Y0320113D02*
X0155066Y0320817D01*
X0155066Y0322227D01*
X0154361Y0322931D01*
X0151542Y0322931D01*
X0150838Y0322227D01*
X0150838Y0320817D01*
X0151542Y0320113D01*
X0152247Y0320113D01*
X0152952Y0320817D01*
X0152952Y0322931D01*
X0151542Y0318581D02*
X0150838Y0317877D01*
X0150838Y0316467D01*
X0151542Y0315763D01*
X0165287Y0317373D02*
X0165991Y0316668D01*
X0168810Y0316668D01*
X0169515Y0317373D01*
X0169515Y0318782D01*
X0168810Y0319487D01*
X0169515Y0321018D02*
X0169515Y0323837D01*
X0169515Y0322428D02*
X0165287Y0322428D01*
X0166696Y0321018D01*
X0165991Y0319487D02*
X0165287Y0318782D01*
X0165287Y0317373D01*
X0165991Y0325368D02*
X0165287Y0326073D01*
X0165287Y0327482D01*
X0165991Y0328187D01*
X0166696Y0328187D01*
X0167401Y0327482D01*
X0168105Y0328187D01*
X0168810Y0328187D01*
X0169515Y0327482D01*
X0169515Y0326073D01*
X0168810Y0325368D01*
X0167401Y0326778D02*
X0167401Y0327482D01*
X0181901Y0328073D02*
X0184015Y0325959D01*
X0184015Y0328778D01*
X0186129Y0328073D02*
X0181901Y0328073D01*
X0181901Y0323018D02*
X0186129Y0323018D01*
X0186129Y0321609D02*
X0186129Y0324428D01*
X0183310Y0321609D02*
X0181901Y0323018D01*
X0182605Y0320077D02*
X0181901Y0319373D01*
X0181901Y0317963D01*
X0182605Y0317259D01*
X0185424Y0317259D01*
X0186129Y0317963D01*
X0186129Y0319373D01*
X0185424Y0320077D01*
X0217590Y0274951D02*
X0216885Y0274247D01*
X0216885Y0271428D01*
X0217590Y0270723D01*
X0218999Y0270723D01*
X0219704Y0271428D01*
X0221235Y0270723D02*
X0224054Y0273542D01*
X0224054Y0274247D01*
X0223349Y0274951D01*
X0221940Y0274951D01*
X0221235Y0274247D01*
X0219704Y0274247D02*
X0218999Y0274951D01*
X0217590Y0274951D01*
X0221235Y0270723D02*
X0224054Y0270723D01*
X0225586Y0272837D02*
X0228404Y0272837D01*
X0227700Y0270723D02*
X0227700Y0274951D01*
X0225586Y0272837D01*
X0248357Y0273968D02*
X0249062Y0273263D01*
X0251881Y0273263D01*
X0252585Y0273968D01*
X0252585Y0275377D01*
X0251881Y0276082D01*
X0252585Y0277613D02*
X0249767Y0280432D01*
X0249062Y0280432D01*
X0248357Y0279727D01*
X0248357Y0278318D01*
X0249062Y0277613D01*
X0249062Y0276082D02*
X0248357Y0275377D01*
X0248357Y0273968D01*
X0252585Y0277613D02*
X0252585Y0280432D01*
X0252585Y0281964D02*
X0252585Y0284782D01*
X0252585Y0283373D02*
X0248357Y0283373D01*
X0249767Y0281964D01*
X0255995Y0286822D02*
X0256700Y0286117D01*
X0259519Y0286117D01*
X0260223Y0286822D01*
X0260223Y0288231D01*
X0259519Y0288936D01*
X0260223Y0290467D02*
X0257405Y0293286D01*
X0256700Y0293286D01*
X0255995Y0292581D01*
X0255995Y0291172D01*
X0256700Y0290467D01*
X0256700Y0288936D02*
X0255995Y0288231D01*
X0255995Y0286822D01*
X0260223Y0290467D02*
X0260223Y0293286D01*
X0259519Y0294817D02*
X0256700Y0297636D01*
X0259519Y0297636D01*
X0260223Y0296931D01*
X0260223Y0295522D01*
X0259519Y0294817D01*
X0256700Y0294817D01*
X0255995Y0295522D01*
X0255995Y0296931D01*
X0256700Y0297636D01*
X0276492Y0287711D02*
X0276492Y0284892D01*
X0277196Y0284188D01*
X0278606Y0284188D01*
X0279310Y0284892D01*
X0280842Y0284188D02*
X0283660Y0287006D01*
X0283660Y0287711D01*
X0282956Y0288416D01*
X0281546Y0288416D01*
X0280842Y0287711D01*
X0279310Y0287711D02*
X0278606Y0288416D01*
X0277196Y0288416D01*
X0276492Y0287711D01*
X0280842Y0284188D02*
X0283660Y0284188D01*
X0285192Y0284188D02*
X0288011Y0287006D01*
X0288011Y0287711D01*
X0287306Y0288416D01*
X0285897Y0288416D01*
X0285192Y0287711D01*
X0285192Y0284188D02*
X0288011Y0284188D01*
X0287188Y0274203D02*
X0287893Y0273499D01*
X0287893Y0272794D01*
X0287188Y0272089D01*
X0287893Y0271385D01*
X0287893Y0270680D01*
X0287188Y0269975D01*
X0285779Y0269975D01*
X0285074Y0270680D01*
X0283542Y0269975D02*
X0280724Y0269975D01*
X0283542Y0272794D01*
X0283542Y0273499D01*
X0282838Y0274203D01*
X0281428Y0274203D01*
X0280724Y0273499D01*
X0279192Y0273499D02*
X0278488Y0274203D01*
X0277078Y0274203D01*
X0276373Y0273499D01*
X0276373Y0270680D01*
X0277078Y0269975D01*
X0278488Y0269975D01*
X0279192Y0270680D01*
X0285074Y0273499D02*
X0285779Y0274203D01*
X0287188Y0274203D01*
X0287188Y0272089D02*
X0286483Y0272089D01*
X0264095Y0263111D02*
X0264095Y0251300D01*
X0250316Y0251300D01*
X0250316Y0263111D01*
X0264095Y0263111D01*
X0299968Y0205352D02*
X0300672Y0205352D01*
X0301377Y0204648D01*
X0301377Y0203238D01*
X0300672Y0202534D01*
X0299968Y0202534D01*
X0299263Y0203238D01*
X0299263Y0204648D01*
X0299968Y0205352D01*
X0301377Y0204648D02*
X0302082Y0205352D01*
X0302786Y0205352D01*
X0303491Y0204648D01*
X0303491Y0203238D01*
X0302786Y0202534D01*
X0302082Y0202534D01*
X0301377Y0203238D01*
X0303491Y0201002D02*
X0303491Y0198184D01*
X0303491Y0199593D02*
X0299263Y0199593D01*
X0300672Y0198184D01*
X0299968Y0196652D02*
X0299263Y0195947D01*
X0299263Y0194538D01*
X0299968Y0193833D01*
X0302786Y0193833D01*
X0303491Y0194538D01*
X0303491Y0195947D01*
X0302786Y0196652D01*
X0346271Y0188999D02*
X0346271Y0187590D01*
X0346975Y0186885D01*
X0347680Y0186885D01*
X0348385Y0187590D01*
X0348385Y0189704D01*
X0349794Y0189704D02*
X0346975Y0189704D01*
X0346271Y0188999D01*
X0349794Y0189704D02*
X0350499Y0188999D01*
X0350499Y0187590D01*
X0349794Y0186885D01*
X0350499Y0185353D02*
X0350499Y0182535D01*
X0350499Y0183944D02*
X0346271Y0183944D01*
X0347680Y0182535D01*
X0346975Y0181003D02*
X0346271Y0180299D01*
X0346271Y0178889D01*
X0346975Y0178185D01*
X0349794Y0178185D01*
X0350499Y0178889D01*
X0350499Y0180299D01*
X0349794Y0181003D01*
X0364599Y0167006D02*
X0366592Y0168999D01*
X0367090Y0168501D01*
X0367090Y0164515D01*
X0367588Y0164016D01*
X0366505Y0162933D02*
X0364512Y0162933D01*
X0365010Y0163432D02*
X0363516Y0161937D01*
X0364512Y0160940D02*
X0361523Y0163930D01*
X0363017Y0165425D01*
X0364014Y0165425D01*
X0365010Y0164428D01*
X0365010Y0163432D01*
X0385671Y0145769D02*
X0396807Y0134634D01*
X0380104Y0117930D01*
X0368968Y0129066D01*
X0385671Y0145769D01*
X0357655Y0104511D02*
X0355662Y0102518D01*
X0357156Y0101023D01*
X0357655Y0102518D01*
X0358153Y0103016D01*
X0359150Y0103016D01*
X0360146Y0102020D01*
X0360146Y0101023D01*
X0359149Y0100026D01*
X0358153Y0100026D01*
X0357070Y0098944D02*
X0357070Y0097947D01*
X0356073Y0096950D01*
X0355077Y0096950D01*
X0353084Y0098944D01*
X0353084Y0099940D01*
X0354080Y0100937D01*
X0355077Y0100937D01*
X0326563Y0113543D02*
X0325567Y0112546D01*
X0324570Y0112546D01*
X0323574Y0113543D01*
X0325069Y0115037D01*
X0326065Y0115038D01*
X0326563Y0114539D01*
X0326563Y0113543D01*
X0323574Y0113543D02*
X0323574Y0115536D01*
X0324072Y0117031D01*
X0321494Y0113456D02*
X0320498Y0113456D01*
X0319501Y0112460D01*
X0319501Y0111463D01*
X0321494Y0109470D01*
X0322491Y0109470D01*
X0323487Y0110467D01*
X0323487Y0111463D01*
X0301455Y0132913D02*
X0300957Y0132415D01*
X0299960Y0132415D01*
X0298963Y0133411D01*
X0298963Y0134408D01*
X0299462Y0134906D01*
X0300458Y0134906D01*
X0301455Y0133909D01*
X0301455Y0132913D01*
X0301455Y0133909D02*
X0302451Y0133909D01*
X0302950Y0134408D01*
X0302950Y0135404D01*
X0301953Y0136401D01*
X0300957Y0136401D01*
X0300458Y0135902D01*
X0300458Y0134906D01*
X0298877Y0136487D02*
X0297881Y0136487D01*
X0296386Y0137982D01*
X0297382Y0136985D02*
X0297382Y0134992D01*
X0298877Y0136487D02*
X0299874Y0137484D01*
X0299874Y0138480D01*
X0298379Y0139975D01*
X0295389Y0136985D01*
X0254719Y0166619D02*
X0254719Y0167324D01*
X0254015Y0168028D01*
X0250491Y0168028D01*
X0250491Y0167324D02*
X0250491Y0168733D01*
X0251196Y0170264D02*
X0250491Y0170969D01*
X0250491Y0172378D01*
X0251196Y0173083D01*
X0251901Y0173083D01*
X0254719Y0170264D01*
X0254719Y0173083D01*
X0254719Y0166619D02*
X0254015Y0165914D01*
X0192438Y0079605D02*
X0193933Y0078110D01*
X0193933Y0077113D01*
X0191940Y0075120D01*
X0190944Y0075120D01*
X0189449Y0076615D01*
X0192438Y0079605D01*
X0195016Y0076030D02*
X0196013Y0076030D01*
X0197009Y0075034D01*
X0197009Y0074037D01*
X0196511Y0073539D01*
X0192525Y0073539D01*
X0194518Y0071546D01*
X0251519Y0071774D02*
X0252270Y0071023D01*
X0253020Y0071023D01*
X0253771Y0071774D01*
X0253771Y0075527D01*
X0254521Y0075527D02*
X0253020Y0075527D01*
X0256123Y0075527D02*
X0258375Y0075527D01*
X0259125Y0074776D01*
X0259125Y0073275D01*
X0258375Y0072525D01*
X0256123Y0072525D01*
X0256123Y0071023D02*
X0256123Y0075527D01*
X0260727Y0074776D02*
X0261477Y0075527D01*
X0262979Y0075527D01*
X0263729Y0074776D01*
X0263729Y0074026D01*
X0260727Y0071023D01*
X0263729Y0071023D01*
X0320932Y0075741D02*
X0322427Y0077236D01*
X0323423Y0077236D01*
X0325416Y0075243D01*
X0325416Y0074246D01*
X0323922Y0072751D01*
X0320932Y0075741D01*
X0325503Y0077322D02*
X0327496Y0079315D01*
X0328493Y0077322D02*
X0325503Y0080312D01*
X0325503Y0077322D01*
X0354641Y0223204D02*
X0354641Y0227432D01*
X0356755Y0227432D01*
X0357460Y0226727D01*
X0357460Y0225318D01*
X0356755Y0224613D01*
X0354641Y0224613D01*
X0356051Y0224613D02*
X0357460Y0223204D01*
X0358991Y0223204D02*
X0361810Y0223204D01*
X0360401Y0223204D02*
X0360401Y0227432D01*
X0358991Y0226022D01*
X0363342Y0226022D02*
X0364751Y0227432D01*
X0364751Y0223204D01*
X0363342Y0223204D02*
X0366160Y0223204D01*
X0399188Y0227928D02*
X0402006Y0227928D01*
X0403538Y0227928D02*
X0406357Y0227928D01*
X0407888Y0227928D02*
X0410002Y0227928D01*
X0410707Y0228633D01*
X0410707Y0231451D01*
X0410002Y0232156D01*
X0407888Y0232156D01*
X0407888Y0227928D01*
X0404947Y0230042D02*
X0403538Y0230042D01*
X0403538Y0232156D02*
X0403538Y0227928D01*
X0403538Y0232156D02*
X0406357Y0232156D01*
X0412238Y0231451D02*
X0412943Y0232156D01*
X0414352Y0232156D01*
X0415057Y0231451D01*
X0415057Y0230747D01*
X0412238Y0227928D01*
X0415057Y0227928D01*
X0399188Y0227928D02*
X0399188Y0232156D01*
X0439105Y0259259D02*
X0439105Y0260668D01*
X0439105Y0259963D02*
X0442629Y0259963D01*
X0443333Y0259259D01*
X0443333Y0258554D01*
X0442629Y0257849D01*
X0441219Y0262199D02*
X0441219Y0265018D01*
X0439105Y0264313D02*
X0441219Y0262199D01*
X0443333Y0264313D02*
X0439105Y0264313D01*
X0415057Y0287688D02*
X0415057Y0288392D01*
X0414352Y0289097D01*
X0413648Y0289097D01*
X0414352Y0289097D02*
X0415057Y0289802D01*
X0415057Y0290506D01*
X0414352Y0291211D01*
X0412943Y0291211D01*
X0412238Y0290506D01*
X0410707Y0290506D02*
X0410707Y0287688D01*
X0410002Y0286983D01*
X0407888Y0286983D01*
X0407888Y0291211D01*
X0410002Y0291211D01*
X0410707Y0290506D01*
X0412238Y0287688D02*
X0412943Y0286983D01*
X0414352Y0286983D01*
X0415057Y0287688D01*
X0406357Y0286983D02*
X0403538Y0286983D01*
X0403538Y0291211D01*
X0406357Y0291211D01*
X0404947Y0289097D02*
X0403538Y0289097D01*
X0402006Y0286983D02*
X0399188Y0286983D01*
X0399188Y0291211D01*
X0366160Y0285782D02*
X0363342Y0282963D01*
X0364046Y0282259D01*
X0365456Y0282259D01*
X0366160Y0282963D01*
X0366160Y0285782D01*
X0365456Y0286487D01*
X0364046Y0286487D01*
X0363342Y0285782D01*
X0363342Y0282963D01*
X0361810Y0282259D02*
X0358991Y0282259D01*
X0360401Y0282259D02*
X0360401Y0286487D01*
X0358991Y0285077D01*
X0357460Y0284373D02*
X0356755Y0283668D01*
X0354641Y0283668D01*
X0354641Y0282259D02*
X0354641Y0286487D01*
X0356755Y0286487D01*
X0357460Y0285782D01*
X0357460Y0284373D01*
X0356051Y0283668D02*
X0357460Y0282259D01*
X0352728Y0323635D02*
X0353226Y0324133D01*
X0353226Y0325130D01*
X0351732Y0326625D01*
X0350735Y0325628D01*
X0350735Y0324632D01*
X0351732Y0323635D01*
X0352728Y0323635D01*
X0353725Y0326625D02*
X0351732Y0326625D01*
X0350649Y0327708D02*
X0349652Y0327708D01*
X0348157Y0329202D01*
X0347161Y0328206D02*
X0350150Y0331196D01*
X0351645Y0329701D01*
X0351645Y0328704D01*
X0350649Y0327708D01*
X0349154Y0328206D02*
X0349154Y0326213D01*
X0353725Y0326625D02*
X0355220Y0326126D01*
X0341500Y0361414D02*
X0344490Y0364404D01*
X0341500Y0364404D01*
X0343493Y0362411D01*
X0341414Y0366483D02*
X0341414Y0367480D01*
X0340417Y0368476D01*
X0339421Y0368476D01*
X0337427Y0366483D01*
X0337427Y0365487D01*
X0338424Y0364490D01*
X0339421Y0364490D01*
X0369744Y0385002D02*
X0380880Y0396138D01*
X0397583Y0379434D01*
X0386447Y0368299D01*
X0369744Y0385002D01*
X0353673Y0409029D02*
X0352677Y0409029D01*
X0351680Y0410025D01*
X0351680Y0411022D01*
X0350597Y0412105D02*
X0349601Y0412105D01*
X0348604Y0413101D01*
X0348604Y0414098D01*
X0350597Y0416091D01*
X0351594Y0416091D01*
X0352590Y0415094D01*
X0352590Y0414098D01*
X0353673Y0413015D02*
X0354670Y0413015D01*
X0355666Y0412018D01*
X0355666Y0411022D01*
X0355168Y0410524D01*
X0354171Y0410524D01*
X0354171Y0409527D01*
X0353673Y0409029D01*
X0354171Y0410524D02*
X0353673Y0411022D01*
X0337704Y0401032D02*
X0335711Y0403025D01*
X0334217Y0401530D01*
X0335711Y0401032D01*
X0336210Y0400533D01*
X0336210Y0399537D01*
X0335213Y0398540D01*
X0334217Y0398540D01*
X0333220Y0399537D01*
X0333220Y0400533D01*
X0331639Y0401118D02*
X0331639Y0403111D01*
X0332137Y0402613D02*
X0330642Y0404108D01*
X0329646Y0403111D02*
X0332635Y0406101D01*
X0334130Y0404606D01*
X0334130Y0403609D01*
X0333134Y0402613D01*
X0332137Y0402613D01*
X0324972Y0431942D02*
X0323976Y0431942D01*
X0322979Y0432939D01*
X0322979Y0433935D01*
X0321896Y0435018D02*
X0323889Y0437011D01*
X0323889Y0438008D01*
X0322395Y0439503D01*
X0319405Y0436513D01*
X0320900Y0435018D01*
X0321896Y0435018D01*
X0324972Y0435928D02*
X0325969Y0435928D01*
X0326965Y0434932D01*
X0326965Y0433935D01*
X0326467Y0433437D01*
X0325471Y0433437D01*
X0325471Y0432440D01*
X0324972Y0431942D01*
X0325471Y0433437D02*
X0324972Y0433935D01*
X0288215Y0403290D02*
X0287511Y0403995D01*
X0286806Y0403995D01*
X0286101Y0403290D01*
X0286101Y0401176D01*
X0287511Y0401176D01*
X0288215Y0401881D01*
X0288215Y0403290D01*
X0286101Y0401176D02*
X0284692Y0402586D01*
X0283987Y0403995D01*
X0283987Y0398235D02*
X0288215Y0398235D01*
X0288215Y0396826D02*
X0288215Y0399645D01*
X0285397Y0396826D02*
X0283987Y0398235D01*
X0284692Y0395295D02*
X0283987Y0394590D01*
X0283987Y0393181D01*
X0284692Y0392476D01*
X0287511Y0392476D01*
X0288215Y0393181D01*
X0288215Y0394590D01*
X0287511Y0395295D01*
X0300172Y0376172D02*
X0302286Y0376172D01*
X0302991Y0375467D01*
X0302991Y0374058D01*
X0302286Y0373353D01*
X0300172Y0373353D01*
X0300172Y0371944D02*
X0300172Y0376172D01*
X0301581Y0373353D02*
X0302991Y0371944D01*
X0304522Y0372648D02*
X0305227Y0371944D01*
X0306636Y0371944D01*
X0307341Y0372648D01*
X0307341Y0375467D01*
X0306636Y0376172D01*
X0305227Y0376172D01*
X0304522Y0375467D01*
X0304522Y0374762D01*
X0305227Y0374058D01*
X0307341Y0374058D01*
X0307428Y0356526D02*
X0307428Y0352298D01*
X0308837Y0352298D02*
X0306018Y0352298D01*
X0304487Y0353003D02*
X0303782Y0352298D01*
X0302373Y0352298D01*
X0301668Y0353003D01*
X0301668Y0355821D01*
X0302373Y0356526D01*
X0303782Y0356526D01*
X0304487Y0355821D01*
X0306018Y0355117D02*
X0307428Y0356526D01*
X0310368Y0355117D02*
X0311778Y0356526D01*
X0311778Y0352298D01*
X0313187Y0352298D02*
X0310368Y0352298D01*
X0310916Y0341684D02*
X0310211Y0340979D01*
X0310916Y0341684D02*
X0312325Y0341684D01*
X0313030Y0340979D01*
X0313030Y0340274D01*
X0310211Y0337456D01*
X0313030Y0337456D01*
X0308679Y0337456D02*
X0305861Y0337456D01*
X0307270Y0337456D02*
X0307270Y0341684D01*
X0305861Y0340274D01*
X0304329Y0340979D02*
X0303625Y0341684D01*
X0302215Y0341684D01*
X0301511Y0340979D01*
X0301511Y0338160D01*
X0302215Y0337456D01*
X0303625Y0337456D01*
X0304329Y0338160D01*
X0246164Y0372672D02*
X0243162Y0372672D01*
X0244663Y0372672D02*
X0244663Y0377176D01*
X0243162Y0375675D01*
X0241560Y0377176D02*
X0240059Y0377176D01*
X0240810Y0377176D02*
X0240810Y0373423D01*
X0240059Y0372672D01*
X0239309Y0372672D01*
X0238558Y0373423D01*
X0217032Y0395586D02*
X0214042Y0398576D01*
X0215537Y0400070D01*
X0216534Y0400070D01*
X0217530Y0399074D01*
X0217530Y0398077D01*
X0216035Y0396583D01*
X0217032Y0397579D02*
X0219025Y0397579D01*
X0220108Y0398662D02*
X0222101Y0400655D01*
X0221104Y0399659D02*
X0218115Y0402648D01*
X0218115Y0400655D01*
X0198523Y0379096D02*
X0197527Y0379096D01*
X0196530Y0378099D01*
X0196530Y0377103D01*
X0195447Y0376020D02*
X0196444Y0375023D01*
X0196444Y0374027D01*
X0194949Y0372532D01*
X0195946Y0373529D02*
X0197939Y0373529D01*
X0199022Y0374611D02*
X0199022Y0378598D01*
X0198523Y0379096D01*
X0201015Y0376605D02*
X0199022Y0374611D01*
X0195447Y0376020D02*
X0194451Y0376020D01*
X0192956Y0374525D01*
X0195946Y0371535D01*
X0185562Y0399824D02*
X0184565Y0399824D01*
X0182572Y0401818D01*
X0182572Y0402814D01*
X0183569Y0403811D01*
X0184565Y0403811D01*
X0185648Y0404894D02*
X0185648Y0405890D01*
X0186645Y0406887D01*
X0187641Y0406887D01*
X0188139Y0406388D01*
X0188139Y0402402D01*
X0190133Y0404395D01*
X0186558Y0401818D02*
X0186558Y0400821D01*
X0185562Y0399824D01*
X0164212Y0421889D02*
X0164212Y0422885D01*
X0164212Y0421889D02*
X0163216Y0420892D01*
X0162219Y0420892D01*
X0160226Y0422885D01*
X0160226Y0423882D01*
X0161222Y0424878D01*
X0162219Y0424878D01*
X0163800Y0425463D02*
X0163800Y0427456D01*
X0166790Y0424466D01*
X0165793Y0423470D02*
X0167786Y0425463D01*
X0195436Y0438541D02*
X0198426Y0435551D01*
X0199921Y0437046D01*
X0199921Y0438043D01*
X0197928Y0440036D01*
X0196931Y0440036D01*
X0195436Y0438541D01*
X0199509Y0440620D02*
X0199509Y0442613D01*
X0202499Y0439624D01*
X0203495Y0440620D02*
X0201502Y0438627D01*
X0252582Y0430553D02*
X0253333Y0429803D01*
X0254083Y0429803D01*
X0254834Y0430553D01*
X0254834Y0434307D01*
X0255584Y0434307D02*
X0254083Y0434307D01*
X0257186Y0434307D02*
X0257186Y0429803D01*
X0257186Y0431304D02*
X0259438Y0431304D01*
X0260188Y0432055D01*
X0260188Y0433556D01*
X0259438Y0434307D01*
X0257186Y0434307D01*
X0261790Y0433556D02*
X0261790Y0432805D01*
X0262540Y0432055D01*
X0264792Y0432055D01*
X0264792Y0433556D02*
X0264792Y0430553D01*
X0264042Y0429803D01*
X0262540Y0429803D01*
X0261790Y0430553D01*
X0261790Y0433556D02*
X0262540Y0434307D01*
X0264042Y0434307D01*
X0264792Y0433556D01*
X0143767Y0386276D02*
X0127063Y0369572D01*
X0115928Y0380708D01*
X0132631Y0397411D01*
X0143767Y0386276D01*
D15*
X0225513Y0304646D02*
X0225515Y0304751D01*
X0225521Y0304856D01*
X0225531Y0304960D01*
X0225545Y0305064D01*
X0225563Y0305168D01*
X0225585Y0305270D01*
X0225610Y0305372D01*
X0225640Y0305473D01*
X0225673Y0305572D01*
X0225710Y0305670D01*
X0225751Y0305767D01*
X0225796Y0305862D01*
X0225844Y0305955D01*
X0225895Y0306047D01*
X0225951Y0306136D01*
X0226009Y0306223D01*
X0226071Y0306308D01*
X0226135Y0306391D01*
X0226203Y0306471D01*
X0226274Y0306548D01*
X0226348Y0306622D01*
X0226425Y0306694D01*
X0226504Y0306763D01*
X0226586Y0306828D01*
X0226670Y0306891D01*
X0226757Y0306950D01*
X0226846Y0307006D01*
X0226937Y0307059D01*
X0227030Y0307108D01*
X0227124Y0307153D01*
X0227220Y0307195D01*
X0227318Y0307233D01*
X0227417Y0307267D01*
X0227518Y0307298D01*
X0227619Y0307324D01*
X0227722Y0307347D01*
X0227825Y0307366D01*
X0227929Y0307381D01*
X0228033Y0307392D01*
X0228138Y0307399D01*
X0228243Y0307402D01*
X0228348Y0307401D01*
X0228453Y0307396D01*
X0228557Y0307387D01*
X0228661Y0307374D01*
X0228765Y0307357D01*
X0228868Y0307336D01*
X0228970Y0307311D01*
X0229071Y0307283D01*
X0229170Y0307250D01*
X0229269Y0307214D01*
X0229366Y0307174D01*
X0229461Y0307131D01*
X0229555Y0307083D01*
X0229647Y0307033D01*
X0229737Y0306979D01*
X0229825Y0306921D01*
X0229910Y0306860D01*
X0229993Y0306796D01*
X0230074Y0306729D01*
X0230152Y0306659D01*
X0230227Y0306585D01*
X0230299Y0306510D01*
X0230369Y0306431D01*
X0230435Y0306350D01*
X0230499Y0306266D01*
X0230559Y0306180D01*
X0230615Y0306092D01*
X0230669Y0306001D01*
X0230719Y0305909D01*
X0230765Y0305815D01*
X0230808Y0305719D01*
X0230847Y0305621D01*
X0230882Y0305523D01*
X0230913Y0305422D01*
X0230941Y0305321D01*
X0230965Y0305219D01*
X0230985Y0305116D01*
X0231001Y0305012D01*
X0231013Y0304908D01*
X0231021Y0304803D01*
X0231025Y0304698D01*
X0231025Y0304594D01*
X0231021Y0304489D01*
X0231013Y0304384D01*
X0231001Y0304280D01*
X0230985Y0304176D01*
X0230965Y0304073D01*
X0230941Y0303971D01*
X0230913Y0303870D01*
X0230882Y0303769D01*
X0230847Y0303671D01*
X0230808Y0303573D01*
X0230765Y0303477D01*
X0230719Y0303383D01*
X0230669Y0303291D01*
X0230615Y0303200D01*
X0230559Y0303112D01*
X0230499Y0303026D01*
X0230435Y0302942D01*
X0230369Y0302861D01*
X0230299Y0302782D01*
X0230227Y0302707D01*
X0230152Y0302633D01*
X0230074Y0302563D01*
X0229993Y0302496D01*
X0229910Y0302432D01*
X0229825Y0302371D01*
X0229737Y0302313D01*
X0229647Y0302259D01*
X0229555Y0302209D01*
X0229461Y0302161D01*
X0229366Y0302118D01*
X0229269Y0302078D01*
X0229170Y0302042D01*
X0229071Y0302009D01*
X0228970Y0301981D01*
X0228868Y0301956D01*
X0228765Y0301935D01*
X0228661Y0301918D01*
X0228557Y0301905D01*
X0228453Y0301896D01*
X0228348Y0301891D01*
X0228243Y0301890D01*
X0228138Y0301893D01*
X0228033Y0301900D01*
X0227929Y0301911D01*
X0227825Y0301926D01*
X0227722Y0301945D01*
X0227619Y0301968D01*
X0227518Y0301994D01*
X0227417Y0302025D01*
X0227318Y0302059D01*
X0227220Y0302097D01*
X0227124Y0302139D01*
X0227030Y0302184D01*
X0226937Y0302233D01*
X0226846Y0302286D01*
X0226757Y0302342D01*
X0226670Y0302401D01*
X0226586Y0302464D01*
X0226504Y0302529D01*
X0226425Y0302598D01*
X0226348Y0302670D01*
X0226274Y0302744D01*
X0226203Y0302821D01*
X0226135Y0302901D01*
X0226071Y0302984D01*
X0226009Y0303069D01*
X0225951Y0303156D01*
X0225895Y0303245D01*
X0225844Y0303337D01*
X0225796Y0303430D01*
X0225751Y0303525D01*
X0225710Y0303622D01*
X0225673Y0303720D01*
X0225640Y0303819D01*
X0225610Y0303920D01*
X0225585Y0304022D01*
X0225563Y0304124D01*
X0225545Y0304228D01*
X0225531Y0304332D01*
X0225521Y0304436D01*
X0225515Y0304541D01*
X0225513Y0304646D01*
X0283387Y0304646D02*
X0283389Y0304751D01*
X0283395Y0304856D01*
X0283405Y0304960D01*
X0283419Y0305064D01*
X0283437Y0305168D01*
X0283459Y0305270D01*
X0283484Y0305372D01*
X0283514Y0305473D01*
X0283547Y0305572D01*
X0283584Y0305670D01*
X0283625Y0305767D01*
X0283670Y0305862D01*
X0283718Y0305955D01*
X0283769Y0306047D01*
X0283825Y0306136D01*
X0283883Y0306223D01*
X0283945Y0306308D01*
X0284009Y0306391D01*
X0284077Y0306471D01*
X0284148Y0306548D01*
X0284222Y0306622D01*
X0284299Y0306694D01*
X0284378Y0306763D01*
X0284460Y0306828D01*
X0284544Y0306891D01*
X0284631Y0306950D01*
X0284720Y0307006D01*
X0284811Y0307059D01*
X0284904Y0307108D01*
X0284998Y0307153D01*
X0285094Y0307195D01*
X0285192Y0307233D01*
X0285291Y0307267D01*
X0285392Y0307298D01*
X0285493Y0307324D01*
X0285596Y0307347D01*
X0285699Y0307366D01*
X0285803Y0307381D01*
X0285907Y0307392D01*
X0286012Y0307399D01*
X0286117Y0307402D01*
X0286222Y0307401D01*
X0286327Y0307396D01*
X0286431Y0307387D01*
X0286535Y0307374D01*
X0286639Y0307357D01*
X0286742Y0307336D01*
X0286844Y0307311D01*
X0286945Y0307283D01*
X0287044Y0307250D01*
X0287143Y0307214D01*
X0287240Y0307174D01*
X0287335Y0307131D01*
X0287429Y0307083D01*
X0287521Y0307033D01*
X0287611Y0306979D01*
X0287699Y0306921D01*
X0287784Y0306860D01*
X0287867Y0306796D01*
X0287948Y0306729D01*
X0288026Y0306659D01*
X0288101Y0306585D01*
X0288173Y0306510D01*
X0288243Y0306431D01*
X0288309Y0306350D01*
X0288373Y0306266D01*
X0288433Y0306180D01*
X0288489Y0306092D01*
X0288543Y0306001D01*
X0288593Y0305909D01*
X0288639Y0305815D01*
X0288682Y0305719D01*
X0288721Y0305621D01*
X0288756Y0305523D01*
X0288787Y0305422D01*
X0288815Y0305321D01*
X0288839Y0305219D01*
X0288859Y0305116D01*
X0288875Y0305012D01*
X0288887Y0304908D01*
X0288895Y0304803D01*
X0288899Y0304698D01*
X0288899Y0304594D01*
X0288895Y0304489D01*
X0288887Y0304384D01*
X0288875Y0304280D01*
X0288859Y0304176D01*
X0288839Y0304073D01*
X0288815Y0303971D01*
X0288787Y0303870D01*
X0288756Y0303769D01*
X0288721Y0303671D01*
X0288682Y0303573D01*
X0288639Y0303477D01*
X0288593Y0303383D01*
X0288543Y0303291D01*
X0288489Y0303200D01*
X0288433Y0303112D01*
X0288373Y0303026D01*
X0288309Y0302942D01*
X0288243Y0302861D01*
X0288173Y0302782D01*
X0288101Y0302707D01*
X0288026Y0302633D01*
X0287948Y0302563D01*
X0287867Y0302496D01*
X0287784Y0302432D01*
X0287699Y0302371D01*
X0287611Y0302313D01*
X0287521Y0302259D01*
X0287429Y0302209D01*
X0287335Y0302161D01*
X0287240Y0302118D01*
X0287143Y0302078D01*
X0287044Y0302042D01*
X0286945Y0302009D01*
X0286844Y0301981D01*
X0286742Y0301956D01*
X0286639Y0301935D01*
X0286535Y0301918D01*
X0286431Y0301905D01*
X0286327Y0301896D01*
X0286222Y0301891D01*
X0286117Y0301890D01*
X0286012Y0301893D01*
X0285907Y0301900D01*
X0285803Y0301911D01*
X0285699Y0301926D01*
X0285596Y0301945D01*
X0285493Y0301968D01*
X0285392Y0301994D01*
X0285291Y0302025D01*
X0285192Y0302059D01*
X0285094Y0302097D01*
X0284998Y0302139D01*
X0284904Y0302184D01*
X0284811Y0302233D01*
X0284720Y0302286D01*
X0284631Y0302342D01*
X0284544Y0302401D01*
X0284460Y0302464D01*
X0284378Y0302529D01*
X0284299Y0302598D01*
X0284222Y0302670D01*
X0284148Y0302744D01*
X0284077Y0302821D01*
X0284009Y0302901D01*
X0283945Y0302984D01*
X0283883Y0303069D01*
X0283825Y0303156D01*
X0283769Y0303245D01*
X0283718Y0303337D01*
X0283670Y0303430D01*
X0283625Y0303525D01*
X0283584Y0303622D01*
X0283547Y0303720D01*
X0283514Y0303819D01*
X0283484Y0303920D01*
X0283459Y0304022D01*
X0283437Y0304124D01*
X0283419Y0304228D01*
X0283405Y0304332D01*
X0283395Y0304436D01*
X0283389Y0304541D01*
X0283387Y0304646D01*
X0283387Y0209765D02*
X0283389Y0209870D01*
X0283395Y0209975D01*
X0283405Y0210079D01*
X0283419Y0210183D01*
X0283437Y0210287D01*
X0283459Y0210389D01*
X0283484Y0210491D01*
X0283514Y0210592D01*
X0283547Y0210691D01*
X0283584Y0210789D01*
X0283625Y0210886D01*
X0283670Y0210981D01*
X0283718Y0211074D01*
X0283769Y0211166D01*
X0283825Y0211255D01*
X0283883Y0211342D01*
X0283945Y0211427D01*
X0284009Y0211510D01*
X0284077Y0211590D01*
X0284148Y0211667D01*
X0284222Y0211741D01*
X0284299Y0211813D01*
X0284378Y0211882D01*
X0284460Y0211947D01*
X0284544Y0212010D01*
X0284631Y0212069D01*
X0284720Y0212125D01*
X0284811Y0212178D01*
X0284904Y0212227D01*
X0284998Y0212272D01*
X0285094Y0212314D01*
X0285192Y0212352D01*
X0285291Y0212386D01*
X0285392Y0212417D01*
X0285493Y0212443D01*
X0285596Y0212466D01*
X0285699Y0212485D01*
X0285803Y0212500D01*
X0285907Y0212511D01*
X0286012Y0212518D01*
X0286117Y0212521D01*
X0286222Y0212520D01*
X0286327Y0212515D01*
X0286431Y0212506D01*
X0286535Y0212493D01*
X0286639Y0212476D01*
X0286742Y0212455D01*
X0286844Y0212430D01*
X0286945Y0212402D01*
X0287044Y0212369D01*
X0287143Y0212333D01*
X0287240Y0212293D01*
X0287335Y0212250D01*
X0287429Y0212202D01*
X0287521Y0212152D01*
X0287611Y0212098D01*
X0287699Y0212040D01*
X0287784Y0211979D01*
X0287867Y0211915D01*
X0287948Y0211848D01*
X0288026Y0211778D01*
X0288101Y0211704D01*
X0288173Y0211629D01*
X0288243Y0211550D01*
X0288309Y0211469D01*
X0288373Y0211385D01*
X0288433Y0211299D01*
X0288489Y0211211D01*
X0288543Y0211120D01*
X0288593Y0211028D01*
X0288639Y0210934D01*
X0288682Y0210838D01*
X0288721Y0210740D01*
X0288756Y0210642D01*
X0288787Y0210541D01*
X0288815Y0210440D01*
X0288839Y0210338D01*
X0288859Y0210235D01*
X0288875Y0210131D01*
X0288887Y0210027D01*
X0288895Y0209922D01*
X0288899Y0209817D01*
X0288899Y0209713D01*
X0288895Y0209608D01*
X0288887Y0209503D01*
X0288875Y0209399D01*
X0288859Y0209295D01*
X0288839Y0209192D01*
X0288815Y0209090D01*
X0288787Y0208989D01*
X0288756Y0208888D01*
X0288721Y0208790D01*
X0288682Y0208692D01*
X0288639Y0208596D01*
X0288593Y0208502D01*
X0288543Y0208410D01*
X0288489Y0208319D01*
X0288433Y0208231D01*
X0288373Y0208145D01*
X0288309Y0208061D01*
X0288243Y0207980D01*
X0288173Y0207901D01*
X0288101Y0207826D01*
X0288026Y0207752D01*
X0287948Y0207682D01*
X0287867Y0207615D01*
X0287784Y0207551D01*
X0287699Y0207490D01*
X0287611Y0207432D01*
X0287521Y0207378D01*
X0287429Y0207328D01*
X0287335Y0207280D01*
X0287240Y0207237D01*
X0287143Y0207197D01*
X0287044Y0207161D01*
X0286945Y0207128D01*
X0286844Y0207100D01*
X0286742Y0207075D01*
X0286639Y0207054D01*
X0286535Y0207037D01*
X0286431Y0207024D01*
X0286327Y0207015D01*
X0286222Y0207010D01*
X0286117Y0207009D01*
X0286012Y0207012D01*
X0285907Y0207019D01*
X0285803Y0207030D01*
X0285699Y0207045D01*
X0285596Y0207064D01*
X0285493Y0207087D01*
X0285392Y0207113D01*
X0285291Y0207144D01*
X0285192Y0207178D01*
X0285094Y0207216D01*
X0284998Y0207258D01*
X0284904Y0207303D01*
X0284811Y0207352D01*
X0284720Y0207405D01*
X0284631Y0207461D01*
X0284544Y0207520D01*
X0284460Y0207583D01*
X0284378Y0207648D01*
X0284299Y0207717D01*
X0284222Y0207789D01*
X0284148Y0207863D01*
X0284077Y0207940D01*
X0284009Y0208020D01*
X0283945Y0208103D01*
X0283883Y0208188D01*
X0283825Y0208275D01*
X0283769Y0208364D01*
X0283718Y0208456D01*
X0283670Y0208549D01*
X0283625Y0208644D01*
X0283584Y0208741D01*
X0283547Y0208839D01*
X0283514Y0208938D01*
X0283484Y0209039D01*
X0283459Y0209141D01*
X0283437Y0209243D01*
X0283419Y0209347D01*
X0283405Y0209451D01*
X0283395Y0209555D01*
X0283389Y0209660D01*
X0283387Y0209765D01*
X0225513Y0209765D02*
X0225515Y0209870D01*
X0225521Y0209975D01*
X0225531Y0210079D01*
X0225545Y0210183D01*
X0225563Y0210287D01*
X0225585Y0210389D01*
X0225610Y0210491D01*
X0225640Y0210592D01*
X0225673Y0210691D01*
X0225710Y0210789D01*
X0225751Y0210886D01*
X0225796Y0210981D01*
X0225844Y0211074D01*
X0225895Y0211166D01*
X0225951Y0211255D01*
X0226009Y0211342D01*
X0226071Y0211427D01*
X0226135Y0211510D01*
X0226203Y0211590D01*
X0226274Y0211667D01*
X0226348Y0211741D01*
X0226425Y0211813D01*
X0226504Y0211882D01*
X0226586Y0211947D01*
X0226670Y0212010D01*
X0226757Y0212069D01*
X0226846Y0212125D01*
X0226937Y0212178D01*
X0227030Y0212227D01*
X0227124Y0212272D01*
X0227220Y0212314D01*
X0227318Y0212352D01*
X0227417Y0212386D01*
X0227518Y0212417D01*
X0227619Y0212443D01*
X0227722Y0212466D01*
X0227825Y0212485D01*
X0227929Y0212500D01*
X0228033Y0212511D01*
X0228138Y0212518D01*
X0228243Y0212521D01*
X0228348Y0212520D01*
X0228453Y0212515D01*
X0228557Y0212506D01*
X0228661Y0212493D01*
X0228765Y0212476D01*
X0228868Y0212455D01*
X0228970Y0212430D01*
X0229071Y0212402D01*
X0229170Y0212369D01*
X0229269Y0212333D01*
X0229366Y0212293D01*
X0229461Y0212250D01*
X0229555Y0212202D01*
X0229647Y0212152D01*
X0229737Y0212098D01*
X0229825Y0212040D01*
X0229910Y0211979D01*
X0229993Y0211915D01*
X0230074Y0211848D01*
X0230152Y0211778D01*
X0230227Y0211704D01*
X0230299Y0211629D01*
X0230369Y0211550D01*
X0230435Y0211469D01*
X0230499Y0211385D01*
X0230559Y0211299D01*
X0230615Y0211211D01*
X0230669Y0211120D01*
X0230719Y0211028D01*
X0230765Y0210934D01*
X0230808Y0210838D01*
X0230847Y0210740D01*
X0230882Y0210642D01*
X0230913Y0210541D01*
X0230941Y0210440D01*
X0230965Y0210338D01*
X0230985Y0210235D01*
X0231001Y0210131D01*
X0231013Y0210027D01*
X0231021Y0209922D01*
X0231025Y0209817D01*
X0231025Y0209713D01*
X0231021Y0209608D01*
X0231013Y0209503D01*
X0231001Y0209399D01*
X0230985Y0209295D01*
X0230965Y0209192D01*
X0230941Y0209090D01*
X0230913Y0208989D01*
X0230882Y0208888D01*
X0230847Y0208790D01*
X0230808Y0208692D01*
X0230765Y0208596D01*
X0230719Y0208502D01*
X0230669Y0208410D01*
X0230615Y0208319D01*
X0230559Y0208231D01*
X0230499Y0208145D01*
X0230435Y0208061D01*
X0230369Y0207980D01*
X0230299Y0207901D01*
X0230227Y0207826D01*
X0230152Y0207752D01*
X0230074Y0207682D01*
X0229993Y0207615D01*
X0229910Y0207551D01*
X0229825Y0207490D01*
X0229737Y0207432D01*
X0229647Y0207378D01*
X0229555Y0207328D01*
X0229461Y0207280D01*
X0229366Y0207237D01*
X0229269Y0207197D01*
X0229170Y0207161D01*
X0229071Y0207128D01*
X0228970Y0207100D01*
X0228868Y0207075D01*
X0228765Y0207054D01*
X0228661Y0207037D01*
X0228557Y0207024D01*
X0228453Y0207015D01*
X0228348Y0207010D01*
X0228243Y0207009D01*
X0228138Y0207012D01*
X0228033Y0207019D01*
X0227929Y0207030D01*
X0227825Y0207045D01*
X0227722Y0207064D01*
X0227619Y0207087D01*
X0227518Y0207113D01*
X0227417Y0207144D01*
X0227318Y0207178D01*
X0227220Y0207216D01*
X0227124Y0207258D01*
X0227030Y0207303D01*
X0226937Y0207352D01*
X0226846Y0207405D01*
X0226757Y0207461D01*
X0226670Y0207520D01*
X0226586Y0207583D01*
X0226504Y0207648D01*
X0226425Y0207717D01*
X0226348Y0207789D01*
X0226274Y0207863D01*
X0226203Y0207940D01*
X0226135Y0208020D01*
X0226071Y0208103D01*
X0226009Y0208188D01*
X0225951Y0208275D01*
X0225895Y0208364D01*
X0225844Y0208456D01*
X0225796Y0208549D01*
X0225751Y0208644D01*
X0225710Y0208741D01*
X0225673Y0208839D01*
X0225640Y0208938D01*
X0225610Y0209039D01*
X0225585Y0209141D01*
X0225563Y0209243D01*
X0225545Y0209347D01*
X0225531Y0209451D01*
X0225521Y0209555D01*
X0225515Y0209660D01*
X0225513Y0209765D01*
D16*
X0185434Y0201182D02*
X0185434Y0193308D01*
X0178583Y0193308D02*
X0178583Y0201182D01*
X0169213Y0200906D02*
X0169213Y0193032D01*
X0162363Y0193032D02*
X0162363Y0200906D01*
X0156143Y0213111D02*
X0148269Y0213111D01*
X0148269Y0220119D02*
X0156143Y0220119D01*
X0125828Y0236576D02*
X0125828Y0244450D01*
X0118820Y0244450D02*
X0118820Y0236576D01*
X0107087Y0236615D02*
X0107087Y0244489D01*
X0100080Y0244489D02*
X0100080Y0236615D01*
X0151812Y0311576D02*
X0151812Y0319450D01*
X0158820Y0319450D02*
X0158820Y0311576D01*
X0166261Y0312481D02*
X0166261Y0320355D01*
X0173269Y0320355D02*
X0173269Y0312481D01*
X0182875Y0313072D02*
X0182875Y0320946D01*
X0189883Y0320946D02*
X0189883Y0313072D01*
X0225749Y0278702D02*
X0233623Y0278702D01*
X0233623Y0271694D02*
X0225749Y0271694D01*
X0244607Y0282127D02*
X0244607Y0290001D01*
X0251615Y0290001D02*
X0251615Y0282127D01*
X0256969Y0281930D02*
X0256969Y0289804D01*
X0263977Y0289804D02*
X0263977Y0281930D01*
X0285355Y0285158D02*
X0293229Y0285158D01*
X0293229Y0292166D02*
X0285355Y0292166D01*
X0285237Y0277954D02*
X0293111Y0277954D01*
X0293111Y0270946D02*
X0285237Y0270946D01*
X0297324Y0333702D02*
X0305198Y0333702D01*
X0305198Y0340709D02*
X0297324Y0340709D01*
X0297481Y0348544D02*
X0305355Y0348544D01*
X0305355Y0355552D02*
X0297481Y0355552D01*
X0295985Y0368269D02*
X0303859Y0368269D01*
X0303859Y0375119D02*
X0295985Y0375119D01*
X0287245Y0401339D02*
X0287245Y0409213D01*
X0280237Y0409213D02*
X0280237Y0401339D01*
X0322280Y0434954D02*
X0332915Y0424320D01*
X0337926Y0429331D01*
X0327291Y0439965D01*
X0340681Y0414546D02*
X0363328Y0391900D01*
X0376134Y0404705D01*
X0353487Y0427352D01*
X0328930Y0408317D02*
X0334498Y0402749D01*
X0329654Y0397905D02*
X0324086Y0403473D01*
X0336269Y0371247D02*
X0341837Y0365679D01*
X0336882Y0360723D02*
X0331314Y0366291D01*
X0355938Y0330600D02*
X0361506Y0325033D01*
X0356662Y0320189D02*
X0351094Y0325756D01*
X0363505Y0290158D02*
X0371379Y0290158D01*
X0371379Y0283308D02*
X0363505Y0283308D01*
X0392265Y0284056D02*
X0392265Y0289410D01*
X0402875Y0289410D01*
X0402875Y0284056D02*
X0392265Y0284056D01*
X0438583Y0307599D02*
X0438583Y0210933D01*
X0441917Y0207599D02*
X0448583Y0207599D01*
X0448583Y0307599D01*
X0438583Y0307599D01*
X0402875Y0230355D02*
X0392265Y0230355D01*
X0392265Y0225001D01*
X0402875Y0225001D01*
X0371379Y0224253D02*
X0363505Y0224253D01*
X0363505Y0231103D02*
X0371379Y0231103D01*
X0349528Y0194922D02*
X0349528Y0187048D01*
X0342520Y0187048D02*
X0342520Y0194922D01*
X0367686Y0175285D02*
X0362118Y0169718D01*
X0366962Y0164874D02*
X0372529Y0170441D01*
X0364469Y0124480D02*
X0377275Y0111674D01*
X0354628Y0089027D01*
X0341822Y0101833D02*
X0364469Y0124480D01*
X0330065Y0118417D02*
X0324498Y0112849D01*
X0319542Y0117805D02*
X0325110Y0123373D01*
X0309734Y0133812D02*
X0304166Y0139380D01*
X0299322Y0134536D02*
X0304890Y0128968D01*
X0267245Y0154765D02*
X0267245Y0171431D01*
X0263911Y0174765D02*
X0257245Y0174765D01*
X0257245Y0154765D01*
X0267245Y0154765D01*
X0300237Y0189646D02*
X0300237Y0197520D01*
X0307245Y0197520D02*
X0307245Y0189646D01*
X0225640Y0137528D02*
X0220072Y0131960D01*
X0215228Y0136804D02*
X0220796Y0142372D01*
X0196230Y0122861D02*
X0201798Y0117293D01*
X0196842Y0112338D02*
X0191275Y0117905D01*
X0176998Y0098447D02*
X0154351Y0121094D01*
X0141545Y0108288D01*
X0164192Y0085641D01*
X0179714Y0080986D02*
X0184725Y0085997D01*
X0195359Y0075362D01*
X0190348Y0070351D02*
X0179714Y0080986D01*
X0187371Y0160031D02*
X0181803Y0165599D01*
X0186647Y0170443D02*
X0192215Y0164875D01*
X0320469Y0080638D02*
X0331104Y0091272D01*
X0336115Y0086261D01*
X0325480Y0075627D01*
X0195584Y0365976D02*
X0201152Y0371544D01*
X0196308Y0376388D02*
X0190740Y0370820D01*
X0219481Y0399519D02*
X0225049Y0405087D01*
X0220205Y0409931D02*
X0214637Y0404363D01*
X0193136Y0408772D02*
X0187569Y0403204D01*
X0182613Y0408159D02*
X0188181Y0413727D01*
X0179281Y0423798D02*
X0156635Y0401151D01*
X0143829Y0413957D01*
X0166476Y0436604D01*
X0189044Y0430827D02*
X0199679Y0441461D01*
X0204690Y0436450D02*
X0194055Y0425816D01*
X0189044Y0430827D01*
D17*
X0190265Y0427431D02*
X0190267Y0427470D01*
X0190273Y0427509D01*
X0190283Y0427547D01*
X0190296Y0427584D01*
X0190313Y0427619D01*
X0190333Y0427653D01*
X0190357Y0427684D01*
X0190384Y0427713D01*
X0190413Y0427739D01*
X0190445Y0427762D01*
X0190479Y0427782D01*
X0190515Y0427798D01*
X0190552Y0427810D01*
X0190591Y0427819D01*
X0190630Y0427824D01*
X0190669Y0427825D01*
X0190708Y0427822D01*
X0190747Y0427815D01*
X0190784Y0427804D01*
X0190821Y0427790D01*
X0190856Y0427772D01*
X0190889Y0427751D01*
X0190920Y0427726D01*
X0190948Y0427699D01*
X0190973Y0427669D01*
X0190995Y0427636D01*
X0191014Y0427602D01*
X0191029Y0427566D01*
X0191041Y0427528D01*
X0191049Y0427490D01*
X0191053Y0427451D01*
X0191053Y0427411D01*
X0191049Y0427372D01*
X0191041Y0427334D01*
X0191029Y0427296D01*
X0191014Y0427260D01*
X0190995Y0427226D01*
X0190973Y0427193D01*
X0190948Y0427163D01*
X0190920Y0427136D01*
X0190889Y0427111D01*
X0190856Y0427090D01*
X0190821Y0427072D01*
X0190784Y0427058D01*
X0190747Y0427047D01*
X0190708Y0427040D01*
X0190669Y0427037D01*
X0190630Y0427038D01*
X0190591Y0427043D01*
X0190552Y0427052D01*
X0190515Y0427064D01*
X0190479Y0427080D01*
X0190445Y0427100D01*
X0190413Y0427123D01*
X0190384Y0427149D01*
X0190357Y0427178D01*
X0190333Y0427209D01*
X0190313Y0427243D01*
X0190296Y0427278D01*
X0190283Y0427315D01*
X0190273Y0427353D01*
X0190267Y0427392D01*
X0190265Y0427431D01*
X0148947Y0406664D02*
X0148949Y0406703D01*
X0148955Y0406742D01*
X0148965Y0406780D01*
X0148978Y0406817D01*
X0148995Y0406852D01*
X0149015Y0406886D01*
X0149039Y0406917D01*
X0149066Y0406946D01*
X0149095Y0406972D01*
X0149127Y0406995D01*
X0149161Y0407015D01*
X0149197Y0407031D01*
X0149234Y0407043D01*
X0149273Y0407052D01*
X0149312Y0407057D01*
X0149351Y0407058D01*
X0149390Y0407055D01*
X0149429Y0407048D01*
X0149466Y0407037D01*
X0149503Y0407023D01*
X0149538Y0407005D01*
X0149571Y0406984D01*
X0149602Y0406959D01*
X0149630Y0406932D01*
X0149655Y0406902D01*
X0149677Y0406869D01*
X0149696Y0406835D01*
X0149711Y0406799D01*
X0149723Y0406761D01*
X0149731Y0406723D01*
X0149735Y0406684D01*
X0149735Y0406644D01*
X0149731Y0406605D01*
X0149723Y0406567D01*
X0149711Y0406529D01*
X0149696Y0406493D01*
X0149677Y0406459D01*
X0149655Y0406426D01*
X0149630Y0406396D01*
X0149602Y0406369D01*
X0149571Y0406344D01*
X0149538Y0406323D01*
X0149503Y0406305D01*
X0149466Y0406291D01*
X0149429Y0406280D01*
X0149390Y0406273D01*
X0149351Y0406270D01*
X0149312Y0406271D01*
X0149273Y0406276D01*
X0149234Y0406285D01*
X0149197Y0406297D01*
X0149161Y0406313D01*
X0149127Y0406333D01*
X0149095Y0406356D01*
X0149066Y0406382D01*
X0149039Y0406411D01*
X0149015Y0406442D01*
X0148995Y0406476D01*
X0148978Y0406511D01*
X0148965Y0406548D01*
X0148955Y0406586D01*
X0148949Y0406625D01*
X0148947Y0406664D01*
X0335917Y0425935D02*
X0335919Y0425974D01*
X0335925Y0426013D01*
X0335935Y0426051D01*
X0335948Y0426088D01*
X0335965Y0426123D01*
X0335985Y0426157D01*
X0336009Y0426188D01*
X0336036Y0426217D01*
X0336065Y0426243D01*
X0336097Y0426266D01*
X0336131Y0426286D01*
X0336167Y0426302D01*
X0336204Y0426314D01*
X0336243Y0426323D01*
X0336282Y0426328D01*
X0336321Y0426329D01*
X0336360Y0426326D01*
X0336399Y0426319D01*
X0336436Y0426308D01*
X0336473Y0426294D01*
X0336508Y0426276D01*
X0336541Y0426255D01*
X0336572Y0426230D01*
X0336600Y0426203D01*
X0336625Y0426173D01*
X0336647Y0426140D01*
X0336666Y0426106D01*
X0336681Y0426070D01*
X0336693Y0426032D01*
X0336701Y0425994D01*
X0336705Y0425955D01*
X0336705Y0425915D01*
X0336701Y0425876D01*
X0336693Y0425838D01*
X0336681Y0425800D01*
X0336666Y0425764D01*
X0336647Y0425730D01*
X0336625Y0425697D01*
X0336600Y0425667D01*
X0336572Y0425640D01*
X0336541Y0425615D01*
X0336508Y0425594D01*
X0336473Y0425576D01*
X0336436Y0425562D01*
X0336399Y0425551D01*
X0336360Y0425544D01*
X0336321Y0425541D01*
X0336282Y0425542D01*
X0336243Y0425547D01*
X0336204Y0425556D01*
X0336167Y0425568D01*
X0336131Y0425584D01*
X0336097Y0425604D01*
X0336065Y0425627D01*
X0336036Y0425653D01*
X0336009Y0425682D01*
X0335985Y0425713D01*
X0335965Y0425747D01*
X0335948Y0425782D01*
X0335935Y0425819D01*
X0335925Y0425857D01*
X0335919Y0425896D01*
X0335917Y0425935D01*
X0370227Y0397412D02*
X0370229Y0397451D01*
X0370235Y0397490D01*
X0370245Y0397528D01*
X0370258Y0397565D01*
X0370275Y0397600D01*
X0370295Y0397634D01*
X0370319Y0397665D01*
X0370346Y0397694D01*
X0370375Y0397720D01*
X0370407Y0397743D01*
X0370441Y0397763D01*
X0370477Y0397779D01*
X0370514Y0397791D01*
X0370553Y0397800D01*
X0370592Y0397805D01*
X0370631Y0397806D01*
X0370670Y0397803D01*
X0370709Y0397796D01*
X0370746Y0397785D01*
X0370783Y0397771D01*
X0370818Y0397753D01*
X0370851Y0397732D01*
X0370882Y0397707D01*
X0370910Y0397680D01*
X0370935Y0397650D01*
X0370957Y0397617D01*
X0370976Y0397583D01*
X0370991Y0397547D01*
X0371003Y0397509D01*
X0371011Y0397471D01*
X0371015Y0397432D01*
X0371015Y0397392D01*
X0371011Y0397353D01*
X0371003Y0397315D01*
X0370991Y0397277D01*
X0370976Y0397241D01*
X0370957Y0397207D01*
X0370935Y0397174D01*
X0370910Y0397144D01*
X0370882Y0397117D01*
X0370851Y0397092D01*
X0370818Y0397071D01*
X0370783Y0397053D01*
X0370746Y0397039D01*
X0370709Y0397028D01*
X0370670Y0397021D01*
X0370631Y0397018D01*
X0370592Y0397019D01*
X0370553Y0397024D01*
X0370514Y0397033D01*
X0370477Y0397045D01*
X0370441Y0397061D01*
X0370407Y0397081D01*
X0370375Y0397104D01*
X0370346Y0397130D01*
X0370319Y0397159D01*
X0370295Y0397190D01*
X0370275Y0397224D01*
X0370258Y0397259D01*
X0370245Y0397296D01*
X0370235Y0397334D01*
X0370229Y0397373D01*
X0370227Y0397412D01*
X0390611Y0286733D02*
X0390613Y0286772D01*
X0390619Y0286811D01*
X0390629Y0286849D01*
X0390642Y0286886D01*
X0390659Y0286921D01*
X0390679Y0286955D01*
X0390703Y0286986D01*
X0390730Y0287015D01*
X0390759Y0287041D01*
X0390791Y0287064D01*
X0390825Y0287084D01*
X0390861Y0287100D01*
X0390898Y0287112D01*
X0390937Y0287121D01*
X0390976Y0287126D01*
X0391015Y0287127D01*
X0391054Y0287124D01*
X0391093Y0287117D01*
X0391130Y0287106D01*
X0391167Y0287092D01*
X0391202Y0287074D01*
X0391235Y0287053D01*
X0391266Y0287028D01*
X0391294Y0287001D01*
X0391319Y0286971D01*
X0391341Y0286938D01*
X0391360Y0286904D01*
X0391375Y0286868D01*
X0391387Y0286830D01*
X0391395Y0286792D01*
X0391399Y0286753D01*
X0391399Y0286713D01*
X0391395Y0286674D01*
X0391387Y0286636D01*
X0391375Y0286598D01*
X0391360Y0286562D01*
X0391341Y0286528D01*
X0391319Y0286495D01*
X0391294Y0286465D01*
X0391266Y0286438D01*
X0391235Y0286413D01*
X0391202Y0286392D01*
X0391167Y0286374D01*
X0391130Y0286360D01*
X0391093Y0286349D01*
X0391054Y0286342D01*
X0391015Y0286339D01*
X0390976Y0286340D01*
X0390937Y0286345D01*
X0390898Y0286354D01*
X0390861Y0286366D01*
X0390825Y0286382D01*
X0390791Y0286402D01*
X0390759Y0286425D01*
X0390730Y0286451D01*
X0390703Y0286480D01*
X0390679Y0286511D01*
X0390659Y0286545D01*
X0390642Y0286580D01*
X0390629Y0286617D01*
X0390619Y0286655D01*
X0390613Y0286694D01*
X0390611Y0286733D01*
X0390611Y0227678D02*
X0390613Y0227717D01*
X0390619Y0227756D01*
X0390629Y0227794D01*
X0390642Y0227831D01*
X0390659Y0227866D01*
X0390679Y0227900D01*
X0390703Y0227931D01*
X0390730Y0227960D01*
X0390759Y0227986D01*
X0390791Y0228009D01*
X0390825Y0228029D01*
X0390861Y0228045D01*
X0390898Y0228057D01*
X0390937Y0228066D01*
X0390976Y0228071D01*
X0391015Y0228072D01*
X0391054Y0228069D01*
X0391093Y0228062D01*
X0391130Y0228051D01*
X0391167Y0228037D01*
X0391202Y0228019D01*
X0391235Y0227998D01*
X0391266Y0227973D01*
X0391294Y0227946D01*
X0391319Y0227916D01*
X0391341Y0227883D01*
X0391360Y0227849D01*
X0391375Y0227813D01*
X0391387Y0227775D01*
X0391395Y0227737D01*
X0391399Y0227698D01*
X0391399Y0227658D01*
X0391395Y0227619D01*
X0391387Y0227581D01*
X0391375Y0227543D01*
X0391360Y0227507D01*
X0391341Y0227473D01*
X0391319Y0227440D01*
X0391294Y0227410D01*
X0391266Y0227383D01*
X0391235Y0227358D01*
X0391202Y0227337D01*
X0391167Y0227319D01*
X0391130Y0227305D01*
X0391093Y0227294D01*
X0391054Y0227287D01*
X0391015Y0227284D01*
X0390976Y0227285D01*
X0390937Y0227290D01*
X0390898Y0227299D01*
X0390861Y0227311D01*
X0390825Y0227327D01*
X0390791Y0227347D01*
X0390759Y0227370D01*
X0390730Y0227396D01*
X0390703Y0227425D01*
X0390679Y0227456D01*
X0390659Y0227490D01*
X0390642Y0227525D01*
X0390629Y0227562D01*
X0390619Y0227600D01*
X0390613Y0227639D01*
X0390611Y0227678D01*
X0371369Y0118968D02*
X0371371Y0119007D01*
X0371377Y0119046D01*
X0371387Y0119084D01*
X0371400Y0119121D01*
X0371417Y0119156D01*
X0371437Y0119190D01*
X0371461Y0119221D01*
X0371488Y0119250D01*
X0371517Y0119276D01*
X0371549Y0119299D01*
X0371583Y0119319D01*
X0371619Y0119335D01*
X0371656Y0119347D01*
X0371695Y0119356D01*
X0371734Y0119361D01*
X0371773Y0119362D01*
X0371812Y0119359D01*
X0371851Y0119352D01*
X0371888Y0119341D01*
X0371925Y0119327D01*
X0371960Y0119309D01*
X0371993Y0119288D01*
X0372024Y0119263D01*
X0372052Y0119236D01*
X0372077Y0119206D01*
X0372099Y0119173D01*
X0372118Y0119139D01*
X0372133Y0119103D01*
X0372145Y0119065D01*
X0372153Y0119027D01*
X0372157Y0118988D01*
X0372157Y0118948D01*
X0372153Y0118909D01*
X0372145Y0118871D01*
X0372133Y0118833D01*
X0372118Y0118797D01*
X0372099Y0118763D01*
X0372077Y0118730D01*
X0372052Y0118700D01*
X0372024Y0118673D01*
X0371993Y0118648D01*
X0371960Y0118627D01*
X0371925Y0118609D01*
X0371888Y0118595D01*
X0371851Y0118584D01*
X0371812Y0118577D01*
X0371773Y0118574D01*
X0371734Y0118575D01*
X0371695Y0118580D01*
X0371656Y0118589D01*
X0371619Y0118601D01*
X0371583Y0118617D01*
X0371549Y0118637D01*
X0371517Y0118660D01*
X0371488Y0118686D01*
X0371461Y0118715D01*
X0371437Y0118746D01*
X0371417Y0118780D01*
X0371400Y0118815D01*
X0371387Y0118852D01*
X0371377Y0118890D01*
X0371371Y0118929D01*
X0371369Y0118968D01*
X0334106Y0089658D02*
X0334108Y0089697D01*
X0334114Y0089736D01*
X0334124Y0089774D01*
X0334137Y0089811D01*
X0334154Y0089846D01*
X0334174Y0089880D01*
X0334198Y0089911D01*
X0334225Y0089940D01*
X0334254Y0089966D01*
X0334286Y0089989D01*
X0334320Y0090009D01*
X0334356Y0090025D01*
X0334393Y0090037D01*
X0334432Y0090046D01*
X0334471Y0090051D01*
X0334510Y0090052D01*
X0334549Y0090049D01*
X0334588Y0090042D01*
X0334625Y0090031D01*
X0334662Y0090017D01*
X0334697Y0089999D01*
X0334730Y0089978D01*
X0334761Y0089953D01*
X0334789Y0089926D01*
X0334814Y0089896D01*
X0334836Y0089863D01*
X0334855Y0089829D01*
X0334870Y0089793D01*
X0334882Y0089755D01*
X0334890Y0089717D01*
X0334894Y0089678D01*
X0334894Y0089638D01*
X0334890Y0089599D01*
X0334882Y0089561D01*
X0334870Y0089523D01*
X0334855Y0089487D01*
X0334836Y0089453D01*
X0334814Y0089420D01*
X0334789Y0089390D01*
X0334761Y0089363D01*
X0334730Y0089338D01*
X0334697Y0089317D01*
X0334662Y0089299D01*
X0334625Y0089285D01*
X0334588Y0089274D01*
X0334549Y0089267D01*
X0334510Y0089264D01*
X0334471Y0089265D01*
X0334432Y0089270D01*
X0334393Y0089279D01*
X0334356Y0089291D01*
X0334320Y0089307D01*
X0334286Y0089327D01*
X0334254Y0089350D01*
X0334225Y0089376D01*
X0334198Y0089405D01*
X0334174Y0089436D01*
X0334154Y0089470D01*
X0334137Y0089505D01*
X0334124Y0089542D01*
X0334114Y0089580D01*
X0334108Y0089619D01*
X0334106Y0089658D01*
X0180934Y0084382D02*
X0180936Y0084421D01*
X0180942Y0084460D01*
X0180952Y0084498D01*
X0180965Y0084535D01*
X0180982Y0084570D01*
X0181002Y0084604D01*
X0181026Y0084635D01*
X0181053Y0084664D01*
X0181082Y0084690D01*
X0181114Y0084713D01*
X0181148Y0084733D01*
X0181184Y0084749D01*
X0181221Y0084761D01*
X0181260Y0084770D01*
X0181299Y0084775D01*
X0181338Y0084776D01*
X0181377Y0084773D01*
X0181416Y0084766D01*
X0181453Y0084755D01*
X0181490Y0084741D01*
X0181525Y0084723D01*
X0181558Y0084702D01*
X0181589Y0084677D01*
X0181617Y0084650D01*
X0181642Y0084620D01*
X0181664Y0084587D01*
X0181683Y0084553D01*
X0181698Y0084517D01*
X0181710Y0084479D01*
X0181718Y0084441D01*
X0181722Y0084402D01*
X0181722Y0084362D01*
X0181718Y0084323D01*
X0181710Y0084285D01*
X0181698Y0084247D01*
X0181683Y0084211D01*
X0181664Y0084177D01*
X0181642Y0084144D01*
X0181617Y0084114D01*
X0181589Y0084087D01*
X0181558Y0084062D01*
X0181525Y0084041D01*
X0181490Y0084023D01*
X0181453Y0084009D01*
X0181416Y0083998D01*
X0181377Y0083991D01*
X0181338Y0083988D01*
X0181299Y0083989D01*
X0181260Y0083994D01*
X0181221Y0084003D01*
X0181184Y0084015D01*
X0181148Y0084031D01*
X0181114Y0084051D01*
X0181082Y0084074D01*
X0181053Y0084100D01*
X0181026Y0084129D01*
X0181002Y0084160D01*
X0180982Y0084194D01*
X0180965Y0084229D01*
X0180952Y0084266D01*
X0180942Y0084304D01*
X0180936Y0084343D01*
X0180934Y0084382D01*
X0146663Y0115582D02*
X0146665Y0115621D01*
X0146671Y0115660D01*
X0146681Y0115698D01*
X0146694Y0115735D01*
X0146711Y0115770D01*
X0146731Y0115804D01*
X0146755Y0115835D01*
X0146782Y0115864D01*
X0146811Y0115890D01*
X0146843Y0115913D01*
X0146877Y0115933D01*
X0146913Y0115949D01*
X0146950Y0115961D01*
X0146989Y0115970D01*
X0147028Y0115975D01*
X0147067Y0115976D01*
X0147106Y0115973D01*
X0147145Y0115966D01*
X0147182Y0115955D01*
X0147219Y0115941D01*
X0147254Y0115923D01*
X0147287Y0115902D01*
X0147318Y0115877D01*
X0147346Y0115850D01*
X0147371Y0115820D01*
X0147393Y0115787D01*
X0147412Y0115753D01*
X0147427Y0115717D01*
X0147439Y0115679D01*
X0147447Y0115641D01*
X0147451Y0115602D01*
X0147451Y0115562D01*
X0147447Y0115523D01*
X0147439Y0115485D01*
X0147427Y0115447D01*
X0147412Y0115411D01*
X0147393Y0115377D01*
X0147371Y0115344D01*
X0147346Y0115314D01*
X0147318Y0115287D01*
X0147287Y0115262D01*
X0147254Y0115241D01*
X0147219Y0115223D01*
X0147182Y0115209D01*
X0147145Y0115198D01*
X0147106Y0115191D01*
X0147067Y0115188D01*
X0147028Y0115189D01*
X0146989Y0115194D01*
X0146950Y0115203D01*
X0146913Y0115215D01*
X0146877Y0115231D01*
X0146843Y0115251D01*
X0146811Y0115274D01*
X0146782Y0115300D01*
X0146755Y0115329D01*
X0146731Y0115360D01*
X0146711Y0115394D01*
X0146694Y0115429D01*
X0146681Y0115466D01*
X0146671Y0115504D01*
X0146665Y0115543D01*
X0146663Y0115582D01*
D18*
X0252087Y0260355D02*
X0252089Y0260394D01*
X0252095Y0260433D01*
X0252105Y0260471D01*
X0252118Y0260508D01*
X0252135Y0260543D01*
X0252155Y0260577D01*
X0252179Y0260608D01*
X0252206Y0260637D01*
X0252235Y0260663D01*
X0252267Y0260686D01*
X0252301Y0260706D01*
X0252337Y0260722D01*
X0252374Y0260734D01*
X0252413Y0260743D01*
X0252452Y0260748D01*
X0252491Y0260749D01*
X0252530Y0260746D01*
X0252569Y0260739D01*
X0252606Y0260728D01*
X0252643Y0260714D01*
X0252678Y0260696D01*
X0252711Y0260675D01*
X0252742Y0260650D01*
X0252770Y0260623D01*
X0252795Y0260593D01*
X0252817Y0260560D01*
X0252836Y0260526D01*
X0252851Y0260490D01*
X0252863Y0260452D01*
X0252871Y0260414D01*
X0252875Y0260375D01*
X0252875Y0260335D01*
X0252871Y0260296D01*
X0252863Y0260258D01*
X0252851Y0260220D01*
X0252836Y0260184D01*
X0252817Y0260150D01*
X0252795Y0260117D01*
X0252770Y0260087D01*
X0252742Y0260060D01*
X0252711Y0260035D01*
X0252678Y0260014D01*
X0252643Y0259996D01*
X0252606Y0259982D01*
X0252569Y0259971D01*
X0252530Y0259964D01*
X0252491Y0259961D01*
X0252452Y0259962D01*
X0252413Y0259967D01*
X0252374Y0259976D01*
X0252337Y0259988D01*
X0252301Y0260004D01*
X0252267Y0260024D01*
X0252235Y0260047D01*
X0252206Y0260073D01*
X0252179Y0260102D01*
X0252155Y0260133D01*
X0252135Y0260167D01*
X0252118Y0260202D01*
X0252105Y0260239D01*
X0252095Y0260277D01*
X0252089Y0260316D01*
X0252087Y0260355D01*
D19*
X0321024Y0176150D02*
X0327402Y0176150D01*
X0327402Y0175780D01*
X0327402Y0172607D02*
X0327402Y0168497D01*
X0327402Y0165324D02*
X0327402Y0164954D01*
X0321024Y0164954D01*
X0321024Y0165324D01*
X0321024Y0168497D02*
X0321024Y0168867D01*
X0321024Y0172237D02*
X0321024Y0172607D01*
X0321024Y0175780D02*
X0321024Y0176150D01*
X0148764Y0275841D02*
X0145828Y0275841D01*
X0147296Y0275841D02*
X0147296Y0280245D01*
X0145828Y0278777D01*
X0144160Y0280245D02*
X0144160Y0276575D01*
X0143426Y0275841D01*
X0141958Y0275841D01*
X0141224Y0276575D01*
X0141224Y0280245D01*
M02*
