G75*
%MOIN*%
%OFA0B0*%
%FSLAX25Y25*%
%IPPOS*%
%LPD*%
%AMOC8*
5,1,8,0,0,1.08239X$1,22.5*
%
%ADD10C,0.06312*%
%ADD11C,0.06737*%
%ADD12R,0.08200X0.08200*%
%ADD13OC8,0.08200*%
%ADD14C,0.00039*%
%ADD15C,0.08200*%
%ADD16C,0.05300*%
%ADD17C,0.06162*%
D10*
X0228269Y0209765D03*
X0286143Y0209765D03*
X0286143Y0304646D03*
X0228269Y0304646D03*
D11*
X0257206Y0202674D02*
X0257206Y0196737D01*
X0267206Y0196737D02*
X0267206Y0202674D01*
D12*
X0243308Y0354922D03*
D13*
X0253308Y0354922D03*
X0263308Y0354922D03*
X0263308Y0364922D03*
X0253308Y0364922D03*
X0243308Y0364922D03*
D14*
X0258997Y0173013D02*
X0258997Y0166517D01*
X0265493Y0166517D01*
X0258997Y0166517D01*
X0258997Y0166555D02*
X0265493Y0166555D01*
X0265493Y0166593D02*
X0258997Y0166593D01*
X0258997Y0166631D02*
X0265493Y0166631D01*
X0265493Y0166669D02*
X0258997Y0166669D01*
X0258997Y0166707D02*
X0265493Y0166707D01*
X0265493Y0166745D02*
X0258997Y0166745D01*
X0258997Y0166783D02*
X0265493Y0166783D01*
X0265493Y0166820D02*
X0258997Y0166820D01*
X0258997Y0166858D02*
X0265493Y0166858D01*
X0265493Y0166896D02*
X0258997Y0166896D01*
X0258997Y0166934D02*
X0265493Y0166934D01*
X0265493Y0166972D02*
X0258997Y0166972D01*
X0258997Y0167010D02*
X0265493Y0167010D01*
X0265493Y0167048D02*
X0258997Y0167048D01*
X0258997Y0167086D02*
X0265493Y0167086D01*
X0265493Y0167124D02*
X0258997Y0167124D01*
X0258997Y0167161D02*
X0265493Y0167161D01*
X0265493Y0167199D02*
X0258997Y0167199D01*
X0258997Y0167237D02*
X0265493Y0167237D01*
X0265493Y0167275D02*
X0258997Y0167275D01*
X0258997Y0167313D02*
X0265493Y0167313D01*
X0265493Y0167351D02*
X0258997Y0167351D01*
X0258997Y0167389D02*
X0265493Y0167389D01*
X0265493Y0167427D02*
X0258997Y0167427D01*
X0258997Y0167464D02*
X0265493Y0167464D01*
X0265493Y0167502D02*
X0258997Y0167502D01*
X0258997Y0167540D02*
X0265493Y0167540D01*
X0265493Y0167578D02*
X0258997Y0167578D01*
X0258997Y0167616D02*
X0265493Y0167616D01*
X0265493Y0167654D02*
X0258997Y0167654D01*
X0258997Y0167692D02*
X0265493Y0167692D01*
X0265493Y0167730D02*
X0258997Y0167730D01*
X0258997Y0167768D02*
X0265493Y0167768D01*
X0265493Y0167805D02*
X0258997Y0167805D01*
X0258997Y0167843D02*
X0265493Y0167843D01*
X0265493Y0167881D02*
X0258997Y0167881D01*
X0258997Y0167919D02*
X0265493Y0167919D01*
X0265493Y0167957D02*
X0258997Y0167957D01*
X0258997Y0167995D02*
X0265493Y0167995D01*
X0265493Y0168033D02*
X0258997Y0168033D01*
X0258997Y0168071D02*
X0265493Y0168071D01*
X0265493Y0168108D02*
X0258997Y0168108D01*
X0258997Y0168146D02*
X0265493Y0168146D01*
X0265493Y0168184D02*
X0258997Y0168184D01*
X0258997Y0168222D02*
X0265493Y0168222D01*
X0265493Y0168260D02*
X0258997Y0168260D01*
X0258997Y0168298D02*
X0265493Y0168298D01*
X0265493Y0168336D02*
X0258997Y0168336D01*
X0258997Y0168374D02*
X0265493Y0168374D01*
X0265493Y0168412D02*
X0258997Y0168412D01*
X0258997Y0168449D02*
X0265493Y0168449D01*
X0265493Y0168487D02*
X0258997Y0168487D01*
X0258997Y0168525D02*
X0265493Y0168525D01*
X0265493Y0168563D02*
X0258997Y0168563D01*
X0258997Y0168601D02*
X0265493Y0168601D01*
X0265493Y0168639D02*
X0258997Y0168639D01*
X0258997Y0168677D02*
X0265493Y0168677D01*
X0265493Y0168715D02*
X0258997Y0168715D01*
X0258997Y0168752D02*
X0265493Y0168752D01*
X0265493Y0168790D02*
X0258997Y0168790D01*
X0258997Y0168828D02*
X0265493Y0168828D01*
X0265493Y0168866D02*
X0258997Y0168866D01*
X0258997Y0168904D02*
X0265493Y0168904D01*
X0265493Y0168942D02*
X0258997Y0168942D01*
X0258997Y0168980D02*
X0265493Y0168980D01*
X0265493Y0169018D02*
X0258997Y0169018D01*
X0258997Y0169055D02*
X0265493Y0169055D01*
X0265493Y0169093D02*
X0258997Y0169093D01*
X0258997Y0169131D02*
X0265493Y0169131D01*
X0265493Y0169169D02*
X0258997Y0169169D01*
X0258997Y0169207D02*
X0265493Y0169207D01*
X0265493Y0169245D02*
X0258997Y0169245D01*
X0258997Y0169283D02*
X0265493Y0169283D01*
X0265493Y0169321D02*
X0258997Y0169321D01*
X0258997Y0169359D02*
X0265493Y0169359D01*
X0265493Y0169396D02*
X0258997Y0169396D01*
X0258997Y0169434D02*
X0265493Y0169434D01*
X0265493Y0169472D02*
X0258997Y0169472D01*
X0258997Y0169510D02*
X0265493Y0169510D01*
X0265493Y0169548D02*
X0258997Y0169548D01*
X0258997Y0169586D02*
X0265493Y0169586D01*
X0265493Y0169624D02*
X0258997Y0169624D01*
X0258997Y0169662D02*
X0265493Y0169662D01*
X0265493Y0169699D02*
X0258997Y0169699D01*
X0258997Y0169737D02*
X0265493Y0169737D01*
X0265493Y0169775D02*
X0258997Y0169775D01*
X0258997Y0169813D02*
X0265493Y0169813D01*
X0265493Y0169851D02*
X0258997Y0169851D01*
X0258997Y0169889D02*
X0265493Y0169889D01*
X0265493Y0169927D02*
X0258997Y0169927D01*
X0258997Y0169965D02*
X0265493Y0169965D01*
X0265493Y0170003D02*
X0258997Y0170003D01*
X0258997Y0170040D02*
X0265493Y0170040D01*
X0265493Y0170078D02*
X0258997Y0170078D01*
X0258997Y0170116D02*
X0265493Y0170116D01*
X0265493Y0170154D02*
X0258997Y0170154D01*
X0258997Y0170192D02*
X0265493Y0170192D01*
X0265493Y0170230D02*
X0258997Y0170230D01*
X0258997Y0170268D02*
X0265493Y0170268D01*
X0265493Y0170306D02*
X0258997Y0170306D01*
X0258997Y0170343D02*
X0265493Y0170343D01*
X0265493Y0170381D02*
X0258997Y0170381D01*
X0258997Y0170419D02*
X0265493Y0170419D01*
X0265493Y0170457D02*
X0258997Y0170457D01*
X0258997Y0170495D02*
X0265493Y0170495D01*
X0265493Y0170533D02*
X0258997Y0170533D01*
X0258997Y0170571D02*
X0265493Y0170571D01*
X0265493Y0170609D02*
X0258997Y0170609D01*
X0258997Y0170647D02*
X0265493Y0170647D01*
X0265493Y0170684D02*
X0258997Y0170684D01*
X0258997Y0170722D02*
X0265493Y0170722D01*
X0265493Y0170760D02*
X0258997Y0170760D01*
X0258997Y0170798D02*
X0265493Y0170798D01*
X0265493Y0170836D02*
X0258997Y0170836D01*
X0258997Y0170874D02*
X0265493Y0170874D01*
X0265493Y0170912D02*
X0258997Y0170912D01*
X0258997Y0170950D02*
X0265493Y0170950D01*
X0265493Y0170987D02*
X0258997Y0170987D01*
X0258997Y0171025D02*
X0265493Y0171025D01*
X0265493Y0171063D02*
X0258997Y0171063D01*
X0258997Y0171101D02*
X0265493Y0171101D01*
X0265493Y0171139D02*
X0258997Y0171139D01*
X0258997Y0171177D02*
X0265493Y0171177D01*
X0265493Y0171215D02*
X0258997Y0171215D01*
X0258997Y0171253D02*
X0265493Y0171253D01*
X0265493Y0171291D02*
X0258997Y0171291D01*
X0258997Y0171328D02*
X0265493Y0171328D01*
X0265493Y0171366D02*
X0258997Y0171366D01*
X0258997Y0171404D02*
X0265493Y0171404D01*
X0265493Y0171442D02*
X0258997Y0171442D01*
X0258997Y0171480D02*
X0265493Y0171480D01*
X0265493Y0171518D02*
X0258997Y0171518D01*
X0258997Y0171556D02*
X0265493Y0171556D01*
X0265493Y0171594D02*
X0258997Y0171594D01*
X0258997Y0171631D02*
X0265493Y0171631D01*
X0265493Y0171669D02*
X0258997Y0171669D01*
X0258997Y0171707D02*
X0265493Y0171707D01*
X0265493Y0171745D02*
X0258997Y0171745D01*
X0258997Y0171783D02*
X0265493Y0171783D01*
X0265493Y0171821D02*
X0258997Y0171821D01*
X0258997Y0171859D02*
X0265493Y0171859D01*
X0265493Y0171897D02*
X0258997Y0171897D01*
X0258997Y0171934D02*
X0265493Y0171934D01*
X0265493Y0171972D02*
X0258997Y0171972D01*
X0258997Y0172010D02*
X0265493Y0172010D01*
X0265493Y0172048D02*
X0258997Y0172048D01*
X0258997Y0172086D02*
X0265493Y0172086D01*
X0265493Y0172124D02*
X0258997Y0172124D01*
X0258997Y0172162D02*
X0265493Y0172162D01*
X0265493Y0172200D02*
X0258997Y0172200D01*
X0258997Y0172238D02*
X0265493Y0172238D01*
X0265493Y0172275D02*
X0258997Y0172275D01*
X0258997Y0172313D02*
X0265493Y0172313D01*
X0265493Y0172351D02*
X0258997Y0172351D01*
X0258997Y0172389D02*
X0265493Y0172389D01*
X0265493Y0172427D02*
X0258997Y0172427D01*
X0258997Y0172465D02*
X0265493Y0172465D01*
X0265493Y0172503D02*
X0258997Y0172503D01*
X0258997Y0172541D02*
X0265493Y0172541D01*
X0265493Y0172578D02*
X0258997Y0172578D01*
X0258997Y0172616D02*
X0265493Y0172616D01*
X0265493Y0172654D02*
X0258997Y0172654D01*
X0258997Y0172692D02*
X0265493Y0172692D01*
X0265493Y0172730D02*
X0258997Y0172730D01*
X0258997Y0172768D02*
X0265493Y0172768D01*
X0265493Y0172806D02*
X0258997Y0172806D01*
X0258997Y0172844D02*
X0265493Y0172844D01*
X0265493Y0172882D02*
X0258997Y0172882D01*
X0258997Y0172919D02*
X0265493Y0172919D01*
X0265493Y0172957D02*
X0258997Y0172957D01*
X0258997Y0172995D02*
X0265493Y0172995D01*
X0265493Y0173013D02*
X0265493Y0166517D01*
X0263659Y0162654D02*
X0260831Y0162654D01*
X0260912Y0162691D02*
X0263578Y0162691D01*
X0263497Y0162729D02*
X0260993Y0162729D01*
X0261074Y0162767D02*
X0263415Y0162767D01*
X0263349Y0162798D02*
X0262806Y0162944D01*
X0262245Y0162993D01*
X0261684Y0162944D01*
X0261141Y0162798D01*
X0260631Y0162560D01*
X0260170Y0162238D01*
X0259772Y0161840D01*
X0259449Y0161379D01*
X0259211Y0160869D01*
X0259066Y0160325D01*
X0259017Y0159765D01*
X0259066Y0159204D01*
X0259211Y0158660D01*
X0259449Y0158150D01*
X0259772Y0157689D01*
X0260170Y0157291D01*
X0260631Y0156969D01*
X0261141Y0156731D01*
X0261684Y0156585D01*
X0262245Y0156536D01*
X0262806Y0156585D01*
X0263349Y0156731D01*
X0263859Y0156969D01*
X0264320Y0157291D01*
X0264718Y0157689D01*
X0265041Y0158150D01*
X0265278Y0158660D01*
X0265424Y0159204D01*
X0265473Y0159765D01*
X0265424Y0160325D01*
X0265278Y0160869D01*
X0265041Y0161379D01*
X0264718Y0161840D01*
X0264320Y0162238D01*
X0263859Y0162560D01*
X0263349Y0162798D01*
X0263323Y0162805D02*
X0261167Y0162805D01*
X0261308Y0162843D02*
X0263182Y0162843D01*
X0263040Y0162881D02*
X0261450Y0162881D01*
X0261591Y0162919D02*
X0262899Y0162919D01*
X0262659Y0162957D02*
X0261831Y0162957D01*
X0260750Y0162616D02*
X0263740Y0162616D01*
X0263821Y0162578D02*
X0260668Y0162578D01*
X0260602Y0162540D02*
X0263888Y0162540D01*
X0263942Y0162502D02*
X0260547Y0162502D01*
X0260493Y0162464D02*
X0263996Y0162464D01*
X0264051Y0162426D02*
X0260439Y0162426D01*
X0260385Y0162388D02*
X0264105Y0162388D01*
X0264159Y0162350D02*
X0260331Y0162350D01*
X0260277Y0162313D02*
X0264213Y0162313D01*
X0264267Y0162275D02*
X0260223Y0162275D01*
X0260169Y0162237D02*
X0264321Y0162237D01*
X0264359Y0162199D02*
X0260131Y0162199D01*
X0260093Y0162161D02*
X0264397Y0162161D01*
X0264435Y0162123D02*
X0260055Y0162123D01*
X0260017Y0162085D02*
X0264473Y0162085D01*
X0264510Y0162047D02*
X0259979Y0162047D01*
X0259941Y0162010D02*
X0264548Y0162010D01*
X0264586Y0161972D02*
X0259904Y0161972D01*
X0259866Y0161934D02*
X0264624Y0161934D01*
X0264662Y0161896D02*
X0259828Y0161896D01*
X0259790Y0161858D02*
X0264700Y0161858D01*
X0264732Y0161820D02*
X0259758Y0161820D01*
X0259731Y0161782D02*
X0264758Y0161782D01*
X0264785Y0161744D02*
X0259705Y0161744D01*
X0259678Y0161707D02*
X0264811Y0161707D01*
X0264838Y0161669D02*
X0259652Y0161669D01*
X0259625Y0161631D02*
X0264864Y0161631D01*
X0264891Y0161593D02*
X0259599Y0161593D01*
X0259572Y0161555D02*
X0264917Y0161555D01*
X0264944Y0161517D02*
X0259546Y0161517D01*
X0259520Y0161479D02*
X0264970Y0161479D01*
X0264997Y0161441D02*
X0259493Y0161441D01*
X0259467Y0161403D02*
X0265023Y0161403D01*
X0265047Y0161366D02*
X0259443Y0161366D01*
X0259425Y0161328D02*
X0265064Y0161328D01*
X0265082Y0161290D02*
X0259408Y0161290D01*
X0259390Y0161252D02*
X0265100Y0161252D01*
X0265117Y0161214D02*
X0259372Y0161214D01*
X0259355Y0161176D02*
X0265135Y0161176D01*
X0265153Y0161138D02*
X0259337Y0161138D01*
X0259319Y0161100D02*
X0265170Y0161100D01*
X0265188Y0161063D02*
X0259302Y0161063D01*
X0259284Y0161025D02*
X0265206Y0161025D01*
X0265223Y0160987D02*
X0259266Y0160987D01*
X0259249Y0160949D02*
X0265241Y0160949D01*
X0265259Y0160911D02*
X0259231Y0160911D01*
X0259213Y0160873D02*
X0265276Y0160873D01*
X0265287Y0160835D02*
X0259202Y0160835D01*
X0259192Y0160797D02*
X0265298Y0160797D01*
X0265308Y0160759D02*
X0259182Y0160759D01*
X0259172Y0160722D02*
X0265318Y0160722D01*
X0265328Y0160684D02*
X0259162Y0160684D01*
X0259152Y0160646D02*
X0265338Y0160646D01*
X0265348Y0160608D02*
X0259142Y0160608D01*
X0259131Y0160570D02*
X0265358Y0160570D01*
X0265369Y0160532D02*
X0259121Y0160532D01*
X0259111Y0160494D02*
X0265379Y0160494D01*
X0265389Y0160456D02*
X0259101Y0160456D01*
X0259091Y0160419D02*
X0265399Y0160419D01*
X0265409Y0160381D02*
X0259081Y0160381D01*
X0259070Y0160343D02*
X0265419Y0160343D01*
X0265426Y0160305D02*
X0259064Y0160305D01*
X0259061Y0160267D02*
X0265429Y0160267D01*
X0265432Y0160229D02*
X0259057Y0160229D01*
X0259054Y0160191D02*
X0265436Y0160191D01*
X0265439Y0160153D02*
X0259051Y0160153D01*
X0259047Y0160115D02*
X0265442Y0160115D01*
X0265446Y0160078D02*
X0259044Y0160078D01*
X0259041Y0160040D02*
X0265449Y0160040D01*
X0265452Y0160002D02*
X0259037Y0160002D01*
X0259034Y0159964D02*
X0265456Y0159964D01*
X0265459Y0159926D02*
X0259031Y0159926D01*
X0259027Y0159888D02*
X0265462Y0159888D01*
X0265466Y0159850D02*
X0259024Y0159850D01*
X0259021Y0159812D02*
X0265469Y0159812D01*
X0265472Y0159775D02*
X0259017Y0159775D01*
X0259019Y0159737D02*
X0265471Y0159737D01*
X0265467Y0159699D02*
X0259022Y0159699D01*
X0259026Y0159661D02*
X0265464Y0159661D01*
X0265461Y0159623D02*
X0259029Y0159623D01*
X0259032Y0159585D02*
X0265457Y0159585D01*
X0265454Y0159547D02*
X0259036Y0159547D01*
X0259039Y0159509D02*
X0265451Y0159509D01*
X0265448Y0159472D02*
X0259042Y0159472D01*
X0259046Y0159434D02*
X0265444Y0159434D01*
X0265441Y0159396D02*
X0259049Y0159396D01*
X0259052Y0159358D02*
X0265438Y0159358D01*
X0265434Y0159320D02*
X0259056Y0159320D01*
X0259059Y0159282D02*
X0265431Y0159282D01*
X0265428Y0159244D02*
X0259062Y0159244D01*
X0259066Y0159206D02*
X0265424Y0159206D01*
X0265415Y0159168D02*
X0259075Y0159168D01*
X0259085Y0159131D02*
X0265404Y0159131D01*
X0265394Y0159093D02*
X0259096Y0159093D01*
X0259106Y0159055D02*
X0265384Y0159055D01*
X0265374Y0159017D02*
X0259116Y0159017D01*
X0259126Y0158979D02*
X0265364Y0158979D01*
X0265354Y0158941D02*
X0259136Y0158941D01*
X0259146Y0158903D02*
X0265343Y0158903D01*
X0265333Y0158865D02*
X0259156Y0158865D01*
X0259167Y0158828D02*
X0265323Y0158828D01*
X0265313Y0158790D02*
X0259177Y0158790D01*
X0259187Y0158752D02*
X0265303Y0158752D01*
X0265293Y0158714D02*
X0259197Y0158714D01*
X0259207Y0158676D02*
X0265283Y0158676D01*
X0265268Y0158638D02*
X0259222Y0158638D01*
X0259239Y0158600D02*
X0265250Y0158600D01*
X0265233Y0158562D02*
X0259257Y0158562D01*
X0259275Y0158524D02*
X0265215Y0158524D01*
X0265197Y0158487D02*
X0259292Y0158487D01*
X0259310Y0158449D02*
X0265180Y0158449D01*
X0265162Y0158411D02*
X0259328Y0158411D01*
X0259345Y0158373D02*
X0265144Y0158373D01*
X0265127Y0158335D02*
X0259363Y0158335D01*
X0259381Y0158297D02*
X0265109Y0158297D01*
X0265091Y0158259D02*
X0259398Y0158259D01*
X0259416Y0158221D02*
X0265074Y0158221D01*
X0265056Y0158184D02*
X0259434Y0158184D01*
X0259453Y0158146D02*
X0265037Y0158146D01*
X0265011Y0158108D02*
X0259479Y0158108D01*
X0259506Y0158070D02*
X0264984Y0158070D01*
X0264958Y0158032D02*
X0259532Y0158032D01*
X0259559Y0157994D02*
X0264931Y0157994D01*
X0264905Y0157956D02*
X0259585Y0157956D01*
X0259611Y0157918D02*
X0264878Y0157918D01*
X0264852Y0157880D02*
X0259638Y0157880D01*
X0259664Y0157843D02*
X0264825Y0157843D01*
X0264799Y0157805D02*
X0259691Y0157805D01*
X0259717Y0157767D02*
X0264772Y0157767D01*
X0264746Y0157729D02*
X0259744Y0157729D01*
X0259770Y0157691D02*
X0264719Y0157691D01*
X0264682Y0157653D02*
X0259808Y0157653D01*
X0259846Y0157615D02*
X0264644Y0157615D01*
X0264606Y0157577D02*
X0259884Y0157577D01*
X0259921Y0157540D02*
X0264568Y0157540D01*
X0264530Y0157502D02*
X0259959Y0157502D01*
X0259997Y0157464D02*
X0264493Y0157464D01*
X0264455Y0157426D02*
X0260035Y0157426D01*
X0260073Y0157388D02*
X0264417Y0157388D01*
X0264379Y0157350D02*
X0260111Y0157350D01*
X0260149Y0157312D02*
X0264341Y0157312D01*
X0264296Y0157274D02*
X0260194Y0157274D01*
X0260248Y0157237D02*
X0264242Y0157237D01*
X0264188Y0157199D02*
X0260302Y0157199D01*
X0260356Y0157161D02*
X0264133Y0157161D01*
X0264079Y0157123D02*
X0260411Y0157123D01*
X0260465Y0157085D02*
X0264025Y0157085D01*
X0263971Y0157047D02*
X0260519Y0157047D01*
X0260573Y0157009D02*
X0263917Y0157009D01*
X0263863Y0156971D02*
X0260627Y0156971D01*
X0260707Y0156933D02*
X0263783Y0156933D01*
X0263702Y0156896D02*
X0260788Y0156896D01*
X0260869Y0156858D02*
X0263621Y0156858D01*
X0263539Y0156820D02*
X0260950Y0156820D01*
X0261032Y0156782D02*
X0263458Y0156782D01*
X0263377Y0156744D02*
X0261113Y0156744D01*
X0261234Y0156706D02*
X0263256Y0156706D01*
X0263115Y0156668D02*
X0261375Y0156668D01*
X0261516Y0156630D02*
X0262973Y0156630D01*
X0262832Y0156593D02*
X0261658Y0156593D01*
X0262035Y0156555D02*
X0262455Y0156555D01*
X0265493Y0173013D02*
X0258997Y0173013D01*
X0440335Y0209351D02*
X0440335Y0215847D01*
X0446831Y0215847D01*
X0446831Y0209351D01*
X0440335Y0209351D01*
X0440335Y0209361D02*
X0446831Y0209361D01*
X0446831Y0209399D02*
X0440335Y0209399D01*
X0440335Y0209437D02*
X0446831Y0209437D01*
X0446831Y0209475D02*
X0440335Y0209475D01*
X0440335Y0209513D02*
X0446831Y0209513D01*
X0446831Y0209551D02*
X0440335Y0209551D01*
X0440335Y0209589D02*
X0446831Y0209589D01*
X0446831Y0209626D02*
X0440335Y0209626D01*
X0440335Y0209664D02*
X0446831Y0209664D01*
X0446831Y0209702D02*
X0440335Y0209702D01*
X0440335Y0209740D02*
X0446831Y0209740D01*
X0446831Y0209778D02*
X0440335Y0209778D01*
X0440335Y0209816D02*
X0446831Y0209816D01*
X0446831Y0209854D02*
X0440335Y0209854D01*
X0440335Y0209892D02*
X0446831Y0209892D01*
X0446831Y0209930D02*
X0440335Y0209930D01*
X0440335Y0209967D02*
X0446831Y0209967D01*
X0446831Y0210005D02*
X0440335Y0210005D01*
X0440335Y0210043D02*
X0446831Y0210043D01*
X0446831Y0210081D02*
X0440335Y0210081D01*
X0440335Y0210119D02*
X0446831Y0210119D01*
X0446831Y0210157D02*
X0440335Y0210157D01*
X0440335Y0210195D02*
X0446831Y0210195D01*
X0446831Y0210233D02*
X0440335Y0210233D01*
X0440335Y0210270D02*
X0446831Y0210270D01*
X0446831Y0210308D02*
X0440335Y0210308D01*
X0440335Y0210346D02*
X0446831Y0210346D01*
X0446831Y0210384D02*
X0440335Y0210384D01*
X0440335Y0210422D02*
X0446831Y0210422D01*
X0446831Y0210460D02*
X0440335Y0210460D01*
X0440335Y0210498D02*
X0446831Y0210498D01*
X0446831Y0210536D02*
X0440335Y0210536D01*
X0440335Y0210574D02*
X0446831Y0210574D01*
X0446831Y0210611D02*
X0440335Y0210611D01*
X0440335Y0210649D02*
X0446831Y0210649D01*
X0446831Y0210687D02*
X0440335Y0210687D01*
X0440335Y0210725D02*
X0446831Y0210725D01*
X0446831Y0210763D02*
X0440335Y0210763D01*
X0440335Y0210801D02*
X0446831Y0210801D01*
X0446831Y0210839D02*
X0440335Y0210839D01*
X0440335Y0210877D02*
X0446831Y0210877D01*
X0446831Y0210914D02*
X0440335Y0210914D01*
X0440335Y0210952D02*
X0446831Y0210952D01*
X0446831Y0210990D02*
X0440335Y0210990D01*
X0440335Y0211028D02*
X0446831Y0211028D01*
X0446831Y0211066D02*
X0440335Y0211066D01*
X0440335Y0211104D02*
X0446831Y0211104D01*
X0446831Y0211142D02*
X0440335Y0211142D01*
X0440335Y0211180D02*
X0446831Y0211180D01*
X0446831Y0211217D02*
X0440335Y0211217D01*
X0440335Y0211255D02*
X0446831Y0211255D01*
X0446831Y0211293D02*
X0440335Y0211293D01*
X0440335Y0211331D02*
X0446831Y0211331D01*
X0446831Y0211369D02*
X0440335Y0211369D01*
X0440335Y0211407D02*
X0446831Y0211407D01*
X0446831Y0211445D02*
X0440335Y0211445D01*
X0440335Y0211483D02*
X0446831Y0211483D01*
X0446831Y0211521D02*
X0440335Y0211521D01*
X0440335Y0211558D02*
X0446831Y0211558D01*
X0446831Y0211596D02*
X0440335Y0211596D01*
X0440335Y0211634D02*
X0446831Y0211634D01*
X0446831Y0211672D02*
X0440335Y0211672D01*
X0440335Y0211710D02*
X0446831Y0211710D01*
X0446831Y0211748D02*
X0440335Y0211748D01*
X0440335Y0211786D02*
X0446831Y0211786D01*
X0446831Y0211824D02*
X0440335Y0211824D01*
X0440335Y0211861D02*
X0446831Y0211861D01*
X0446831Y0211899D02*
X0440335Y0211899D01*
X0440335Y0211937D02*
X0446831Y0211937D01*
X0446831Y0211975D02*
X0440335Y0211975D01*
X0440335Y0212013D02*
X0446831Y0212013D01*
X0446831Y0212051D02*
X0440335Y0212051D01*
X0440335Y0212089D02*
X0446831Y0212089D01*
X0446831Y0212127D02*
X0440335Y0212127D01*
X0440335Y0212165D02*
X0446831Y0212165D01*
X0446831Y0212202D02*
X0440335Y0212202D01*
X0440335Y0212240D02*
X0446831Y0212240D01*
X0446831Y0212278D02*
X0440335Y0212278D01*
X0440335Y0212316D02*
X0446831Y0212316D01*
X0446831Y0212354D02*
X0440335Y0212354D01*
X0440335Y0212392D02*
X0446831Y0212392D01*
X0446831Y0212430D02*
X0440335Y0212430D01*
X0440335Y0212468D02*
X0446831Y0212468D01*
X0446831Y0212505D02*
X0440335Y0212505D01*
X0440335Y0212543D02*
X0446831Y0212543D01*
X0446831Y0212581D02*
X0440335Y0212581D01*
X0440335Y0212619D02*
X0446831Y0212619D01*
X0446831Y0212657D02*
X0440335Y0212657D01*
X0440335Y0212695D02*
X0446831Y0212695D01*
X0446831Y0212733D02*
X0440335Y0212733D01*
X0440335Y0212771D02*
X0446831Y0212771D01*
X0446831Y0212809D02*
X0440335Y0212809D01*
X0440335Y0212846D02*
X0446831Y0212846D01*
X0446831Y0212884D02*
X0440335Y0212884D01*
X0440335Y0212922D02*
X0446831Y0212922D01*
X0446831Y0212960D02*
X0440335Y0212960D01*
X0440335Y0212998D02*
X0446831Y0212998D01*
X0446831Y0213036D02*
X0440335Y0213036D01*
X0440335Y0213074D02*
X0446831Y0213074D01*
X0446831Y0213112D02*
X0440335Y0213112D01*
X0440335Y0213149D02*
X0446831Y0213149D01*
X0446831Y0213187D02*
X0440335Y0213187D01*
X0440335Y0213225D02*
X0446831Y0213225D01*
X0446831Y0213263D02*
X0440335Y0213263D01*
X0440335Y0213301D02*
X0446831Y0213301D01*
X0446831Y0213339D02*
X0440335Y0213339D01*
X0440335Y0213377D02*
X0446831Y0213377D01*
X0446831Y0213415D02*
X0440335Y0213415D01*
X0440335Y0213452D02*
X0446831Y0213452D01*
X0446831Y0213490D02*
X0440335Y0213490D01*
X0440335Y0213528D02*
X0446831Y0213528D01*
X0446831Y0213566D02*
X0440335Y0213566D01*
X0440335Y0213604D02*
X0446831Y0213604D01*
X0446831Y0213642D02*
X0440335Y0213642D01*
X0440335Y0213680D02*
X0446831Y0213680D01*
X0446831Y0213718D02*
X0440335Y0213718D01*
X0440335Y0213756D02*
X0446831Y0213756D01*
X0446831Y0213793D02*
X0440335Y0213793D01*
X0440335Y0213831D02*
X0446831Y0213831D01*
X0446831Y0213869D02*
X0440335Y0213869D01*
X0440335Y0213907D02*
X0446831Y0213907D01*
X0446831Y0213945D02*
X0440335Y0213945D01*
X0440335Y0213983D02*
X0446831Y0213983D01*
X0446831Y0214021D02*
X0440335Y0214021D01*
X0440335Y0214059D02*
X0446831Y0214059D01*
X0446831Y0214096D02*
X0440335Y0214096D01*
X0440335Y0214134D02*
X0446831Y0214134D01*
X0446831Y0214172D02*
X0440335Y0214172D01*
X0440335Y0214210D02*
X0446831Y0214210D01*
X0446831Y0214248D02*
X0440335Y0214248D01*
X0440335Y0214286D02*
X0446831Y0214286D01*
X0446831Y0214324D02*
X0440335Y0214324D01*
X0440335Y0214362D02*
X0446831Y0214362D01*
X0446831Y0214400D02*
X0440335Y0214400D01*
X0440335Y0214437D02*
X0446831Y0214437D01*
X0446831Y0214475D02*
X0440335Y0214475D01*
X0440335Y0214513D02*
X0446831Y0214513D01*
X0446831Y0214551D02*
X0440335Y0214551D01*
X0440335Y0214589D02*
X0446831Y0214589D01*
X0446831Y0214627D02*
X0440335Y0214627D01*
X0440335Y0214665D02*
X0446831Y0214665D01*
X0446831Y0214703D02*
X0440335Y0214703D01*
X0440335Y0214740D02*
X0446831Y0214740D01*
X0446831Y0214778D02*
X0440335Y0214778D01*
X0440335Y0214816D02*
X0446831Y0214816D01*
X0446831Y0214854D02*
X0440335Y0214854D01*
X0440335Y0214892D02*
X0446831Y0214892D01*
X0446831Y0214930D02*
X0440335Y0214930D01*
X0440335Y0214968D02*
X0446831Y0214968D01*
X0446831Y0215006D02*
X0440335Y0215006D01*
X0440335Y0215044D02*
X0446831Y0215044D01*
X0446831Y0215081D02*
X0440335Y0215081D01*
X0440335Y0215119D02*
X0446831Y0215119D01*
X0446831Y0215157D02*
X0440335Y0215157D01*
X0440335Y0215195D02*
X0446831Y0215195D01*
X0446831Y0215233D02*
X0440335Y0215233D01*
X0440335Y0215271D02*
X0446831Y0215271D01*
X0446831Y0215309D02*
X0440335Y0215309D01*
X0440335Y0215347D02*
X0446831Y0215347D01*
X0446831Y0215384D02*
X0440335Y0215384D01*
X0440335Y0215422D02*
X0446831Y0215422D01*
X0446831Y0215460D02*
X0440335Y0215460D01*
X0440335Y0215498D02*
X0446831Y0215498D01*
X0446831Y0215536D02*
X0440335Y0215536D01*
X0440335Y0215574D02*
X0446831Y0215574D01*
X0446831Y0215612D02*
X0440335Y0215612D01*
X0440335Y0215650D02*
X0446831Y0215650D01*
X0446831Y0215687D02*
X0440335Y0215687D01*
X0440335Y0215725D02*
X0446831Y0215725D01*
X0446831Y0215763D02*
X0440335Y0215763D01*
X0440335Y0215801D02*
X0446831Y0215801D01*
X0446831Y0215839D02*
X0440335Y0215839D01*
X0442185Y0219703D02*
X0444982Y0219703D01*
X0445063Y0219741D02*
X0442104Y0219741D01*
X0442023Y0219779D02*
X0445144Y0219779D01*
X0445198Y0219804D02*
X0445659Y0220126D01*
X0446057Y0220524D01*
X0446379Y0220985D01*
X0446617Y0221495D01*
X0446763Y0222039D01*
X0446812Y0222599D01*
X0446763Y0223160D01*
X0446617Y0223704D01*
X0446379Y0224213D01*
X0446057Y0224674D01*
X0445659Y0225072D01*
X0445198Y0225395D01*
X0444688Y0225633D01*
X0444144Y0225778D01*
X0443583Y0225828D01*
X0443023Y0225778D01*
X0442479Y0225633D01*
X0441969Y0225395D01*
X0441508Y0225072D01*
X0441110Y0224674D01*
X0440788Y0224213D01*
X0440550Y0223704D01*
X0440404Y0223160D01*
X0440355Y0222599D01*
X0440404Y0222039D01*
X0440550Y0221495D01*
X0440788Y0220985D01*
X0441110Y0220524D01*
X0441508Y0220126D01*
X0441969Y0219804D01*
X0442479Y0219566D01*
X0443023Y0219420D01*
X0443583Y0219371D01*
X0444144Y0219420D01*
X0444688Y0219566D01*
X0445198Y0219804D01*
X0445216Y0219817D02*
X0441951Y0219817D01*
X0441896Y0219854D02*
X0445270Y0219854D01*
X0445325Y0219892D02*
X0441842Y0219892D01*
X0441788Y0219930D02*
X0445379Y0219930D01*
X0445433Y0219968D02*
X0441734Y0219968D01*
X0441680Y0220006D02*
X0445487Y0220006D01*
X0445541Y0220044D02*
X0441626Y0220044D01*
X0441572Y0220082D02*
X0445595Y0220082D01*
X0445650Y0220120D02*
X0441517Y0220120D01*
X0441477Y0220158D02*
X0445690Y0220158D01*
X0445728Y0220195D02*
X0441439Y0220195D01*
X0441401Y0220233D02*
X0445766Y0220233D01*
X0445804Y0220271D02*
X0441363Y0220271D01*
X0441325Y0220309D02*
X0445842Y0220309D01*
X0445880Y0220347D02*
X0441287Y0220347D01*
X0441249Y0220385D02*
X0445917Y0220385D01*
X0445955Y0220423D02*
X0441212Y0220423D01*
X0441174Y0220461D02*
X0445993Y0220461D01*
X0446031Y0220498D02*
X0441136Y0220498D01*
X0441102Y0220536D02*
X0446065Y0220536D01*
X0446092Y0220574D02*
X0441075Y0220574D01*
X0441049Y0220612D02*
X0446118Y0220612D01*
X0446145Y0220650D02*
X0441022Y0220650D01*
X0440996Y0220688D02*
X0446171Y0220688D01*
X0446198Y0220726D02*
X0440969Y0220726D01*
X0440943Y0220764D02*
X0446224Y0220764D01*
X0446251Y0220801D02*
X0440916Y0220801D01*
X0440890Y0220839D02*
X0446277Y0220839D01*
X0446304Y0220877D02*
X0440863Y0220877D01*
X0440837Y0220915D02*
X0446330Y0220915D01*
X0446357Y0220953D02*
X0440810Y0220953D01*
X0440785Y0220991D02*
X0446382Y0220991D01*
X0446400Y0221029D02*
X0440767Y0221029D01*
X0440750Y0221067D02*
X0446417Y0221067D01*
X0446435Y0221105D02*
X0440732Y0221105D01*
X0440714Y0221142D02*
X0446453Y0221142D01*
X0446470Y0221180D02*
X0440697Y0221180D01*
X0440679Y0221218D02*
X0446488Y0221218D01*
X0446506Y0221256D02*
X0440661Y0221256D01*
X0440644Y0221294D02*
X0446523Y0221294D01*
X0446541Y0221332D02*
X0440626Y0221332D01*
X0440608Y0221370D02*
X0446559Y0221370D01*
X0446576Y0221408D02*
X0440591Y0221408D01*
X0440573Y0221445D02*
X0446594Y0221445D01*
X0446612Y0221483D02*
X0440555Y0221483D01*
X0440543Y0221521D02*
X0446624Y0221521D01*
X0446634Y0221559D02*
X0440533Y0221559D01*
X0440523Y0221597D02*
X0446644Y0221597D01*
X0446654Y0221635D02*
X0440512Y0221635D01*
X0440502Y0221673D02*
X0446665Y0221673D01*
X0446675Y0221711D02*
X0440492Y0221711D01*
X0440482Y0221749D02*
X0446685Y0221749D01*
X0446695Y0221786D02*
X0440472Y0221786D01*
X0440462Y0221824D02*
X0446705Y0221824D01*
X0446715Y0221862D02*
X0440452Y0221862D01*
X0440441Y0221900D02*
X0446725Y0221900D01*
X0446736Y0221938D02*
X0440431Y0221938D01*
X0440421Y0221976D02*
X0446746Y0221976D01*
X0446756Y0222014D02*
X0440411Y0222014D01*
X0440403Y0222052D02*
X0446764Y0222052D01*
X0446767Y0222089D02*
X0440400Y0222089D01*
X0440397Y0222127D02*
X0446770Y0222127D01*
X0446774Y0222165D02*
X0440393Y0222165D01*
X0440390Y0222203D02*
X0446777Y0222203D01*
X0446780Y0222241D02*
X0440387Y0222241D01*
X0440383Y0222279D02*
X0446784Y0222279D01*
X0446787Y0222317D02*
X0440380Y0222317D01*
X0440377Y0222355D02*
X0446790Y0222355D01*
X0446794Y0222393D02*
X0440373Y0222393D01*
X0440370Y0222430D02*
X0446797Y0222430D01*
X0446800Y0222468D02*
X0440367Y0222468D01*
X0440363Y0222506D02*
X0446804Y0222506D01*
X0446807Y0222544D02*
X0440360Y0222544D01*
X0440357Y0222582D02*
X0446810Y0222582D01*
X0446810Y0222620D02*
X0440357Y0222620D01*
X0440360Y0222658D02*
X0446807Y0222658D01*
X0446803Y0222696D02*
X0440364Y0222696D01*
X0440367Y0222733D02*
X0446800Y0222733D01*
X0446797Y0222771D02*
X0440370Y0222771D01*
X0440374Y0222809D02*
X0446793Y0222809D01*
X0446790Y0222847D02*
X0440377Y0222847D01*
X0440380Y0222885D02*
X0446787Y0222885D01*
X0446783Y0222923D02*
X0440384Y0222923D01*
X0440387Y0222961D02*
X0446780Y0222961D01*
X0446777Y0222999D02*
X0440390Y0222999D01*
X0440394Y0223036D02*
X0446773Y0223036D01*
X0446770Y0223074D02*
X0440397Y0223074D01*
X0440400Y0223112D02*
X0446767Y0223112D01*
X0446763Y0223150D02*
X0440403Y0223150D01*
X0440412Y0223188D02*
X0446755Y0223188D01*
X0446745Y0223226D02*
X0440422Y0223226D01*
X0440432Y0223264D02*
X0446735Y0223264D01*
X0446725Y0223302D02*
X0440442Y0223302D01*
X0440452Y0223340D02*
X0446714Y0223340D01*
X0446704Y0223377D02*
X0440463Y0223377D01*
X0440473Y0223415D02*
X0446694Y0223415D01*
X0446684Y0223453D02*
X0440483Y0223453D01*
X0440493Y0223491D02*
X0446674Y0223491D01*
X0446664Y0223529D02*
X0440503Y0223529D01*
X0440513Y0223567D02*
X0446654Y0223567D01*
X0446643Y0223605D02*
X0440524Y0223605D01*
X0440534Y0223643D02*
X0446633Y0223643D01*
X0446623Y0223680D02*
X0440544Y0223680D01*
X0440557Y0223718D02*
X0446610Y0223718D01*
X0446592Y0223756D02*
X0440575Y0223756D01*
X0440592Y0223794D02*
X0446575Y0223794D01*
X0446557Y0223832D02*
X0440610Y0223832D01*
X0440628Y0223870D02*
X0446539Y0223870D01*
X0446522Y0223908D02*
X0440645Y0223908D01*
X0440663Y0223946D02*
X0446504Y0223946D01*
X0446486Y0223984D02*
X0440681Y0223984D01*
X0440698Y0224021D02*
X0446469Y0224021D01*
X0446451Y0224059D02*
X0440716Y0224059D01*
X0440734Y0224097D02*
X0446433Y0224097D01*
X0446416Y0224135D02*
X0440751Y0224135D01*
X0440769Y0224173D02*
X0446398Y0224173D01*
X0446380Y0224211D02*
X0440787Y0224211D01*
X0440812Y0224249D02*
X0446354Y0224249D01*
X0446328Y0224287D02*
X0440839Y0224287D01*
X0440865Y0224324D02*
X0446301Y0224324D01*
X0446275Y0224362D02*
X0440892Y0224362D01*
X0440918Y0224400D02*
X0446248Y0224400D01*
X0446222Y0224438D02*
X0440945Y0224438D01*
X0440971Y0224476D02*
X0446195Y0224476D01*
X0446169Y0224514D02*
X0440998Y0224514D01*
X0441024Y0224552D02*
X0446142Y0224552D01*
X0446116Y0224590D02*
X0441051Y0224590D01*
X0441077Y0224628D02*
X0446090Y0224628D01*
X0446063Y0224665D02*
X0441104Y0224665D01*
X0441139Y0224703D02*
X0446028Y0224703D01*
X0445990Y0224741D02*
X0441177Y0224741D01*
X0441215Y0224779D02*
X0445952Y0224779D01*
X0445914Y0224817D02*
X0441253Y0224817D01*
X0441291Y0224855D02*
X0445876Y0224855D01*
X0445838Y0224893D02*
X0441329Y0224893D01*
X0441366Y0224931D02*
X0445801Y0224931D01*
X0445763Y0224968D02*
X0441404Y0224968D01*
X0441442Y0225006D02*
X0445725Y0225006D01*
X0445687Y0225044D02*
X0441480Y0225044D01*
X0441522Y0225082D02*
X0445645Y0225082D01*
X0445591Y0225120D02*
X0441576Y0225120D01*
X0441630Y0225158D02*
X0445537Y0225158D01*
X0445482Y0225196D02*
X0441685Y0225196D01*
X0441739Y0225234D02*
X0445428Y0225234D01*
X0445374Y0225271D02*
X0441793Y0225271D01*
X0441847Y0225309D02*
X0445320Y0225309D01*
X0445266Y0225347D02*
X0441901Y0225347D01*
X0441955Y0225385D02*
X0445212Y0225385D01*
X0445137Y0225423D02*
X0442030Y0225423D01*
X0442111Y0225461D02*
X0445056Y0225461D01*
X0444975Y0225499D02*
X0442192Y0225499D01*
X0442273Y0225537D02*
X0444894Y0225537D01*
X0444812Y0225575D02*
X0442355Y0225575D01*
X0442436Y0225612D02*
X0444731Y0225612D01*
X0444622Y0225650D02*
X0442545Y0225650D01*
X0442686Y0225688D02*
X0444481Y0225688D01*
X0444339Y0225726D02*
X0442828Y0225726D01*
X0442969Y0225764D02*
X0444198Y0225764D01*
X0443877Y0225802D02*
X0443290Y0225802D01*
X0443583Y0229371D02*
X0444144Y0229420D01*
X0444688Y0229566D01*
X0445198Y0229804D01*
X0445659Y0230126D01*
X0446057Y0230524D01*
X0446379Y0230985D01*
X0446617Y0231495D01*
X0446763Y0232039D01*
X0446812Y0232599D01*
X0446763Y0233160D01*
X0446617Y0233704D01*
X0446379Y0234213D01*
X0446057Y0234674D01*
X0445659Y0235072D01*
X0445198Y0235395D01*
X0444688Y0235633D01*
X0444144Y0235778D01*
X0443583Y0235828D01*
X0443023Y0235778D01*
X0442479Y0235633D01*
X0441969Y0235395D01*
X0441508Y0235072D01*
X0441110Y0234674D01*
X0440788Y0234213D01*
X0440550Y0233704D01*
X0440404Y0233160D01*
X0440355Y0232599D01*
X0440404Y0232039D01*
X0440550Y0231495D01*
X0440788Y0230985D01*
X0441110Y0230524D01*
X0441508Y0230126D01*
X0441969Y0229804D01*
X0442479Y0229566D01*
X0443023Y0229420D01*
X0443583Y0229371D01*
X0443245Y0229401D02*
X0443922Y0229401D01*
X0444213Y0229438D02*
X0442954Y0229438D01*
X0442813Y0229476D02*
X0444354Y0229476D01*
X0444495Y0229514D02*
X0442671Y0229514D01*
X0442530Y0229552D02*
X0444637Y0229552D01*
X0444740Y0229590D02*
X0442427Y0229590D01*
X0442346Y0229628D02*
X0444821Y0229628D01*
X0444902Y0229666D02*
X0442265Y0229666D01*
X0442184Y0229704D02*
X0444983Y0229704D01*
X0445065Y0229741D02*
X0442102Y0229741D01*
X0442021Y0229779D02*
X0445146Y0229779D01*
X0445217Y0229817D02*
X0441950Y0229817D01*
X0441896Y0229855D02*
X0445271Y0229855D01*
X0445326Y0229893D02*
X0441841Y0229893D01*
X0441787Y0229931D02*
X0445380Y0229931D01*
X0445434Y0229969D02*
X0441733Y0229969D01*
X0441679Y0230007D02*
X0445488Y0230007D01*
X0445542Y0230045D02*
X0441625Y0230045D01*
X0441571Y0230082D02*
X0445596Y0230082D01*
X0445651Y0230120D02*
X0441516Y0230120D01*
X0441476Y0230158D02*
X0445691Y0230158D01*
X0445729Y0230196D02*
X0441438Y0230196D01*
X0441400Y0230234D02*
X0445767Y0230234D01*
X0445805Y0230272D02*
X0441362Y0230272D01*
X0441325Y0230310D02*
X0445842Y0230310D01*
X0445880Y0230348D02*
X0441287Y0230348D01*
X0441249Y0230385D02*
X0445918Y0230385D01*
X0445956Y0230423D02*
X0441211Y0230423D01*
X0441173Y0230461D02*
X0445994Y0230461D01*
X0446032Y0230499D02*
X0441135Y0230499D01*
X0441101Y0230537D02*
X0446066Y0230537D01*
X0446092Y0230575D02*
X0441075Y0230575D01*
X0441048Y0230613D02*
X0446119Y0230613D01*
X0446145Y0230651D02*
X0441022Y0230651D01*
X0440995Y0230689D02*
X0446172Y0230689D01*
X0446198Y0230726D02*
X0440969Y0230726D01*
X0440942Y0230764D02*
X0446225Y0230764D01*
X0446251Y0230802D02*
X0440916Y0230802D01*
X0440889Y0230840D02*
X0446278Y0230840D01*
X0446304Y0230878D02*
X0440863Y0230878D01*
X0440836Y0230916D02*
X0446331Y0230916D01*
X0446357Y0230954D02*
X0440810Y0230954D01*
X0440785Y0230992D02*
X0446382Y0230992D01*
X0446400Y0231029D02*
X0440767Y0231029D01*
X0440749Y0231067D02*
X0446418Y0231067D01*
X0446435Y0231105D02*
X0440732Y0231105D01*
X0440714Y0231143D02*
X0446453Y0231143D01*
X0446471Y0231181D02*
X0440696Y0231181D01*
X0440679Y0231219D02*
X0446488Y0231219D01*
X0446506Y0231257D02*
X0440661Y0231257D01*
X0440643Y0231295D02*
X0446524Y0231295D01*
X0446541Y0231333D02*
X0440626Y0231333D01*
X0440608Y0231370D02*
X0446559Y0231370D01*
X0446577Y0231408D02*
X0440590Y0231408D01*
X0440573Y0231446D02*
X0446594Y0231446D01*
X0446612Y0231484D02*
X0440555Y0231484D01*
X0440543Y0231522D02*
X0446624Y0231522D01*
X0446634Y0231560D02*
X0440533Y0231560D01*
X0440522Y0231598D02*
X0446644Y0231598D01*
X0446655Y0231636D02*
X0440512Y0231636D01*
X0440502Y0231673D02*
X0446665Y0231673D01*
X0446675Y0231711D02*
X0440492Y0231711D01*
X0440482Y0231749D02*
X0446685Y0231749D01*
X0446695Y0231787D02*
X0440472Y0231787D01*
X0440462Y0231825D02*
X0446705Y0231825D01*
X0446716Y0231863D02*
X0440451Y0231863D01*
X0440441Y0231901D02*
X0446726Y0231901D01*
X0446736Y0231939D02*
X0440431Y0231939D01*
X0440421Y0231977D02*
X0446746Y0231977D01*
X0446756Y0232014D02*
X0440411Y0232014D01*
X0440403Y0232052D02*
X0446764Y0232052D01*
X0446767Y0232090D02*
X0440400Y0232090D01*
X0440396Y0232128D02*
X0446770Y0232128D01*
X0446774Y0232166D02*
X0440393Y0232166D01*
X0440390Y0232204D02*
X0446777Y0232204D01*
X0446780Y0232242D02*
X0440387Y0232242D01*
X0440383Y0232280D02*
X0446784Y0232280D01*
X0446787Y0232317D02*
X0440380Y0232317D01*
X0440377Y0232355D02*
X0446790Y0232355D01*
X0446794Y0232393D02*
X0440373Y0232393D01*
X0440370Y0232431D02*
X0446797Y0232431D01*
X0446800Y0232469D02*
X0440367Y0232469D01*
X0440363Y0232507D02*
X0446804Y0232507D01*
X0446807Y0232545D02*
X0440360Y0232545D01*
X0440357Y0232583D02*
X0446810Y0232583D01*
X0446810Y0232620D02*
X0440357Y0232620D01*
X0440360Y0232658D02*
X0446807Y0232658D01*
X0446803Y0232696D02*
X0440364Y0232696D01*
X0440367Y0232734D02*
X0446800Y0232734D01*
X0446797Y0232772D02*
X0440370Y0232772D01*
X0440374Y0232810D02*
X0446793Y0232810D01*
X0446790Y0232848D02*
X0440377Y0232848D01*
X0440380Y0232886D02*
X0446787Y0232886D01*
X0446783Y0232924D02*
X0440384Y0232924D01*
X0440387Y0232961D02*
X0446780Y0232961D01*
X0446777Y0232999D02*
X0440390Y0232999D01*
X0440394Y0233037D02*
X0446773Y0233037D01*
X0446770Y0233075D02*
X0440397Y0233075D01*
X0440400Y0233113D02*
X0446767Y0233113D01*
X0446763Y0233151D02*
X0440404Y0233151D01*
X0440412Y0233189D02*
X0446755Y0233189D01*
X0446745Y0233227D02*
X0440422Y0233227D01*
X0440432Y0233264D02*
X0446735Y0233264D01*
X0446724Y0233302D02*
X0440443Y0233302D01*
X0440453Y0233340D02*
X0446714Y0233340D01*
X0446704Y0233378D02*
X0440463Y0233378D01*
X0440473Y0233416D02*
X0446694Y0233416D01*
X0446684Y0233454D02*
X0440483Y0233454D01*
X0440493Y0233492D02*
X0446674Y0233492D01*
X0446664Y0233530D02*
X0440503Y0233530D01*
X0440514Y0233568D02*
X0446653Y0233568D01*
X0446643Y0233605D02*
X0440524Y0233605D01*
X0440534Y0233643D02*
X0446633Y0233643D01*
X0446623Y0233681D02*
X0440544Y0233681D01*
X0440557Y0233719D02*
X0446610Y0233719D01*
X0446592Y0233757D02*
X0440575Y0233757D01*
X0440593Y0233795D02*
X0446574Y0233795D01*
X0446557Y0233833D02*
X0440610Y0233833D01*
X0440628Y0233871D02*
X0446539Y0233871D01*
X0446521Y0233908D02*
X0440646Y0233908D01*
X0440663Y0233946D02*
X0446504Y0233946D01*
X0446486Y0233984D02*
X0440681Y0233984D01*
X0440699Y0234022D02*
X0446468Y0234022D01*
X0446451Y0234060D02*
X0440716Y0234060D01*
X0440734Y0234098D02*
X0446433Y0234098D01*
X0446415Y0234136D02*
X0440752Y0234136D01*
X0440769Y0234174D02*
X0446398Y0234174D01*
X0446380Y0234212D02*
X0440787Y0234212D01*
X0440813Y0234249D02*
X0446354Y0234249D01*
X0446327Y0234287D02*
X0440839Y0234287D01*
X0440866Y0234325D02*
X0446301Y0234325D01*
X0446274Y0234363D02*
X0440892Y0234363D01*
X0440919Y0234401D02*
X0446248Y0234401D01*
X0446221Y0234439D02*
X0440945Y0234439D01*
X0440972Y0234477D02*
X0446195Y0234477D01*
X0446169Y0234515D02*
X0440998Y0234515D01*
X0441025Y0234552D02*
X0446142Y0234552D01*
X0446116Y0234590D02*
X0441051Y0234590D01*
X0441078Y0234628D02*
X0446089Y0234628D01*
X0446063Y0234666D02*
X0441104Y0234666D01*
X0441140Y0234704D02*
X0446027Y0234704D01*
X0445989Y0234742D02*
X0441178Y0234742D01*
X0441216Y0234780D02*
X0445951Y0234780D01*
X0445913Y0234818D02*
X0441253Y0234818D01*
X0441291Y0234855D02*
X0445876Y0234855D01*
X0445838Y0234893D02*
X0441329Y0234893D01*
X0441367Y0234931D02*
X0445800Y0234931D01*
X0445762Y0234969D02*
X0441405Y0234969D01*
X0441443Y0235007D02*
X0445724Y0235007D01*
X0445686Y0235045D02*
X0441481Y0235045D01*
X0441523Y0235083D02*
X0445644Y0235083D01*
X0445590Y0235121D02*
X0441577Y0235121D01*
X0441631Y0235159D02*
X0445536Y0235159D01*
X0445481Y0235196D02*
X0441686Y0235196D01*
X0441740Y0235234D02*
X0445427Y0235234D01*
X0445373Y0235272D02*
X0441794Y0235272D01*
X0441848Y0235310D02*
X0445319Y0235310D01*
X0445265Y0235348D02*
X0441902Y0235348D01*
X0441956Y0235386D02*
X0445211Y0235386D01*
X0445136Y0235424D02*
X0442031Y0235424D01*
X0442112Y0235462D02*
X0445055Y0235462D01*
X0444973Y0235499D02*
X0442194Y0235499D01*
X0442275Y0235537D02*
X0444892Y0235537D01*
X0444811Y0235575D02*
X0442356Y0235575D01*
X0442437Y0235613D02*
X0444730Y0235613D01*
X0444619Y0235651D02*
X0442548Y0235651D01*
X0442689Y0235689D02*
X0444478Y0235689D01*
X0444337Y0235727D02*
X0442830Y0235727D01*
X0442972Y0235765D02*
X0444195Y0235765D01*
X0443869Y0235803D02*
X0443298Y0235803D01*
X0443583Y0239371D02*
X0444144Y0239420D01*
X0444688Y0239566D01*
X0445198Y0239804D01*
X0445659Y0240126D01*
X0446057Y0240524D01*
X0446379Y0240985D01*
X0446617Y0241495D01*
X0446763Y0242039D01*
X0446812Y0242599D01*
X0446763Y0243160D01*
X0446617Y0243704D01*
X0446379Y0244213D01*
X0446057Y0244674D01*
X0445659Y0245072D01*
X0445198Y0245395D01*
X0444688Y0245633D01*
X0444144Y0245778D01*
X0443583Y0245828D01*
X0443023Y0245778D01*
X0442479Y0245633D01*
X0441969Y0245395D01*
X0441508Y0245072D01*
X0441110Y0244674D01*
X0440788Y0244213D01*
X0440550Y0243704D01*
X0440404Y0243160D01*
X0440355Y0242599D01*
X0440404Y0242039D01*
X0440550Y0241495D01*
X0440788Y0240985D01*
X0441110Y0240524D01*
X0441508Y0240126D01*
X0441969Y0239804D01*
X0442479Y0239566D01*
X0443023Y0239420D01*
X0443583Y0239371D01*
X0443237Y0239401D02*
X0443930Y0239401D01*
X0444215Y0239439D02*
X0442952Y0239439D01*
X0442810Y0239477D02*
X0444357Y0239477D01*
X0444498Y0239515D02*
X0442669Y0239515D01*
X0442528Y0239553D02*
X0444639Y0239553D01*
X0444741Y0239591D02*
X0442426Y0239591D01*
X0442344Y0239629D02*
X0444822Y0239629D01*
X0444904Y0239666D02*
X0442263Y0239666D01*
X0442182Y0239704D02*
X0444985Y0239704D01*
X0445066Y0239742D02*
X0442101Y0239742D01*
X0442020Y0239780D02*
X0445147Y0239780D01*
X0445218Y0239818D02*
X0441949Y0239818D01*
X0441895Y0239856D02*
X0445272Y0239856D01*
X0445327Y0239894D02*
X0441840Y0239894D01*
X0441786Y0239932D02*
X0445381Y0239932D01*
X0445435Y0239969D02*
X0441732Y0239969D01*
X0441678Y0240007D02*
X0445489Y0240007D01*
X0445543Y0240045D02*
X0441624Y0240045D01*
X0441570Y0240083D02*
X0445597Y0240083D01*
X0445652Y0240121D02*
X0441515Y0240121D01*
X0441475Y0240159D02*
X0445692Y0240159D01*
X0445729Y0240197D02*
X0441437Y0240197D01*
X0441400Y0240235D02*
X0445767Y0240235D01*
X0445805Y0240273D02*
X0441362Y0240273D01*
X0441324Y0240310D02*
X0445843Y0240310D01*
X0445881Y0240348D02*
X0441286Y0240348D01*
X0441248Y0240386D02*
X0445919Y0240386D01*
X0445957Y0240424D02*
X0441210Y0240424D01*
X0441172Y0240462D02*
X0445995Y0240462D01*
X0446032Y0240500D02*
X0441134Y0240500D01*
X0441101Y0240538D02*
X0446066Y0240538D01*
X0446093Y0240576D02*
X0441074Y0240576D01*
X0441048Y0240613D02*
X0446119Y0240613D01*
X0446146Y0240651D02*
X0441021Y0240651D01*
X0440995Y0240689D02*
X0446172Y0240689D01*
X0446199Y0240727D02*
X0440968Y0240727D01*
X0440942Y0240765D02*
X0446225Y0240765D01*
X0446252Y0240803D02*
X0440915Y0240803D01*
X0440889Y0240841D02*
X0446278Y0240841D01*
X0446305Y0240879D02*
X0440862Y0240879D01*
X0440836Y0240917D02*
X0446331Y0240917D01*
X0446358Y0240954D02*
X0440809Y0240954D01*
X0440784Y0240992D02*
X0446383Y0240992D01*
X0446400Y0241030D02*
X0440767Y0241030D01*
X0440749Y0241068D02*
X0446418Y0241068D01*
X0446436Y0241106D02*
X0440731Y0241106D01*
X0440714Y0241144D02*
X0446453Y0241144D01*
X0446471Y0241182D02*
X0440696Y0241182D01*
X0440678Y0241220D02*
X0446489Y0241220D01*
X0446506Y0241257D02*
X0440661Y0241257D01*
X0440643Y0241295D02*
X0446524Y0241295D01*
X0446542Y0241333D02*
X0440625Y0241333D01*
X0440608Y0241371D02*
X0446559Y0241371D01*
X0446577Y0241409D02*
X0440590Y0241409D01*
X0440572Y0241447D02*
X0446595Y0241447D01*
X0446612Y0241485D02*
X0440555Y0241485D01*
X0440543Y0241523D02*
X0446624Y0241523D01*
X0446634Y0241560D02*
X0440532Y0241560D01*
X0440522Y0241598D02*
X0446645Y0241598D01*
X0446655Y0241636D02*
X0440512Y0241636D01*
X0440502Y0241674D02*
X0446665Y0241674D01*
X0446675Y0241712D02*
X0440492Y0241712D01*
X0440482Y0241750D02*
X0446685Y0241750D01*
X0446695Y0241788D02*
X0440472Y0241788D01*
X0440461Y0241826D02*
X0446706Y0241826D01*
X0446716Y0241864D02*
X0440451Y0241864D01*
X0440441Y0241901D02*
X0446726Y0241901D01*
X0446736Y0241939D02*
X0440431Y0241939D01*
X0440421Y0241977D02*
X0446746Y0241977D01*
X0446756Y0242015D02*
X0440411Y0242015D01*
X0440403Y0242053D02*
X0446764Y0242053D01*
X0446767Y0242091D02*
X0440400Y0242091D01*
X0440396Y0242129D02*
X0446771Y0242129D01*
X0446774Y0242167D02*
X0440393Y0242167D01*
X0440390Y0242204D02*
X0446777Y0242204D01*
X0446780Y0242242D02*
X0440386Y0242242D01*
X0440383Y0242280D02*
X0446784Y0242280D01*
X0446787Y0242318D02*
X0440380Y0242318D01*
X0440376Y0242356D02*
X0446790Y0242356D01*
X0446794Y0242394D02*
X0440373Y0242394D01*
X0440370Y0242432D02*
X0446797Y0242432D01*
X0446800Y0242470D02*
X0440366Y0242470D01*
X0440363Y0242508D02*
X0446804Y0242508D01*
X0446807Y0242545D02*
X0440360Y0242545D01*
X0440357Y0242583D02*
X0446810Y0242583D01*
X0446810Y0242621D02*
X0440357Y0242621D01*
X0440360Y0242659D02*
X0446807Y0242659D01*
X0446803Y0242697D02*
X0440364Y0242697D01*
X0440367Y0242735D02*
X0446800Y0242735D01*
X0446797Y0242773D02*
X0440370Y0242773D01*
X0440374Y0242811D02*
X0446793Y0242811D01*
X0446790Y0242848D02*
X0440377Y0242848D01*
X0440380Y0242886D02*
X0446787Y0242886D01*
X0446783Y0242924D02*
X0440384Y0242924D01*
X0440387Y0242962D02*
X0446780Y0242962D01*
X0446777Y0243000D02*
X0440390Y0243000D01*
X0440394Y0243038D02*
X0446773Y0243038D01*
X0446770Y0243076D02*
X0440397Y0243076D01*
X0440400Y0243114D02*
X0446767Y0243114D01*
X0446763Y0243152D02*
X0440404Y0243152D01*
X0440412Y0243189D02*
X0446755Y0243189D01*
X0446745Y0243227D02*
X0440422Y0243227D01*
X0440433Y0243265D02*
X0446734Y0243265D01*
X0446724Y0243303D02*
X0440443Y0243303D01*
X0440453Y0243341D02*
X0446714Y0243341D01*
X0446704Y0243379D02*
X0440463Y0243379D01*
X0440473Y0243417D02*
X0446694Y0243417D01*
X0446684Y0243455D02*
X0440483Y0243455D01*
X0440493Y0243492D02*
X0446673Y0243492D01*
X0446663Y0243530D02*
X0440504Y0243530D01*
X0440514Y0243568D02*
X0446653Y0243568D01*
X0446643Y0243606D02*
X0440524Y0243606D01*
X0440534Y0243644D02*
X0446633Y0243644D01*
X0446623Y0243682D02*
X0440544Y0243682D01*
X0440558Y0243720D02*
X0446609Y0243720D01*
X0446592Y0243758D02*
X0440575Y0243758D01*
X0440593Y0243795D02*
X0446574Y0243795D01*
X0446556Y0243833D02*
X0440611Y0243833D01*
X0440628Y0243871D02*
X0446539Y0243871D01*
X0446521Y0243909D02*
X0440646Y0243909D01*
X0440664Y0243947D02*
X0446503Y0243947D01*
X0446486Y0243985D02*
X0440681Y0243985D01*
X0440699Y0244023D02*
X0446468Y0244023D01*
X0446450Y0244061D02*
X0440717Y0244061D01*
X0440734Y0244099D02*
X0446433Y0244099D01*
X0446415Y0244136D02*
X0440752Y0244136D01*
X0440770Y0244174D02*
X0446397Y0244174D01*
X0446380Y0244212D02*
X0440787Y0244212D01*
X0440813Y0244250D02*
X0446353Y0244250D01*
X0446327Y0244288D02*
X0440840Y0244288D01*
X0440866Y0244326D02*
X0446300Y0244326D01*
X0446274Y0244364D02*
X0440893Y0244364D01*
X0440919Y0244402D02*
X0446248Y0244402D01*
X0446221Y0244439D02*
X0440946Y0244439D01*
X0440972Y0244477D02*
X0446195Y0244477D01*
X0446168Y0244515D02*
X0440999Y0244515D01*
X0441025Y0244553D02*
X0446142Y0244553D01*
X0446115Y0244591D02*
X0441052Y0244591D01*
X0441078Y0244629D02*
X0446089Y0244629D01*
X0446062Y0244667D02*
X0441105Y0244667D01*
X0441140Y0244705D02*
X0446026Y0244705D01*
X0445989Y0244743D02*
X0441178Y0244743D01*
X0441216Y0244780D02*
X0445951Y0244780D01*
X0445913Y0244818D02*
X0441254Y0244818D01*
X0441292Y0244856D02*
X0445875Y0244856D01*
X0445837Y0244894D02*
X0441330Y0244894D01*
X0441368Y0244932D02*
X0445799Y0244932D01*
X0445761Y0244970D02*
X0441406Y0244970D01*
X0441444Y0245008D02*
X0445723Y0245008D01*
X0445686Y0245046D02*
X0441481Y0245046D01*
X0441524Y0245083D02*
X0445643Y0245083D01*
X0445589Y0245121D02*
X0441578Y0245121D01*
X0441632Y0245159D02*
X0445535Y0245159D01*
X0445480Y0245197D02*
X0441687Y0245197D01*
X0441741Y0245235D02*
X0445426Y0245235D01*
X0445372Y0245273D02*
X0441795Y0245273D01*
X0441849Y0245311D02*
X0445318Y0245311D01*
X0445264Y0245349D02*
X0441903Y0245349D01*
X0441957Y0245387D02*
X0445210Y0245387D01*
X0445134Y0245424D02*
X0442033Y0245424D01*
X0442114Y0245462D02*
X0445053Y0245462D01*
X0444972Y0245500D02*
X0442195Y0245500D01*
X0442276Y0245538D02*
X0444891Y0245538D01*
X0444809Y0245576D02*
X0442357Y0245576D01*
X0442439Y0245614D02*
X0444728Y0245614D01*
X0444617Y0245652D02*
X0442550Y0245652D01*
X0442691Y0245690D02*
X0444475Y0245690D01*
X0444334Y0245727D02*
X0442833Y0245727D01*
X0442974Y0245765D02*
X0444193Y0245765D01*
X0443861Y0245803D02*
X0443306Y0245803D01*
X0443583Y0249371D02*
X0444144Y0249420D01*
X0444688Y0249566D01*
X0445198Y0249804D01*
X0445659Y0250126D01*
X0446057Y0250524D01*
X0446379Y0250985D01*
X0446617Y0251495D01*
X0446763Y0252039D01*
X0446812Y0252599D01*
X0446763Y0253160D01*
X0446617Y0253704D01*
X0446379Y0254213D01*
X0440788Y0254213D01*
X0440550Y0253704D01*
X0440404Y0253160D01*
X0440355Y0252599D01*
X0440404Y0252039D01*
X0440550Y0251495D01*
X0440788Y0250985D01*
X0441110Y0250524D01*
X0441508Y0250126D01*
X0441969Y0249804D01*
X0442479Y0249566D01*
X0443023Y0249420D01*
X0443583Y0249371D01*
X0443229Y0249402D02*
X0443937Y0249402D01*
X0444218Y0249440D02*
X0442949Y0249440D01*
X0442808Y0249478D02*
X0444359Y0249478D01*
X0444501Y0249516D02*
X0442666Y0249516D01*
X0442525Y0249553D02*
X0444642Y0249553D01*
X0444743Y0249591D02*
X0442424Y0249591D01*
X0442343Y0249629D02*
X0444824Y0249629D01*
X0444905Y0249667D02*
X0442262Y0249667D01*
X0442181Y0249705D02*
X0444986Y0249705D01*
X0445068Y0249743D02*
X0442099Y0249743D01*
X0442018Y0249781D02*
X0445149Y0249781D01*
X0445219Y0249819D02*
X0441948Y0249819D01*
X0441894Y0249857D02*
X0445273Y0249857D01*
X0445328Y0249894D02*
X0441839Y0249894D01*
X0441785Y0249932D02*
X0445382Y0249932D01*
X0445436Y0249970D02*
X0441731Y0249970D01*
X0441677Y0250008D02*
X0445490Y0250008D01*
X0445544Y0250046D02*
X0441623Y0250046D01*
X0441569Y0250084D02*
X0445598Y0250084D01*
X0445653Y0250122D02*
X0441514Y0250122D01*
X0441475Y0250160D02*
X0445692Y0250160D01*
X0445730Y0250197D02*
X0441437Y0250197D01*
X0441399Y0250235D02*
X0445768Y0250235D01*
X0445806Y0250273D02*
X0441361Y0250273D01*
X0441323Y0250311D02*
X0445844Y0250311D01*
X0445882Y0250349D02*
X0441285Y0250349D01*
X0441247Y0250387D02*
X0445920Y0250387D01*
X0445957Y0250425D02*
X0441210Y0250425D01*
X0441172Y0250463D02*
X0445995Y0250463D01*
X0446033Y0250501D02*
X0441134Y0250501D01*
X0441100Y0250538D02*
X0446067Y0250538D01*
X0446093Y0250576D02*
X0441074Y0250576D01*
X0441047Y0250614D02*
X0446120Y0250614D01*
X0446146Y0250652D02*
X0441021Y0250652D01*
X0440994Y0250690D02*
X0446173Y0250690D01*
X0446199Y0250728D02*
X0440968Y0250728D01*
X0440941Y0250766D02*
X0446226Y0250766D01*
X0446252Y0250804D02*
X0440915Y0250804D01*
X0440888Y0250841D02*
X0446279Y0250841D01*
X0446305Y0250879D02*
X0440862Y0250879D01*
X0440835Y0250917D02*
X0446332Y0250917D01*
X0446358Y0250955D02*
X0440809Y0250955D01*
X0440784Y0250993D02*
X0446383Y0250993D01*
X0446400Y0251031D02*
X0440766Y0251031D01*
X0440749Y0251069D02*
X0446418Y0251069D01*
X0446436Y0251107D02*
X0440731Y0251107D01*
X0440713Y0251144D02*
X0446453Y0251144D01*
X0446471Y0251182D02*
X0440696Y0251182D01*
X0440678Y0251220D02*
X0446489Y0251220D01*
X0446506Y0251258D02*
X0440660Y0251258D01*
X0440643Y0251296D02*
X0446524Y0251296D01*
X0446542Y0251334D02*
X0440625Y0251334D01*
X0440607Y0251372D02*
X0446560Y0251372D01*
X0446577Y0251410D02*
X0440590Y0251410D01*
X0440572Y0251448D02*
X0446595Y0251448D01*
X0446613Y0251485D02*
X0440554Y0251485D01*
X0440542Y0251523D02*
X0446625Y0251523D01*
X0446635Y0251561D02*
X0440532Y0251561D01*
X0440522Y0251599D02*
X0446645Y0251599D01*
X0446655Y0251637D02*
X0440512Y0251637D01*
X0440502Y0251675D02*
X0446665Y0251675D01*
X0446675Y0251713D02*
X0440492Y0251713D01*
X0440481Y0251751D02*
X0446685Y0251751D01*
X0446696Y0251788D02*
X0440471Y0251788D01*
X0440461Y0251826D02*
X0446706Y0251826D01*
X0446716Y0251864D02*
X0440451Y0251864D01*
X0440441Y0251902D02*
X0446726Y0251902D01*
X0446736Y0251940D02*
X0440431Y0251940D01*
X0440421Y0251978D02*
X0446746Y0251978D01*
X0446756Y0252016D02*
X0440410Y0252016D01*
X0440403Y0252054D02*
X0446764Y0252054D01*
X0446767Y0252092D02*
X0440400Y0252092D01*
X0440396Y0252129D02*
X0446771Y0252129D01*
X0446774Y0252167D02*
X0440393Y0252167D01*
X0440390Y0252205D02*
X0446777Y0252205D01*
X0446781Y0252243D02*
X0440386Y0252243D01*
X0440383Y0252281D02*
X0446784Y0252281D01*
X0446787Y0252319D02*
X0440380Y0252319D01*
X0440376Y0252357D02*
X0446791Y0252357D01*
X0446794Y0252395D02*
X0440373Y0252395D01*
X0440370Y0252432D02*
X0446797Y0252432D01*
X0446800Y0252470D02*
X0440366Y0252470D01*
X0440363Y0252508D02*
X0446804Y0252508D01*
X0446807Y0252546D02*
X0440360Y0252546D01*
X0440356Y0252584D02*
X0446810Y0252584D01*
X0446810Y0252622D02*
X0440357Y0252622D01*
X0440360Y0252660D02*
X0446807Y0252660D01*
X0446803Y0252698D02*
X0440364Y0252698D01*
X0440367Y0252736D02*
X0446800Y0252736D01*
X0446797Y0252773D02*
X0440370Y0252773D01*
X0440374Y0252811D02*
X0446793Y0252811D01*
X0446790Y0252849D02*
X0440377Y0252849D01*
X0440380Y0252887D02*
X0446787Y0252887D01*
X0446783Y0252925D02*
X0440384Y0252925D01*
X0440387Y0252963D02*
X0446780Y0252963D01*
X0446777Y0253001D02*
X0440390Y0253001D01*
X0440394Y0253039D02*
X0446773Y0253039D01*
X0446770Y0253076D02*
X0440397Y0253076D01*
X0440400Y0253114D02*
X0446767Y0253114D01*
X0446763Y0253152D02*
X0440404Y0253152D01*
X0440412Y0253190D02*
X0446755Y0253190D01*
X0446744Y0253228D02*
X0440423Y0253228D01*
X0440433Y0253266D02*
X0446734Y0253266D01*
X0446724Y0253304D02*
X0440443Y0253304D01*
X0440453Y0253342D02*
X0446714Y0253342D01*
X0446704Y0253379D02*
X0440463Y0253379D01*
X0440473Y0253417D02*
X0446694Y0253417D01*
X0446683Y0253455D02*
X0440483Y0253455D01*
X0440494Y0253493D02*
X0446673Y0253493D01*
X0446663Y0253531D02*
X0440504Y0253531D01*
X0440514Y0253569D02*
X0446653Y0253569D01*
X0446643Y0253607D02*
X0440524Y0253607D01*
X0440534Y0253645D02*
X0446633Y0253645D01*
X0446623Y0253683D02*
X0440544Y0253683D01*
X0440558Y0253720D02*
X0446609Y0253720D01*
X0446591Y0253758D02*
X0440576Y0253758D01*
X0440593Y0253796D02*
X0446574Y0253796D01*
X0446556Y0253834D02*
X0440611Y0253834D01*
X0440629Y0253872D02*
X0446538Y0253872D01*
X0446521Y0253910D02*
X0440646Y0253910D01*
X0440664Y0253948D02*
X0446503Y0253948D01*
X0446485Y0253986D02*
X0440682Y0253986D01*
X0440699Y0254023D02*
X0446468Y0254023D01*
X0446450Y0254061D02*
X0440717Y0254061D01*
X0440735Y0254099D02*
X0446432Y0254099D01*
X0446415Y0254137D02*
X0440752Y0254137D01*
X0440770Y0254175D02*
X0446397Y0254175D01*
X0446379Y0254213D02*
X0446057Y0254674D01*
X0445659Y0255072D01*
X0445198Y0255395D01*
X0444688Y0255633D01*
X0444144Y0255778D01*
X0443583Y0255828D01*
X0443023Y0255778D01*
X0442479Y0255633D01*
X0441969Y0255395D01*
X0441508Y0255072D01*
X0441110Y0254674D01*
X0440788Y0254213D01*
X0440814Y0254251D02*
X0446353Y0254251D01*
X0446327Y0254289D02*
X0440840Y0254289D01*
X0440867Y0254327D02*
X0446300Y0254327D01*
X0446274Y0254364D02*
X0440893Y0254364D01*
X0440920Y0254402D02*
X0446247Y0254402D01*
X0446221Y0254440D02*
X0440946Y0254440D01*
X0440973Y0254478D02*
X0446194Y0254478D01*
X0446168Y0254516D02*
X0440999Y0254516D01*
X0441026Y0254554D02*
X0446141Y0254554D01*
X0446115Y0254592D02*
X0441052Y0254592D01*
X0441079Y0254630D02*
X0446088Y0254630D01*
X0446062Y0254667D02*
X0441105Y0254667D01*
X0441141Y0254705D02*
X0446026Y0254705D01*
X0445988Y0254743D02*
X0441179Y0254743D01*
X0441217Y0254781D02*
X0445950Y0254781D01*
X0445912Y0254819D02*
X0441255Y0254819D01*
X0441293Y0254857D02*
X0445874Y0254857D01*
X0445836Y0254895D02*
X0441331Y0254895D01*
X0441368Y0254933D02*
X0445798Y0254933D01*
X0445761Y0254971D02*
X0441406Y0254971D01*
X0441444Y0255008D02*
X0445723Y0255008D01*
X0445685Y0255046D02*
X0441482Y0255046D01*
X0441525Y0255084D02*
X0445642Y0255084D01*
X0445588Y0255122D02*
X0441579Y0255122D01*
X0441633Y0255160D02*
X0445534Y0255160D01*
X0445479Y0255198D02*
X0441688Y0255198D01*
X0441742Y0255236D02*
X0445425Y0255236D01*
X0445371Y0255274D02*
X0441796Y0255274D01*
X0441850Y0255311D02*
X0445317Y0255311D01*
X0445263Y0255349D02*
X0441904Y0255349D01*
X0441958Y0255387D02*
X0445209Y0255387D01*
X0445133Y0255425D02*
X0442034Y0255425D01*
X0442115Y0255463D02*
X0445052Y0255463D01*
X0444970Y0255501D02*
X0442196Y0255501D01*
X0442278Y0255539D02*
X0444889Y0255539D01*
X0444808Y0255577D02*
X0442359Y0255577D01*
X0442440Y0255614D02*
X0444727Y0255614D01*
X0444614Y0255652D02*
X0442553Y0255652D01*
X0442694Y0255690D02*
X0444473Y0255690D01*
X0444332Y0255728D02*
X0442835Y0255728D01*
X0442977Y0255766D02*
X0444190Y0255766D01*
X0443853Y0255804D02*
X0443314Y0255804D01*
X0443583Y0259371D02*
X0444144Y0259420D01*
X0444688Y0259566D01*
X0445198Y0259804D01*
X0445659Y0260126D01*
X0446057Y0260524D01*
X0446379Y0260985D01*
X0446617Y0261495D01*
X0446763Y0262039D01*
X0446812Y0262599D01*
X0446763Y0263160D01*
X0446617Y0263704D01*
X0446379Y0264213D01*
X0446057Y0264674D01*
X0445659Y0265072D01*
X0445198Y0265395D01*
X0444688Y0265633D01*
X0444144Y0265778D01*
X0443583Y0265828D01*
X0443023Y0265778D01*
X0442479Y0265633D01*
X0441969Y0265395D01*
X0441508Y0265072D01*
X0441110Y0264674D01*
X0440788Y0264213D01*
X0440550Y0263704D01*
X0440404Y0263160D01*
X0440355Y0262599D01*
X0440404Y0262039D01*
X0440550Y0261495D01*
X0440788Y0260985D01*
X0441110Y0260524D01*
X0441508Y0260126D01*
X0441969Y0259804D01*
X0442479Y0259566D01*
X0443023Y0259420D01*
X0443583Y0259371D01*
X0443222Y0259403D02*
X0443945Y0259403D01*
X0444220Y0259441D02*
X0442947Y0259441D01*
X0442805Y0259478D02*
X0444362Y0259478D01*
X0444503Y0259516D02*
X0442664Y0259516D01*
X0442522Y0259554D02*
X0444645Y0259554D01*
X0444744Y0259592D02*
X0442423Y0259592D01*
X0442342Y0259630D02*
X0444825Y0259630D01*
X0444907Y0259668D02*
X0442260Y0259668D01*
X0442179Y0259706D02*
X0444988Y0259706D01*
X0445069Y0259744D02*
X0442098Y0259744D01*
X0442017Y0259781D02*
X0445150Y0259781D01*
X0445220Y0259819D02*
X0441947Y0259819D01*
X0441893Y0259857D02*
X0445274Y0259857D01*
X0445329Y0259895D02*
X0441838Y0259895D01*
X0441784Y0259933D02*
X0445383Y0259933D01*
X0445437Y0259971D02*
X0441730Y0259971D01*
X0441676Y0260009D02*
X0445491Y0260009D01*
X0445545Y0260047D02*
X0441622Y0260047D01*
X0441568Y0260084D02*
X0445599Y0260084D01*
X0445654Y0260122D02*
X0441513Y0260122D01*
X0441474Y0260160D02*
X0445693Y0260160D01*
X0445731Y0260198D02*
X0441436Y0260198D01*
X0441398Y0260236D02*
X0445769Y0260236D01*
X0445807Y0260274D02*
X0441360Y0260274D01*
X0441322Y0260312D02*
X0445844Y0260312D01*
X0445882Y0260350D02*
X0441285Y0260350D01*
X0441247Y0260388D02*
X0445920Y0260388D01*
X0445958Y0260425D02*
X0441209Y0260425D01*
X0441171Y0260463D02*
X0445996Y0260463D01*
X0446034Y0260501D02*
X0441133Y0260501D01*
X0441100Y0260539D02*
X0446067Y0260539D01*
X0446094Y0260577D02*
X0441073Y0260577D01*
X0441047Y0260615D02*
X0446120Y0260615D01*
X0446147Y0260653D02*
X0441020Y0260653D01*
X0440994Y0260691D02*
X0446173Y0260691D01*
X0446200Y0260728D02*
X0440967Y0260728D01*
X0440941Y0260766D02*
X0446226Y0260766D01*
X0446253Y0260804D02*
X0440914Y0260804D01*
X0440888Y0260842D02*
X0446279Y0260842D01*
X0446306Y0260880D02*
X0440861Y0260880D01*
X0440835Y0260918D02*
X0446332Y0260918D01*
X0446359Y0260956D02*
X0440808Y0260956D01*
X0440784Y0260994D02*
X0446383Y0260994D01*
X0446401Y0261032D02*
X0440766Y0261032D01*
X0440748Y0261069D02*
X0446418Y0261069D01*
X0446436Y0261107D02*
X0440731Y0261107D01*
X0440713Y0261145D02*
X0446454Y0261145D01*
X0446471Y0261183D02*
X0440695Y0261183D01*
X0440678Y0261221D02*
X0446489Y0261221D01*
X0446507Y0261259D02*
X0440660Y0261259D01*
X0440642Y0261297D02*
X0446524Y0261297D01*
X0446542Y0261335D02*
X0440625Y0261335D01*
X0440607Y0261372D02*
X0446560Y0261372D01*
X0446577Y0261410D02*
X0440589Y0261410D01*
X0440572Y0261448D02*
X0446595Y0261448D01*
X0446613Y0261486D02*
X0440554Y0261486D01*
X0440542Y0261524D02*
X0446625Y0261524D01*
X0446635Y0261562D02*
X0440532Y0261562D01*
X0440522Y0261600D02*
X0446645Y0261600D01*
X0446655Y0261638D02*
X0440512Y0261638D01*
X0440502Y0261676D02*
X0446665Y0261676D01*
X0446675Y0261713D02*
X0440491Y0261713D01*
X0440481Y0261751D02*
X0446686Y0261751D01*
X0446696Y0261789D02*
X0440471Y0261789D01*
X0440461Y0261827D02*
X0446706Y0261827D01*
X0446716Y0261865D02*
X0440451Y0261865D01*
X0440441Y0261903D02*
X0446726Y0261903D01*
X0446736Y0261941D02*
X0440431Y0261941D01*
X0440420Y0261979D02*
X0446747Y0261979D01*
X0446757Y0262016D02*
X0440410Y0262016D01*
X0440403Y0262054D02*
X0446764Y0262054D01*
X0446767Y0262092D02*
X0440400Y0262092D01*
X0440396Y0262130D02*
X0446771Y0262130D01*
X0446774Y0262168D02*
X0440393Y0262168D01*
X0440390Y0262206D02*
X0446777Y0262206D01*
X0446781Y0262244D02*
X0440386Y0262244D01*
X0440383Y0262282D02*
X0446784Y0262282D01*
X0446787Y0262320D02*
X0440380Y0262320D01*
X0440376Y0262357D02*
X0446791Y0262357D01*
X0446794Y0262395D02*
X0440373Y0262395D01*
X0440370Y0262433D02*
X0446797Y0262433D01*
X0446801Y0262471D02*
X0440366Y0262471D01*
X0440363Y0262509D02*
X0446804Y0262509D01*
X0446807Y0262547D02*
X0440360Y0262547D01*
X0440356Y0262585D02*
X0446811Y0262585D01*
X0446810Y0262623D02*
X0440357Y0262623D01*
X0440360Y0262660D02*
X0446806Y0262660D01*
X0446803Y0262698D02*
X0440364Y0262698D01*
X0440367Y0262736D02*
X0446800Y0262736D01*
X0446796Y0262774D02*
X0440370Y0262774D01*
X0440374Y0262812D02*
X0446793Y0262812D01*
X0446790Y0262850D02*
X0440377Y0262850D01*
X0440380Y0262888D02*
X0446786Y0262888D01*
X0446783Y0262926D02*
X0440384Y0262926D01*
X0440387Y0262963D02*
X0446780Y0262963D01*
X0446777Y0263001D02*
X0440390Y0263001D01*
X0440394Y0263039D02*
X0446773Y0263039D01*
X0446770Y0263077D02*
X0440397Y0263077D01*
X0440400Y0263115D02*
X0446767Y0263115D01*
X0446763Y0263153D02*
X0440404Y0263153D01*
X0440413Y0263191D02*
X0446754Y0263191D01*
X0446744Y0263229D02*
X0440423Y0263229D01*
X0440433Y0263267D02*
X0446734Y0263267D01*
X0446724Y0263304D02*
X0440443Y0263304D01*
X0440453Y0263342D02*
X0446714Y0263342D01*
X0446704Y0263380D02*
X0440463Y0263380D01*
X0440474Y0263418D02*
X0446693Y0263418D01*
X0446683Y0263456D02*
X0440484Y0263456D01*
X0440494Y0263494D02*
X0446673Y0263494D01*
X0446663Y0263532D02*
X0440504Y0263532D01*
X0440514Y0263570D02*
X0446653Y0263570D01*
X0446643Y0263607D02*
X0440524Y0263607D01*
X0440534Y0263645D02*
X0446633Y0263645D01*
X0446622Y0263683D02*
X0440545Y0263683D01*
X0440558Y0263721D02*
X0446609Y0263721D01*
X0446591Y0263759D02*
X0440576Y0263759D01*
X0440594Y0263797D02*
X0446573Y0263797D01*
X0446556Y0263835D02*
X0440611Y0263835D01*
X0440629Y0263873D02*
X0446538Y0263873D01*
X0446520Y0263911D02*
X0440647Y0263911D01*
X0440664Y0263948D02*
X0446503Y0263948D01*
X0446485Y0263986D02*
X0440682Y0263986D01*
X0440700Y0264024D02*
X0446467Y0264024D01*
X0446450Y0264062D02*
X0440717Y0264062D01*
X0440735Y0264100D02*
X0446432Y0264100D01*
X0446414Y0264138D02*
X0440753Y0264138D01*
X0440770Y0264176D02*
X0446397Y0264176D01*
X0446379Y0264214D02*
X0440788Y0264214D01*
X0440814Y0264251D02*
X0446353Y0264251D01*
X0446326Y0264289D02*
X0440841Y0264289D01*
X0440867Y0264327D02*
X0446300Y0264327D01*
X0446273Y0264365D02*
X0440894Y0264365D01*
X0440920Y0264403D02*
X0446247Y0264403D01*
X0446220Y0264441D02*
X0440947Y0264441D01*
X0440973Y0264479D02*
X0446194Y0264479D01*
X0446167Y0264517D02*
X0441000Y0264517D01*
X0441026Y0264555D02*
X0446141Y0264555D01*
X0446114Y0264592D02*
X0441053Y0264592D01*
X0441079Y0264630D02*
X0446088Y0264630D01*
X0446061Y0264668D02*
X0441106Y0264668D01*
X0441142Y0264706D02*
X0446025Y0264706D01*
X0445987Y0264744D02*
X0441180Y0264744D01*
X0441218Y0264782D02*
X0445949Y0264782D01*
X0445911Y0264820D02*
X0441255Y0264820D01*
X0441293Y0264858D02*
X0445874Y0264858D01*
X0445836Y0264895D02*
X0441331Y0264895D01*
X0441369Y0264933D02*
X0445798Y0264933D01*
X0445760Y0264971D02*
X0441407Y0264971D01*
X0441445Y0265009D02*
X0445722Y0265009D01*
X0445684Y0265047D02*
X0441483Y0265047D01*
X0441526Y0265085D02*
X0445641Y0265085D01*
X0445587Y0265123D02*
X0441580Y0265123D01*
X0441634Y0265161D02*
X0445533Y0265161D01*
X0445478Y0265198D02*
X0441688Y0265198D01*
X0441743Y0265236D02*
X0445424Y0265236D01*
X0445370Y0265274D02*
X0441797Y0265274D01*
X0441851Y0265312D02*
X0445316Y0265312D01*
X0445262Y0265350D02*
X0441905Y0265350D01*
X0441959Y0265388D02*
X0445208Y0265388D01*
X0445131Y0265426D02*
X0442036Y0265426D01*
X0442117Y0265464D02*
X0445050Y0265464D01*
X0444969Y0265502D02*
X0442198Y0265502D01*
X0442279Y0265539D02*
X0444888Y0265539D01*
X0444807Y0265577D02*
X0442360Y0265577D01*
X0442442Y0265615D02*
X0444725Y0265615D01*
X0444612Y0265653D02*
X0442555Y0265653D01*
X0442697Y0265691D02*
X0444470Y0265691D01*
X0444329Y0265729D02*
X0442838Y0265729D01*
X0442979Y0265767D02*
X0444188Y0265767D01*
X0443845Y0265805D02*
X0443322Y0265805D01*
X0443583Y0269371D02*
X0444144Y0269420D01*
X0444688Y0269566D01*
X0445198Y0269804D01*
X0445659Y0270126D01*
X0446057Y0270524D01*
X0446379Y0270985D01*
X0446617Y0271495D01*
X0446763Y0272039D01*
X0446812Y0272599D01*
X0446763Y0273160D01*
X0446617Y0273704D01*
X0446379Y0274213D01*
X0446057Y0274674D01*
X0445659Y0275072D01*
X0445198Y0275395D01*
X0444688Y0275633D01*
X0444144Y0275778D01*
X0443583Y0275828D01*
X0443023Y0275778D01*
X0442479Y0275633D01*
X0441969Y0275395D01*
X0441508Y0275072D01*
X0441110Y0274674D01*
X0440788Y0274213D01*
X0440550Y0273704D01*
X0440404Y0273160D01*
X0440355Y0272599D01*
X0440404Y0272039D01*
X0440550Y0271495D01*
X0440788Y0270985D01*
X0441110Y0270524D01*
X0441508Y0270126D01*
X0441969Y0269804D01*
X0442479Y0269566D01*
X0443023Y0269420D01*
X0443583Y0269371D01*
X0443214Y0269403D02*
X0443953Y0269403D01*
X0444223Y0269441D02*
X0442944Y0269441D01*
X0442803Y0269479D02*
X0444364Y0269479D01*
X0444506Y0269517D02*
X0442661Y0269517D01*
X0442520Y0269555D02*
X0444647Y0269555D01*
X0444746Y0269593D02*
X0442421Y0269593D01*
X0442340Y0269631D02*
X0444827Y0269631D01*
X0444908Y0269668D02*
X0442259Y0269668D01*
X0442178Y0269706D02*
X0444989Y0269706D01*
X0445071Y0269744D02*
X0442096Y0269744D01*
X0442015Y0269782D02*
X0445152Y0269782D01*
X0445221Y0269820D02*
X0441946Y0269820D01*
X0441892Y0269858D02*
X0445275Y0269858D01*
X0445330Y0269896D02*
X0441837Y0269896D01*
X0441783Y0269934D02*
X0445384Y0269934D01*
X0445438Y0269972D02*
X0441729Y0269972D01*
X0441675Y0270009D02*
X0445492Y0270009D01*
X0445546Y0270047D02*
X0441621Y0270047D01*
X0441567Y0270085D02*
X0445600Y0270085D01*
X0445654Y0270123D02*
X0441512Y0270123D01*
X0441473Y0270161D02*
X0445694Y0270161D01*
X0445732Y0270199D02*
X0441435Y0270199D01*
X0441398Y0270237D02*
X0445769Y0270237D01*
X0445807Y0270275D02*
X0441360Y0270275D01*
X0441322Y0270312D02*
X0445845Y0270312D01*
X0445883Y0270350D02*
X0441284Y0270350D01*
X0441246Y0270388D02*
X0445921Y0270388D01*
X0445959Y0270426D02*
X0441208Y0270426D01*
X0441170Y0270464D02*
X0445997Y0270464D01*
X0446035Y0270502D02*
X0441132Y0270502D01*
X0441099Y0270540D02*
X0446068Y0270540D01*
X0446094Y0270578D02*
X0441073Y0270578D01*
X0441046Y0270616D02*
X0446121Y0270616D01*
X0446147Y0270653D02*
X0441020Y0270653D01*
X0440993Y0270691D02*
X0446174Y0270691D01*
X0446200Y0270729D02*
X0440967Y0270729D01*
X0440940Y0270767D02*
X0446227Y0270767D01*
X0446253Y0270805D02*
X0440914Y0270805D01*
X0440887Y0270843D02*
X0446280Y0270843D01*
X0446306Y0270881D02*
X0440861Y0270881D01*
X0440834Y0270919D02*
X0446333Y0270919D01*
X0446359Y0270956D02*
X0440808Y0270956D01*
X0440783Y0270994D02*
X0446383Y0270994D01*
X0446401Y0271032D02*
X0440766Y0271032D01*
X0440748Y0271070D02*
X0446419Y0271070D01*
X0446436Y0271108D02*
X0440730Y0271108D01*
X0440713Y0271146D02*
X0446454Y0271146D01*
X0446472Y0271184D02*
X0440695Y0271184D01*
X0440677Y0271222D02*
X0446489Y0271222D01*
X0446507Y0271260D02*
X0440660Y0271260D01*
X0440642Y0271297D02*
X0446525Y0271297D01*
X0446542Y0271335D02*
X0440624Y0271335D01*
X0440607Y0271373D02*
X0446560Y0271373D01*
X0446578Y0271411D02*
X0440589Y0271411D01*
X0440571Y0271449D02*
X0446595Y0271449D01*
X0446613Y0271487D02*
X0440554Y0271487D01*
X0440542Y0271525D02*
X0446625Y0271525D01*
X0446635Y0271563D02*
X0440532Y0271563D01*
X0440522Y0271600D02*
X0446645Y0271600D01*
X0446655Y0271638D02*
X0440512Y0271638D01*
X0440501Y0271676D02*
X0446666Y0271676D01*
X0446676Y0271714D02*
X0440491Y0271714D01*
X0440481Y0271752D02*
X0446686Y0271752D01*
X0446696Y0271790D02*
X0440471Y0271790D01*
X0440461Y0271828D02*
X0446706Y0271828D01*
X0446716Y0271866D02*
X0440451Y0271866D01*
X0440441Y0271903D02*
X0446726Y0271903D01*
X0446737Y0271941D02*
X0440430Y0271941D01*
X0440420Y0271979D02*
X0446747Y0271979D01*
X0446757Y0272017D02*
X0440410Y0272017D01*
X0440403Y0272055D02*
X0446764Y0272055D01*
X0446767Y0272093D02*
X0440400Y0272093D01*
X0440396Y0272131D02*
X0446771Y0272131D01*
X0446774Y0272169D02*
X0440393Y0272169D01*
X0440390Y0272207D02*
X0446777Y0272207D01*
X0446781Y0272244D02*
X0440386Y0272244D01*
X0440383Y0272282D02*
X0446784Y0272282D01*
X0446787Y0272320D02*
X0440380Y0272320D01*
X0440376Y0272358D02*
X0446791Y0272358D01*
X0446794Y0272396D02*
X0440373Y0272396D01*
X0440370Y0272434D02*
X0446797Y0272434D01*
X0446801Y0272472D02*
X0440366Y0272472D01*
X0440363Y0272510D02*
X0446804Y0272510D01*
X0446807Y0272547D02*
X0440360Y0272547D01*
X0440356Y0272585D02*
X0446811Y0272585D01*
X0446810Y0272623D02*
X0440357Y0272623D01*
X0440361Y0272661D02*
X0446806Y0272661D01*
X0446803Y0272699D02*
X0440364Y0272699D01*
X0440367Y0272737D02*
X0446800Y0272737D01*
X0446796Y0272775D02*
X0440371Y0272775D01*
X0440374Y0272813D02*
X0446793Y0272813D01*
X0446790Y0272851D02*
X0440377Y0272851D01*
X0440381Y0272888D02*
X0446786Y0272888D01*
X0446783Y0272926D02*
X0440384Y0272926D01*
X0440387Y0272964D02*
X0446780Y0272964D01*
X0446776Y0273002D02*
X0440390Y0273002D01*
X0440394Y0273040D02*
X0446773Y0273040D01*
X0446770Y0273078D02*
X0440397Y0273078D01*
X0440400Y0273116D02*
X0446766Y0273116D01*
X0446763Y0273154D02*
X0440404Y0273154D01*
X0440413Y0273191D02*
X0446754Y0273191D01*
X0446744Y0273229D02*
X0440423Y0273229D01*
X0440433Y0273267D02*
X0446734Y0273267D01*
X0446724Y0273305D02*
X0440443Y0273305D01*
X0440453Y0273343D02*
X0446714Y0273343D01*
X0446703Y0273381D02*
X0440464Y0273381D01*
X0440474Y0273419D02*
X0446693Y0273419D01*
X0446683Y0273457D02*
X0440484Y0273457D01*
X0440494Y0273495D02*
X0446673Y0273495D01*
X0446663Y0273532D02*
X0440504Y0273532D01*
X0440514Y0273570D02*
X0446653Y0273570D01*
X0446642Y0273608D02*
X0440524Y0273608D01*
X0440535Y0273646D02*
X0446632Y0273646D01*
X0446622Y0273684D02*
X0440545Y0273684D01*
X0440559Y0273722D02*
X0446608Y0273722D01*
X0446591Y0273760D02*
X0440576Y0273760D01*
X0440594Y0273798D02*
X0446573Y0273798D01*
X0446555Y0273835D02*
X0440612Y0273835D01*
X0440629Y0273873D02*
X0446538Y0273873D01*
X0446520Y0273911D02*
X0440647Y0273911D01*
X0440665Y0273949D02*
X0446502Y0273949D01*
X0446485Y0273987D02*
X0440682Y0273987D01*
X0440700Y0274025D02*
X0446467Y0274025D01*
X0446449Y0274063D02*
X0440718Y0274063D01*
X0440735Y0274101D02*
X0446432Y0274101D01*
X0446414Y0274138D02*
X0440753Y0274138D01*
X0440771Y0274176D02*
X0446396Y0274176D01*
X0446379Y0274214D02*
X0440788Y0274214D01*
X0440815Y0274252D02*
X0446352Y0274252D01*
X0446326Y0274290D02*
X0440841Y0274290D01*
X0440868Y0274328D02*
X0446299Y0274328D01*
X0446273Y0274366D02*
X0440894Y0274366D01*
X0440921Y0274404D02*
X0446246Y0274404D01*
X0446220Y0274442D02*
X0440947Y0274442D01*
X0440974Y0274479D02*
X0446193Y0274479D01*
X0446167Y0274517D02*
X0441000Y0274517D01*
X0441027Y0274555D02*
X0446140Y0274555D01*
X0446114Y0274593D02*
X0441053Y0274593D01*
X0441080Y0274631D02*
X0446087Y0274631D01*
X0446061Y0274669D02*
X0441106Y0274669D01*
X0441143Y0274707D02*
X0446024Y0274707D01*
X0445987Y0274745D02*
X0441180Y0274745D01*
X0441218Y0274782D02*
X0445949Y0274782D01*
X0445911Y0274820D02*
X0441256Y0274820D01*
X0441294Y0274858D02*
X0445873Y0274858D01*
X0445835Y0274896D02*
X0441332Y0274896D01*
X0441370Y0274934D02*
X0445797Y0274934D01*
X0445759Y0274972D02*
X0441408Y0274972D01*
X0441446Y0275010D02*
X0445721Y0275010D01*
X0445683Y0275048D02*
X0441483Y0275048D01*
X0441527Y0275086D02*
X0445640Y0275086D01*
X0445586Y0275123D02*
X0441581Y0275123D01*
X0441635Y0275161D02*
X0445532Y0275161D01*
X0445477Y0275199D02*
X0441689Y0275199D01*
X0441744Y0275237D02*
X0445423Y0275237D01*
X0445369Y0275275D02*
X0441798Y0275275D01*
X0441852Y0275313D02*
X0445315Y0275313D01*
X0445261Y0275351D02*
X0441906Y0275351D01*
X0441960Y0275389D02*
X0445207Y0275389D01*
X0445130Y0275426D02*
X0442037Y0275426D01*
X0442118Y0275464D02*
X0445049Y0275464D01*
X0444967Y0275502D02*
X0442199Y0275502D01*
X0442281Y0275540D02*
X0444886Y0275540D01*
X0444805Y0275578D02*
X0442362Y0275578D01*
X0442443Y0275616D02*
X0444724Y0275616D01*
X0444609Y0275654D02*
X0442558Y0275654D01*
X0442699Y0275692D02*
X0444468Y0275692D01*
X0444326Y0275730D02*
X0442841Y0275730D01*
X0442982Y0275767D02*
X0444185Y0275767D01*
X0443837Y0275805D02*
X0443330Y0275805D01*
X0443583Y0279371D02*
X0444144Y0279420D01*
X0444688Y0279566D01*
X0445198Y0279804D01*
X0445659Y0280126D01*
X0446057Y0280524D01*
X0446379Y0280985D01*
X0446617Y0281495D01*
X0446763Y0282039D01*
X0446812Y0282599D01*
X0446763Y0283160D01*
X0446617Y0283704D01*
X0446379Y0284213D01*
X0446057Y0284674D01*
X0445659Y0285072D01*
X0445198Y0285395D01*
X0444688Y0285633D01*
X0444144Y0285778D01*
X0443583Y0285828D01*
X0443023Y0285778D01*
X0442479Y0285633D01*
X0441969Y0285395D01*
X0441508Y0285072D01*
X0441110Y0284674D01*
X0440788Y0284213D01*
X0440550Y0283704D01*
X0440404Y0283160D01*
X0440355Y0282599D01*
X0440404Y0282039D01*
X0440550Y0281495D01*
X0440788Y0280985D01*
X0441110Y0280524D01*
X0441508Y0280126D01*
X0441969Y0279804D01*
X0442479Y0279566D01*
X0443023Y0279420D01*
X0443583Y0279371D01*
X0443206Y0279404D02*
X0443961Y0279404D01*
X0444226Y0279442D02*
X0442941Y0279442D01*
X0442800Y0279480D02*
X0444367Y0279480D01*
X0444508Y0279518D02*
X0442659Y0279518D01*
X0442517Y0279556D02*
X0444650Y0279556D01*
X0444747Y0279593D02*
X0442420Y0279593D01*
X0442339Y0279631D02*
X0444828Y0279631D01*
X0444910Y0279669D02*
X0442257Y0279669D01*
X0442176Y0279707D02*
X0444991Y0279707D01*
X0445072Y0279745D02*
X0442095Y0279745D01*
X0442014Y0279783D02*
X0445153Y0279783D01*
X0445222Y0279821D02*
X0441945Y0279821D01*
X0441891Y0279859D02*
X0445276Y0279859D01*
X0445330Y0279896D02*
X0441836Y0279896D01*
X0441782Y0279934D02*
X0445385Y0279934D01*
X0445439Y0279972D02*
X0441728Y0279972D01*
X0441674Y0280010D02*
X0445493Y0280010D01*
X0445547Y0280048D02*
X0441620Y0280048D01*
X0441566Y0280086D02*
X0445601Y0280086D01*
X0445655Y0280124D02*
X0441511Y0280124D01*
X0441473Y0280162D02*
X0445694Y0280162D01*
X0445732Y0280200D02*
X0441435Y0280200D01*
X0441397Y0280237D02*
X0445770Y0280237D01*
X0445808Y0280275D02*
X0441359Y0280275D01*
X0441321Y0280313D02*
X0445846Y0280313D01*
X0445884Y0280351D02*
X0441283Y0280351D01*
X0441245Y0280389D02*
X0445922Y0280389D01*
X0445959Y0280427D02*
X0441207Y0280427D01*
X0441170Y0280465D02*
X0445997Y0280465D01*
X0446035Y0280503D02*
X0441132Y0280503D01*
X0441099Y0280540D02*
X0446068Y0280540D01*
X0446095Y0280578D02*
X0441072Y0280578D01*
X0441046Y0280616D02*
X0446121Y0280616D01*
X0446148Y0280654D02*
X0441019Y0280654D01*
X0440993Y0280692D02*
X0446174Y0280692D01*
X0446201Y0280730D02*
X0440966Y0280730D01*
X0440940Y0280768D02*
X0446227Y0280768D01*
X0446254Y0280806D02*
X0440913Y0280806D01*
X0440887Y0280844D02*
X0446280Y0280844D01*
X0446307Y0280881D02*
X0440860Y0280881D01*
X0440834Y0280919D02*
X0446333Y0280919D01*
X0446360Y0280957D02*
X0440807Y0280957D01*
X0440783Y0280995D02*
X0446384Y0280995D01*
X0446401Y0281033D02*
X0440765Y0281033D01*
X0440748Y0281071D02*
X0446419Y0281071D01*
X0446437Y0281109D02*
X0440730Y0281109D01*
X0440712Y0281147D02*
X0446454Y0281147D01*
X0446472Y0281184D02*
X0440695Y0281184D01*
X0440677Y0281222D02*
X0446490Y0281222D01*
X0446507Y0281260D02*
X0440659Y0281260D01*
X0440642Y0281298D02*
X0446525Y0281298D01*
X0446543Y0281336D02*
X0440624Y0281336D01*
X0440606Y0281374D02*
X0446560Y0281374D01*
X0446578Y0281412D02*
X0440589Y0281412D01*
X0440571Y0281450D02*
X0446596Y0281450D01*
X0446613Y0281487D02*
X0440553Y0281487D01*
X0440542Y0281525D02*
X0446625Y0281525D01*
X0446635Y0281563D02*
X0440532Y0281563D01*
X0440522Y0281601D02*
X0446645Y0281601D01*
X0446656Y0281639D02*
X0440511Y0281639D01*
X0440501Y0281677D02*
X0446666Y0281677D01*
X0446676Y0281715D02*
X0440491Y0281715D01*
X0440481Y0281753D02*
X0446686Y0281753D01*
X0446696Y0281791D02*
X0440471Y0281791D01*
X0440461Y0281828D02*
X0446706Y0281828D01*
X0446716Y0281866D02*
X0440450Y0281866D01*
X0440440Y0281904D02*
X0446727Y0281904D01*
X0446737Y0281942D02*
X0440430Y0281942D01*
X0440420Y0281980D02*
X0446747Y0281980D01*
X0446757Y0282018D02*
X0440410Y0282018D01*
X0440403Y0282056D02*
X0446764Y0282056D01*
X0446767Y0282094D02*
X0440399Y0282094D01*
X0440396Y0282131D02*
X0446771Y0282131D01*
X0446774Y0282169D02*
X0440393Y0282169D01*
X0440390Y0282207D02*
X0446777Y0282207D01*
X0446781Y0282245D02*
X0440386Y0282245D01*
X0440383Y0282283D02*
X0446784Y0282283D01*
X0446787Y0282321D02*
X0440380Y0282321D01*
X0440376Y0282359D02*
X0446791Y0282359D01*
X0446794Y0282397D02*
X0440373Y0282397D01*
X0440370Y0282435D02*
X0446797Y0282435D01*
X0446801Y0282472D02*
X0440366Y0282472D01*
X0440363Y0282510D02*
X0446804Y0282510D01*
X0446807Y0282548D02*
X0440360Y0282548D01*
X0440356Y0282586D02*
X0446811Y0282586D01*
X0446810Y0282624D02*
X0440357Y0282624D01*
X0440361Y0282662D02*
X0446806Y0282662D01*
X0446803Y0282700D02*
X0440364Y0282700D01*
X0440367Y0282738D02*
X0446800Y0282738D01*
X0446796Y0282775D02*
X0440371Y0282775D01*
X0440374Y0282813D02*
X0446793Y0282813D01*
X0446790Y0282851D02*
X0440377Y0282851D01*
X0440381Y0282889D02*
X0446786Y0282889D01*
X0446783Y0282927D02*
X0440384Y0282927D01*
X0440387Y0282965D02*
X0446780Y0282965D01*
X0446776Y0283003D02*
X0440391Y0283003D01*
X0440394Y0283041D02*
X0446773Y0283041D01*
X0446770Y0283079D02*
X0440397Y0283079D01*
X0440401Y0283116D02*
X0446766Y0283116D01*
X0446763Y0283154D02*
X0440404Y0283154D01*
X0440413Y0283192D02*
X0446754Y0283192D01*
X0446744Y0283230D02*
X0440423Y0283230D01*
X0440433Y0283268D02*
X0446734Y0283268D01*
X0446723Y0283306D02*
X0440443Y0283306D01*
X0440454Y0283344D02*
X0446713Y0283344D01*
X0446703Y0283382D02*
X0440464Y0283382D01*
X0440474Y0283419D02*
X0446693Y0283419D01*
X0446683Y0283457D02*
X0440484Y0283457D01*
X0440494Y0283495D02*
X0446673Y0283495D01*
X0446663Y0283533D02*
X0440504Y0283533D01*
X0440514Y0283571D02*
X0446652Y0283571D01*
X0446642Y0283609D02*
X0440525Y0283609D01*
X0440535Y0283647D02*
X0446632Y0283647D01*
X0446622Y0283685D02*
X0440545Y0283685D01*
X0440559Y0283722D02*
X0446608Y0283722D01*
X0446590Y0283760D02*
X0440577Y0283760D01*
X0440594Y0283798D02*
X0446573Y0283798D01*
X0446555Y0283836D02*
X0440612Y0283836D01*
X0440630Y0283874D02*
X0446537Y0283874D01*
X0446520Y0283912D02*
X0440647Y0283912D01*
X0440665Y0283950D02*
X0446502Y0283950D01*
X0446484Y0283988D02*
X0440683Y0283988D01*
X0440700Y0284026D02*
X0446467Y0284026D01*
X0446449Y0284063D02*
X0440718Y0284063D01*
X0440736Y0284101D02*
X0446431Y0284101D01*
X0446414Y0284139D02*
X0440753Y0284139D01*
X0440771Y0284177D02*
X0446396Y0284177D01*
X0446378Y0284215D02*
X0440789Y0284215D01*
X0440815Y0284253D02*
X0446352Y0284253D01*
X0446325Y0284291D02*
X0440842Y0284291D01*
X0440868Y0284329D02*
X0446299Y0284329D01*
X0446272Y0284366D02*
X0440895Y0284366D01*
X0440921Y0284404D02*
X0446246Y0284404D01*
X0446219Y0284442D02*
X0440948Y0284442D01*
X0440974Y0284480D02*
X0446193Y0284480D01*
X0446166Y0284518D02*
X0441001Y0284518D01*
X0441027Y0284556D02*
X0446140Y0284556D01*
X0446113Y0284594D02*
X0441054Y0284594D01*
X0441080Y0284632D02*
X0446087Y0284632D01*
X0446060Y0284670D02*
X0441107Y0284670D01*
X0441143Y0284707D02*
X0446024Y0284707D01*
X0445986Y0284745D02*
X0441181Y0284745D01*
X0441219Y0284783D02*
X0445948Y0284783D01*
X0445910Y0284821D02*
X0441257Y0284821D01*
X0441295Y0284859D02*
X0445872Y0284859D01*
X0445834Y0284897D02*
X0441333Y0284897D01*
X0441371Y0284935D02*
X0445796Y0284935D01*
X0445759Y0284973D02*
X0441408Y0284973D01*
X0441446Y0285010D02*
X0445721Y0285010D01*
X0445683Y0285048D02*
X0441484Y0285048D01*
X0441528Y0285086D02*
X0445639Y0285086D01*
X0445585Y0285124D02*
X0441582Y0285124D01*
X0441636Y0285162D02*
X0445531Y0285162D01*
X0445476Y0285200D02*
X0441690Y0285200D01*
X0441745Y0285238D02*
X0445422Y0285238D01*
X0445368Y0285276D02*
X0441799Y0285276D01*
X0441853Y0285314D02*
X0445314Y0285314D01*
X0445260Y0285351D02*
X0441907Y0285351D01*
X0441961Y0285389D02*
X0445206Y0285389D01*
X0445128Y0285427D02*
X0442038Y0285427D01*
X0442120Y0285465D02*
X0445047Y0285465D01*
X0444966Y0285503D02*
X0442201Y0285503D01*
X0442282Y0285541D02*
X0444885Y0285541D01*
X0444804Y0285579D02*
X0442363Y0285579D01*
X0442445Y0285617D02*
X0444722Y0285617D01*
X0444607Y0285654D02*
X0442560Y0285654D01*
X0442702Y0285692D02*
X0444465Y0285692D01*
X0444324Y0285730D02*
X0442843Y0285730D01*
X0442985Y0285768D02*
X0444182Y0285768D01*
X0443829Y0285806D02*
X0443337Y0285806D01*
X0443583Y0289371D02*
X0444144Y0289420D01*
X0444688Y0289566D01*
X0445198Y0289804D01*
X0445659Y0290126D01*
X0446057Y0290524D01*
X0446379Y0290985D01*
X0446617Y0291495D01*
X0446763Y0292039D01*
X0446812Y0292599D01*
X0446763Y0293160D01*
X0446617Y0293704D01*
X0446379Y0294213D01*
X0446057Y0294674D01*
X0445659Y0295072D01*
X0445198Y0295395D01*
X0444688Y0295633D01*
X0444144Y0295778D01*
X0443583Y0295828D01*
X0443023Y0295778D01*
X0442479Y0295633D01*
X0441969Y0295395D01*
X0441508Y0295072D01*
X0441110Y0294674D01*
X0440788Y0294213D01*
X0440550Y0293704D01*
X0440404Y0293160D01*
X0440355Y0292599D01*
X0440404Y0292039D01*
X0440550Y0291495D01*
X0440788Y0290985D01*
X0441110Y0290524D01*
X0441508Y0290126D01*
X0441969Y0289804D01*
X0442479Y0289566D01*
X0443023Y0289420D01*
X0443583Y0289371D01*
X0443198Y0289405D02*
X0443969Y0289405D01*
X0444228Y0289443D02*
X0442939Y0289443D01*
X0442797Y0289480D02*
X0444369Y0289480D01*
X0444511Y0289518D02*
X0442656Y0289518D01*
X0442515Y0289556D02*
X0444652Y0289556D01*
X0444749Y0289594D02*
X0442418Y0289594D01*
X0442337Y0289632D02*
X0444830Y0289632D01*
X0444911Y0289670D02*
X0442256Y0289670D01*
X0442175Y0289708D02*
X0444992Y0289708D01*
X0445073Y0289746D02*
X0442093Y0289746D01*
X0442012Y0289784D02*
X0445155Y0289784D01*
X0445223Y0289821D02*
X0441944Y0289821D01*
X0441890Y0289859D02*
X0445277Y0289859D01*
X0445331Y0289897D02*
X0441835Y0289897D01*
X0441781Y0289935D02*
X0445386Y0289935D01*
X0445440Y0289973D02*
X0441727Y0289973D01*
X0441673Y0290011D02*
X0445494Y0290011D01*
X0445548Y0290049D02*
X0441619Y0290049D01*
X0441565Y0290087D02*
X0445602Y0290087D01*
X0445656Y0290124D02*
X0441510Y0290124D01*
X0441472Y0290162D02*
X0445695Y0290162D01*
X0445733Y0290200D02*
X0441434Y0290200D01*
X0441396Y0290238D02*
X0445771Y0290238D01*
X0445809Y0290276D02*
X0441358Y0290276D01*
X0441320Y0290314D02*
X0445847Y0290314D01*
X0445884Y0290352D02*
X0441283Y0290352D01*
X0441245Y0290390D02*
X0445922Y0290390D01*
X0445960Y0290427D02*
X0441207Y0290427D01*
X0441169Y0290465D02*
X0445998Y0290465D01*
X0446036Y0290503D02*
X0441131Y0290503D01*
X0441098Y0290541D02*
X0446069Y0290541D01*
X0446095Y0290579D02*
X0441072Y0290579D01*
X0441045Y0290617D02*
X0446122Y0290617D01*
X0446148Y0290655D02*
X0441019Y0290655D01*
X0440992Y0290693D02*
X0446175Y0290693D01*
X0446201Y0290731D02*
X0440966Y0290731D01*
X0440939Y0290768D02*
X0446228Y0290768D01*
X0446254Y0290806D02*
X0440913Y0290806D01*
X0440886Y0290844D02*
X0446281Y0290844D01*
X0446307Y0290882D02*
X0440860Y0290882D01*
X0440833Y0290920D02*
X0446334Y0290920D01*
X0446360Y0290958D02*
X0440807Y0290958D01*
X0440783Y0290996D02*
X0446384Y0290996D01*
X0446402Y0291034D02*
X0440765Y0291034D01*
X0440747Y0291071D02*
X0446419Y0291071D01*
X0446437Y0291109D02*
X0440730Y0291109D01*
X0440712Y0291147D02*
X0446455Y0291147D01*
X0446472Y0291185D02*
X0440694Y0291185D01*
X0440677Y0291223D02*
X0446490Y0291223D01*
X0446508Y0291261D02*
X0440659Y0291261D01*
X0440641Y0291299D02*
X0446525Y0291299D01*
X0446543Y0291337D02*
X0440624Y0291337D01*
X0440606Y0291375D02*
X0446561Y0291375D01*
X0446578Y0291412D02*
X0440588Y0291412D01*
X0440571Y0291450D02*
X0446596Y0291450D01*
X0446614Y0291488D02*
X0440553Y0291488D01*
X0440542Y0291526D02*
X0446625Y0291526D01*
X0446635Y0291564D02*
X0440531Y0291564D01*
X0440521Y0291602D02*
X0446646Y0291602D01*
X0446656Y0291640D02*
X0440511Y0291640D01*
X0440501Y0291678D02*
X0446666Y0291678D01*
X0446676Y0291715D02*
X0440491Y0291715D01*
X0440481Y0291753D02*
X0446686Y0291753D01*
X0446696Y0291791D02*
X0440471Y0291791D01*
X0440460Y0291829D02*
X0446706Y0291829D01*
X0446717Y0291867D02*
X0440450Y0291867D01*
X0440440Y0291905D02*
X0446727Y0291905D01*
X0446737Y0291943D02*
X0440430Y0291943D01*
X0440420Y0291981D02*
X0446747Y0291981D01*
X0446757Y0292019D02*
X0440410Y0292019D01*
X0440403Y0292056D02*
X0446764Y0292056D01*
X0446767Y0292094D02*
X0440399Y0292094D01*
X0440396Y0292132D02*
X0446771Y0292132D01*
X0446774Y0292170D02*
X0440393Y0292170D01*
X0440389Y0292208D02*
X0446777Y0292208D01*
X0446781Y0292246D02*
X0440386Y0292246D01*
X0440383Y0292284D02*
X0446784Y0292284D01*
X0446787Y0292322D02*
X0440379Y0292322D01*
X0440376Y0292359D02*
X0446791Y0292359D01*
X0446794Y0292397D02*
X0440373Y0292397D01*
X0440370Y0292435D02*
X0446797Y0292435D01*
X0446801Y0292473D02*
X0440366Y0292473D01*
X0440363Y0292511D02*
X0446804Y0292511D01*
X0446807Y0292549D02*
X0440360Y0292549D01*
X0440356Y0292587D02*
X0446811Y0292587D01*
X0446810Y0292625D02*
X0440357Y0292625D01*
X0440361Y0292663D02*
X0446806Y0292663D01*
X0446803Y0292700D02*
X0440364Y0292700D01*
X0440367Y0292738D02*
X0446800Y0292738D01*
X0446796Y0292776D02*
X0440371Y0292776D01*
X0440374Y0292814D02*
X0446793Y0292814D01*
X0446790Y0292852D02*
X0440377Y0292852D01*
X0440381Y0292890D02*
X0446786Y0292890D01*
X0446783Y0292928D02*
X0440384Y0292928D01*
X0440387Y0292966D02*
X0446780Y0292966D01*
X0446776Y0293003D02*
X0440391Y0293003D01*
X0440394Y0293041D02*
X0446773Y0293041D01*
X0446770Y0293079D02*
X0440397Y0293079D01*
X0440401Y0293117D02*
X0446766Y0293117D01*
X0446763Y0293155D02*
X0440404Y0293155D01*
X0440413Y0293193D02*
X0446754Y0293193D01*
X0446744Y0293231D02*
X0440423Y0293231D01*
X0440433Y0293269D02*
X0446733Y0293269D01*
X0446723Y0293306D02*
X0440444Y0293306D01*
X0440454Y0293344D02*
X0446713Y0293344D01*
X0446703Y0293382D02*
X0440464Y0293382D01*
X0440474Y0293420D02*
X0446693Y0293420D01*
X0446683Y0293458D02*
X0440484Y0293458D01*
X0440494Y0293496D02*
X0446673Y0293496D01*
X0446662Y0293534D02*
X0440505Y0293534D01*
X0440515Y0293572D02*
X0446652Y0293572D01*
X0446642Y0293610D02*
X0440525Y0293610D01*
X0440535Y0293647D02*
X0446632Y0293647D01*
X0446622Y0293685D02*
X0440545Y0293685D01*
X0440559Y0293723D02*
X0446608Y0293723D01*
X0446590Y0293761D02*
X0440577Y0293761D01*
X0440595Y0293799D02*
X0446572Y0293799D01*
X0446555Y0293837D02*
X0440612Y0293837D01*
X0440630Y0293875D02*
X0446537Y0293875D01*
X0446519Y0293913D02*
X0440648Y0293913D01*
X0440665Y0293950D02*
X0446502Y0293950D01*
X0446484Y0293988D02*
X0440683Y0293988D01*
X0440701Y0294026D02*
X0446466Y0294026D01*
X0446449Y0294064D02*
X0440718Y0294064D01*
X0440736Y0294102D02*
X0446431Y0294102D01*
X0446413Y0294140D02*
X0440754Y0294140D01*
X0440771Y0294178D02*
X0446396Y0294178D01*
X0446378Y0294216D02*
X0440789Y0294216D01*
X0440816Y0294254D02*
X0446351Y0294254D01*
X0446325Y0294291D02*
X0440842Y0294291D01*
X0440869Y0294329D02*
X0446298Y0294329D01*
X0446272Y0294367D02*
X0440895Y0294367D01*
X0440922Y0294405D02*
X0446245Y0294405D01*
X0446219Y0294443D02*
X0440948Y0294443D01*
X0440975Y0294481D02*
X0446192Y0294481D01*
X0446166Y0294519D02*
X0441001Y0294519D01*
X0441028Y0294557D02*
X0446139Y0294557D01*
X0446113Y0294594D02*
X0441054Y0294594D01*
X0441081Y0294632D02*
X0446086Y0294632D01*
X0446060Y0294670D02*
X0441107Y0294670D01*
X0441144Y0294708D02*
X0446023Y0294708D01*
X0445985Y0294746D02*
X0441182Y0294746D01*
X0441220Y0294784D02*
X0445947Y0294784D01*
X0445909Y0294822D02*
X0441258Y0294822D01*
X0441295Y0294860D02*
X0445871Y0294860D01*
X0445834Y0294898D02*
X0441333Y0294898D01*
X0441371Y0294935D02*
X0445796Y0294935D01*
X0445758Y0294973D02*
X0441409Y0294973D01*
X0441447Y0295011D02*
X0445720Y0295011D01*
X0445682Y0295049D02*
X0441485Y0295049D01*
X0441529Y0295087D02*
X0445638Y0295087D01*
X0445584Y0295125D02*
X0441583Y0295125D01*
X0441637Y0295163D02*
X0445530Y0295163D01*
X0445475Y0295201D02*
X0441691Y0295201D01*
X0441746Y0295238D02*
X0445421Y0295238D01*
X0445367Y0295276D02*
X0441800Y0295276D01*
X0441854Y0295314D02*
X0445313Y0295314D01*
X0445259Y0295352D02*
X0441908Y0295352D01*
X0441962Y0295390D02*
X0445205Y0295390D01*
X0445127Y0295428D02*
X0442040Y0295428D01*
X0442121Y0295466D02*
X0445046Y0295466D01*
X0444965Y0295504D02*
X0442202Y0295504D01*
X0442284Y0295541D02*
X0444883Y0295541D01*
X0444802Y0295579D02*
X0442365Y0295579D01*
X0442446Y0295617D02*
X0444721Y0295617D01*
X0444604Y0295655D02*
X0442563Y0295655D01*
X0442704Y0295693D02*
X0444463Y0295693D01*
X0444321Y0295731D02*
X0442846Y0295731D01*
X0442987Y0295769D02*
X0444180Y0295769D01*
X0443822Y0295807D02*
X0443345Y0295807D01*
X0443583Y0299371D02*
X0444144Y0299420D01*
X0444688Y0299566D01*
X0445198Y0299804D01*
X0445659Y0300126D01*
X0446057Y0300524D01*
X0446379Y0300985D01*
X0446617Y0301495D01*
X0446763Y0302039D01*
X0446812Y0302599D01*
X0446763Y0303160D01*
X0446617Y0303704D01*
X0446379Y0304213D01*
X0446057Y0304674D01*
X0445659Y0305072D01*
X0445198Y0305395D01*
X0444688Y0305633D01*
X0444144Y0305778D01*
X0443583Y0305828D01*
X0443023Y0305778D01*
X0442479Y0305633D01*
X0441969Y0305395D01*
X0441508Y0305072D01*
X0441110Y0304674D01*
X0440788Y0304213D01*
X0440550Y0303704D01*
X0440404Y0303160D01*
X0440355Y0302599D01*
X0440404Y0302039D01*
X0440550Y0301495D01*
X0440788Y0300985D01*
X0441110Y0300524D01*
X0441508Y0300126D01*
X0441969Y0299804D01*
X0442479Y0299566D01*
X0443023Y0299420D01*
X0443583Y0299371D01*
X0443190Y0299405D02*
X0443977Y0299405D01*
X0444231Y0299443D02*
X0442936Y0299443D01*
X0442795Y0299481D02*
X0444372Y0299481D01*
X0444513Y0299519D02*
X0442653Y0299519D01*
X0442512Y0299557D02*
X0444655Y0299557D01*
X0444750Y0299595D02*
X0442417Y0299595D01*
X0442336Y0299633D02*
X0444831Y0299633D01*
X0444913Y0299671D02*
X0442254Y0299671D01*
X0442173Y0299708D02*
X0444994Y0299708D01*
X0445075Y0299746D02*
X0442092Y0299746D01*
X0442011Y0299784D02*
X0445156Y0299784D01*
X0445224Y0299822D02*
X0441943Y0299822D01*
X0441889Y0299860D02*
X0445278Y0299860D01*
X0445332Y0299898D02*
X0441834Y0299898D01*
X0441780Y0299936D02*
X0445387Y0299936D01*
X0445441Y0299974D02*
X0441726Y0299974D01*
X0441672Y0300011D02*
X0445495Y0300011D01*
X0445549Y0300049D02*
X0441618Y0300049D01*
X0441564Y0300087D02*
X0445603Y0300087D01*
X0445657Y0300125D02*
X0441509Y0300125D01*
X0441471Y0300163D02*
X0445696Y0300163D01*
X0445734Y0300201D02*
X0441433Y0300201D01*
X0441395Y0300239D02*
X0445771Y0300239D01*
X0445809Y0300277D02*
X0441358Y0300277D01*
X0441320Y0300315D02*
X0445847Y0300315D01*
X0445885Y0300352D02*
X0441282Y0300352D01*
X0441244Y0300390D02*
X0445923Y0300390D01*
X0445961Y0300428D02*
X0441206Y0300428D01*
X0441168Y0300466D02*
X0445999Y0300466D01*
X0446037Y0300504D02*
X0441130Y0300504D01*
X0441098Y0300542D02*
X0446069Y0300542D01*
X0446096Y0300580D02*
X0441071Y0300580D01*
X0441045Y0300618D02*
X0446122Y0300618D01*
X0446149Y0300655D02*
X0441018Y0300655D01*
X0440992Y0300693D02*
X0446175Y0300693D01*
X0446202Y0300731D02*
X0440965Y0300731D01*
X0440939Y0300769D02*
X0446228Y0300769D01*
X0446255Y0300807D02*
X0440912Y0300807D01*
X0440886Y0300845D02*
X0446281Y0300845D01*
X0446308Y0300883D02*
X0440859Y0300883D01*
X0440833Y0300921D02*
X0446334Y0300921D01*
X0446361Y0300959D02*
X0440806Y0300959D01*
X0440782Y0300996D02*
X0446384Y0300996D01*
X0446402Y0301034D02*
X0440765Y0301034D01*
X0440747Y0301072D02*
X0446420Y0301072D01*
X0446437Y0301110D02*
X0440729Y0301110D01*
X0440712Y0301148D02*
X0446455Y0301148D01*
X0446473Y0301186D02*
X0440694Y0301186D01*
X0440676Y0301224D02*
X0446490Y0301224D01*
X0446508Y0301262D02*
X0440659Y0301262D01*
X0440641Y0301299D02*
X0446526Y0301299D01*
X0446543Y0301337D02*
X0440623Y0301337D01*
X0440606Y0301375D02*
X0446561Y0301375D01*
X0446579Y0301413D02*
X0440588Y0301413D01*
X0440570Y0301451D02*
X0446596Y0301451D01*
X0446614Y0301489D02*
X0440553Y0301489D01*
X0440541Y0301527D02*
X0446625Y0301527D01*
X0446636Y0301565D02*
X0440531Y0301565D01*
X0440521Y0301603D02*
X0446646Y0301603D01*
X0446656Y0301640D02*
X0440511Y0301640D01*
X0440501Y0301678D02*
X0446666Y0301678D01*
X0446676Y0301716D02*
X0440491Y0301716D01*
X0440481Y0301754D02*
X0446686Y0301754D01*
X0446697Y0301792D02*
X0440470Y0301792D01*
X0440460Y0301830D02*
X0446707Y0301830D01*
X0446717Y0301868D02*
X0440450Y0301868D01*
X0440440Y0301906D02*
X0446727Y0301906D01*
X0446737Y0301943D02*
X0440430Y0301943D01*
X0440420Y0301981D02*
X0446747Y0301981D01*
X0446757Y0302019D02*
X0440410Y0302019D01*
X0440403Y0302057D02*
X0446764Y0302057D01*
X0446768Y0302095D02*
X0440399Y0302095D01*
X0440396Y0302133D02*
X0446771Y0302133D01*
X0446774Y0302171D02*
X0440393Y0302171D01*
X0440389Y0302209D02*
X0446778Y0302209D01*
X0446781Y0302246D02*
X0440386Y0302246D01*
X0440383Y0302284D02*
X0446784Y0302284D01*
X0446787Y0302322D02*
X0440379Y0302322D01*
X0440376Y0302360D02*
X0446791Y0302360D01*
X0446794Y0302398D02*
X0440373Y0302398D01*
X0440369Y0302436D02*
X0446797Y0302436D01*
X0446801Y0302474D02*
X0440366Y0302474D01*
X0440363Y0302512D02*
X0446804Y0302512D01*
X0446807Y0302550D02*
X0440359Y0302550D01*
X0440356Y0302587D02*
X0446811Y0302587D01*
X0446810Y0302625D02*
X0440357Y0302625D01*
X0440361Y0302663D02*
X0446806Y0302663D01*
X0446803Y0302701D02*
X0440364Y0302701D01*
X0440367Y0302739D02*
X0446800Y0302739D01*
X0446796Y0302777D02*
X0440371Y0302777D01*
X0440374Y0302815D02*
X0446793Y0302815D01*
X0446790Y0302853D02*
X0440377Y0302853D01*
X0440381Y0302890D02*
X0446786Y0302890D01*
X0446783Y0302928D02*
X0440384Y0302928D01*
X0440387Y0302966D02*
X0446780Y0302966D01*
X0446776Y0303004D02*
X0440391Y0303004D01*
X0440394Y0303042D02*
X0446773Y0303042D01*
X0446770Y0303080D02*
X0440397Y0303080D01*
X0440401Y0303118D02*
X0446766Y0303118D01*
X0446763Y0303156D02*
X0440404Y0303156D01*
X0440413Y0303194D02*
X0446754Y0303194D01*
X0446743Y0303231D02*
X0440424Y0303231D01*
X0440434Y0303269D02*
X0446733Y0303269D01*
X0446723Y0303307D02*
X0440444Y0303307D01*
X0440454Y0303345D02*
X0446713Y0303345D01*
X0446703Y0303383D02*
X0440464Y0303383D01*
X0440474Y0303421D02*
X0446693Y0303421D01*
X0446683Y0303459D02*
X0440484Y0303459D01*
X0440495Y0303497D02*
X0446672Y0303497D01*
X0446662Y0303534D02*
X0440505Y0303534D01*
X0440515Y0303572D02*
X0446652Y0303572D01*
X0446642Y0303610D02*
X0440525Y0303610D01*
X0440535Y0303648D02*
X0446632Y0303648D01*
X0446622Y0303686D02*
X0440545Y0303686D01*
X0440559Y0303724D02*
X0446607Y0303724D01*
X0446590Y0303762D02*
X0440577Y0303762D01*
X0440595Y0303800D02*
X0446572Y0303800D01*
X0446554Y0303838D02*
X0440612Y0303838D01*
X0440630Y0303875D02*
X0446537Y0303875D01*
X0446519Y0303913D02*
X0440648Y0303913D01*
X0440665Y0303951D02*
X0446501Y0303951D01*
X0446484Y0303989D02*
X0440683Y0303989D01*
X0440701Y0304027D02*
X0446466Y0304027D01*
X0446448Y0304065D02*
X0440719Y0304065D01*
X0440736Y0304103D02*
X0446431Y0304103D01*
X0446413Y0304141D02*
X0440754Y0304141D01*
X0440772Y0304178D02*
X0446395Y0304178D01*
X0446377Y0304216D02*
X0440790Y0304216D01*
X0440816Y0304254D02*
X0446351Y0304254D01*
X0446324Y0304292D02*
X0440843Y0304292D01*
X0440869Y0304330D02*
X0446298Y0304330D01*
X0446271Y0304368D02*
X0440896Y0304368D01*
X0440922Y0304406D02*
X0446245Y0304406D01*
X0446218Y0304444D02*
X0440949Y0304444D01*
X0440975Y0304481D02*
X0446192Y0304481D01*
X0446165Y0304519D02*
X0441002Y0304519D01*
X0441028Y0304557D02*
X0446139Y0304557D01*
X0446112Y0304595D02*
X0441055Y0304595D01*
X0441081Y0304633D02*
X0446086Y0304633D01*
X0446059Y0304671D02*
X0441108Y0304671D01*
X0441145Y0304709D02*
X0446022Y0304709D01*
X0445984Y0304747D02*
X0441182Y0304747D01*
X0441220Y0304785D02*
X0445947Y0304785D01*
X0445909Y0304822D02*
X0441258Y0304822D01*
X0441296Y0304860D02*
X0445871Y0304860D01*
X0445833Y0304898D02*
X0441334Y0304898D01*
X0441372Y0304936D02*
X0445795Y0304936D01*
X0445757Y0304974D02*
X0441410Y0304974D01*
X0441448Y0305012D02*
X0445719Y0305012D01*
X0445681Y0305050D02*
X0441486Y0305050D01*
X0441530Y0305088D02*
X0445637Y0305088D01*
X0445583Y0305125D02*
X0441584Y0305125D01*
X0441638Y0305163D02*
X0445529Y0305163D01*
X0445475Y0305201D02*
X0441692Y0305201D01*
X0441747Y0305239D02*
X0445420Y0305239D01*
X0445366Y0305277D02*
X0441801Y0305277D01*
X0441855Y0305315D02*
X0445312Y0305315D01*
X0445258Y0305353D02*
X0441909Y0305353D01*
X0441963Y0305391D02*
X0445204Y0305391D01*
X0445126Y0305429D02*
X0442041Y0305429D01*
X0442123Y0305466D02*
X0445044Y0305466D01*
X0444963Y0305504D02*
X0442204Y0305504D01*
X0442285Y0305542D02*
X0444882Y0305542D01*
X0444801Y0305580D02*
X0442366Y0305580D01*
X0442448Y0305618D02*
X0444719Y0305618D01*
X0444601Y0305656D02*
X0442566Y0305656D01*
X0442707Y0305694D02*
X0444460Y0305694D01*
X0444319Y0305732D02*
X0442848Y0305732D01*
X0442990Y0305769D02*
X0444177Y0305769D01*
X0443814Y0305807D02*
X0443353Y0305807D01*
X0442266Y0219665D02*
X0444901Y0219665D01*
X0444819Y0219627D02*
X0442347Y0219627D01*
X0442429Y0219589D02*
X0444738Y0219589D01*
X0444634Y0219551D02*
X0442533Y0219551D01*
X0442674Y0219514D02*
X0444493Y0219514D01*
X0444351Y0219476D02*
X0442815Y0219476D01*
X0442957Y0219438D02*
X0444210Y0219438D01*
X0443914Y0219400D02*
X0443253Y0219400D01*
D15*
X0282954Y0082442D03*
X0272954Y0082442D03*
X0262954Y0082442D03*
X0252954Y0082442D03*
X0242954Y0082442D03*
X0232954Y0082442D03*
X0234017Y0441221D03*
X0244017Y0441221D03*
X0254017Y0441221D03*
X0264017Y0441221D03*
X0274017Y0441221D03*
X0284017Y0441221D03*
D16*
X0136143Y0115473D03*
X0187324Y0084961D03*
X0172560Y0205040D03*
X0180343Y0219607D03*
X0182402Y0229646D03*
X0196182Y0239489D03*
X0204056Y0240473D03*
X0184371Y0254253D03*
X0180434Y0259174D03*
X0166532Y0252922D03*
X0164686Y0244410D03*
X0142371Y0216934D03*
X0198150Y0264095D03*
X0199135Y0285749D03*
X0193229Y0292639D03*
X0208977Y0298544D03*
X0218820Y0285749D03*
X0254253Y0281812D03*
X0285749Y0281812D03*
X0322166Y0240473D03*
X0304804Y0228816D03*
X0354646Y0236536D03*
X0375316Y0241457D03*
X0389095Y0241457D03*
X0411733Y0232599D03*
X0358583Y0286733D03*
X0339883Y0357599D03*
X0372363Y0392048D03*
X0375316Y0396969D03*
X0336930Y0432402D03*
X0328072Y0434371D03*
X0326103Y0399922D03*
X0212914Y0378269D03*
X0184371Y0421576D03*
X0159765Y0284765D03*
X0359568Y0134174D03*
X0377284Y0119410D03*
X0334961Y0082993D03*
D17*
X0415076Y0192005D03*
X0275052Y0259725D03*
X0263213Y0237946D03*
X0251182Y0237938D03*
X0238950Y0250761D03*
X0226997Y0253556D03*
X0227068Y0236017D03*
X0214611Y0235733D03*
X0214328Y0225206D03*
X0213894Y0209812D03*
X0192465Y0228666D03*
X0176080Y0249202D03*
X0166772Y0260450D03*
X0161757Y0266032D03*
X0149528Y0277607D03*
X0144017Y0263619D03*
X0131190Y0262721D03*
X0130446Y0269233D03*
X0123387Y0269087D03*
X0116725Y0269182D03*
X0109867Y0269087D03*
X0103351Y0269135D03*
X0096784Y0269438D03*
X0095993Y0246517D03*
X0095910Y0239891D03*
X0095993Y0232930D03*
X0102001Y0229741D03*
X0108875Y0229536D03*
X0115587Y0229410D03*
X0122131Y0229410D03*
X0128883Y0229245D03*
X0132898Y0235127D03*
X0132564Y0241603D03*
X0132772Y0248024D03*
X0127284Y0252028D03*
X0144363Y0249749D03*
X0168024Y0221217D03*
X0182143Y0268737D03*
X0178662Y0288072D03*
X0182174Y0299654D03*
X0164422Y0299044D03*
X0145686Y0318717D03*
M02*
