G75*
%MOIN*%
%OFA0B0*%
%FSLAX25Y25*%
%IPPOS*%
%LPD*%
%AMOC8*
5,1,8,0,0,1.08239X$1,22.5*
%
%ADD10C,0.05937*%
%ADD11R,0.07400X0.07400*%
%ADD12OC8,0.07400*%
%ADD13R,0.06496X0.06496*%
%ADD14C,0.06496*%
%ADD15C,0.07400*%
%ADD16C,0.04500*%
%ADD17C,0.05362*%
%ADD18C,0.00600*%
%ADD19C,0.01800*%
D10*
X0257206Y0196737D02*
X0257206Y0202674D01*
X0267206Y0202674D02*
X0267206Y0196737D01*
D11*
X0243308Y0354922D03*
D12*
X0253308Y0354922D03*
X0263308Y0354922D03*
X0263308Y0364922D03*
X0253308Y0364922D03*
X0243308Y0364922D03*
D13*
X0262245Y0169765D03*
X0443583Y0212599D03*
D14*
X0443583Y0222599D03*
X0443583Y0232599D03*
X0443583Y0242599D03*
X0443583Y0252599D03*
X0443583Y0262599D03*
X0443583Y0272599D03*
X0443583Y0282599D03*
X0443583Y0292599D03*
X0443583Y0302599D03*
X0262245Y0159765D03*
D15*
X0262954Y0082442D03*
X0272954Y0082442D03*
X0282954Y0082442D03*
X0252954Y0082442D03*
X0242954Y0082442D03*
X0232954Y0082442D03*
X0234017Y0441221D03*
X0244017Y0441221D03*
X0254017Y0441221D03*
X0264017Y0441221D03*
X0274017Y0441221D03*
X0284017Y0441221D03*
D16*
X0136143Y0115473D03*
X0187324Y0084961D03*
X0172560Y0205040D03*
X0180343Y0219607D03*
X0182402Y0229646D03*
X0196182Y0239489D03*
X0204056Y0240473D03*
X0184371Y0254253D03*
X0180434Y0259174D03*
X0166532Y0252922D03*
X0164686Y0244410D03*
X0142371Y0216934D03*
X0198150Y0264095D03*
X0199135Y0285749D03*
X0193229Y0292639D03*
X0208977Y0298544D03*
X0218820Y0285749D03*
X0254253Y0281812D03*
X0285749Y0281812D03*
X0322166Y0240473D03*
X0304804Y0228816D03*
X0354646Y0236536D03*
X0375316Y0241457D03*
X0389095Y0241457D03*
X0411733Y0232599D03*
X0358583Y0286733D03*
X0339883Y0357599D03*
X0372363Y0392048D03*
X0375316Y0396969D03*
X0336930Y0432402D03*
X0328072Y0434371D03*
X0326103Y0399922D03*
X0212914Y0378269D03*
X0184371Y0421576D03*
X0159765Y0284765D03*
X0359568Y0134174D03*
X0377284Y0119410D03*
X0334961Y0082993D03*
D17*
X0415076Y0192005D03*
X0275052Y0259725D03*
X0263213Y0237946D03*
X0251182Y0237938D03*
X0238950Y0250761D03*
X0226997Y0253556D03*
X0227068Y0236017D03*
X0214611Y0235733D03*
X0214328Y0225206D03*
X0213894Y0209812D03*
X0192465Y0228666D03*
X0176080Y0249202D03*
X0166772Y0260450D03*
X0161757Y0266032D03*
X0149528Y0277607D03*
X0144017Y0263619D03*
X0131190Y0262721D03*
X0130446Y0269233D03*
X0123387Y0269087D03*
X0116725Y0269182D03*
X0109867Y0269087D03*
X0103351Y0269135D03*
X0096784Y0269438D03*
X0095993Y0246517D03*
X0095910Y0239891D03*
X0095993Y0232930D03*
X0102001Y0229741D03*
X0108875Y0229536D03*
X0115587Y0229410D03*
X0122131Y0229410D03*
X0128883Y0229245D03*
X0132898Y0235127D03*
X0132564Y0241603D03*
X0132772Y0248024D03*
X0127284Y0252028D03*
X0144363Y0249749D03*
X0168024Y0221217D03*
X0182143Y0268737D03*
X0178662Y0288072D03*
X0182174Y0299654D03*
X0164422Y0299044D03*
X0145686Y0318717D03*
D18*
X0152875Y0349725D02*
X0152875Y0285749D01*
X0155828Y0282796D01*
X0156812Y0282796D01*
X0180434Y0259174D01*
X0179450Y0255237D02*
X0150906Y0283780D01*
X0150906Y0354646D01*
X0242442Y0354646D01*
X0243308Y0354922D01*
X0248347Y0349725D02*
X0253269Y0354646D01*
X0253308Y0354922D01*
X0248347Y0349725D02*
X0152875Y0349725D01*
X0193229Y0292639D02*
X0246379Y0345788D01*
X0272954Y0345788D01*
X0326103Y0398938D01*
X0326103Y0399922D02*
X0438308Y0287717D01*
X0443229Y0263111D02*
X0407796Y0298544D01*
X0208977Y0298544D01*
X0199135Y0285749D02*
X0213898Y0270985D01*
X0374331Y0270985D01*
X0411733Y0233583D01*
X0411733Y0232599D01*
X0421576Y0242442D01*
X0443229Y0242442D01*
X0436859Y0228662D02*
X0304804Y0228816D01*
X0320198Y0242442D02*
X0207009Y0242442D01*
X0205040Y0244410D01*
X0164686Y0244410D01*
X0163702Y0240473D02*
X0158780Y0245394D01*
X0166532Y0252922D01*
X0179450Y0255237D02*
X0183387Y0255237D01*
X0184371Y0254253D01*
X0176497Y0240473D02*
X0163702Y0240473D01*
X0176497Y0240473D02*
X0184804Y0233461D01*
X0209351Y0233461D01*
X0209351Y0240194D01*
X0242749Y0240194D01*
X0242749Y0233099D01*
X0366891Y0233461D01*
X0375316Y0241457D01*
X0354646Y0236536D02*
X0346772Y0244410D01*
X0217835Y0244410D01*
X0198150Y0264095D01*
X0218820Y0285749D02*
X0357599Y0285749D01*
X0358583Y0286733D01*
X0320198Y0242442D02*
X0322166Y0240473D01*
X0227068Y0236017D02*
X0227068Y0219965D01*
X0226709Y0219607D01*
X0443139Y0219607D01*
X0443583Y0222599D01*
X0441261Y0214883D02*
X0206308Y0214883D01*
X0211379Y0209812D01*
X0213894Y0209812D01*
X0206308Y0214883D02*
X0182402Y0214883D01*
X0172560Y0205040D01*
X0168623Y0215867D02*
X0168623Y0088898D01*
X0267048Y0088898D01*
X0272954Y0082993D01*
X0272954Y0082442D01*
X0168623Y0215867D02*
X0182402Y0229646D01*
X0180343Y0219607D02*
X0226709Y0219607D01*
X0214611Y0225489D02*
X0214611Y0235733D01*
X0214611Y0225489D02*
X0214328Y0225206D01*
X0204056Y0240473D02*
X0197166Y0240473D01*
X0196182Y0239489D01*
X0161757Y0266032D02*
X0161103Y0266032D01*
X0149528Y0277607D01*
X0159765Y0284765D02*
X0222757Y0347757D01*
X0256221Y0347757D01*
X0263111Y0354646D01*
X0263308Y0354922D01*
X0212914Y0378269D02*
X0274922Y0440276D01*
X0274017Y0441221D01*
X0441261Y0214883D02*
X0443229Y0212914D01*
X0443583Y0212599D01*
D19*
X0436859Y0228662D02*
X0443229Y0232599D01*
X0443583Y0232599D01*
X0443229Y0242442D02*
X0443583Y0242599D01*
X0443583Y0252599D02*
X0444213Y0253269D01*
X0449135Y0253269D01*
X0449135Y0283780D01*
X0445198Y0287717D01*
X0438308Y0287717D01*
X0443229Y0263111D02*
X0443583Y0262599D01*
X0375316Y0396969D02*
X0365473Y0396969D01*
X0328072Y0434371D01*
X0326103Y0399922D02*
X0326103Y0398938D01*
M02*
