%
M48
M72
T01C0.0150
T02C0.0236
T03C0.0394
T04C0.0400
T05C0.0433
T06C0.0551
%
T01
X13910Y13221
X18732Y8398
X17453Y19323
X17748Y20996
X17945Y21390
X17158Y21685
X18732Y21980
X15976Y24638
X15189Y23850
X18437Y25228
X18142Y25917
X18536Y26016
X19815Y25721
X20110Y26508
X20406Y28280
X21488Y28969
X21980Y27886
X19618Y29756
X15976Y28476
X20799Y24736
X31331Y29756
X35760Y28083
X34776Y24343
X35760Y23752
X37335Y24539
X38910Y24146
X41370Y23654
X38024Y15484
X38024Y12138
X32906Y8988
X31429Y12433
X36941Y34087
X33693Y42551
X21784Y36252
X18437Y42158
T02
X16661Y30711
X15126Y27719
X16080Y26800
X16658Y26417
X14461Y26223
X14461Y25020
X13210Y25275
X13198Y24706
X13223Y24161
X13210Y23605
X13000Y23097
X12418Y23110
X11861Y23073
X11317Y23097
X10772Y23122
X10203Y23122
X9634Y23197
X9634Y23753
X9609Y24236
X9609Y24793
X9894Y26673
X10463Y26686
X11007Y26673
X11552Y26723
X12134Y26723
X12703Y26735
X13260Y26686
X13210Y26141
X16107Y22850
X16984Y22899
X22800Y23387
X23435Y23358
X24776Y23393
X26197Y23310
X24011Y25009
X23518Y25649
X24654Y27293
X25571Y27247
X27340Y26280
X41622Y19101
T03
X26721Y19971
X25721Y19971
T04
X25295Y8244
X24295Y8244
X23295Y8244
X26295Y8244
X27295Y8244
X28295Y8244
X26331Y35492
X26331Y36492
X25331Y36492
X25331Y35492
X24331Y35492
X24331Y36492
X24402Y44122
X25402Y44122
X26402Y44122
X27402Y44122
X28402Y44122
X23402Y44122
T05
X44358Y30260
X44358Y29260
X44358Y28260
X44358Y27260
X44358Y26260
X44358Y25260
X44358Y24260
X44358Y23260
X44358Y22260
X44358Y21260
X26224Y16976
X26224Y15976
T06
X28614Y20976
X22827Y20976
X22827Y30465
X28614Y30465
M30
