G75*
%MOIN*%
%OFA0B0*%
%FSLAX25Y25*%
%IPPOS*%
%LPD*%
%AMOC8*
5,1,8,0,0,1.08239X$1,22.5*
%
%ADD10C,0.05937*%
%ADD11R,0.07400X0.07400*%
%ADD12OC8,0.07400*%
%ADD13R,0.06496X0.06496*%
%ADD14C,0.06496*%
%ADD15C,0.07400*%
%ADD16C,0.04378*%
%ADD17C,0.00600*%
%ADD18C,0.04500*%
%ADD19C,0.01800*%
D10*
X0257206Y0196737D02*
X0257206Y0202674D01*
X0267206Y0202674D02*
X0267206Y0196737D01*
D11*
X0243308Y0354922D03*
D12*
X0253308Y0354922D03*
X0263308Y0354922D03*
X0263308Y0364922D03*
X0253308Y0364922D03*
X0243308Y0364922D03*
D13*
X0261709Y0176717D03*
X0443583Y0212599D03*
D14*
X0443583Y0222599D03*
X0443583Y0232599D03*
X0443583Y0242599D03*
X0443583Y0252599D03*
X0443583Y0262599D03*
X0443583Y0272599D03*
X0443583Y0282599D03*
X0443583Y0292599D03*
X0443583Y0302599D03*
X0261709Y0166717D03*
D15*
X0262954Y0082442D03*
X0272954Y0082442D03*
X0282954Y0082442D03*
X0252954Y0082442D03*
X0242954Y0082442D03*
X0232954Y0082442D03*
X0234017Y0441221D03*
X0244017Y0441221D03*
X0254017Y0441221D03*
X0264017Y0441221D03*
X0274017Y0441221D03*
X0284017Y0441221D03*
D16*
X0176091Y0317237D03*
X0147261Y0281544D03*
X0164505Y0265489D03*
X0159694Y0250906D03*
X0131859Y0251623D03*
X0132217Y0243391D03*
X0132217Y0235083D03*
X0123946Y0234009D03*
X0115741Y0234009D03*
X0107686Y0234233D03*
X0099509Y0234343D03*
X0125627Y0267300D03*
X0132576Y0262646D03*
X0117036Y0268446D03*
X0108387Y0268532D03*
X0099863Y0268387D03*
X0149052Y0215091D03*
X0199493Y0275595D03*
X0215351Y0291753D03*
X0216194Y0279324D03*
X0232398Y0294186D03*
X0248457Y0276292D03*
X0257162Y0275143D03*
X0273650Y0259981D03*
X0276749Y0251048D03*
X0252076Y0226902D03*
X0239741Y0226383D03*
X0238950Y0218253D03*
X0239024Y0259068D03*
D17*
X0240473Y0243426D02*
X0443229Y0243426D01*
X0443583Y0242599D01*
X0437324Y0238505D02*
X0229646Y0238505D01*
X0227678Y0234568D02*
X0218820Y0243426D01*
X0227678Y0234568D02*
X0356615Y0234568D01*
X0357599Y0233583D01*
X0363505Y0229646D02*
X0342835Y0229646D01*
X0339883Y0232599D01*
X0170591Y0232599D01*
X0158780Y0244410D01*
X0159694Y0250906D02*
X0159694Y0269288D01*
X0147438Y0281544D01*
X0147261Y0281544D01*
X0145001Y0298544D02*
X0182402Y0335946D01*
X0182402Y0347757D01*
X0256221Y0347757D01*
X0263111Y0354646D01*
X0263308Y0354922D01*
X0264095Y0355631D01*
X0265080Y0355631D01*
X0288702Y0379253D01*
X0292639Y0377284D02*
X0292639Y0436339D01*
X0268032Y0436339D01*
X0264095Y0440276D01*
X0264017Y0441221D01*
X0292639Y0377284D02*
X0255237Y0339883D01*
X0184371Y0339883D01*
X0184371Y0268032D01*
X0184371Y0260158D02*
X0194213Y0270001D01*
X0346772Y0270001D01*
X0356615Y0279843D01*
X0392048Y0287717D02*
X0428465Y0287717D01*
X0443583Y0272599D01*
X0443229Y0267048D02*
X0445198Y0267048D01*
X0448150Y0264095D01*
X0448150Y0253269D01*
X0444213Y0253269D01*
X0443583Y0252599D01*
X0443583Y0262599D02*
X0443229Y0263111D01*
X0422560Y0283780D01*
X0202087Y0283780D01*
X0191261Y0294607D01*
X0200119Y0290670D02*
X0205040Y0285749D01*
X0424528Y0285749D01*
X0443229Y0267048D01*
X0437324Y0238505D02*
X0443229Y0232599D01*
X0443583Y0232599D01*
X0443583Y0222599D02*
X0443229Y0221772D01*
X0240143Y0221772D01*
X0239741Y0222174D01*
X0239741Y0226383D01*
X0240143Y0221772D02*
X0177481Y0221772D01*
X0170591Y0214883D02*
X0238950Y0214883D01*
X0238950Y0218253D01*
X0238950Y0214883D02*
X0441261Y0214883D01*
X0443229Y0212914D01*
X0443583Y0212599D01*
X0392048Y0287717D02*
X0308387Y0371379D01*
X0253308Y0364922D02*
X0253269Y0364489D01*
X0248347Y0359568D01*
X0137127Y0359568D01*
X0137127Y0299528D01*
X0176497Y0260158D01*
X0176497Y0257206D01*
X0183387Y0255237D02*
X0139095Y0299528D01*
X0139095Y0349725D01*
X0248347Y0349725D01*
X0253269Y0354646D01*
X0253308Y0354922D01*
X0232398Y0294186D02*
X0229965Y0291753D01*
X0215351Y0291753D01*
X0216194Y0279324D02*
X0212465Y0275595D01*
X0199493Y0275595D01*
X0203072Y0260158D02*
X0217835Y0260158D01*
X0217835Y0266064D02*
X0240473Y0243426D01*
X0203072Y0260158D02*
X0197166Y0254253D01*
X0184371Y0255237D02*
X0184371Y0248347D01*
X0184371Y0255237D02*
X0183387Y0255237D01*
X0146969Y0230631D02*
X0336930Y0230631D01*
X0338898Y0228662D01*
X0363505Y0229646D02*
X0368426Y0234568D01*
X0262127Y0103662D02*
X0262127Y0082993D01*
X0262954Y0082442D01*
X0272954Y0082442D02*
X0272954Y0094804D01*
X0207993Y0159765D01*
X0207993Y0197166D01*
X0203072Y0162717D02*
X0262127Y0103662D01*
D18*
X0138532Y0144052D03*
X0163702Y0098741D03*
X0187324Y0084961D03*
X0203072Y0162717D03*
X0207993Y0197166D03*
X0177481Y0221772D03*
X0170591Y0214883D03*
X0173544Y0201103D03*
X0146969Y0230631D03*
X0158780Y0244410D03*
X0168623Y0255237D03*
X0176497Y0257206D03*
X0184371Y0260158D03*
X0184371Y0268032D03*
X0197166Y0254253D03*
X0184371Y0248347D03*
X0201103Y0238505D03*
X0218820Y0243426D03*
X0229646Y0238505D03*
X0217835Y0260158D03*
X0217835Y0266064D03*
X0200119Y0290670D03*
X0191261Y0294607D03*
X0145001Y0298544D03*
X0164686Y0375316D03*
X0154843Y0376300D03*
X0184371Y0421576D03*
X0165670Y0423544D03*
X0288702Y0379253D03*
X0308387Y0371379D03*
X0336930Y0424528D03*
X0342835Y0424528D03*
X0356615Y0279843D03*
X0357599Y0233583D03*
X0368426Y0234568D03*
X0338898Y0228662D03*
X0402875Y0158780D03*
X0394017Y0149922D03*
X0343820Y0091851D03*
X0244410Y0168623D03*
D19*
X0394017Y0149922D02*
X0402875Y0158780D01*
X0164686Y0375316D02*
X0155828Y0375316D01*
X0154843Y0376300D01*
M02*
