G75*
%MOIN*%
%OFA0B0*%
%FSLAX25Y25*%
%IPPOS*%
%LPD*%
%AMOC8*
5,1,8,0,0,1.08239X$1,22.5*
%
%ADD10C,0.05937*%
%ADD11R,0.07400X0.07400*%
%ADD12OC8,0.07400*%
%ADD13R,0.06496X0.06496*%
%ADD14C,0.06496*%
%ADD15C,0.07400*%
%ADD16C,0.04378*%
%ADD17C,0.00600*%
%ADD18C,0.04500*%
%ADD19C,0.01800*%
D10*
X0257206Y0196737D02*
X0257206Y0202674D01*
X0267206Y0202674D02*
X0267206Y0196737D01*
D11*
X0243308Y0354922D03*
D12*
X0253308Y0354922D03*
X0263308Y0354922D03*
X0263308Y0364922D03*
X0253308Y0364922D03*
X0243308Y0364922D03*
D13*
X0261709Y0176717D03*
X0443583Y0212599D03*
D14*
X0443583Y0222599D03*
X0443583Y0232599D03*
X0443583Y0242599D03*
X0443583Y0252599D03*
X0443583Y0262599D03*
X0443583Y0272599D03*
X0443583Y0282599D03*
X0443583Y0292599D03*
X0443583Y0302599D03*
X0261709Y0166717D03*
D15*
X0262954Y0082442D03*
X0272954Y0082442D03*
X0282954Y0082442D03*
X0252954Y0082442D03*
X0242954Y0082442D03*
X0232954Y0082442D03*
X0234017Y0441221D03*
X0244017Y0441221D03*
X0254017Y0441221D03*
X0264017Y0441221D03*
X0274017Y0441221D03*
X0284017Y0441221D03*
D16*
X0146028Y0326879D03*
X0123020Y0269765D03*
X0115241Y0269942D03*
X0107520Y0270001D03*
X0099548Y0270048D03*
X0127863Y0262761D03*
X0128339Y0250993D03*
X0128095Y0242249D03*
X0124985Y0234355D03*
X0115587Y0233942D03*
X0107591Y0233942D03*
X0099418Y0233706D03*
X0159835Y0250355D03*
X0225528Y0255477D03*
X0237879Y0251481D03*
X0249509Y0241363D03*
X0263044Y0241631D03*
X0273761Y0259792D03*
X0252753Y0287580D03*
X0235493Y0273221D03*
D17*
X0227678Y0270001D02*
X0216851Y0259174D01*
X0213898Y0264095D02*
X0207009Y0264095D01*
X0197166Y0254253D01*
X0196182Y0266064D02*
X0209961Y0266064D01*
X0217835Y0273938D01*
X0227678Y0270001D02*
X0346772Y0270001D01*
X0354646Y0277875D01*
X0368426Y0281812D02*
X0396969Y0253269D01*
X0443229Y0253269D01*
X0443583Y0252599D01*
X0444213Y0243426D02*
X0443583Y0242599D01*
X0444213Y0243426D02*
X0448150Y0243426D01*
X0448150Y0264095D01*
X0445198Y0267048D01*
X0412717Y0267048D01*
X0388111Y0291654D01*
X0201103Y0291654D01*
X0195198Y0285749D01*
X0194213Y0281812D02*
X0368426Y0281812D01*
X0368426Y0283780D02*
X0210946Y0283780D01*
X0207993Y0286733D01*
X0194213Y0281812D02*
X0188308Y0287717D01*
X0184371Y0299528D02*
X0184371Y0270001D01*
X0180434Y0258190D02*
X0180434Y0309371D01*
X0223741Y0309371D01*
X0229646Y0299528D02*
X0282796Y0352678D01*
X0282796Y0436339D01*
X0278859Y0436339D01*
X0274922Y0440276D01*
X0274017Y0441221D01*
X0263111Y0411733D02*
X0263111Y0365473D01*
X0263308Y0364922D01*
X0263308Y0354922D02*
X0263111Y0354646D01*
X0258190Y0349725D01*
X0169607Y0349725D01*
X0146969Y0327087D01*
X0146028Y0326879D01*
X0144107Y0324957D01*
X0144107Y0285040D01*
X0159835Y0269312D01*
X0159835Y0250355D01*
X0158780Y0244410D02*
X0158780Y0236536D01*
X0169607Y0225709D01*
X0335946Y0225709D01*
X0337914Y0227678D01*
X0359568Y0231615D02*
X0227678Y0231615D01*
X0223741Y0227678D01*
X0217835Y0227678D01*
X0215867Y0229646D01*
X0173544Y0229646D01*
X0186339Y0233583D02*
X0170591Y0249331D01*
X0170591Y0258190D01*
X0174528Y0250316D02*
X0221772Y0250316D01*
X0213898Y0237520D02*
X0264095Y0237520D01*
X0266064Y0239489D01*
X0436339Y0239489D01*
X0443229Y0232599D01*
X0443583Y0232599D01*
X0434371Y0231615D02*
X0443229Y0222757D01*
X0443583Y0222599D01*
X0443229Y0212914D02*
X0443583Y0212599D01*
X0443229Y0212914D02*
X0426497Y0229646D01*
X0361536Y0229646D01*
X0359568Y0231615D01*
X0359568Y0233583D02*
X0361536Y0231615D01*
X0434371Y0231615D01*
X0443583Y0262599D02*
X0443229Y0263111D01*
X0441261Y0265080D01*
X0387127Y0265080D01*
X0368426Y0283780D01*
X0411733Y0272954D02*
X0443229Y0272954D01*
X0443583Y0272599D01*
X0367442Y0222757D02*
X0366457Y0221772D01*
X0148938Y0221772D01*
X0184371Y0254253D02*
X0196182Y0266064D01*
X0186339Y0233583D02*
X0214883Y0233583D01*
X0216851Y0235552D01*
X0362520Y0235552D01*
X0359568Y0233583D02*
X0224725Y0233583D01*
X0222757Y0231615D01*
X0229646Y0299528D02*
X0184371Y0299528D01*
X0263111Y0411733D02*
X0234568Y0440276D01*
X0234017Y0441221D01*
D18*
X0163702Y0098741D03*
X0187324Y0084961D03*
X0181418Y0132206D03*
X0163702Y0140080D03*
X0181418Y0178465D03*
X0222757Y0168623D03*
X0215867Y0229646D03*
X0222757Y0231615D03*
X0213898Y0237520D03*
X0201103Y0238505D03*
X0197166Y0254253D03*
X0184371Y0254253D03*
X0180434Y0258190D03*
X0170591Y0258190D03*
X0174528Y0250316D03*
X0158780Y0244410D03*
X0168623Y0231615D03*
X0173544Y0229646D03*
X0148938Y0221772D03*
X0166654Y0270001D03*
X0176497Y0282796D03*
X0188308Y0287717D03*
X0195198Y0285749D03*
X0207993Y0286733D03*
X0217835Y0273938D03*
X0213898Y0264095D03*
X0216851Y0259174D03*
X0221772Y0250316D03*
X0201103Y0270001D03*
X0184371Y0270001D03*
X0223741Y0309371D03*
X0168623Y0339883D03*
X0158780Y0371379D03*
X0165670Y0374331D03*
X0184371Y0421576D03*
X0165670Y0423544D03*
X0336930Y0424528D03*
X0342835Y0424528D03*
X0354646Y0277875D03*
X0362520Y0235552D03*
X0367442Y0222757D03*
X0337914Y0227678D03*
X0337914Y0174528D03*
X0394017Y0149922D03*
X0402875Y0158780D03*
X0343820Y0091851D03*
X0411733Y0272954D03*
D19*
X0402875Y0158780D02*
X0394017Y0149922D01*
X0257206Y0199135D02*
X0257206Y0199706D01*
X0257206Y0199135D02*
X0226694Y0168623D01*
X0222757Y0168623D01*
X0181418Y0132206D02*
X0171576Y0132206D01*
X0163702Y0140080D01*
X0158780Y0371379D02*
X0161733Y0374331D01*
X0165670Y0374331D01*
M02*
